<?xml version="1.0" standalone="no"?>
<!DOCTYPE svg PUBLIC "-//W3C//DTD SVG 1.1//EN" "http://www.w3.org/Graphics/SVG/1.1/DTD/svg11.dtd" >
<svg xmlns="http://www.w3.org/2000/svg" xmlns:xlink="http://www.w3.org/1999/xlink" version="1.1">
<metadata>
Created by FontForge 20170731 at Tue Nov 24 21:52:10 1992
 By Aleksey,,,
Copyright 1990-1993 Bitstream Inc.  All rights reserved.
</metadata>
<defs>
<font id="FuturaBT-ExtraBlackCondItalic" horiz-adv-x="1024" >
  <font-face 
    font-family="Futura XBlkCnIt BT"
    font-weight="400"
    font-style="italic"
    font-stretch="condensed"
    units-per-em="2048"
    panose-1="2 11 8 6 2 2 4 9 2 4"
    ascent="1638"
    descent="-410"
    x-height="1024"
    cap-height="1460"
    bbox="-342 -483 2089 1974"
    underline-thickness="246"
    underline-position="-590"
    slope="-12"
    unicode-range="U+0020-F002"
  />
<missing-glyph horiz-adv-x="1229" 
d="M102 -362v1806h1024v-1806h-1024zM217 -248h795v1577h-795v-1577z" />
    <glyph glyph-name=".notdef" horiz-adv-x="1229" 
d="M102 -362v1806h1024v-1806h-1024zM217 -248h795v1577h-795v-1577z" />
    <glyph glyph-name=".null" horiz-adv-x="0" 
 />
    <glyph glyph-name="nonmarkingreturn" horiz-adv-x="502" 
 />
    <glyph glyph-name="space" unicode=" " horiz-adv-x="502" 
 />
    <glyph glyph-name="exclam" unicode="!" horiz-adv-x="606" 
d="M233 1536h394l-178 -985h-347zM424 236q0 -111 -68 -186t-170 -75q-79 0 -126.5 50.5t-47.5 134.5q0 111 68 186.5t170 75.5q78 0 126 -51t48 -135z" />
    <glyph glyph-name="quotedbl" unicode="&#x22;" horiz-adv-x="713" 
d="M416 1438h223v-561h-223v561zM76 1438h219v-561h-219v561z" />
    <glyph glyph-name="numbersign" unicode="#" horiz-adv-x="1575" 
d="M707 842l-82 -232h245l82 232h-245zM684 1466h250l-139 -393h235l141 393h250l-139 -393h270l-86 -231h-268l-80 -230h277l-84 -231h-275l-141 -393h-250l139 393h-235l-141 -393h-250l139 393h-274l86 231h270l82 230h-283l86 231h279z" />
    <glyph glyph-name="dollar" unicode="$" horiz-adv-x="1006" 
d="M66 436q72 -52 154.5 -82t150.5 -30q60 0 93.5 28.5t33.5 79.5q0 78 -122 179q-17 14 -26 22q-115 95 -168 188t-53 201q0 163 98.5 283.5t257.5 148.5l35 211h248l-31 -205q95 -16 161.5 -39t117.5 -57l-125 -307q-68 47 -125 68.5t-113 21.5q-59 0 -95 -27t-36 -71
q0 -57 117 -155q27 -22 41 -34q108 -92 154.5 -181.5t46.5 -203.5q0 -178 -89.5 -300t-250.5 -165l-39 -239h-250l35 217q-116 8 -209.5 37t-140.5 69z" />
    <glyph glyph-name="percent" unicode="%" horiz-adv-x="1503" 
d="M98 1004q0 218 100.5 347.5t268.5 129.5q127 0 197.5 -78.5t70.5 -218.5q0 -223 -95.5 -351t-260.5 -128q-134 0 -207.5 78t-73.5 221zM1116 569q-47 0 -78.5 -100t-31.5 -242q0 -28 12 -43.5t35 -15.5q25 0 41.5 19t29.5 64q16 54 26.5 126t10.5 123q0 35 -11 52t-34 17
zM764 274q0 219 100 348.5t269 129.5q127 0 198.5 -79t71.5 -218q0 -222 -97 -352t-262 -130q-133 0 -206.5 79t-73.5 222zM1122 1489h189l-930 -1518h-188zM451 1300q-47 0 -78 -99t-31 -243q0 -29 12 -45t33 -16q47 0 79 99t32 235q0 35 -12 52t-35 17z" />
    <glyph glyph-name="ampersand" unicode="&#x26;" horiz-adv-x="1284" 
d="M475 573q-52 -44 -77 -82.5t-25 -74.5q0 -43 26.5 -71t67.5 -28q26 0 55.5 12.5t63.5 37.5zM674 1018q45 36 71.5 76t26.5 71q0 36 -18.5 54t-55.5 18q-39 0 -62.5 -22.5t-23.5 -59.5q0 -28 14 -59.5t48 -77.5zM780 0l-32 78q-98 -56 -188.5 -82.5t-184.5 -26.5
q-178 0 -273.5 91t-95.5 259q0 145 83 274t255 253q-36 78 -54 145t-18 123q0 174 114 272.5t316 98.5q161 0 258 -86t97 -228q0 -99 -60 -184.5t-198 -181.5l112 -219q38 29 71 63.5t65 75.5l139 -283q-44 -47 -75 -78.5t-60 -56.5l155 -307h-426z" />
    <glyph glyph-name="quotesingle" unicode="'" horiz-adv-x="371" 
d="M76 1438h219v-561h-219v561z" />
    <glyph glyph-name="parenleft" unicode="(" horiz-adv-x="678" 
d="M254 -338q-106 162 -159.5 346t-53.5 389q0 312 133.5 619t382.5 565l209 -151q-198 -238 -302 -493t-104 -505q0 -170 37 -322t113 -296z" />
    <glyph glyph-name="parenright" unicode=")" horiz-adv-x="678" 
d="M86 -338l-209 152q199 238 303.5 492.5t104.5 502.5q0 170 -37.5 323.5t-114.5 297.5l258 151q105 -161 158 -342t53 -377q0 -325 -131.5 -630.5t-384.5 -569.5z" />
    <glyph glyph-name="asterisk" unicode="*" horiz-adv-x="948" 
d="M436 752v209l-180 -103l-84 143l180 105l-180 104l84 146l178 -105v209h170v-209l178 105l84 -146l-180 -104l180 -105l-84 -143l-178 103v-209h-168z" />
    <glyph glyph-name="plus" unicode="+" horiz-adv-x="1706" 
d="M735 1221h238v-494h479v-231h-479v-496h-238v496h-481v231h481v494z" />
    <glyph glyph-name="comma" unicode="," horiz-adv-x="506" 
d="M-186 -340l213 719h383l-381 -719h-215z" />
    <glyph glyph-name="hyphen" unicode="-" horiz-adv-x="721" 
d="M12 346l54 332h573l-53 -332h-574z" />
    <glyph glyph-name="period" unicode="." horiz-adv-x="502" 
d="M383 240q0 -112 -70 -189.5t-174 -77.5q-79 0 -127.5 52t-48.5 139q0 115 68.5 191.5t173.5 76.5q80 0 129 -52.5t49 -139.5z" />
    <glyph glyph-name="slash" unicode="/" horiz-adv-x="739" 
d="M-172 -190l813 1679h176l-815 -1679h-174z" />
    <glyph glyph-name="zero" unicode="0" horiz-adv-x="1006" 
d="M371 416q0 -55 13.5 -82t41.5 -27q32 0 60 44t57 143q41 141 65.5 292.5t24.5 249.5q0 55 -14.5 83t-43.5 28q-33 0 -59.5 -43t-54.5 -143q-42 -146 -66 -296t-24 -249zM403 -33q-185 0 -285 132t-100 378q0 233 63 455t165 358q69 94 161.5 144.5t192.5 50.5
q187 0 286 -133t99 -383q0 -232 -62 -449.5t-167 -357.5q-68 -92 -161 -143.5t-192 -51.5z" />
    <glyph glyph-name="one" unicode="1" horiz-adv-x="1006" 
d="M217 0l176 1120h-133l53 340h516l-231 -1460h-381z" />
    <glyph glyph-name="two" unicode="2" horiz-adv-x="1006" 
d="M-125 0q394 461 564.5 717.5t170.5 382.5q0 42 -22 65t-64 23q-59 0 -94 -71t-35 -193h-342q11 278 140.5 421.5t369.5 143.5q210 0 326.5 -95.5t116.5 -267.5q0 -139 -103.5 -322.5t-339.5 -457.5h295l-55 -346h-928z" />
    <glyph glyph-name="three" unicode="3" horiz-adv-x="1006" 
d="M-29 451l357 -1q-3 -20 -4.5 -40t-1.5 -39q0 -43 18 -67.5t49 -24.5q57 0 91 53t34 143q0 67 -37 102t-108 35q-14 0 -28.5 -0.5t-31.5 -1.5l43 272q8 0 18.5 -0.5t30.5 -0.5q105 0 157 55t52 166q0 43 -18 65.5t-53 22.5q-40 0 -68.5 -35.5t-40.5 -99.5h-338
q11 208 139 321t353 113q187 0 297 -94t110 -250q0 -143 -81.5 -248.5t-215.5 -134.5q107 -14 168.5 -89t61.5 -192q0 -236 -140.5 -373t-386.5 -137q-208 0 -323 96t-115 269q0 26 3 55t9 60z" />
    <glyph glyph-name="four" unicode="4" horiz-adv-x="1006" 
d="M514 594l78 491l-283 -491h205zM422 0l45 297h-508l49 305l522 858h467l-137 -866h103l-48 -297h-102l-47 -297h-344z" />
    <glyph glyph-name="five" unicode="5" horiz-adv-x="1006" 
d="M2 408q75 -49 151 -74t148 -25q98 0 153.5 51.5t55.5 141.5q0 85 -60.5 128.5t-181.5 43.5q-47 0 -102.5 -10t-120.5 -31l258 827h727l-49 -321h-455l-67 -209q35 7 66 10.5t61 3.5q164 0 257 -95.5t93 -262.5q0 -276 -168.5 -445.5t-448.5 -169.5q-112 0 -215 24
t-213 75z" />
    <glyph glyph-name="six" unicode="6" horiz-adv-x="1006" 
d="M375 395q0 -49 16 -72.5t49 -23.5q55 0 91 83.5t36 211.5q0 49 -16.5 73.5t-48.5 24.5q-57 0 -92 -83t-35 -214zM539 948q34 16 67 23.5t68 7.5q136 0 210 -92t74 -262q0 -280 -152 -468t-382 -188q-200 0 -315 116.5t-115 317.5q0 215 132 483t388 574h434
q-116 -118 -218.5 -245.5t-190.5 -266.5z" />
    <glyph glyph-name="seven" unicode="7" horiz-adv-x="1006" 
d="M16 0l602 1120h-456l53 340h897l-643 -1460h-453z" />
    <glyph glyph-name="eight" unicode="8" horiz-adv-x="1006" 
d="M745 778q94 -43 141.5 -125t47.5 -200q0 -214 -141 -348t-365 -134q-209 0 -326.5 103t-117.5 284q0 150 78 262.5t212 157.5q-84 48 -127 122t-43 173q0 186 133 301t351 115q195 0 303 -95.5t108 -267.5q0 -117 -68.5 -211.5t-185.5 -136.5zM434 256q50 0 83.5 76
t33.5 192q0 49 -17.5 74t-52.5 25q-49 0 -82.5 -76.5t-33.5 -190.5q0 -49 17.5 -74.5t51.5 -25.5zM528 874q46 0 77.5 67t31.5 163q0 59 -17 84.5t-55 25.5q-46 0 -78 -67t-32 -164q0 -56 17.5 -82.5t55.5 -26.5z" />
    <glyph glyph-name="nine" unicode="9" horiz-adv-x="1006" 
d="M573 1161q-56 0 -91.5 -82t-35.5 -213q0 -49 16 -73.5t48 -24.5q57 0 93 83t36 212q0 47 -17 72.5t-49 25.5zM473 512q-37 -17 -70 -25t-65 -8q-135 0 -209 93t-74 264q0 278 152.5 466.5t382.5 188.5q199 0 313.5 -116t114.5 -318q0 -216 -132 -485t-386 -572h-437
q117 118 219 245.5t191 266.5z" />
    <glyph glyph-name="colon" unicode=":" horiz-adv-x="606" 
d="M524 831q0 -112 -69.5 -189t-173.5 -77q-80 0 -129.5 52.5t-49.5 138.5q0 114 70 191t174 77q80 0 129 -52.5t49 -140.5zM430 240q0 -112 -70 -189.5t-174 -77.5q-79 0 -127.5 52t-48.5 139q0 114 69 191t173 77q80 0 129 -52.5t49 -139.5z" />
    <glyph glyph-name="semicolon" unicode=";" horiz-adv-x="606" 
d="M-176 -340l213 719h383l-381 -719h-215zM545 831q0 -113 -69 -189.5t-173 -76.5q-80 0 -129 52.5t-49 138.5q0 114 69.5 191t174.5 77q79 0 127.5 -52.5t48.5 -140.5z" />
    <glyph glyph-name="less" unicode="&#x3c;" horiz-adv-x="1706" 
d="M1442 1214v-253l-854 -351l854 -348v-254l-1178 486v233z" />
    <glyph glyph-name="equal" unicode="=" horiz-adv-x="1706" 
d="M254 502h1198v-230h-1198v230zM254 950h1198v-231h-1198v231z" />
    <glyph glyph-name="greater" unicode="&#x3e;" horiz-adv-x="1706" 
d="M264 1214l1178 -487v-233l-1178 -486v254l854 348l-854 351v253z" />
    <glyph glyph-name="question" unicode="?" horiz-adv-x="1020" 
d="M285 553l59 365q21 -5 40.5 -7t39.5 -2q101 0 163 72.5t62 185.5q0 61 -20 91t-60 30q-46 0 -76.5 -44.5t-46.5 -137.5h-342q22 225 155 350t351 125q205 0 315.5 -101t110.5 -288q0 -171 -100.5 -297.5t-249.5 -138.5l-53 -203h-348zM600 233q0 -111 -67.5 -185.5
t-170.5 -74.5q-78 0 -126 51t-48 136q0 111 68 186.5t170 75.5q79 0 126.5 -51t47.5 -138z" />
    <glyph glyph-name="at" unicode="@" horiz-adv-x="2048" 
d="M1161 262q-56 -82 -126.5 -120t-168.5 -38q-163 0 -247 87.5t-84 257.5q0 241 141.5 404t349.5 163q77 0 134 -30.5t95 -92.5l52 92h206l-153 -610q0 -2 -1 -6q-3 -18 -3 -27q0 -30 16 -44.5t47 -14.5q137 0 240.5 143.5t103.5 335.5q0 239 -179.5 390t-467.5 151
q-148 0 -274 -36.5t-230 -109.5q-155 -110 -239 -274.5t-84 -356.5q0 -302 203 -481.5t544 -179.5q164 0 316 47.5t280 138.5l97 -135q-156 -117 -329 -175t-364 -58q-192 0 -354.5 49t-288.5 145q-157 122 -234 281.5t-77 361.5q0 169 53 320.5t156 277.5
q148 183 359.5 278t467.5 95q170 0 320 -46t260 -132q136 -107 203 -243t67 -306q0 -167 -65.5 -307t-190.5 -240q-69 -56 -154 -85.5t-176 -29.5q-106 0 -161 40t-60 120zM1198 696q-9 76 -50 116t-110 40q-103 0 -181.5 -121.5t-78.5 -286.5q0 -83 35 -128.5t98 -45.5
q84 0 148 59t88 158z" />
    <glyph glyph-name="A" unicode="A" horiz-adv-x="1053" 
d="M-158 0l549 1460h481l103 -1460h-412l2 215h-241l-64 -215h-418zM410 510h163l5 541z" />
    <glyph glyph-name="B" unicode="B" horiz-adv-x="1114" 
d="M-31 0l232 1460h377q274 0 394 -79t120 -257q0 -144 -78 -233t-234 -123q115 -32 177.5 -113t62.5 -196q0 -103 -43 -194.5t-121 -153.5q-72 -59 -169.5 -85t-260.5 -26h-457zM420 305q10 -2 21 -3t28 -1q72 0 109.5 48t37.5 138q0 69 -34 103.5t-103 34.5h-12zM510 897
q8 -1 17 -1.5t28 -0.5q68 0 107.5 38.5t39.5 104.5q0 56 -31.5 84.5t-92.5 28.5q-5 0 -14 -1t-13 -1z" />
    <glyph glyph-name="C" unicode="C" horiz-adv-x="887" 
d="M907 1085q-36 19 -68 27t-65 8q-143 0 -230 -136.5t-87 -362.5q0 -145 52.5 -215t160.5 -70q26 0 56.5 5.5t64.5 16.5l-62 -352q-42 -17 -91 -25t-112 -8q-247 0 -377.5 144t-130.5 418q0 429 198 690.5t525 261.5q60 0 117 -10.5t113 -30.5z" />
    <glyph glyph-name="D" unicode="D" horiz-adv-x="1114" 
d="M-31 0l232 1460h309q292 0 430.5 -136t138.5 -421q0 -220 -68.5 -424.5t-176.5 -314.5q-88 -89 -202 -126.5t-356 -37.5h-307zM437 360q4 -1 8.5 -1.5t13.5 -0.5q36 0 68.5 17t54.5 47q36 48 69 195.5t33 293.5q0 95 -30.5 139.5t-98.5 49.5z" />
    <glyph glyph-name="E" unicode="E" horiz-adv-x="864" 
d="M-33 0l232 1460h723l-56 -354h-315l-31 -186h285l-53 -342h-285l-33 -201h316l-60 -377h-723z" />
    <glyph glyph-name="F" unicode="F" horiz-adv-x="827" 
d="M-35 0l232 1460h723l-56 -354h-317l-33 -211h274l-53 -344h-276l-88 -551h-406z" />
    <glyph glyph-name="G" unicode="G" horiz-adv-x="1151" 
d="M600 844h522q-17 -444 -170 -658.5t-452 -214.5q-232 0 -353.5 142.5t-121.5 412.5q0 211 50.5 402t141.5 325q79 117 198 176.5t273 59.5q192 0 312.5 -89.5t152.5 -256.5l-375 -139q-16 69 -41.5 96.5t-70.5 27.5q-47 0 -82 -33t-60 -102q-34 -97 -60 -249.5
t-26 -262.5q0 -84 23.5 -118.5t79.5 -34.5q69 0 110.5 59t48.5 168h-139z" />
    <glyph glyph-name="H" unicode="H" horiz-adv-x="1151" 
d="M-31 0l232 1460h407l-84 -528h168l82 528h408l-232 -1460h-407l90 571h-166l-90 -571h-408z" />
    <glyph glyph-name="I" unicode="I" horiz-adv-x="602" 
d="M-18 0l231 1460h408l-232 -1460h-407z" />
    <glyph glyph-name="J" unicode="J" horiz-adv-x="758" 
d="M381 1460h407l-159 -1007q-42 -263 -144.5 -372.5t-298.5 -109.5q-72 0 -139 15.5t-137 48.5l55 350q45 -27 78.5 -39t60.5 -12q54 0 81.5 34.5t43.5 135.5z" />
    <glyph glyph-name="K" unicode="K" horiz-adv-x="1126" 
d="M-31 0l232 1460h407l-96 -610l322 610h415l-405 -674l184 -786h-442l-103 664l-106 -664h-408z" />
    <glyph glyph-name="L" unicode="L" horiz-adv-x="825" 
d="M-33 0l232 1460h409l-174 -1098h299l-57 -362h-709z" />
    <glyph glyph-name="M" unicode="M" horiz-adv-x="1503" 
d="M485 1083l-206 -1083h-351l336 1460h477l4 -770l248 770h475l-125 -1460h-352l133 1081l-346 -1081h-276z" />
    <glyph glyph-name="N" unicode="N" horiz-adv-x="1202" 
d="M-12 0l233 1460h377l131 -784l137 784h342l-229 -1460h-375l-139 756l-129 -756h-348z" />
    <glyph glyph-name="O" unicode="O" horiz-adv-x="1161" 
d="M430 487q0 -82 22 -119.5t70 -37.5q43 0 74.5 34t56.5 109q33 97 53.5 234.5t20.5 261.5q0 82 -21 120.5t-65 38.5q-47 0 -79.5 -33.5t-55.5 -107.5q-33 -101 -54.5 -240t-21.5 -260zM479 -29q-207 0 -333 150t-126 399q0 203 52.5 395t142.5 322q88 126 203.5 188
t263.5 62q211 0 335 -147.5t124 -401.5q0 -204 -52 -394t-143 -323q-85 -125 -201.5 -187.5t-265.5 -62.5z" />
    <glyph glyph-name="P" unicode="P" horiz-adv-x="1100" 
d="M557 1137l-51 -323q8 -2 17 -2.5t22 -0.5q87 0 130.5 52t43.5 157q0 58 -36 87.5t-105 29.5h-21zM-31 0l232 1460h350q293 0 423 -96.5t130 -312.5q0 -273 -154.5 -419.5t-441.5 -146.5q-9 0 -27.5 1t-27.5 1l-76 -487h-408z" />
    <glyph glyph-name="Q" unicode="Q" horiz-adv-x="1161" 
d="M508 -29q-229 0 -358.5 145.5t-129.5 403.5q0 203 52.5 394t142.5 323q88 126 203.5 188t263.5 62q211 0 335 -148t124 -403q0 -268 -83.5 -496.5t-219.5 -339.5l139 -170l-342 -172zM430 487q0 -82 22 -119.5t70 -37.5q43 0 74.5 34t56.5 109q33 97 53.5 234.5
t20.5 261.5q0 82 -21 120.5t-65 38.5q-47 0 -79.5 -33.5t-55.5 -107.5q-33 -101 -54.5 -240t-21.5 -260z" />
    <glyph glyph-name="R" unicode="R" horiz-adv-x="1104" 
d="M506 809h22q93 0 143 58.5t50 168.5q0 63 -32 93t-99 30q-4 0 -13.5 -1t-15.5 -1zM-31 0l232 1460h344q324 0 446.5 -85t122.5 -290q0 -179 -77.5 -294t-223.5 -152l180 -639h-432l-92 590l-92 -590h-408z" />
    <glyph glyph-name="S" unicode="S" horiz-adv-x="891" 
d="M-4 449q68 -57 143 -88t144 -31q61 0 97 33.5t36 91.5q0 50 -30 99.5t-116 131.5q-104 101 -143 178t-39 170q0 209 132.5 332t359.5 123q92 0 175 -20.5t169 -63.5l-58 -356q-66 46 -128.5 70t-119.5 24q-51 0 -80.5 -26.5t-29.5 -72.5q0 -62 113 -174l22 -22
q114 -112 150 -192t36 -185q0 -234 -144.5 -369t-395.5 -135q-107 0 -202.5 25.5t-160.5 70.5z" />
    <glyph glyph-name="T" unicode="T" horiz-adv-x="963" 
d="M557 0h-410l172 1090h-243l59 370h895l-59 -370h-242z" />
    <glyph glyph-name="U" unicode="U" horiz-adv-x="1151" 
d="M41 522l147 938h410l-156 -977q-2 -12 -3 -22t-1 -23q0 -37 21.5 -58.5t58.5 -21.5q48 0 75.5 31t37.5 94l155 977h408l-149 -937l-3 -15q-43 -266 -131 -371q-70 -84 -177.5 -126t-254.5 -42q-230 0 -341 96.5t-111 294.5q0 32 3 70t11 92z" />
    <glyph glyph-name="V" unicode="V" horiz-adv-x="1090" 
d="M102 1460h406l2 -954l303 954h406l-566 -1460h-448z" />
    <glyph glyph-name="W" unicode="W" horiz-adv-x="1565" 
d="M98 1460h406l-39 -864l268 864h328l-4 -864l233 864h406l-514 -1460h-375l4 913l-285 -913h-374z" />
    <glyph glyph-name="X" unicode="X" horiz-adv-x="1085" 
d="M324 739l-195 721h422l45 -387l168 387h424l-424 -721l221 -739h-432l-66 385l-186 -385h-432z" />
    <glyph glyph-name="Y" unicode="Y" horiz-adv-x="1038" 
d="M94 1460h430l41 -448l180 448h431l-476 -874l-92 -586h-407l94 586z" />
    <glyph glyph-name="Z" unicode="Z" horiz-adv-x="977" 
d="M-137 0l629 1094h-381l59 366h944l-622 -1085h389l-60 -375h-958z" />
    <glyph glyph-name="bracketleft" unicode="[" horiz-adv-x="678" 
d="M-2 -305l295 1864h455l-39 -246h-181l-217 -1374h181l-39 -244h-455z" />
    <glyph glyph-name="backslash" unicode="\" horiz-adv-x="739" 
d="M602 -190h-162l-280 1679h159z" />
    <glyph glyph-name="bracketright" unicode="]" horiz-adv-x="678" 
d="M352 -305h-454l39 244h180l217 1374h-180l39 246h454z" />
    <glyph glyph-name="asciicircum" unicode="^" horiz-adv-x="2048" 
d="M879 1462h288l465 -563h-264l-344 342l-346 -342h-264z" />
    <glyph glyph-name="underscore" unicode="_" 
d="M0 -244h1024v-239h-1024v239z" />
    <glyph glyph-name="grave" unicode="`" 
d="M539 1163l-123 312h262l20 -312h-159z" />
    <glyph glyph-name="a" unicode="a" horiz-adv-x="1057" 
d="M520 733q-56 0 -96.5 -94t-40.5 -225q0 -59 17.5 -90t50.5 -31q55 0 95 95t40 228q0 58 -16.5 87.5t-49.5 29.5zM504 0l16 113q-67 -74 -130.5 -108t-133.5 -34q-121 0 -188.5 94t-67.5 263q0 310 123 517.5t305 207.5q71 0 123.5 -33.5t95.5 -106.5l19 111h368
l-162 -1024h-368z" />
    <glyph glyph-name="b" unicode="b" horiz-adv-x="1049" 
d="M-47 0l252 1593h368l-106 -682q64 72 127.5 106t134.5 34q122 0 190 -93.5t68 -261.5q0 -310 -122.5 -516.5t-305.5 -206.5q-71 0 -123.5 33.5t-95.5 106.5l-18 -113h-369zM397 408q0 -61 18.5 -91t55.5 -30q57 0 95 94t38 235q0 61 -18 90t-56 29q-56 0 -94.5 -94
t-38.5 -233z" />
    <glyph glyph-name="c" unicode="c" horiz-adv-x="707" 
d="M549 8q-51 -18 -101 -27.5t-100 -9.5q-167 0 -259.5 102.5t-92.5 286.5q0 313 145 503t383 190q45 0 91 -10.5t92 -30.5l-50 -314q-21 14 -42 20.5t-46 6.5q-65 0 -109 -79.5t-44 -199.5q0 -70 23 -101.5t75 -31.5q20 0 42 6t44 17z" />
    <glyph glyph-name="d" unicode="d" horiz-adv-x="1049" 
d="M592 618q0 61 -18.5 91t-55.5 30q-55 0 -94 -94.5t-39 -234.5q0 -62 17.5 -90.5t54.5 -28.5q56 0 95.5 95t39.5 232zM504 0l16 113q-67 -74 -129 -107t-133 -33q-122 0 -190 93t-68 262q0 310 123 516.5t305 206.5q71 0 123.5 -33.5t95.5 -106.5l109 682h368l-252 -1593
h-368z" />
    <glyph glyph-name="e" unicode="e" horiz-adv-x="991" 
d="M874 358q-15 -183 -132 -286t-310 -103q-210 0 -320 115t-110 334q0 289 139 462t373 173q189 0 299.5 -100.5t110.5 -272.5q0 -44 -4 -95.5t-13 -115.5h-542q-6 -48 -8.5 -76t-2.5 -45q0 -53 24 -78.5t73 -25.5q52 0 80 28.5t32 85.5h311zM391 641h219q3 33 3.5 47.5
t0.5 26.5q0 49 -21.5 74.5t-64.5 25.5q-55 0 -87 -41t-50 -133z" />
    <glyph glyph-name="f" unicode="f" horiz-adv-x="635" 
d="M0 0l109 696h-111l51 328h113l31 199q33 206 123 297.5t257 91.5q53 0 101.5 -8.5t93.5 -24.5l-51 -309q-18 6 -29 8t-22 2q-45 0 -71.5 -31t-37.5 -96l-22 -129h143l-51 -328h-144l-110 -696h-373z" />
    <glyph glyph-name="g" unicode="g" horiz-adv-x="1010" 
d="M502 760q-54 0 -92.5 -90.5t-38.5 -216.5q0 -59 15.5 -87t47.5 -28q53 0 91 90t38 217q0 57 -15.5 86t-45.5 29zM627 1026h352l-156 -979q-39 -247 -145.5 -332.5t-351.5 -85.5q-198 0 -288.5 72t-90.5 227q0 6 1 18.5t1 18.5h311v-20q0 -31 22.5 -50.5t57.5 -19.5
q48 0 77 33.5t40 101.5l26 170q-49 -65 -110 -98t-131 -33q-116 0 -181 88.5t-65 245.5q0 289 115.5 479.5t287.5 190.5q68 0 116.5 -30t92.5 -99z" />
    <glyph glyph-name="h" unicode="h" horiz-adv-x="1006" 
d="M-47 0l252 1593h368l-108 -675q47 61 106 92.5t125 31.5q119 0 183.5 -60t64.5 -171q0 -26 -3 -59t-11 -84l-105 -668h-370l96 604q0 4 1 12q3 20 3 23q0 29 -16 45t-45 16q-30 0 -49.5 -25.5t-26.5 -74.5l-96 -600h-369z" />
    <glyph glyph-name="i" unicode="i" horiz-adv-x="537" 
d="M-33 0l162 1024h371l-162 -1024h-371zM573 1413q0 -109 -65.5 -181.5t-165.5 -72.5q-77 0 -123.5 50t-46.5 132q0 110 66 183t165 73q78 0 124 -50t46 -134z" />
    <glyph glyph-name="j" unicode="j" horiz-adv-x="537" 
d="M573 1413q0 -109 -65.5 -181.5t-165.5 -72.5q-77 0 -123.5 50t-46.5 132q0 110 66 183t165 73q78 0 124 -50t46 -134zM-90 -350l219 1374h371l-217 -1374h-373z" />
    <glyph glyph-name="k" unicode="k" horiz-adv-x="1012" 
d="M-45 0l254 1593h369l-158 -1003l239 434h379l-293 -451l168 -573h-399l-106 510l-82 -510h-371z" />
    <glyph glyph-name="l" unicode="l" horiz-adv-x="537" 
d="M-33 0l252 1593h371l-252 -1593h-371z" />
    <glyph glyph-name="m" unicode="m" horiz-adv-x="1507" 
d="M-47 0l162 1024h334l-17 -106q54 61 120.5 92.5t141.5 31.5q103 0 163.5 -45t70.5 -128q43 84 112 128.5t156 44.5q119 0 184.5 -60.5t65.5 -170.5q0 -32 -3 -67.5t-9 -75.5l-107 -668h-371l97 604q0 4 1 12q3 20 3 23q0 29 -16 45t-44 16q-30 0 -50 -25.5t-27 -74.5
l-95 -600h-370l96 604q0 4 1 12q3 20 3 23q0 28 -15 44.5t-40 16.5q-35 0 -54.5 -24t-27.5 -75l-96 -601h-369z" />
    <glyph glyph-name="n" unicode="n" horiz-adv-x="1006" 
d="M-47 0l162 1024h334l-17 -106q54 61 120.5 92.5t141.5 31.5q119 0 184.5 -60.5t65.5 -170.5q0 -26 -3 -59t-11 -84l-105 -668h-370l96 604q0 4 1 12q3 20 3 23q0 29 -16 45t-45 16q-30 0 -49.5 -25.5t-26.5 -74.5l-96 -600h-369z" />
    <glyph glyph-name="o" unicode="o" horiz-adv-x="999" 
d="M371 391q0 -56 16 -84t47 -28q53 0 93 104.5t40 247.5q0 57 -16 84.5t-49 27.5q-52 0 -91.5 -105.5t-39.5 -246.5zM442 -31q-215 0 -327.5 114t-112.5 333q0 290 134.5 463.5t361.5 173.5q215 0 326.5 -113.5t111.5 -333.5q0 -291 -133.5 -464t-360.5 -173z" />
    <glyph glyph-name="p" unicode="p" horiz-adv-x="1049" 
d="M-104 -350l217 1374h333l-16 -106q72 68 142 101.5t143 33.5q132 0 202 -95t70 -274q0 -301 -121.5 -507t-296.5 -206q-75 0 -136 25t-103 74l-66 -420h-368zM397 408q0 -61 18.5 -91t55.5 -30q57 0 95 94t38 235q0 61 -18 90t-56 29q-56 0 -94.5 -94t-38.5 -233z" />
    <glyph glyph-name="q" unicode="q" horiz-adv-x="1049" 
d="M817 -352h-368l71 463q-68 -75 -131 -108.5t-133 -33.5q-122 0 -189 93.5t-67 263.5q0 313 122.5 520t305.5 207q70 0 122.5 -34t96.5 -108l19 113h368zM383 408q0 -61 18.5 -91t55.5 -30q56 0 94.5 94t38.5 235q0 62 -17.5 90.5t-54.5 28.5q-56 0 -95.5 -94.5
t-39.5 -232.5z" />
    <glyph glyph-name="r" unicode="r" horiz-adv-x="717" 
d="M-49 0l162 1024h350l-23 -143q62 79 138 121.5t167 50.5l-57 -361h-8q-136 0 -199 -51t-84 -184l-71 -457h-375z" />
    <glyph glyph-name="s" unicode="s" horiz-adv-x="801" 
d="M49 360q59 -54 116 -82t107 -28q37 0 58.5 16.5t21.5 44.5q0 46 -87 100q-18 11 -27 17q-103 67 -147 131t-44 148q0 153 107 249.5t280 96.5q76 0 152 -19t141 -55l-63 -272q-53 41 -98.5 61t-86.5 20q-37 0 -59.5 -17t-22.5 -44q0 -33 61 -75q23 -16 35 -25
q130 -96 166.5 -158t36.5 -145q0 -158 -109.5 -254.5t-291.5 -96.5q-90 0 -181.5 28.5t-170.5 80.5z" />
    <glyph glyph-name="t" unicode="t" horiz-adv-x="639" 
d="M14 0l111 700h-125l51 324h125l47 301h373l-47 -301h133l-51 -324h-133l-113 -700h-371z" />
    <glyph glyph-name="u" unicode="u" horiz-adv-x="1008" 
d="M106 1024h371l-102 -649q-1 -3 -1.5 -7t-0.5 -12q0 -28 16 -43.5t45 -15.5q33 0 56.5 21t29.5 57l103 649h370l-98 -614q-34 -219 -162.5 -329t-349.5 -110q-181 0 -283 82.5t-102 227.5q0 29 3 61t9 68z" />
    <glyph glyph-name="v" unicode="v" horiz-adv-x="934" 
d="M25 1024h368l21 -625l219 625h368l-452 -1024h-395z" />
    <glyph glyph-name="w" unicode="w" horiz-adv-x="1341" 
d="M33 1024h342v-633l190 633h303l-10 -633l201 633h342l-416 -1024h-330l-6 600l-196 -600h-330z" />
    <glyph glyph-name="x" unicode="x" horiz-adv-x="901" 
d="M223 537l-186 487h360l64 -233l135 233h360l-340 -487l203 -537h-360l-82 264l-166 -264h-361z" />
    <glyph glyph-name="y" unicode="y" horiz-adv-x="934" 
d="M-23 -350l187 370l-150 1004h385l23 -559l217 559h375l-686 -1374h-351z" />
    <glyph glyph-name="z" unicode="z" horiz-adv-x="864" 
d="M-145 0l450 700h-264l51 324h801l-436 -686h299l-54 -338h-847z" />
    <glyph glyph-name="braceleft" unicode="{" 
d="M893 1477v-242q-7 0 -21 1t-20 1q-98 0 -132 -35.5t-34 -146.5v-240q0 -140 -46 -200t-165 -85q120 -24 165.5 -82.5t45.5 -199.5v-242q0 -110 33.5 -145t130.5 -35q7 0 21.5 1t21.5 1v-242q-15 0 -42 -1t-40 -1q-108 0 -179.5 12t-119.5 37q-59 32 -82.5 88.5
t-23.5 192.5v256q0 133 -49.5 187.5t-168.5 54.5q-4 0 -17 -1t-19 -1v241q6 0 18 -1t18 -1q118 0 168 55.5t50 188.5v254q0 136 24 193.5t82 89.5q48 25 120.5 37t180.5 12q12 0 38.5 -1t41.5 -1z" />
    <glyph glyph-name="bar" unicode="|" 
d="M393 1565h240v-2048h-240v2048z" />
    <glyph glyph-name="braceright" unicode="}" 
d="M133 1477q15 0 41.5 1t38.5 1q108 0 180 -12t121 -37q58 -32 82.5 -89.5t24.5 -193.5v-254q0 -134 49 -189t168 -55q6 0 18 1t18 1v-241q-6 0 -18 1t-18 1q-119 0 -168 -55t-49 -187v-256q0 -137 -24.5 -194.5t-82.5 -88.5q-45 -24 -113.5 -35.5t-177.5 -11.5
q-14 0 -44 1t-46 1v242q9 0 23 -1t20 -1q97 0 130.5 34.5t33.5 145.5v242q0 140 46 199t165 83q-120 25 -165.5 84t-45.5 201v240q0 111 -33.5 146.5t-126.5 35.5q-7 0 -22.5 -1t-24.5 -1v242z" />
    <glyph glyph-name="asciitilde" unicode="~" horiz-adv-x="1706" 
d="M1530 819v-254q-101 -69 -194 -103t-183 -34q-45 0 -89 7.5t-83 21.5q-13 4 -38 13q-255 89 -382 89q-84 0 -175.5 -37.5t-207.5 -120.5v254q112 73 207.5 108.5t179.5 35.5q63 0 126.5 -12t169.5 -46q16 -5 51 -17q159 -56 247 -56q84 0 173.5 36t197.5 115z" />
    <glyph glyph-name="nonbreakingspace" unicode="&#xa0;" horiz-adv-x="1006" 
 />
    <glyph glyph-name="exclamdown" unicode="&#xa1;" horiz-adv-x="606" 
d="M385 0h-393l180 985h344zM600 1380q0 -110 -68 -185t-170 -75q-78 0 -126 51t-48 136q0 111 68 186.5t170 75.5q78 0 126 -52t48 -137z" />
    <glyph glyph-name="cent" unicode="&#xa2;" horiz-adv-x="1006" 
d="M707 231q-38 -20 -75.5 -31t-78.5 -14l-18 -127h-177l23 146q-112 41 -169.5 138.5t-57.5 246.5q0 248 113.5 440.5t281.5 231.5l20 133h176l-20 -121q37 -3 72.5 -13.5t66.5 -27.5l-49 -315q-19 12 -38 18t-40 6q-73 0 -120.5 -80t-47.5 -203q0 -62 26.5 -94.5
t76.5 -32.5q17 1 36.5 5.5t49.5 15.5z" />
    <glyph glyph-name="sterling" unicode="&#xa3;" horiz-adv-x="1006" 
d="M840 586h-203q-16 -81 -48.5 -141t-90.5 -113q43 -9 80.5 -14t64.5 -5q77 0 146.5 15t140.5 47l22 -301q-63 -43 -144.5 -64.5t-182.5 -21.5q-104 0 -244.5 31.5t-183.5 31.5q-44 0 -90.5 -16.5t-104.5 -52.5l-49 286q55 39 112.5 57.5t124.5 18.5q32 36 51 88.5
t19 104.5q0 18 -0.5 29t-1.5 19l-217 1l39 239h143q-17 50 -26 96t-9 91q0 210 149.5 343.5t385.5 133.5q130 0 234.5 -49.5t156.5 -134.5l-250 -228q-28 53 -65 79t-84 26q-60 0 -91.5 -33t-31.5 -94q0 -46 20 -122t25 -107l240 -1z" />
    <glyph glyph-name="currency" unicode="&#xa4;" horiz-adv-x="1241" 
d="M623 1145q-107 0 -184 -77t-77 -183q0 -108 76 -184t185 -76q107 0 183.5 76t76.5 184q0 106 -76.5 183t-183.5 77zM178 1444l203 -201q54 37 113.5 55.5t126.5 18.5q69 0 130 -18.5t113 -55.5l201 201l119 -117l-201 -205q35 -53 52.5 -112t17.5 -125t-17.5 -125.5
t-52.5 -112.5l201 -203l-119 -118l-201 202q-52 -37 -111.5 -55t-129.5 -18t-128.5 17.5t-113.5 55.5l-203 -202l-117 118l201 203q-36 54 -54 113t-18 125q0 67 18.5 126.5t53.5 110.5l-201 205z" />
    <glyph glyph-name="yen" unicode="&#xa5;" horiz-adv-x="1116" 
d="M262 0l94 586l-10 49h-328l19 117h280l-26 127h-234l19 116h186l-106 465h374l70 -520l217 520h375l-252 -465h184l-18 -116h-227l-70 -127h278l-18 -117h-328l-24 -49l-92 -586h-363z" />
    <glyph glyph-name="brokenbar" unicode="&#xa6;" 
d="M393 408h240v-758h-240v758zM393 1432h240v-758h-240v758z" />
    <glyph glyph-name="section" unicode="&#xa7;" horiz-adv-x="1057" 
d="M389 539q0 -54 22.5 -81.5t65.5 -27.5q64 0 102.5 61t38.5 162q0 39 -23.5 65.5t-57.5 26.5q-67 0 -107.5 -57.5t-40.5 -148.5zM334 864q-73 43 -110.5 107.5t-37.5 148.5q0 162 118.5 265.5t307.5 103.5q185 0 281 -85.5t96 -250.5q0 -7 -1 -20.5t-1 -20.5h-282
q0 12 1 27.5t1 19.5q0 52 -25 78.5t-74 26.5q-52 0 -84 -41.5t-32 -110.5q0 -87 184 -160q24 -9 37 -14q130 -52 190 -126t60 -181q0 -125 -78 -209t-217 -109q76 -40 114.5 -104.5t38.5 -153.5q0 -182 -124 -293.5t-330 -111.5q-186 0 -282.5 85.5t-96.5 250.5q0 7 1 20
t1 21h282q0 -7 -1 -23t-1 -24q0 -53 27.5 -79t83.5 -26q67 0 102 47t35 137q0 89 -165 159q-23 10 -35 15q-154 67 -211.5 137t-57.5 177q0 119 75.5 203t209.5 114z" />
    <glyph glyph-name="dieresis" unicode="&#xa8;" 
d="M637 1350q0 56 41 96.5t98 40.5t97 -40.5t40 -96.5q0 -58 -40 -99t-97 -41q-56 0 -97.5 41.5t-41.5 98.5zM307 1350q0 56 41 96.5t98 40.5t97.5 -40.5t40.5 -96.5q0 -58 -40.5 -99t-97.5 -41q-55 0 -97 41.5t-42 98.5z" />
    <glyph glyph-name="copyright" unicode="&#xa9;" horiz-adv-x="1706" 
d="M1221 891h-213q-7 67 -47.5 104t-108.5 37q-83 0 -129.5 -77t-46.5 -216q0 -140 47.5 -212t138.5 -72q67 0 106.5 40.5t45.5 114.5h215q-6 -143 -107.5 -230t-263.5 -87q-190 0 -301 117.5t-111 320.5q0 207 111 329t299 122q157 0 257 -80t108 -211zM854 1350
q-126 0 -235 -45.5t-195 -133.5q-88 -89 -135 -201t-47 -233q0 -119 47 -230.5t135 -199.5q87 -87 198 -133.5t232 -46.5t234 47t202 135q86 84 130 193t44 235q0 125 -45 235.5t-131 196.5q-88 89 -198.5 135t-235.5 46zM852 1485q154 0 289.5 -56t242.5 -163
q106 -106 160.5 -240.5t54.5 -288.5q0 -153 -54 -287t-159 -237q-109 -108 -247 -165.5t-287 -57.5q-148 0 -283.5 57t-242.5 164t-163.5 241.5t-56.5 284.5q0 148 57.5 285t164.5 246q105 106 238 161.5t286 55.5z" />
    <glyph glyph-name="ordfeminine" unicode="&#xaa;" horiz-adv-x="793" 
d="M391 1257q-42 0 -73 -66.5t-31 -158.5q0 -41 13 -62.5t38 -21.5q41 0 71.5 67t30.5 161q0 39 -12.5 60t-36.5 21zM379 743l12 80q-50 -52 -98 -76t-100 -24q-92 0 -142.5 65.5t-50.5 184.5q0 218 92 363t230 145q53 0 92 -23.5t71 -75.5l15 78h276l-121 -717h-276z" />
    <glyph glyph-name="guillemotleft" unicode="&#xab;" horiz-adv-x="862" 
d="M715 168l-191 -94l-180 448l318 428l161 -94l-266 -334zM397 168l-192 -94l-180 448l319 428l162 -94l-268 -334z" />
    <glyph glyph-name="logicalnot" unicode="&#xac;" horiz-adv-x="1706" 
d="M254 866h1198v-501h-229v274h-969v227z" />
    <glyph glyph-name="sfthyphen" unicode="&#xad;" horiz-adv-x="721" 
d="M12 346l54 332h573l-53 -332h-574z" />
    <glyph glyph-name="registered" unicode="&#xae;" horiz-adv-x="1706" 
d="M762 1022v-219h80q74 0 110.5 26.5t36.5 79.5q0 59 -38 86t-122 27h-67zM537 1163h329q174 0 264.5 -60t90.5 -177q0 -81 -46 -139t-128 -82l182 -361h-248l-154 326h-65v-326h-225v819zM854 1350q-124 0 -232 -44t-194 -128q-90 -90 -137 -203t-47 -238q0 -121 44 -229
t130 -195q87 -90 199 -138t235 -48q121 0 232.5 45.5t199.5 130.5t134 196.5t46 237.5q0 124 -44 233.5t-128 194.5q-89 91 -200.5 138t-237.5 47zM852 1485q156 0 294 -57.5t245 -167.5q101 -104 154.5 -238t53.5 -285q0 -155 -56.5 -291t-164.5 -239q-109 -105 -245 -161
t-281 -56q-151 0 -287 58t-243 169q-105 108 -160.5 241.5t-55.5 278.5q0 151 59 290t169 247q105 104 237 157.5t281 53.5z" />
    <glyph glyph-name="macron" unicode="&#xaf;" 
d="M338 1253l29 191h516l-31 -191h-514z" />
    <glyph glyph-name="degree" unicode="&#xb0;" horiz-adv-x="674" 
d="M338 1321q-69 0 -117.5 -48t-48.5 -116q0 -70 48 -118t118 -48q68 0 116 49t48 117t-48 116t-116 48zM338 1466q129 0 220 -91t91 -220q0 -128 -91.5 -219.5t-221.5 -91.5q-129 0 -219 90.5t-90 220.5q0 131 90.5 221t220.5 90z" />
    <glyph glyph-name="plusminus" unicode="&#xb1;" horiz-adv-x="1706" 
d="M254 213h1198v-231h-1198v231zM735 1241h238v-319h479v-232h-479v-319h-238v319h-481v232h481v319z" />
    <glyph glyph-name="twosuperior" unicode="&#xb2;" horiz-adv-x="664" 
d="M-82 582q259 276 372 430t113 229q0 26 -14.5 39.5t-42.5 13.5q-39 0 -62.5 -42.5t-23.5 -114.5h-225q7 166 93.5 252t244.5 86q138 0 214.5 -57.5t76.5 -160.5q0 -84 -68 -193.5t-223 -275.5h194l-37 -206h-612z" />
    <glyph glyph-name="threesuperior" unicode="&#xb3;" horiz-adv-x="664" 
d="M-18 852h235q-2 -9 -3 -19t-1 -28q0 -26 11.5 -40.5t31.5 -14.5q39 0 61.5 31.5t22.5 84.5q0 41 -24.5 61.5t-71.5 20.5h-39l29 164q5 -1 11.5 -1.5t18.5 -0.5q69 0 104 33.5t35 99.5q0 26 -12 39.5t-35 13.5q-25 0 -44.5 -21.5t-26.5 -59.5l-224 -1q7 125 91 193t233 68
q123 0 195.5 -56.5t72.5 -150.5q0 -85 -53.5 -148t-140.5 -82q70 -7 110.5 -52.5t40.5 -115.5q0 -141 -93 -223t-255 -82q-136 0 -212.5 57.5t-76.5 159.5q0 19 2 36t7 34z" />
    <glyph glyph-name="acute" unicode="&#xb4;" 
d="M623 1163h-158l119 312h260z" />
    <glyph glyph-name="mu" unicode="&#xb5;" horiz-adv-x="1315" 
d="M193 1090h358l-80 -529q-6 -41 -9 -77.5t-3 -65.5q0 -85 35.5 -127.5t107.5 -42.5q88 0 138.5 68.5t74.5 220.5l88 553h357l-175 -1090h-321l18 125q-40 -75 -89.5 -108t-119.5 -33q-59 0 -106.5 31t-77.5 89l-82 -532h-352z" />
    <glyph glyph-name="paragraph" unicode="&#xb6;" 
d="M997 1479v-123h-106v-1356h-176v1356h-150v-1356h-174v784q-164 6 -263 101t-99 245q0 158 106 253.5t283 95.5h579z" />
    <glyph glyph-name="glyph121" unicode="&#xb7;" horiz-adv-x="502" 
d="M25 727q0 95 66 161t161 66t161 -66t66 -161t-66 -161t-161 -66t-161 66t-66 161z" />
    <glyph glyph-name="cedilla" unicode="&#xb8;" 
d="M125 -438l22 141q58 -22 114.5 -33.5t109.5 -11.5q42 0 67 21t25 55q0 28 -21.5 41.5t-68.5 13.5q-22 0 -35 -0.5t-24 -1.5l32 213h121l-12 -84h14q92 0 139 -39t47 -115q0 -118 -70.5 -181.5t-201.5 -63.5q-54 0 -118.5 11t-139.5 34z" />
    <glyph glyph-name="onesuperior" unicode="&#xb9;" horiz-adv-x="664" 
d="M143 582l117 671h-88l35 205h342l-154 -876h-252z" />
    <glyph glyph-name="ordmasculine" unicode="&#xba;" horiz-adv-x="750" 
d="M279 1018q0 -40 11.5 -60t35.5 -20q40 0 70 73.5t30 174.5q0 39 -12 58.5t-37 19.5q-39 0 -68.5 -74t-29.5 -172zM332 723q-162 0 -246 79t-84 232q0 203 101 325t270 122q161 0 245 -80t84 -234q0 -203 -100 -323.5t-270 -120.5z" />
    <glyph glyph-name="guillemotright" unicode="&#xbb;" horiz-adv-x="862" 
d="M-31 168l271 354l-162 334l190 94l185 -428l-324 -448zM287 168l270 354l-162 334l191 94l184 -428l-321 -448z" />
    <glyph glyph-name="onequarter" unicode="&#xbc;" horiz-adv-x="1608" 
d="M1298 332l50 276l-179 -276h129zM1241 0l29 166h-322l33 172l328 479h295l-86 -485h63l-29 -166h-65l-29 -166h-217zM291 -29l835 1518h189l-836 -1518h-188zM135 639l113 627h-84l33 190h325l-145 -817h-242z" />
    <glyph glyph-name="onehalf" unicode="&#xbd;" horiz-adv-x="1608" 
d="M897 0q247 257 355 401.5t108 214.5q0 24 -14.5 37t-40.5 13q-37 0 -58.5 -40t-21.5 -108h-217q7 155 89 235.5t232 80.5q133 0 206 -53t73 -150q0 -79 -66 -182.5t-213 -253.5h187l-35 -195h-584zM291 -29l835 1518h189l-836 -1518h-188zM135 639l113 627h-84l33 190
h325l-145 -817h-242z" />
    <glyph glyph-name="threequarters" unicode="&#xbe;" horiz-adv-x="1610" 
d="M1298 332l50 276l-179 -276h129zM1241 0l29 166h-322l33 172l328 479h295l-86 -485h63l-29 -166h-65l-29 -166h-217zM291 -29l835 1518h189l-836 -1518h-188zM-18 891h225q0 -2 -1 -6q-3 -26 -3 -39q0 -24 11.5 -37.5t31.5 -13.5q35 0 56.5 30t21.5 80q0 38 -23.5 57
t-69.5 19h-36l26 152h31q66 0 99.5 30.5t33.5 91.5q0 24 -11.5 37t-33.5 13q-25 0 -43.5 -20t-26.5 -56h-213q8 117 88.5 180.5t223.5 63.5q117 0 186.5 -52.5t69.5 -140.5q0 -79 -51.5 -138.5t-135.5 -76.5q67 -8 105.5 -49.5t38.5 -106.5q0 -133 -88.5 -209.5
t-243.5 -76.5q-131 0 -204 54t-73 150q0 10 2 23.5t7 40.5z" />
    <glyph glyph-name="questiondown" unicode="&#xbf;" horiz-adv-x="1020" 
d="M737 1004l-57 -365q-21 4 -40.5 6t-39.5 2q-102 0 -163.5 -73t-61.5 -193q0 -55 20 -84t58 -29q47 0 78 45t47 138h340q-22 -226 -154 -351t-350 -125q-205 0 -316.5 101.5t-111.5 288.5q0 171 100 296.5t250 139.5l55 203h346zM834 1380q0 -110 -68 -185t-170 -75
q-79 0 -126.5 51t-47.5 136q0 111 68 186.5t169 75.5q78 0 126.5 -52t48.5 -137z" />
    <glyph glyph-name="Agrave" unicode="&#xc0;" horiz-adv-x="1053" 
d="M-158 0l549 1460h481l103 -1460h-412l2 215h-241l-64 -215h-418zM410 510h163l5 541zM623 1599l-123 312h262l20 -312h-159z" />
    <glyph glyph-name="Aacute" unicode="&#xc1;" horiz-adv-x="1053" 
d="M-158 0l549 1460h481l103 -1460h-412l2 215h-241l-64 -215h-418zM410 510h163l5 541zM707 1599h-158l119 312h260z" />
    <glyph glyph-name="Acircumflex" unicode="&#xc2;" horiz-adv-x="1053" 
d="M-158 0l549 1460h481l103 -1460h-412l2 215h-241l-64 -215h-418zM410 510h163l5 541zM385 1599l201 314h254l102 -314h-166l-88 160l-137 -160h-166z" />
    <glyph glyph-name="Atilde" unicode="&#xc3;" horiz-adv-x="1053" 
d="M-158 0l549 1460h481l103 -1460h-412l2 215h-241l-64 -215h-418zM410 510h163l5 541zM625 1706q-11 4 -20.5 6t-20.5 2q-27 0 -48.5 -21.5t-33.5 -60.5h-94q29 140 80.5 206t130.5 66q14 0 27 -2t30 -8l85 -34q13 -6 24 -8.5t20 -2.5q30 0 51.5 22.5t32.5 65.5h96
q-33 -145 -85.5 -211.5t-133.5 -66.5q-11 0 -23.5 2.5t-25.5 7.5z" />
    <glyph glyph-name="Adieresis" unicode="&#xc4;" horiz-adv-x="1053" 
d="M-158 0l549 1460h481l103 -1460h-412l2 215h-241l-64 -215h-418zM410 510h163l5 541zM721 1786q0 56 41 96.5t98 40.5t97 -40.5t40 -96.5q0 -58 -40 -99t-97 -41q-56 0 -97.5 41.5t-41.5 98.5zM391 1786q0 56 41 96.5t98 40.5t97.5 -40.5t40.5 -96.5q0 -58 -40.5 -99
t-97.5 -41q-55 0 -97 41.5t-42 98.5z" />
    <glyph glyph-name="Aring" unicode="&#xc5;" horiz-adv-x="1055" 
d="M446 1749q0 94 65.5 159.5t160.5 65.5q93 0 159 -65.5t66 -159.5t-66 -159.5t-159 -65.5q-95 0 -160.5 65.5t-65.5 159.5zM573 1749q0 -41 29 -69.5t70 -28.5q40 0 69 29t29 69q0 41 -29 69.5t-69 28.5q-41 0 -70 -28.5t-29 -69.5zM-137 0l563 1460h432l103 -1460h-398
l2 215h-241l-64 -215h-397zM410 510h165l3 541z" />
    <glyph glyph-name="AE" unicode="&#xc6;" horiz-adv-x="1407" 
d="M414 510h161l7 541zM-133 0l549 1460h837l15 -354h-373l12 -186h342l15 -342h-336l12 -201h354l17 -377h-744l2 215h-241l-66 -215h-395z" />
    <glyph glyph-name="Ccedilla" unicode="&#xc7;" horiz-adv-x="887" 
d="M907 1085q-36 19 -68 27t-65 8q-143 0 -230 -136.5t-87 -362.5q0 -145 52.5 -215t160.5 -70q26 0 56.5 5.5t64.5 16.5l-62 -352q-42 -17 -91 -25t-112 -8q-247 0 -377.5 144t-130.5 418q0 429 198 690.5t525 261.5q60 0 117 -10.5t113 -30.5zM172 -438l22 141
q58 -22 114.5 -33.5t109.5 -11.5q42 0 67 21t25 55q0 28 -21.5 41.5t-68.5 13.5q-22 0 -35 -0.5t-24 -1.5l32 213h121l-12 -84h14q92 0 139 -39t47 -115q0 -118 -70.5 -181.5t-201.5 -63.5q-54 0 -118.5 11t-139.5 34z" />
    <glyph glyph-name="Egrave" unicode="&#xc8;" horiz-adv-x="864" 
d="M-33 0l232 1460h723l-56 -354h-315l-31 -186h285l-53 -342h-285l-33 -201h316l-60 -377h-723zM535 1599l-123 312h262l20 -312h-159z" />
    <glyph glyph-name="Eacute" unicode="&#xc9;" horiz-adv-x="864" 
d="M-33 0l232 1460h723l-56 -354h-315l-31 -186h285l-53 -342h-285l-33 -201h316l-60 -377h-723zM619 1599h-158l119 312h260z" />
    <glyph glyph-name="Ecircumflex" unicode="&#xca;" horiz-adv-x="864" 
d="M-33 0l232 1460h723l-56 -354h-315l-31 -186h285l-53 -342h-285l-33 -201h316l-60 -377h-723zM297 1599l201 314h254l102 -314h-166l-88 160l-137 -160h-166z" />
    <glyph glyph-name="Edieresis" unicode="&#xcb;" horiz-adv-x="864" 
d="M-33 0l232 1460h723l-56 -354h-315l-31 -186h285l-53 -342h-285l-33 -201h316l-60 -377h-723zM633 1786q0 56 41 96.5t98 40.5t97 -40.5t40 -96.5q0 -58 -40 -99t-97 -41q-56 0 -97.5 41.5t-41.5 98.5zM303 1786q0 56 41 96.5t98 40.5t97.5 -40.5t40.5 -96.5
q0 -58 -40.5 -99t-97.5 -41q-55 0 -97 41.5t-42 98.5z" />
    <glyph glyph-name="Igrave" unicode="&#xcc;" horiz-adv-x="602" 
d="M-18 0l231 1460h408l-232 -1460h-407zM398 1599l-123 312h262l20 -312h-159z" />
    <glyph glyph-name="Iacute" unicode="&#xcd;" horiz-adv-x="602" 
d="M-18 0l231 1460h408l-232 -1460h-407zM482 1599h-158l119 312h260z" />
    <glyph glyph-name="Icircumflex" unicode="&#xce;" horiz-adv-x="602" 
d="M-18 0l231 1460h408l-232 -1460h-407zM160 1599l201 314h254l102 -314h-166l-88 160l-137 -160h-166z" />
    <glyph glyph-name="Idieresis" unicode="&#xcf;" horiz-adv-x="602" 
d="M-18 0l231 1460h408l-232 -1460h-407zM496 1786q0 56 41 96.5t98 40.5t97 -40.5t40 -96.5q0 -58 -40 -99t-97 -41q-56 0 -97.5 41.5t-41.5 98.5zM166 1786q0 56 41 96.5t98 40.5t97.5 -40.5t40.5 -96.5q0 -58 -40.5 -99t-97.5 -41q-55 0 -97 41.5t-42 98.5z" />
    <glyph glyph-name="Eth" unicode="&#xd0;" horiz-adv-x="1141" 
d="M473 618l-40 -264q6 -1 13 -1.5t21 -0.5q59 0 104 26t72 75q42 77 71 214.5t29 266.5q0 100 -38.5 144t-126.5 44h-25l-35 -229h119l-43 -275h-121zM86 618h-109l43 275h109l90 567h305q182 0 267 -20.5t155 -69.5q93 -65 140 -172.5t47 -255.5q0 -185 -49 -360.5
t-134 -298.5q-98 -143 -239 -213t-330 -70h-393z" />
    <glyph glyph-name="Ntilde" unicode="&#xd1;" horiz-adv-x="1202" 
d="M-12 0l233 1460h377l131 -784l137 784h342l-229 -1460h-375l-139 756l-129 -756h-348zM707 1706q-11 4 -20.5 6t-20.5 2q-27 0 -48.5 -21.5t-33.5 -60.5h-94q29 140 80.5 206t130.5 66q14 0 27 -2t30 -8l85 -34q13 -6 24 -8.5t20 -2.5q30 0 51.5 22.5t32.5 65.5h96
q-33 -145 -85.5 -211.5t-133.5 -66.5q-11 0 -23.5 2.5t-25.5 7.5z" />
    <glyph glyph-name="Ograve" unicode="&#xd2;" horiz-adv-x="1161" 
d="M430 487q0 -82 22 -119.5t70 -37.5q43 0 74.5 34t56.5 109q33 97 53.5 234.5t20.5 261.5q0 82 -21 120.5t-65 38.5q-47 0 -79.5 -33.5t-55.5 -107.5q-33 -101 -54.5 -240t-21.5 -260zM479 -29q-207 0 -333 150t-126 399q0 203 52.5 395t142.5 322q88 126 203.5 188
t263.5 62q211 0 335 -147.5t124 -401.5q0 -204 -52 -394t-143 -323q-85 -125 -201.5 -187.5t-265.5 -62.5zM676 1599l-123 312h262l20 -312h-159z" />
    <glyph glyph-name="Oacute" unicode="&#xd3;" horiz-adv-x="1161" 
d="M430 487q0 -82 22 -119.5t70 -37.5q43 0 74.5 34t56.5 109q33 97 53.5 234.5t20.5 261.5q0 82 -21 120.5t-65 38.5q-47 0 -79.5 -33.5t-55.5 -107.5q-33 -101 -54.5 -240t-21.5 -260zM479 -29q-207 0 -333 150t-126 399q0 203 52.5 395t142.5 322q88 126 203.5 188
t263.5 62q211 0 335 -147.5t124 -401.5q0 -204 -52 -394t-143 -323q-85 -125 -201.5 -187.5t-265.5 -62.5zM760 1599h-158l119 312h260z" />
    <glyph glyph-name="Ocircumflex" unicode="&#xd4;" horiz-adv-x="1161" 
d="M430 487q0 -82 22 -119.5t70 -37.5q43 0 74.5 34t56.5 109q33 97 53.5 234.5t20.5 261.5q0 82 -21 120.5t-65 38.5q-47 0 -79.5 -33.5t-55.5 -107.5q-33 -101 -54.5 -240t-21.5 -260zM479 -29q-207 0 -333 150t-126 399q0 203 52.5 395t142.5 322q88 126 203.5 188
t263.5 62q211 0 335 -147.5t124 -401.5q0 -204 -52 -394t-143 -323q-85 -125 -201.5 -187.5t-265.5 -62.5zM438 1599l201 314h254l102 -314h-166l-88 160l-137 -160h-166z" />
    <glyph glyph-name="Otilde" unicode="&#xd5;" horiz-adv-x="1161" 
d="M430 487q0 -82 22 -119.5t70 -37.5q43 0 74.5 34t56.5 109q33 97 53.5 234.5t20.5 261.5q0 82 -21 120.5t-65 38.5q-47 0 -79.5 -33.5t-55.5 -107.5q-33 -101 -54.5 -240t-21.5 -260zM479 -29q-207 0 -333 150t-126 399q0 203 52.5 395t142.5 322q88 126 203.5 188
t263.5 62q211 0 335 -147.5t124 -401.5q0 -204 -52 -394t-143 -323q-85 -125 -201.5 -187.5t-265.5 -62.5zM678 1706q-11 4 -20.5 6t-20.5 2q-27 0 -48.5 -21.5t-33.5 -60.5h-94q29 140 80.5 206t130.5 66q14 0 27 -2t30 -8l85 -34q13 -6 24 -8.5t20 -2.5q30 0 51.5 22.5
t32.5 65.5h96q-33 -145 -85.5 -211.5t-133.5 -66.5q-11 0 -23.5 2.5t-25.5 7.5z" />
    <glyph glyph-name="Odieresis" unicode="&#xd6;" horiz-adv-x="1161" 
d="M430 487q0 -82 22 -119.5t70 -37.5q43 0 74.5 34t56.5 109q33 97 53.5 234.5t20.5 261.5q0 82 -21 120.5t-65 38.5q-47 0 -79.5 -33.5t-55.5 -107.5q-33 -101 -54.5 -240t-21.5 -260zM479 -29q-207 0 -333 150t-126 399q0 203 52.5 395t142.5 322q88 126 203.5 188
t263.5 62q211 0 335 -147.5t124 -401.5q0 -204 -52 -394t-143 -323q-85 -125 -201.5 -187.5t-265.5 -62.5zM774 1786q0 56 41 96.5t98 40.5t97 -40.5t40 -96.5q0 -58 -40 -99t-97 -41q-56 0 -97.5 41.5t-41.5 98.5zM444 1786q0 56 41 96.5t98 40.5t97.5 -40.5t40.5 -96.5
q0 -58 -40.5 -99t-97.5 -41q-55 0 -97 41.5t-42 98.5z" />
    <glyph glyph-name="multiply" unicode="&#xd7;" horiz-adv-x="1706" 
d="M430 1214l440 -440l441 440l162 -161l-441 -443l441 -440l-162 -162l-441 441l-440 -441l-162 162l441 440l-441 443z" />
    <glyph glyph-name="Oslash" unicode="&#xd8;" horiz-adv-x="1161" 
d="M741 887l-325 -453q6 -59 30.5 -88t69.5 -29q86 0 138.5 130.5t86.5 439.5zM426 623l309 434q-3 38 -28.5 61t-65.5 23q-83 0 -134 -122.5t-81 -395.5zM102 182q-41 67 -61.5 151.5t-20.5 192.5q0 202 52 390t143 321q85 125 201.5 187.5t265.5 62.5q84 0 154 -25
t129 -76l104 138l86 -72l-108 -152q47 -59 69.5 -148t22.5 -220q0 -430 -182.5 -695.5t-477.5 -265.5q-90 0 -167 30t-136 87l-108 -151l-84 83z" />
    <glyph glyph-name="Ugrave" unicode="&#xd9;" horiz-adv-x="1151" 
d="M41 522l147 938h410l-156 -977q-2 -12 -3 -22t-1 -23q0 -37 21.5 -58.5t58.5 -21.5q48 0 75.5 31t37.5 94l155 977h408l-149 -937l-3 -15q-43 -266 -131 -371q-70 -84 -177.5 -126t-254.5 -42q-230 0 -341 96.5t-111 294.5q0 32 3 70t11 92zM672 1599l-123 312h262
l20 -312h-159z" />
    <glyph glyph-name="Uacute" unicode="&#xda;" horiz-adv-x="1151" 
d="M41 522l147 938h410l-156 -977q-2 -12 -3 -22t-1 -23q0 -37 21.5 -58.5t58.5 -21.5q48 0 75.5 31t37.5 94l155 977h408l-149 -937l-3 -15q-43 -266 -131 -371q-70 -84 -177.5 -126t-254.5 -42q-230 0 -341 96.5t-111 294.5q0 32 3 70t11 92zM756 1599h-158l119 312h260z
" />
    <glyph glyph-name="Ucircumflex" unicode="&#xdb;" horiz-adv-x="1151" 
d="M41 522l147 938h410l-156 -977q-2 -12 -3 -22t-1 -23q0 -37 21.5 -58.5t58.5 -21.5q48 0 75.5 31t37.5 94l155 977h408l-149 -937l-3 -15q-43 -266 -131 -371q-70 -84 -177.5 -126t-254.5 -42q-230 0 -341 96.5t-111 294.5q0 32 3 70t11 92zM434 1599l201 314h254
l102 -314h-166l-88 160l-137 -160h-166z" />
    <glyph glyph-name="Udieresis" unicode="&#xdc;" horiz-adv-x="1151" 
d="M41 522l147 938h410l-156 -977q-2 -12 -3 -22t-1 -23q0 -37 21.5 -58.5t58.5 -21.5q48 0 75.5 31t37.5 94l155 977h408l-149 -937l-3 -15q-43 -266 -131 -371q-70 -84 -177.5 -126t-254.5 -42q-230 0 -341 96.5t-111 294.5q0 32 3 70t11 92zM770 1786q0 56 41 96.5
t98 40.5t97 -40.5t40 -96.5q0 -58 -40 -99t-97 -41q-56 0 -97.5 41.5t-41.5 98.5zM440 1786q0 56 41 96.5t98 40.5t97.5 -40.5t40.5 -96.5q0 -58 -40.5 -99t-97.5 -41q-55 0 -97 41.5t-42 98.5z" />
    <glyph glyph-name="Yacute" unicode="&#xdd;" horiz-adv-x="1038" 
d="M94 1460h430l41 -448l180 448h431l-476 -874l-92 -586h-407l94 586zM699 1599h-158l119 312h260z" />
    <glyph glyph-name="Thorn" unicode="&#xde;" horiz-adv-x="1100" 
d="M518 909l-51 -323q8 -1 17 -1.5t22 -0.5q87 0 129.5 51.5t42.5 157.5q0 58 -35 87t-104 29h-21zM377 0h-408l232 1460h407l-34 -227q246 -3 367.5 -104.5t121.5 -305.5q0 -271 -154.5 -418t-439.5 -147q-8 0 -25.5 1t-25.5 1z" />
    <glyph glyph-name="germandbls" unicode="&#xdf;" horiz-adv-x="1049" 
d="M-43 0l160 1014q56 357 165 479.5t339 122.5q189 0 301 -91.5t112 -246.5q0 -119 -64 -213.5t-177 -142.5q101 -36 152.5 -115.5t51.5 -200.5q0 -168 -43.5 -307t-115.5 -209q-52 -50 -130.5 -74t-191.5 -24q-35 0 -67 4t-64 12l41 260q9 -1 18 -1.5t25 -0.5
q77 0 112 96.5t35 305.5q0 58 -17.5 83t-57.5 25q-11 0 -17.5 -0.5t-11.5 -0.5l41 255h10q60 0 88.5 49t28.5 152q0 38 -20.5 62t-51.5 24q-47 0 -71.5 -38.5t-42.5 -156.5l-177 -1122h-360z" />
    <glyph glyph-name="agrave" unicode="&#xe0;" horiz-adv-x="1057" 
d="M520 733q-56 0 -96.5 -94t-40.5 -225q0 -59 17.5 -90t50.5 -31q55 0 95 95t40 228q0 58 -16.5 87.5t-49.5 29.5zM504 0l16 113q-67 -74 -130.5 -108t-133.5 -34q-121 0 -188.5 94t-67.5 263q0 310 123 517.5t305 207.5q71 0 123.5 -33.5t95.5 -106.5l19 111h368
l-162 -1024h-368zM617 1163l-123 312h262l20 -312h-159z" />
    <glyph glyph-name="aacute" unicode="&#xe1;" horiz-adv-x="1057" 
d="M520 733q-56 0 -96.5 -94t-40.5 -225q0 -59 17.5 -90t50.5 -31q55 0 95 95t40 228q0 58 -16.5 87.5t-49.5 29.5zM504 0l16 113q-67 -74 -130.5 -108t-133.5 -34q-121 0 -188.5 94t-67.5 263q0 310 123 517.5t305 207.5q71 0 123.5 -33.5t95.5 -106.5l19 111h368
l-162 -1024h-368zM701 1163h-158l119 312h260z" />
    <glyph glyph-name="acircumflex" unicode="&#xe2;" horiz-adv-x="1057" 
d="M520 733q-56 0 -96.5 -94t-40.5 -225q0 -59 17.5 -90t50.5 -31q55 0 95 95t40 228q0 58 -16.5 87.5t-49.5 29.5zM504 0l16 113q-67 -74 -130.5 -108t-133.5 -34q-121 0 -188.5 94t-67.5 263q0 310 123 517.5t305 207.5q71 0 123.5 -33.5t95.5 -106.5l19 111h368
l-162 -1024h-368zM379 1163l201 314h254l102 -314h-166l-88 160l-137 -160h-166z" />
    <glyph glyph-name="atilde" unicode="&#xe3;" horiz-adv-x="1057" 
d="M520 733q-56 0 -96.5 -94t-40.5 -225q0 -59 17.5 -90t50.5 -31q55 0 95 95t40 228q0 58 -16.5 87.5t-49.5 29.5zM504 0l16 113q-67 -74 -130.5 -108t-133.5 -34q-121 0 -188.5 94t-67.5 263q0 310 123 517.5t305 207.5q71 0 123.5 -33.5t95.5 -106.5l19 111h368
l-162 -1024h-368zM619 1270q-11 4 -20.5 6t-20.5 2q-27 0 -48.5 -21.5t-33.5 -60.5h-94q29 140 80.5 206t130.5 66q14 0 27 -2t30 -8l85 -34q13 -6 24 -8.5t20 -2.5q30 0 51.5 22.5t32.5 65.5h96q-33 -145 -85.5 -211.5t-133.5 -66.5q-11 0 -23.5 2.5t-25.5 7.5z" />
    <glyph glyph-name="adieresis" unicode="&#xe4;" horiz-adv-x="1057" 
d="M520 733q-56 0 -96.5 -94t-40.5 -225q0 -59 17.5 -90t50.5 -31q55 0 95 95t40 228q0 58 -16.5 87.5t-49.5 29.5zM504 0l16 113q-67 -74 -130.5 -108t-133.5 -34q-121 0 -188.5 94t-67.5 263q0 310 123 517.5t305 207.5q71 0 123.5 -33.5t95.5 -106.5l19 111h368
l-162 -1024h-368zM715 1350q0 56 41 96.5t98 40.5t97 -40.5t40 -96.5q0 -58 -40 -99t-97 -41q-56 0 -97.5 41.5t-41.5 98.5zM385 1350q0 56 41 96.5t98 40.5t97.5 -40.5t40.5 -96.5q0 -58 -40.5 -99t-97.5 -41q-55 0 -97 41.5t-42 98.5z" />
    <glyph glyph-name="aring" unicode="&#xe5;" horiz-adv-x="1057" 
d="M561 1321q0 -39 28.5 -66.5t67.5 -27.5q40 0 68.5 27.5t28.5 66.5q0 40 -28.5 69t-68.5 29q-38 0 -67 -29t-29 -69zM438 1323q0 92 64 155.5t155 63.5q92 0 156 -64t64 -155q0 -92 -63.5 -155.5t-156.5 -63.5q-92 0 -155.5 63.5t-63.5 155.5zM504 0l16 113
q-67 -74 -130.5 -108t-133.5 -34q-121 0 -188.5 94t-67.5 263q0 310 123 517.5t305 207.5q71 0 123.5 -33.5t95.5 -106.5l19 111h368l-162 -1024h-368zM520 733q-56 0 -96.5 -94t-40.5 -225q0 -59 17.5 -90t50.5 -31q55 0 95 95t40 228q0 58 -16.5 87.5t-49.5 29.5z" />
    <glyph glyph-name="ae" unicode="&#xe6;" horiz-adv-x="1518" 
d="M391 414q-51 0 -86 -30t-35 -71t35 -70.5t86 -29.5q53 0 85 27.5t32 72.5q0 46 -32 73.5t-85 27.5zM918 641h218q3 32 4 47.5t1 26.5q0 49 -22 74.5t-64 25.5q-55 0 -87.5 -41t-49.5 -133zM893 469q-2 -14 -5 -39q-7 -62 -7 -82q0 -53 23.5 -78.5t72.5 -25.5
q52 0 80 28.5t33 85.5h311q-15 -183 -132.5 -286t-310.5 -103q-105 0 -188 32t-154 99q-63 -63 -153.5 -96t-202.5 -33q-145 0 -228 83.5t-83 230.5q0 161 102 261.5t268 100.5q61 0 120.5 -14.5t125.5 -44.5q1 27 4.5 62.5t3.5 43.5q0 63 -52 95t-154 32q-59 0 -124 -19
t-141 -59l45 256q84 30 164 44t164 14q103 0 177 -26.5t126 -82.5q63 54 131 79.5t148 25.5q176 0 284.5 -103t108.5 -270q0 -44 -4 -95.5t-12 -115.5h-541z" />
    <glyph glyph-name="ccedilla" unicode="&#xe7;" horiz-adv-x="707" 
d="M549 8q-51 -18 -101 -27.5t-100 -9.5q-167 0 -259.5 102.5t-92.5 286.5q0 313 145 503t383 190q45 0 91 -10.5t92 -30.5l-50 -314q-21 14 -42 20.5t-46 6.5q-65 0 -109 -79.5t-44 -199.5q0 -70 23 -101.5t75 -31.5q20 0 42 6t44 17zM25 -438l22 141q58 -22 114.5 -33.5
t109.5 -11.5q42 0 67 21t25 55q0 28 -21.5 41.5t-68.5 13.5q-22 0 -35 -0.5t-24 -1.5l32 213h121l-12 -84h14q92 0 139 -39t47 -115q0 -118 -70.5 -181.5t-201.5 -63.5q-54 0 -118.5 11t-139.5 34z" />
    <glyph glyph-name="egrave" unicode="&#xe8;" horiz-adv-x="991" 
d="M874 358q-15 -183 -132 -286t-310 -103q-210 0 -320 115t-110 334q0 289 139 462t373 173q189 0 299.5 -100.5t110.5 -272.5q0 -44 -4 -95.5t-13 -115.5h-542q-6 -48 -8.5 -76t-2.5 -45q0 -53 24 -78.5t73 -25.5q52 0 80 28.5t32 85.5h311zM391 641h219q3 33 3.5 47.5
t0.5 26.5q0 49 -21.5 74.5t-64.5 25.5q-55 0 -87 -41t-50 -133zM523 1163l-123 312h262l20 -312h-159z" />
    <glyph glyph-name="eacute" unicode="&#xe9;" horiz-adv-x="991" 
d="M874 358q-15 -183 -132 -286t-310 -103q-210 0 -320 115t-110 334q0 289 139 462t373 173q189 0 299.5 -100.5t110.5 -272.5q0 -44 -4 -95.5t-13 -115.5h-542q-6 -48 -8.5 -76t-2.5 -45q0 -53 24 -78.5t73 -25.5q52 0 80 28.5t32 85.5h311zM391 641h219q3 33 3.5 47.5
t0.5 26.5q0 49 -21.5 74.5t-64.5 25.5q-55 0 -87 -41t-50 -133zM607 1163h-158l119 312h260z" />
    <glyph glyph-name="ecircumflex" unicode="&#xea;" horiz-adv-x="991" 
d="M874 358q-15 -183 -132 -286t-310 -103q-210 0 -320 115t-110 334q0 289 139 462t373 173q189 0 299.5 -100.5t110.5 -272.5q0 -44 -4 -95.5t-13 -115.5h-542q-6 -48 -8.5 -76t-2.5 -45q0 -53 24 -78.5t73 -25.5q52 0 80 28.5t32 85.5h311zM391 641h219q3 33 3.5 47.5
t0.5 26.5q0 49 -21.5 74.5t-64.5 25.5q-55 0 -87 -41t-50 -133zM285 1163l201 314h254l102 -314h-166l-88 160l-137 -160h-166z" />
    <glyph glyph-name="edieresis" unicode="&#xeb;" horiz-adv-x="991" 
d="M874 358q-15 -183 -132 -286t-310 -103q-210 0 -320 115t-110 334q0 289 139 462t373 173q189 0 299.5 -100.5t110.5 -272.5q0 -44 -4 -95.5t-13 -115.5h-542q-6 -48 -8.5 -76t-2.5 -45q0 -53 24 -78.5t73 -25.5q52 0 80 28.5t32 85.5h311zM391 641h219q3 33 3.5 47.5
t0.5 26.5q0 49 -21.5 74.5t-64.5 25.5q-55 0 -87 -41t-50 -133zM621 1350q0 56 41 96.5t98 40.5t97 -40.5t40 -96.5q0 -58 -40 -99t-97 -41q-56 0 -97.5 41.5t-41.5 98.5zM291 1350q0 56 41 96.5t98 40.5t97.5 -40.5t40.5 -96.5q0 -58 -40.5 -99t-97.5 -41q-55 0 -97 41.5
t-42 98.5z" />
    <glyph glyph-name="igrave" unicode="&#xec;" horiz-adv-x="537" 
d="M-33 0l162 1024h371l-162 -1024h-371zM295 1163l-123 312h262l20 -312h-159z" />
    <glyph glyph-name="iacute" unicode="&#xed;" horiz-adv-x="537" 
d="M-33 0l162 1024h371l-162 -1024h-371zM379 1163h-158l119 312h260z" />
    <glyph glyph-name="icircumflex" unicode="&#xee;" horiz-adv-x="537" 
d="M-33 0l162 1024h371l-162 -1024h-371zM57 1163l201 314h254l102 -314h-166l-88 160l-137 -160h-166z" />
    <glyph glyph-name="idieresis" unicode="&#xef;" horiz-adv-x="537" 
d="M-33 0l162 1024h371l-162 -1024h-371zM393 1350q0 56 41 96.5t98 40.5t97 -40.5t40 -96.5q0 -58 -40 -99t-97 -41q-56 0 -97.5 41.5t-41.5 98.5zM63 1350q0 56 41 96.5t98 40.5t97.5 -40.5t40.5 -96.5q0 -58 -40.5 -99t-97.5 -41q-55 0 -97 41.5t-42 98.5z" />
    <glyph glyph-name="eth" unicode="&#xf0;" horiz-adv-x="999" 
d="M805 1270q70 -144 104.5 -294t34.5 -312q0 -334 -131 -514.5t-373 -180.5q-215 0 -326.5 110.5t-111.5 323.5q0 269 128 440t331 171q44 0 79 -10.5t68 -32.5q-15 63 -31 118.5t-34 108.5l-240 -68l-43 154l221 64q-22 60 -52 120.5t-71 124.5h250q33 -41 62.5 -84.5
t56.5 -91.5l225 60l49 -148zM371 387q0 -53 16 -80.5t47 -27.5q54 0 93.5 100t39.5 237q0 56 -16 82.5t-49 26.5q-52 0 -91.5 -101.5t-39.5 -236.5z" />
    <glyph glyph-name="ntilde" unicode="&#xf1;" horiz-adv-x="1006" 
d="M-47 0l162 1024h334l-17 -106q54 61 120.5 92.5t141.5 31.5q119 0 184.5 -60.5t65.5 -170.5q0 -26 -3 -59t-11 -84l-105 -668h-370l96 604q0 4 1 12q3 20 3 23q0 29 -16 45t-45 16q-30 0 -49.5 -25.5t-26.5 -74.5l-96 -600h-369zM529 1270q-11 4 -20.5 6t-20.5 2
q-27 0 -48.5 -21.5t-33.5 -60.5h-94q29 140 80.5 206t130.5 66q14 0 27 -2t30 -8l85 -34q13 -6 24 -8.5t20 -2.5q30 0 51.5 22.5t32.5 65.5h96q-33 -145 -85.5 -211.5t-133.5 -66.5q-11 0 -23.5 2.5t-25.5 7.5z" />
    <glyph glyph-name="ograve" unicode="&#xf2;" horiz-adv-x="999" 
d="M371 391q0 -56 16 -84t47 -28q53 0 93 104.5t40 247.5q0 57 -16 84.5t-49 27.5q-52 0 -91.5 -105.5t-39.5 -246.5zM442 -31q-215 0 -327.5 114t-112.5 333q0 290 134.5 463.5t361.5 173.5q215 0 326.5 -113.5t111.5 -333.5q0 -291 -133.5 -464t-360.5 -173zM527 1163
l-123 312h262l20 -312h-159z" />
    <glyph glyph-name="oacute" unicode="&#xf3;" horiz-adv-x="999" 
d="M371 391q0 -56 16 -84t47 -28q53 0 93 104.5t40 247.5q0 57 -16 84.5t-49 27.5q-52 0 -91.5 -105.5t-39.5 -246.5zM442 -31q-215 0 -327.5 114t-112.5 333q0 290 134.5 463.5t361.5 173.5q215 0 326.5 -113.5t111.5 -333.5q0 -291 -133.5 -464t-360.5 -173zM611 1163
h-158l119 312h260z" />
    <glyph glyph-name="ocircumflex" unicode="&#xf4;" horiz-adv-x="999" 
d="M371 391q0 -56 16 -84t47 -28q53 0 93 104.5t40 247.5q0 57 -16 84.5t-49 27.5q-52 0 -91.5 -105.5t-39.5 -246.5zM442 -31q-215 0 -327.5 114t-112.5 333q0 290 134.5 463.5t361.5 173.5q215 0 326.5 -113.5t111.5 -333.5q0 -291 -133.5 -464t-360.5 -173zM289 1163
l201 314h254l102 -314h-166l-88 160l-137 -160h-166z" />
    <glyph glyph-name="otilde" unicode="&#xf5;" horiz-adv-x="999" 
d="M371 391q0 -56 16 -84t47 -28q53 0 93 104.5t40 247.5q0 57 -16 84.5t-49 27.5q-52 0 -91.5 -105.5t-39.5 -246.5zM442 -31q-215 0 -327.5 114t-112.5 333q0 290 134.5 463.5t361.5 173.5q215 0 326.5 -113.5t111.5 -333.5q0 -291 -133.5 -464t-360.5 -173zM529 1270
q-11 4 -20.5 6t-20.5 2q-27 0 -48.5 -21.5t-33.5 -60.5h-94q29 140 80.5 206t130.5 66q14 0 27 -2t30 -8l85 -34q13 -6 24 -8.5t20 -2.5q30 0 51.5 22.5t32.5 65.5h96q-33 -145 -85.5 -211.5t-133.5 -66.5q-11 0 -23.5 2.5t-25.5 7.5z" />
    <glyph glyph-name="odieresis" unicode="&#xf6;" horiz-adv-x="999" 
d="M371 391q0 -56 16 -84t47 -28q53 0 93 104.5t40 247.5q0 57 -16 84.5t-49 27.5q-52 0 -91.5 -105.5t-39.5 -246.5zM442 -31q-215 0 -327.5 114t-112.5 333q0 290 134.5 463.5t361.5 173.5q215 0 326.5 -113.5t111.5 -333.5q0 -291 -133.5 -464t-360.5 -173zM625 1350
q0 56 41 96.5t98 40.5t97 -40.5t40 -96.5q0 -58 -40 -99t-97 -41q-56 0 -97.5 41.5t-41.5 98.5zM295 1350q0 56 41 96.5t98 40.5t97.5 -40.5t40.5 -96.5q0 -58 -40.5 -99t-97.5 -41q-55 0 -97 41.5t-42 98.5z" />
    <glyph glyph-name="divide" unicode="&#xf7;" horiz-adv-x="1706" 
d="M854 371q68 0 116 -48.5t48 -117.5q0 -68 -47.5 -116t-116.5 -48t-117.5 48t-48.5 116t49 117t117 49zM254 727h1198v-231h-1198v231zM854 1182q67 0 115.5 -49t48.5 -117t-48.5 -116t-117.5 -48t-116.5 48t-47.5 116t49 117t117 49z" />
    <glyph glyph-name="oslash" unicode="&#xf8;" horiz-adv-x="999" 
d="M602 645l-252 -328q13 -35 32.5 -51t49.5 -16q78 0 122.5 103t47.5 292zM340 408l246 323q-16 21 -35 31t-45 10q-70 0 -113.5 -95.5t-52.5 -268.5zM96 98q-44 46 -70 132t-26 190q0 131 42.5 265t107.5 212q67 80 152.5 118t197.5 38q82 0 146 -17t122 -53l88 119
l66 -45l-95 -123q52 -48 80.5 -135.5t28.5 -196.5q0 -136 -41.5 -268.5t-106.5 -208.5q-66 -80 -151 -118t-201 -38q-88 0 -155.5 19.5t-126.5 60.5l-97 -129l-63 41z" />
    <glyph glyph-name="ugrave" unicode="&#xf9;" horiz-adv-x="1008" 
d="M106 1024h371l-102 -649q-1 -3 -1.5 -7t-0.5 -12q0 -28 16 -43.5t45 -15.5q33 0 56.5 21t29.5 57l103 649h370l-98 -614q-34 -219 -162.5 -329t-349.5 -110q-181 0 -283 82.5t-102 227.5q0 29 3 61t9 68zM531 1163l-123 312h262l20 -312h-159z" />
    <glyph glyph-name="uacute" unicode="&#xfa;" horiz-adv-x="1008" 
d="M106 1024h371l-102 -649q-1 -3 -1.5 -7t-0.5 -12q0 -28 16 -43.5t45 -15.5q33 0 56.5 21t29.5 57l103 649h370l-98 -614q-34 -219 -162.5 -329t-349.5 -110q-181 0 -283 82.5t-102 227.5q0 29 3 61t9 68zM615 1163h-158l119 312h260z" />
    <glyph glyph-name="ucircumflex" unicode="&#xfb;" horiz-adv-x="1008" 
d="M106 1024h371l-102 -649q-1 -3 -1.5 -7t-0.5 -12q0 -28 16 -43.5t45 -15.5q33 0 56.5 21t29.5 57l103 649h370l-98 -614q-34 -219 -162.5 -329t-349.5 -110q-181 0 -283 82.5t-102 227.5q0 29 3 61t9 68zM293 1163l201 314h254l102 -314h-166l-88 160l-137 -160h-166z
" />
    <glyph glyph-name="udieresis" unicode="&#xfc;" horiz-adv-x="1008" 
d="M106 1024h371l-102 -649q-1 -3 -1.5 -7t-0.5 -12q0 -28 16 -43.5t45 -15.5q33 0 56.5 21t29.5 57l103 649h370l-98 -614q-34 -219 -162.5 -329t-349.5 -110q-181 0 -283 82.5t-102 227.5q0 29 3 61t9 68zM629 1350q0 56 41 96.5t98 40.5t97 -40.5t40 -96.5q0 -58 -40 -99
t-97 -41q-56 0 -97.5 41.5t-41.5 98.5zM299 1350q0 56 41 96.5t98 40.5t97.5 -40.5t40.5 -96.5q0 -58 -40.5 -99t-97.5 -41q-55 0 -97 41.5t-42 98.5z" />
    <glyph glyph-name="yacute" unicode="&#xfd;" horiz-adv-x="934" 
d="M-23 -350l187 370l-150 1004h385l23 -559l217 559h375l-686 -1374h-351zM578 1163h-158l119 312h260z" />
    <glyph glyph-name="thorn" unicode="&#xfe;" horiz-adv-x="1065" 
d="M-88 -350l307 1943h371l-105 -641q60 51 121 76t125 25q132 0 202.5 -95t70.5 -274q0 -302 -121 -507.5t-295 -205.5q-76 0 -138 25.5t-104 73.5l-65 -420h-369zM414 408q0 -61 18.5 -91t54.5 -30q57 0 95.5 94t38.5 235q0 62 -17.5 90.5t-54.5 28.5q-57 0 -96 -94.5
t-39 -232.5z" />
    <glyph glyph-name="ydieresis" unicode="&#xff;" horiz-adv-x="934" 
d="M-23 -350l187 370l-150 1004h385l23 -559l217 559h375l-686 -1374h-351zM592 1350q0 56 41 96.5t98 40.5t97 -40.5t40 -96.5q0 -58 -40 -99t-97 -41q-56 0 -97.5 41.5t-41.5 98.5zM262 1350q0 56 41 96.5t98 40.5t97.5 -40.5t40.5 -96.5q0 -58 -40.5 -99t-97.5 -41
q-55 0 -97 41.5t-42 98.5z" />
    <glyph glyph-name="Cacute" unicode="&#x106;" horiz-adv-x="887" 
d="M907 1085q-36 19 -68 27t-65 8q-143 0 -230 -136.5t-87 -362.5q0 -145 52.5 -215t160.5 -70q26 0 56.5 5.5t64.5 16.5l-62 -352q-42 -17 -91 -25t-112 -8q-247 0 -377.5 144t-130.5 418q0 429 198 690.5t525 261.5q60 0 117 -10.5t113 -30.5zM773 1599h-158l119 312h260z
" />
    <glyph glyph-name="cacute" unicode="&#x107;" horiz-adv-x="707" 
d="M549 8q-51 -18 -101 -27.5t-100 -9.5q-167 0 -259.5 102.5t-92.5 286.5q0 313 145 503t383 190q45 0 91 -10.5t92 -30.5l-50 -314q-21 14 -42 20.5t-46 6.5q-65 0 -109 -79.5t-44 -199.5q0 -70 23 -101.5t75 -31.5q20 0 42 6t44 17zM551 1163h-158l119 312h260z" />
    <glyph glyph-name="Ccaron" unicode="&#x10c;" horiz-adv-x="887" 
d="M907 1085q-36 19 -68 27t-65 8q-143 0 -230 -136.5t-87 -362.5q0 -145 52.5 -215t160.5 -70q26 0 56.5 5.5t64.5 16.5l-62 -352q-42 -17 -91 -25t-112 -8q-247 0 -377.5 144t-130.5 418q0 429 198 690.5t525 261.5q60 0 117 -10.5t113 -30.5zM500 1913h166l88 -160
l137 160h166l-200 -314h-254z" />
    <glyph glyph-name="ccaron" unicode="&#x10d;" horiz-adv-x="707" 
d="M549 8q-51 -18 -101 -27.5t-100 -9.5q-167 0 -259.5 102.5t-92.5 286.5q0 313 145 503t383 190q45 0 91 -10.5t92 -30.5l-50 -314q-21 14 -42 20.5t-46 6.5q-65 0 -109 -79.5t-44 -199.5q0 -70 23 -101.5t75 -31.5q20 0 42 6t44 17zM278 1477h166l88 -160l137 160h166
l-200 -314h-254z" />
    <glyph glyph-name="dcroat" unicode="&#x111;" horiz-adv-x="1075" 
d="M516 713q-55 0 -94 -89.5t-39 -215.5q0 -58 16.5 -86.5t51.5 -28.5q55 0 94 89t39 216q0 56 -17.5 85.5t-50.5 29.5zM504 0l16 113q-67 -74 -129 -107t-133 -33q-122 0 -190 94t-68 265q0 293 122.5 491.5t301.5 198.5q71 0 123.5 -33t95.5 -106l47 301h-213l31 205h215
l33 204h368l-32 -204h116l-32 -205h-115l-189 -1184h-368z" />
    <glyph glyph-name="Gbreve" unicode="&#x11e;" horiz-adv-x="1151" 
d="M600 844h522q-17 -444 -170 -658.5t-452 -214.5q-232 0 -353.5 142.5t-121.5 412.5q0 211 50.5 402t141.5 325q79 117 198 176.5t273 59.5q192 0 312.5 -89.5t152.5 -256.5l-375 -139q-16 69 -41.5 96.5t-70.5 27.5q-47 0 -82 -33t-60 -102q-34 -97 -60 -249.5
t-26 -262.5q0 -84 23.5 -118.5t79.5 -34.5q69 0 110.5 59t48.5 168h-139zM498 1913h143v-23q0 -60 24 -88.5t76 -28.5q58 0 95 35.5t53 104.5h139q-32 -157 -111 -235.5t-204 -78.5q-110 0 -165 59.5t-55 178.5q0 30 1 45.5t4 30.5z" />
    <glyph glyph-name="gbreve" unicode="&#x11f;" horiz-adv-x="1010" 
d="M502 760q-54 0 -92.5 -90.5t-38.5 -216.5q0 -59 15.5 -87t47.5 -28q53 0 91 90t38 217q0 57 -15.5 86t-45.5 29zM627 1026h352l-156 -979q-39 -247 -145.5 -332.5t-351.5 -85.5q-198 0 -288.5 72t-90.5 227q0 6 1 18.5t1 18.5h311v-20q0 -31 22.5 -50.5t57.5 -19.5
q48 0 77 33.5t40 101.5l26 170q-49 -65 -110 -98t-131 -33q-116 0 -181 88.5t-65 245.5q0 289 115.5 479.5t287.5 190.5q68 0 116.5 -30t92.5 -99zM359 1477h143v-23q0 -60 24 -88.5t76 -28.5q58 0 95 35.5t53 104.5h139q-32 -157 -111 -235.5t-204 -78.5q-110 0 -165 59.5
t-55 178.5q0 30 1 45.5t4 30.5z" />
    <glyph glyph-name="Idotaccent" unicode="&#x130;" horiz-adv-x="602" 
d="M-18 0l231 1460h408l-232 -1460h-407zM318 1786q0 60 45 103.5t106 43.5q62 0 106 -43t44 -104q0 -62 -45 -107t-105 -45q-61 0 -106 45t-45 107z" />
    <glyph glyph-name="dotlessi" unicode="&#x131;" horiz-adv-x="537" 
d="M-33 0l162 1024h371l-162 -1024h-371z" />
    <glyph glyph-name="Lslash" unicode="&#x141;" horiz-adv-x="844" 
d="M-14 0l92 582l-121 -76l47 297l121 78l92 579h397l-65 -403l184 114l-47 -297l-184 -116l-62 -396h314l-58 -362h-710z" />
    <glyph glyph-name="lslash" unicode="&#x142;" horiz-adv-x="573" 
d="M76 573l-123 -77l37 233l123 78l125 786h370l-98 -622l123 78l-37 -234l-123 -76l-117 -739h-370z" />
    <glyph glyph-name="OE" unicode="&#x152;" horiz-adv-x="1470" 
d="M1532 1460l-55 -354h-316l-31 -186h285l-53 -342h-285l-33 -201h316l-60 -377h-473q-73 0 -185 -8t-150 -8q-217 0 -344.5 146t-127.5 394q0 201 52 388.5t143 316.5q88 124 204 186t263 62q32 0 158 -8.5t219 -8.5h473zM420 485q0 -84 26 -123.5t80 -39.5q51 0 88 37.5
t62 113.5q33 99 54.5 235.5t21.5 260.5q0 88 -26.5 127t-84.5 39q-41 0 -75.5 -28.5t-55.5 -80.5q-37 -94 -63.5 -248.5t-26.5 -292.5z" />
    <glyph glyph-name="oe" unicode="&#x153;" horiz-adv-x="1550" 
d="M711 68q-56 -49 -128 -73t-161 -24q-202 0 -311 115.5t-109 329.5q0 288 134 462.5t358 174.5q97 0 170 -26t124 -79q52 50 129.5 77.5t169.5 27.5q179 0 287.5 -102.5t108.5 -270.5q0 -44 -4 -95.5t-13 -115.5h-538q-2 -14 -5 -39q-8 -63 -8 -82q0 -53 24 -78.5
t73 -25.5q52 0 80 28.5t32 85.5h310q-16 -181 -132 -284t-305 -103q-87 0 -157 23.5t-129 73.5zM950 641h219q3 33 3.5 47.5t1.5 26.5q0 49 -22 74.5t-65 25.5q-54 0 -86.5 -41t-50.5 -133zM358 397q0 -66 20 -99.5t58 -33.5q61 0 103.5 104.5t42.5 258.5q0 69 -18.5 100
t-59.5 31q-59 0 -102.5 -106t-43.5 -255z" />
    <glyph glyph-name="Scedilla" unicode="&#x15e;" horiz-adv-x="891" 
d="M-4 449q68 -57 143 -88t144 -31q61 0 97 33.5t36 91.5q0 50 -30 99.5t-116 131.5q-104 101 -143 178t-39 170q0 209 132.5 332t359.5 123q92 0 175 -20.5t169 -63.5l-58 -356q-66 46 -128.5 70t-119.5 24q-51 0 -80.5 -26.5t-29.5 -72.5q0 -62 113 -174l22 -22
q114 -112 150 -192t36 -185q0 -234 -144.5 -369t-395.5 -135q-107 0 -202.5 25.5t-160.5 70.5zM59 -438l22 141q58 -22 114.5 -33.5t109.5 -11.5q42 0 67 21t25 55q0 28 -21.5 41.5t-68.5 13.5q-22 0 -35 -0.5t-24 -1.5l32 213h121l-12 -84h14q92 0 139 -39t47 -115
q0 -118 -70.5 -181.5t-201.5 -63.5q-54 0 -118.5 11t-139.5 34z" />
    <glyph glyph-name="scedilla" unicode="&#x15f;" horiz-adv-x="801" 
d="M49 360q59 -54 116 -82t107 -28q37 0 58.5 16.5t21.5 44.5q0 46 -87 100q-18 11 -27 17q-103 67 -147 131t-44 148q0 153 107 249.5t280 96.5q76 0 152 -19t141 -55l-63 -272q-53 41 -98.5 61t-86.5 20q-37 0 -59.5 -17t-22.5 -44q0 -33 61 -75q23 -16 35 -25
q130 -96 166.5 -158t36.5 -145q0 -158 -109.5 -254.5t-291.5 -96.5q-90 0 -181.5 28.5t-170.5 80.5zM14 -438l22 141q58 -22 114.5 -33.5t109.5 -11.5q42 0 67 21t25 55q0 28 -21.5 41.5t-68.5 13.5q-22 0 -35 -0.5t-24 -1.5l32 213h121l-12 -84h14q92 0 139 -39t47 -115
q0 -118 -70.5 -181.5t-201.5 -63.5q-54 0 -118.5 11t-139.5 34z" />
    <glyph glyph-name="Scaron" unicode="&#x160;" horiz-adv-x="891" 
d="M-4 449q68 -57 143 -88t144 -31q61 0 97 33.5t36 91.5q0 50 -30 99.5t-116 131.5q-104 101 -143 178t-39 170q0 209 132.5 332t359.5 123q92 0 175 -20.5t169 -63.5l-58 -356q-66 46 -128.5 70t-119.5 24q-51 0 -80.5 -26.5t-29.5 -72.5q0 -62 113 -174l22 -22
q114 -112 150 -192t36 -185q0 -234 -144.5 -369t-395.5 -135q-107 0 -202.5 25.5t-160.5 70.5zM352 1913h166l88 -160l137 160h166l-200 -314h-254z" />
    <glyph glyph-name="scaron" unicode="&#x161;" horiz-adv-x="801" 
d="M49 360q59 -54 116 -82t107 -28q37 0 58.5 16.5t21.5 44.5q0 46 -87 100q-18 11 -27 17q-103 67 -147 131t-44 148q0 153 107 249.5t280 96.5q76 0 152 -19t141 -55l-63 -272q-53 41 -98.5 61t-86.5 20q-37 0 -59.5 -17t-22.5 -44q0 -33 61 -75q23 -16 35 -25
q130 -96 166.5 -158t36.5 -145q0 -158 -109.5 -254.5t-291.5 -96.5q-90 0 -181.5 28.5t-170.5 80.5zM239 1477h166l88 -160l137 160h166l-200 -314h-254z" />
    <glyph glyph-name="Ydieresis" unicode="&#x178;" horiz-adv-x="1038" 
d="M94 1460h430l41 -448l180 448h431l-476 -874l-92 -586h-407l94 586zM713 1786q0 56 41 96.5t98 40.5t97 -40.5t40 -96.5q0 -58 -40 -99t-97 -41q-56 0 -97.5 41.5t-41.5 98.5zM383 1786q0 56 41 96.5t98 40.5t97.5 -40.5t40.5 -96.5q0 -58 -40.5 -99t-97.5 -41
q-55 0 -97 41.5t-42 98.5z" />
    <glyph glyph-name="Zcaron" unicode="&#x17d;" horiz-adv-x="977" 
d="M-137 0l629 1094h-381l59 366h944l-622 -1085h389l-60 -375h-958zM395 1913h166l88 -160l137 160h166l-200 -314h-254z" />
    <glyph glyph-name="zcaron" unicode="&#x17e;" horiz-adv-x="864" 
d="M-145 0l450 700h-264l51 324h801l-436 -686h299l-54 -338h-847zM270 1477h166l88 -160l137 160h166l-200 -314h-254z" />
    <glyph glyph-name="florin" unicode="&#x192;" horiz-adv-x="1006" 
d="M485 -39q-50 -181 -143 -255.5t-264 -74.5q-53 0 -106 13t-109 39l84 288q29 -8 46.5 -11t33.5 -3q39 0 63.5 26t40.5 85l162 594h-158l68 243h155l72 254q51 181 144 255.5t264 74.5q51 0 104.5 -13.5t110.5 -39.5l-84 -289q-33 10 -49.5 13t-30.5 3q-40 0 -65.5 -27.5
t-39.5 -84.5l-36 -146h151l-68 -243h-151z" />
    <glyph glyph-name="circumflex" unicode="&#x2c6;" 
d="M301 1163l201 314h254l102 -314h-166l-88 160l-137 -160h-166z" />
    <glyph glyph-name="caron" unicode="&#x2c7;" 
d="M350 1477h166l88 -160l137 160h166l-200 -314h-254z" />
    <glyph glyph-name="breve" unicode="&#x2d8;" 
d="M365 1477h143v-23q0 -60 24 -88.5t76 -28.5q58 0 95 35.5t53 104.5h139q-32 -157 -111 -235.5t-204 -78.5q-110 0 -165 59.5t-55 178.5q0 30 1 45.5t4 30.5z" />
    <glyph glyph-name="dotaccent" unicode="&#x2d9;" 
d="M459 1350q0 60 45 103.5t106 43.5q62 0 106 -43t44 -104q0 -62 -45 -107t-105 -45q-61 0 -106 45t-45 107z" />
    <glyph glyph-name="ring" unicode="&#x2da;" 
d="M504 1415q0 -49 34.5 -84t84.5 -35t85 35t35 84t-35.5 85t-84.5 36t-84 -35.5t-35 -85.5zM352 1415q0 114 78.5 193.5t192.5 79.5q113 0 192.5 -80t79.5 -193t-79 -191.5t-193 -78.5q-115 0 -193 78t-78 192z" />
    <glyph glyph-name="ogonek" unicode="&#x2db;" 
d="M520 0q-78 -65 -109.5 -115.5t-31.5 -107.5q0 -24 15.5 -35.5t45.5 -11.5h76l-31 -197h-141q-72 0 -117 42.5t-45 111.5q0 86 55 163t169 150h114z" />
    <glyph glyph-name="tilde" unicode="&#x2dc;" 
d="M541 1270q-11 4 -20.5 6t-20.5 2q-27 0 -48.5 -21.5t-33.5 -60.5h-94q29 140 80.5 206t130.5 66q14 0 27 -2t30 -8l85 -34q13 -6 24 -8.5t20 -2.5q30 0 51.5 22.5t32.5 65.5h96q-33 -145 -85.5 -211.5t-133.5 -66.5q-11 0 -23.5 2.5t-25.5 7.5z" />
    <glyph glyph-name="hungarumlaut" unicode="&#x2dd;" 
d="M760 1475h221l-248 -312h-127zM469 1475h223l-217 -312h-125z" />
    <glyph glyph-name="Omega" unicode="&#x3a9;" horiz-adv-x="1645" 
d="M1266 307h333v-307h-636v352q92 82 142 196.5t50 246.5q0 182 -90 288.5t-244 106.5q-153 0 -243.5 -107.5t-90.5 -289.5q0 -132 50 -246.5t143 -194.5v-352h-635v307h332q-132 95 -200 229.5t-68 299.5q0 303 195.5 489t516.5 186q323 0 518 -185t195 -490
q0 -165 -68 -299.5t-200 -229.5z" />
    <glyph glyph-name="pi" unicode="&#x3c0;" horiz-adv-x="1530" 
d="M1538 1090l-39 -232h-178l-135 -858h-357l134 858h-232l-135 -858h-354l133 858h-27q-42 0 -70.5 -35.5t-36.5 -97.5h-235q33 209 124.5 287t311.5 78h1096z" />
    <glyph glyph-name="endash" unicode="&#x2013;" 
d="M-53 389l39 246h1024l-39 -246h-1024z" />
    <glyph glyph-name="emdash" unicode="&#x2014;" horiz-adv-x="2048" 
d="M-53 389l39 246h2048l-41 -246h-2046z" />
    <glyph glyph-name="quoteleft" unicode="&#x2018;" horiz-adv-x="553" 
d="M623 1460l-213 -719h-383l383 719h213z" />
    <glyph glyph-name="quoteright" unicode="&#x2019;" horiz-adv-x="553" 
d="M39 741l213 719h383l-381 -719h-215z" />
    <glyph glyph-name="quotesinglbase" unicode="&#x201a;" horiz-adv-x="553" 
d="M-162 -340l213 719h383l-381 -719h-215z" />
    <glyph glyph-name="quotedblleft" unicode="&#x201c;" horiz-adv-x="1008" 
d="M1079 1460l-211 -719h-383l381 719h213zM629 1460l-213 -719h-383l383 719h213z" />
    <glyph glyph-name="quotedblright" unicode="&#x201d;" horiz-adv-x="1008" 
d="M504 741l211 719h385l-383 -719h-213zM47 741l211 719h383l-381 -719h-213z" />
    <glyph glyph-name="quotedblbase" unicode="&#x201e;" horiz-adv-x="1008" 
d="M297 -340l213 719h383l-381 -719h-215zM-160 -340l213 719h383l-381 -719h-215z" />
    <glyph glyph-name="dagger" unicode="&#x2020;" horiz-adv-x="1057" 
d="M184 -322l166 1055h-305l55 342h306l59 385h358l-61 -385h305l-55 -342h-303l-168 -1055h-357z" />
    <glyph glyph-name="daggerdbl" unicode="&#x2021;" horiz-adv-x="1057" 
d="M190 -322l52 322h-308l52 326h307l78 491h-308l52 326h307l51 317h342l-49 -317h307l-53 -326h-307l-78 -491h307l-51 -326h-307l-52 -322h-342z" />
    <glyph glyph-name="bullet" unicode="&#x2022;" horiz-adv-x="1208" 
d="M307 762q0 123 87 209t210 86q122 0 208.5 -86.5t86.5 -208.5t-87.5 -209.5t-209.5 -87.5q-123 0 -209 87t-86 210z" />
    <glyph glyph-name="ellipsis" unicode="&#x2026;" horiz-adv-x="2048" 
d="M473 240q0 -112 -70 -189.5t-174 -77.5q-79 0 -127.5 52t-48.5 139q0 115 68.5 191.5t173.5 76.5q80 0 129 -52.5t49 -139.5zM1155 240q0 -112 -70 -189.5t-174 -77.5q-79 0 -127.5 52t-48.5 139q0 115 68.5 191.5t173.5 76.5q80 0 129 -52.5t49 -139.5zM1839 240
q0 -112 -70 -189.5t-174 -77.5q-79 0 -127.5 52t-48.5 139q0 115 68.5 191.5t173.5 76.5q80 0 129 -52.5t49 -139.5z" />
    <glyph glyph-name="perthousand" unicode="&#x2030;" horiz-adv-x="2189" 
d="M1452 274q0 219 100.5 348.5t268.5 129.5q127 0 197.5 -78.5t70.5 -218.5q0 -223 -96 -352.5t-260 -129.5q-134 0 -207.5 79t-73.5 222zM1804 569q-46 0 -77 -99t-31 -243q0 -28 11.5 -43.5t33.5 -15.5q26 0 42 18.5t29 64.5q17 56 28 128.5t11 120.5q0 34 -11.5 51.5
t-35.5 17.5zM451 1300q-47 0 -78 -99t-31 -243q0 -29 12 -45t33 -16q47 0 79 99t32 235q0 35 -12 52t-35 17zM1122 1489h189l-930 -1518h-188zM764 274q0 219 100 348.5t269 129.5q127 0 198.5 -79t71.5 -218q0 -222 -97 -352t-262 -130q-133 0 -206.5 79t-73.5 222z
M1116 569q-47 0 -78.5 -100t-31.5 -242q0 -28 12 -43.5t35 -15.5q25 0 41.5 19t29.5 64q16 54 26.5 126t10.5 123q0 35 -11 52t-34 17zM98 1004q0 218 100.5 347.5t268.5 129.5q127 0 197.5 -78.5t70.5 -218.5q0 -223 -95.5 -351t-260.5 -128q-134 0 -207.5 78t-73.5 221z
" />
    <glyph glyph-name="guilsinglleft" unicode="&#x2039;" horiz-adv-x="563" 
d="M406 168l-191 -94l-180 448l319 428l162 -94l-268 -334z" />
    <glyph glyph-name="guilsinglright" unicode="&#x203a;" horiz-adv-x="563" 
d="M-20 168l270 354l-162 334l191 94l184 -428l-324 -448z" />
    <glyph glyph-name="franc" unicode="&#x20a3;" horiz-adv-x="1544" 
d="M-35 0l232 1460h723l-56 -354h-317l-33 -211h274l-53 -344h-276l-88 -551h-406zM778 0l162 1024h350l-23 -143q62 79 138 121.5t167 50.5l-57 -361h-8q-136 0 -199 -51t-84 -184l-71 -457h-375z" />
    <glyph glyph-name="trademark" unicode="&#x2122;" horiz-adv-x="1706" 
d="M797 1464h223l113 -303l114 303h221v-551h-155v390l-146 -390h-65l-150 390v-390h-155v551zM188 1464h502v-127h-164v-424h-174v424h-164v127z" />
    <glyph glyph-name="partialdiff" unicode="&#x2202;" horiz-adv-x="1114" 
d="M766 684q21 113 32 206t11 150q0 87 -29.5 148t-68.5 61q-35 0 -132 -93t-180 -93q-48 0 -80 33.5t-32 83.5q0 69 93 125.5t220 56.5q210 0 332.5 -161t122.5 -441q0 -344 -162.5 -564.5t-417.5 -220.5q-182 0 -299 116.5t-117 299.5q0 203 119.5 336t298.5 133
q101 0 170.5 -42.5t118.5 -133.5zM698 532q0 114 -36.5 176t-104.5 62q-96 0 -160.5 -136.5t-64.5 -346.5q0 -116 36.5 -176t106.5 -60q97 0 160 135.5t63 345.5z" />
    <glyph glyph-name="Delta" unicode="&#x2206;" horiz-adv-x="1468" 
d="M733 1059l-262 -774h526zM537 1473h395l541 -1473h-1475z" />
    <glyph glyph-name="product" unicode="&#x220f;" horiz-adv-x="1645" 
d="M145 1473h1348v-1866h-399v1532h-549v-1532h-400v1866z" />
    <glyph glyph-name="summation" unicode="&#x2211;" horiz-adv-x="1520" 
d="M72 1473h1335v-302h-838l596 -608l-587 -651h895v-305h-1424v184l684 756l-661 665v261z" />
    <glyph glyph-name="minus" unicode="&#x2212;" horiz-adv-x="1706" 
d="M254 729h1198v-235h-1198v235z" />
    <glyph glyph-name="fraction" unicode="&#x2215;" horiz-adv-x="342" 
d="M-342 -29l836 1518h188l-836 -1518h-188z" />
    <glyph glyph-name="periodcentered" unicode="&#x2219;" horiz-adv-x="502" 
d="M25 727q0 95 66 161t161 66t161 -66t66 -161t-66 -161t-161 -66t-161 66t-66 161z" />
    <glyph glyph-name="radical" unicode="&#x221a;" horiz-adv-x="1366" 
d="M1155 1714h215v-149h-96l-590 -1606h-119l-307 846l-145 -55l-37 129l360 127l223 -635z" />
    <glyph glyph-name="infinity" unicode="&#x221e;" horiz-adv-x="1706" 
d="M956 561q43 -67 102 -101t132 -34q90 0 146.5 50.5t56.5 129.5q0 77 -51.5 127.5t-127.5 50.5q-72 0 -131.5 -50.5t-126.5 -172.5zM752 657q-43 67 -101 100.5t-133 33.5q-90 0 -146.5 -50t-56.5 -129q0 -77 51 -127.5t128 -50.5q71 0 132 52.5t126 170.5zM856 442
q-68 -130 -147.5 -193t-176.5 -63q-139 0 -238 121.5t-99 300.5q0 188 87.5 305t227.5 117q90 0 166.5 -56.5t175.5 -199.5q71 132 150 195t174 63q140 0 238.5 -121t98.5 -301q0 -189 -87.5 -306.5t-227.5 -117.5q-91 0 -166 55t-176 201z" />
    <glyph glyph-name="integral" unicode="&#x222b;" horiz-adv-x="1249" 
d="M362 -248q99 0 119 667q3 101 4 154q17 523 130.5 753t349.5 230q105 0 170 -53t65 -137q0 -64 -41 -103.5t-106 -39.5q-64 0 -96.5 38.5t-32.5 112.5q0 38 -7.5 49t-25.5 11q-101 0 -124 -667q-2 -60 -3 -91q-11 -329 -30.5 -472.5t-57.5 -244.5q-62 -166 -159.5 -249
t-229.5 -83q-107 0 -171.5 52t-64.5 139q0 65 42 104t112 39q60 0 92.5 -36t32.5 -103q0 -12 -2 -24v-3q0 -24 8 -33.5t26 -9.5z" />
    <glyph glyph-name="approxequal" unicode="&#x2248;" horiz-adv-x="1706" 
d="M1530 602v-254q-105 -71 -196 -104t-181 -33t-283 65.5t-309 65.5q-82 0 -172.5 -37t-210.5 -121v254q111 74 209 109t195 35q115 0 304.5 -65.5t272.5 -65.5t170 35t201 116zM1530 1036v-254q-107 -70 -197 -102.5t-178 -32.5q-91 0 -284 64.5t-310 64.5q-84 0 -172 -36
t-211 -122v256q112 74 209 108t195 34q115 0 304.5 -65.5t272.5 -65.5t170.5 35.5t200.5 115.5z" />
    <glyph glyph-name="notequal" unicode="&#x2260;" horiz-adv-x="1706" 
d="M1194 1251l168 -137l-135 -168h225v-221h-377l-180 -227h557v-222h-704l-246 -307l-170 137l135 170h-213v222h360l183 227h-543v221h694z" />
    <glyph glyph-name="lessequal" unicode="&#x2264;" horiz-adv-x="1706" 
d="M256 213h1196v-229h-1196v229zM1450 1257v-239l-776 -240l776 -239v-240l-1194 379v201z" />
    <glyph glyph-name="greaterequal" unicode="&#x2265;" horiz-adv-x="1706" 
d="M256 213h1196v-229h-1196v229zM258 1257l1192 -378v-201l-1192 -379v240l776 239l-776 240v239z" />
    <glyph glyph-name="lozenge" unicode="&#x25ca;" horiz-adv-x="1012" 
d="M506 1409l-385 -817l385 -825l385 825zM506 1653l500 -1061l-500 -1069l-500 1069z" />
    <glyph glyph-name="apple" unicode="&#xf000;" horiz-adv-x="1618" 
d="M836 1216q-1 6 -1.5 14t-0.5 23q0 124 95 229.5t236 131.5q1 -10 1.5 -23t0.5 -39q0 -131 -103.5 -234.5t-203.5 -103.5h-8q-3 0 -7.5 1t-8.5 1zM1505 403q-114 -247 -205 -342.5t-204 -95.5q-50 0 -131.5 33t-122.5 33q-45 0 -131 -33t-127 -33q-64 0 -128.5 44
t-129.5 132q-102 140 -157.5 295.5t-55.5 300.5q0 219 125 356.5t323 137.5q68 0 155 -34t124 -34q34 0 121.5 35t152.5 35q110 0 198 -40t161 -124q-102 -65 -151.5 -145.5t-49.5 -182.5q0 -113 60 -200t173 -138z" />
    <glyph glyph-name="fi" unicode="&#xf001;" horiz-adv-x="1171" 
d="M600 0l162 1024h371l-162 -1024h-371zM1206 1413q0 -109 -65.5 -181.5t-165.5 -72.5q-77 0 -123.5 50t-46.5 132q0 110 66 183t165 73q78 0 124 -50t46 -134zM0 0l109 696h-111l51 328h113l31 199q33 206 123 297.5t257 91.5q53 0 101.5 -8.5t93.5 -24.5l-51 -309
q-18 6 -29 8t-22 2q-45 0 -71.5 -31t-37.5 -96l-22 -129h143l-51 -328h-144l-110 -696h-373z" />
    <glyph glyph-name="fl" unicode="&#xf002;" horiz-adv-x="1171" 
d="M602 0l252 1593h371l-252 -1593h-371zM0 0l109 696h-111l51 328h113l31 199q33 206 123 297.5t257 91.5q53 0 101.5 -8.5t93.5 -24.5l-51 -309q-18 6 -29 8t-22 2q-45 0 -71.5 -31t-37.5 -96l-22 -129h143l-51 -328h-144l-110 -696h-373z" />
    </font>
</defs>
</svg>
