<?xml version="1.0" encoding="utf-8"?>
<!-- Generator: Adobe Illustrator 16.0.0, SVG Export Plug-In . SVG Version: 6.00 Build 0)  -->
<!DOCTYPE svg PUBLIC "-//W3C//DTD SVG 1.1//EN" "http://www.w3.org/Graphics/SVG/1.1/DTD/svg11.dtd">
<svg version="1.1" id="Layer_1" xmlns="http://www.w3.org/2000/svg" xmlns:xlink="http://www.w3.org/1999/xlink" x="0px" y="0px"
	 width="986px" height="1053.232px" viewBox="-329.466 -201.688 986 1053.232"
	 style="enable-background:new -329.466 -201.688 986 1053.232;" xml:space="preserve">
<style type="text/css">
<![CDATA[
	.st0{fill:none;stroke:#E2BC1B;stroke-miterlimit:10;}
	.st1{fill:none;stroke:#E2BC1B;stroke-width:5;stroke-miterlimit:10;}
]]>
</style>
<g>
	<path class="st1" d="M166.035,315.09L332.07,0H0L166.035,315.09L166.035,315.09z M299.498,7.014h20.951L309.231,28.3l-10.79-19.289
		L299.498,7.014L299.498,7.014z M294.824,15.861l7.593,13.65h-14.803L294.824,15.861L294.824,15.861z M280.979,42.08l10.792,19.355
		l-1.715,3.253h-21.017L280.979,42.08L280.979,42.08z M264.762,72.787l10.814,19.378l-0.604,1.146h-20.115l-0.479-0.859
		L264.762,72.787L264.762,72.787z M250.459,99.87h0.575l10.539,18.872l-2.388,4.527h-21.084L250.459,99.87L250.459,99.87z
		 M233.311,132.343l10.856,19.432l-1.312,2.49h-21.12L233.311,132.343L233.311,132.343z M215.559,165.957l9.008,16.117h-17.518
		L215.559,165.957L215.559,165.957z M201.259,193.04l6.92,12.323H194.75L201.259,193.04L201.259,193.04z M191.289,211.923h21.185
		l-6.421,12.185h-17.706l-1.747-3.309L191.289,211.923L191.289,211.923z M181.391,230.664h3.002l9.113,17.255l-1.748,3.313h-21.231
		L181.391,230.664L181.391,230.664z M166.735,258.415l9.117,17.263h-18.233L166.735,258.415L166.735,258.415z M151.699,272.842
		l-7.931-15.05h15.878L151.699,272.842L151.699,272.842z M166.735,244.371l-7.237-13.707h14.475L166.735,244.371L166.735,244.371z
		 M177.435,224.107h-21.4l-1.748-3.309l4.688-8.876h15.521l4.688,8.876L177.435,224.107L177.435,224.107z M182.892,213.775
		l-0.98-1.853h1.96L182.892,213.775L182.892,213.775z M187.335,205.363h-8.887l-8.007-15.159l0.831-1.572h24.896L187.335,205.363
		L187.335,205.363z M201.073,179.348l-10.409-18.522h20.189L201.073,179.348L201.073,179.348z M215.387,152.24l-12.534-22.41h24.368
		L215.387,152.24L215.387,152.24z M233.136,118.63l-10.492-18.76h20.4L233.136,118.63L233.136,118.63z M246.507,93.312h-24.895
		l11.649-22.063h1.788l11.878,21.27L246.507,93.312L246.507,93.312z M250.562,85.633l-8.045-14.385h15.643L250.562,85.633
		L250.562,85.633z M264.583,59.082l-12.807-22.896l0.062-0.114h24.896L264.583,59.082L264.583,59.082z M280.794,28.386
		L268.838,7.014h21.064l1.117,2.008L280.794,28.386L280.794,28.386z M264.381,12.318l9.59,17.193h-18.669L264.381,12.318
		L264.381,12.318z M248.159,43.042l12.084,21.646h-21.395l-1.092-1.95L248.159,43.042L248.159,43.042z M216.702,102.611
		l11.541,20.659H205.79L216.702,102.611L216.702,102.611z M198.948,136.227l10.078,18.038h-19.604L198.948,136.227L198.948,136.227z
		 M184.607,163.383l10.496,18.691h-20.365L184.607,163.383L184.607,163.383z M166.735,197.228l4.298,8.137h-8.595L166.735,197.228
		L166.735,197.228z M149.076,230.664h3.004l10.861,20.568h-22.63l-1.32-2.507l0.429,0.223L149.076,230.664L149.076,230.664z
		 M135.56,242.216l-6.086-11.552h12.188L135.56,242.216L135.56,242.216z M145.123,224.107h-19.105l-6.421-12.185h22.585l4.688,8.876
		L145.123,224.107L145.123,224.107z M150.578,213.775l-0.98-1.853h1.96L150.578,213.775L150.578,213.775z M155.021,205.363h-8.886
		l-8.835-16.731h24.896l0.831,1.572L155.021,205.363L155.021,205.363z M167.321,182.074h-1.172l-11.221-21.25h23.614
		L167.321,182.074L167.321,182.074z M184.414,149.705l-11.171-19.875h21.667L184.414,149.705L184.414,149.705z M198.767,122.524
		l-12.671-22.653h24.636L198.767,122.524L198.767,122.524z M216.516,88.916l-9.882-17.668h19.212L216.516,88.916L216.516,88.916z
		 M229.309,64.689H204.28l13.592-24.203L230.32,62.78L229.309,64.689L229.309,64.689z M233.942,55.919l-11.101-19.847h21.428
		l0.079,0.143L233.942,55.919L233.942,55.919z M247.963,29.368L236.062,8.09l0.604-1.076h23.103L247.963,29.368L247.963,29.368z
		 M232.344,14.71l8.262,14.803h-16.573L232.344,14.71L232.344,14.71z M199.886,72.514l11.618,20.799h-23.297L199.886,72.514
		L199.886,72.514z M181.574,105.129l10.136,18.142h-20.324L181.574,105.129L181.574,105.129z M166.735,131.554l12.751,22.711
		h-25.503L166.735,131.554L166.735,131.554z M148.863,163.383l9.87,18.691h-20.364L148.863,163.383L148.863,163.383z
		 M132.21,193.038l6.509,12.325h-13.428L132.21,193.038L132.21,193.038z M117.774,205.363h-1.635l-8.814-16.731h19.853
		L117.774,205.363L117.774,205.363z M132.397,179.346l-9.781-18.521h20.19L132.397,179.346L132.397,179.346z M149.056,149.705
		L138.56,129.83h21.668L149.056,149.705L149.056,149.705z M166.735,118.254L156.402,99.87h20.665L166.735,118.254L166.735,118.254z
		 M181.591,91.818l-11.136-19.904l0.373-0.666h22.324L181.591,91.818L181.591,91.818z M199.911,59.229l-11.188-20.001l1.763-3.154
		h22.44L199.911,59.229L199.911,59.229z M217.895,27.23L206.656,7.135l0.068-0.121h21.323l0.604,1.08L217.895,27.23L217.895,27.23z
		 M202.948,13.768l8.793,15.745h-17.593L202.948,13.768L202.948,13.768z M185.005,45.878l10.511,18.812h-21.021L185.005,45.878
		L185.005,45.878z M166.735,78.575l8.234,14.736H158.5L166.735,78.575L166.735,78.575z M151.897,105.129l10.188,18.142h-20.325
		L151.897,105.129L151.897,105.129z M134.521,136.227l9.525,18.038h-19.605L134.521,136.227L134.521,136.227z M117.909,165.957
		l8.511,16.117h-17.518L117.909,165.957L117.909,165.957z M102.668,179.796l-9.996-18.972h20.607L102.668,179.796L102.668,179.796z
		 M118.082,152.24l-11.833-22.41h24.368L118.082,152.24L118.082,152.24z M134.702,122.524L122.74,99.871h24.634L134.702,122.524
		L134.702,122.524z M151.878,91.818l-11.562-20.57h22.325l0.372,0.666L151.878,91.818L151.878,91.818z M167.052,64.689h-0.634
		l-14.242-25.458l1.765-3.158h25.585l1.767,3.158L167.052,64.689L167.052,64.689z M186.727,29.513h-3.438L170.703,7.014h28.473
		l0.07,0.123L186.727,29.513L186.727,29.513z M166.735,13.174l9.131,16.339h-18.26L166.735,13.174L166.735,13.174z M148.464,45.878
		l10.512,18.812h-21.021L148.464,45.878L148.464,45.878z M133.583,72.514l11.678,20.799h-23.297L133.583,72.514L133.583,72.514z
		 M116.77,102.611l10.91,20.659h-22.453L116.77,102.611L116.77,102.611z M100.159,132.345l11.575,21.92H89.216l-0.633-1.2
		L100.159,132.345L100.159,132.345z M84.939,146.15l-8.6-16.319h17.729L84.939,146.15L84.939,146.15z M100.333,118.63l-9.907-18.76
		h20.4L100.333,118.63L100.333,118.63z M116.953,88.916l-9.329-17.668h19.212L116.953,88.916L116.953,88.916z M133.56,59.229
		l-13.015-23.155h22.438l1.765,3.154L133.56,59.229L133.56,59.229z M150.181,29.513h-3.439L134.224,7.135l0.07-0.121h28.473
		L150.181,29.513L150.181,29.513z M130.521,13.768l8.799,15.745h-17.591L130.521,13.768L130.521,13.768z M115.6,40.486
		l13.591,24.202h-25.03l-1.01-1.909L115.6,40.486L115.6,40.486z M98.42,71.249h1.788l11.649,22.063H86.962l-0.419-0.795
		L98.42,71.249L98.42,71.249z M82.436,99.87h0.574l12.357,23.399H72.884l-1.707-3.239L82.436,99.87L82.436,99.87z M67.534,113.117
		L60.553,99.87h14.39L67.534,113.117L67.534,113.117z M78.611,93.312H57.251l11.456-20.524l10.385,19.667L78.611,93.312
		L78.611,93.312z M82.908,85.633l-7.597-14.385h15.641L82.908,85.633L82.908,85.633z M94.621,64.689H73.227l12.086-21.646
		l10.401,19.696L94.621,64.689L94.621,64.689z M99.528,55.919L89.121,36.215l0.08-0.143h21.428L99.528,55.919L99.528,55.919z
		 M115.574,27.23L104.819,8.094l0.604-1.08h21.323l0.068,0.121L115.574,27.23L115.574,27.23z M101.125,14.71l8.312,14.803H92.863
		L101.125,14.71L101.125,14.71z M53.528,86.54l-8.057-15.292h16.61L53.528,86.54L53.528,86.54z M68.886,59.082l-12.151-23.01H81.63
		l0.062,0.114L68.886,59.082L68.886,59.082z M85.506,29.368L73.701,7.014h23.102l0.606,1.076L85.506,29.368L85.506,29.368z
		 M69.086,12.318l9.081,17.193H59.499L69.086,12.318L69.086,12.318z M52.491,42.082l11.94,22.607H42.015l-1.035-1.963L52.491,42.082
		L52.491,42.082z M37.336,55.812L26.935,36.073h21.443L37.336,55.812L37.336,55.812z M52.676,28.386L42.449,9.021l1.116-2.008
		h21.066L52.676,28.386L52.676,28.386z M38.645,15.861l7.211,13.65H31.054L38.645,15.861L38.645,15.861z M23.561,29.513h-0.083
		L11.621,7.014h22.352l1.055,1.997L23.561,29.513L23.561,29.513z M181.069,271.516l-7.245-13.724h14.478L181.069,271.516
		L181.069,271.516z M197.208,240.89l-5.399-10.226h10.787L197.208,240.89L197.208,240.89z M215.696,205.363l-9.405-16.731h18.455
		l-8.815,16.731H215.696L215.696,205.363z M230.08,178.508l-9.89-17.684h19.207L230.08,178.508L230.08,178.508z M247.809,144.861
		l-8.406-15.031h16.328L247.809,144.861L247.809,144.861z M265.215,111.829l-6.688-11.959h12.99L265.215,111.829L265.215,111.829z
		 M279.221,85.252l-7.832-14.004h15.209L279.221,85.252L279.221,85.252z M295.415,54.523l-10.321-18.45h20.042L295.415,54.523
		L295.415,54.523z M175.421,282.237l-9.386,17.81l-9.387-17.81H175.421z"/>
</g>
<g>
	<path class="st0" d="M166.034,327L0,642.09H332.07L166.034,327L166.034,327z M32.572,635.076h-20.95l11.217-21.286l10.791,19.289
		L32.572,635.076L32.572,635.076z M37.246,626.229l-7.594-13.65h14.804L37.246,626.229L37.246,626.229z M51.09,600.01
		l-10.791-19.355l1.715-3.254H63.03L51.09,600.01L51.09,600.01z M67.307,569.303l-10.814-19.378l0.604-1.147h20.116l0.479,0.86
		L67.307,569.303L67.307,569.303z M81.61,542.22h-0.573l-10.54-18.872l2.387-4.527h21.084L81.61,542.22L81.61,542.22z
		 M98.758,509.747l-10.856-19.433l1.312-2.49h21.12L98.758,509.747L98.758,509.747z M116.51,476.133l-9.008-16.117h17.518
		L116.51,476.133L116.51,476.133z M130.81,449.05l-6.92-12.323h13.429L130.81,449.05L130.81,449.05z M140.781,430.167h-21.186
		l6.421-12.185h17.706l1.747,3.309L140.781,430.167L140.781,430.167z M150.678,411.426h-3.002l-9.113-17.255l1.748-3.313h21.231
		L150.678,411.426L150.678,411.426z M165.334,383.675l-9.117-17.263h18.233L165.334,383.675L165.334,383.675z M180.371,369.248
		l7.931,15.05h-15.878L180.371,369.248L180.371,369.248z M165.334,397.719l7.238,13.707h-14.476L165.334,397.719L165.334,397.719z
		 M154.634,417.982h21.401l1.748,3.31l-4.688,8.876h-15.521l-4.688-8.876L154.634,417.982L154.634,417.982z M149.177,428.314
		l0.981,1.854h-1.96L149.177,428.314L149.177,428.314z M144.734,436.727h8.888l8.006,15.159l-0.831,1.572H135.9L144.734,436.727
		L144.734,436.727z M130.997,462.742l10.409,18.522h-20.19L130.997,462.742L130.997,462.742z M116.682,489.85l12.534,22.41h-24.368
		L116.682,489.85L116.682,489.85z M98.933,523.46l10.492,18.76h-20.4L98.933,523.46L98.933,523.46z M85.562,548.779h24.895
		l-11.649,22.063h-1.788l-11.878-21.271l0.421-0.795V548.779z M81.507,556.457l8.045,14.385H73.91L81.507,556.457L81.507,556.457z
		 M67.486,583.008l12.807,22.895l-0.062,0.115H55.334L67.486,583.008L67.486,583.008z M51.275,613.704l11.956,21.372H42.166
		l-1.117-2.008L51.275,613.704L51.275,613.704z M67.688,629.771l-9.59-17.193h18.669L67.688,629.771L67.688,629.771z
		 M83.911,599.048L71.828,577.4h21.393l1.092,1.951L83.911,599.048L83.911,599.048z M115.368,539.48l-11.541-20.66h22.452
		L115.368,539.48L115.368,539.48z M133.122,505.863l-10.079-18.039h19.604L133.122,505.863L133.122,505.863z M147.462,478.707
		l-10.496-18.691h20.365L147.462,478.707L147.462,478.707z M165.334,444.861l-4.297-8.136h8.594L165.334,444.861L165.334,444.861z
		 M182.994,411.426h-3.003l-10.863-20.568h22.63l1.32,2.506l-0.43-0.222L182.994,411.426L182.994,411.426z M196.509,399.874
		l6.086,11.552h-12.187L196.509,399.874L196.509,399.874z M186.948,417.982h19.104l6.421,12.186h-22.585l-4.688-8.876
		L186.948,417.982L186.948,417.982z M181.492,428.314l0.979,1.854h-1.96L181.492,428.314L181.492,428.314z M177.048,436.727h8.886
		l8.835,16.731h-24.896l-0.831-1.572L177.048,436.727L177.048,436.727z M164.749,460.016h1.172l11.221,21.25h-23.614
		L164.749,460.016L164.749,460.016z M147.656,492.385l11.171,19.875H137.16L147.656,492.385L147.656,492.385z M133.302,519.566
		l12.671,22.653h-24.636L133.302,519.566L133.302,519.566z M115.553,553.174l9.882,17.668h-19.212L115.553,553.174L115.553,553.174z
		 M102.76,577.4h25.029l-13.591,24.203l-12.449-22.293L102.76,577.4L102.76,577.4z M98.127,586.171l11.101,19.847H87.8l-0.079-0.143
		L98.127,586.171L98.127,586.171z M84.106,612.722L96.007,634l-0.604,1.076H72.3L84.106,612.722L84.106,612.722z M99.725,627.38
		l-8.262-14.804h16.574L99.725,627.38L99.725,627.38z M132.183,569.576l-11.618-20.799h23.297L132.183,569.576L132.183,569.576z
		 M150.496,536.961l-10.137-18.143h20.324L150.496,536.961L150.496,536.961z M165.334,510.535l-12.751-22.711h25.504
		L165.334,510.535L165.334,510.535z M183.207,478.707l-9.87-18.691h20.365L183.207,478.707L183.207,478.707z M199.859,449.052
		l-6.508-12.325h13.428L199.859,449.052L199.859,449.052z M214.294,436.727h1.636l8.814,16.731h-19.853L214.294,436.727
		L214.294,436.727z M199.671,462.744l9.783,18.521h-20.191L199.671,462.744L199.671,462.744z M183.013,492.385l10.496,19.875
		h-21.668L183.013,492.385L183.013,492.385z M165.334,523.836l10.333,18.384h-20.665L165.334,523.836L165.334,523.836z
		 M150.478,550.271l11.137,19.904l-0.373,0.666h-22.325L150.478,550.271L150.478,550.271z M132.159,582.861l11.188,20l-1.763,3.155
		h-22.44L132.159,582.861L132.159,582.861z M114.174,614.859l11.239,20.096l-0.069,0.121h-21.323l-0.604-1.08L114.174,614.859
		L114.174,614.859z M129.122,628.322l-8.793-15.746h17.592L129.122,628.322L129.122,628.322z M147.064,596.212l-10.51-18.812h21.022
		L147.064,596.212L147.064,596.212z M165.334,563.515l-8.234-14.737h16.469L165.334,563.515L165.334,563.515z M180.172,536.961
		l-10.188-18.143h20.325L180.172,536.961L180.172,536.961z M197.548,505.863l-9.525-18.039h19.605L197.548,505.863L197.548,505.863z
		 M214.161,476.133l-8.512-16.117h17.518L214.161,476.133L214.161,476.133z M229.402,462.294l9.996,18.972h-20.608L229.402,462.294
		L229.402,462.294z M213.988,489.85l11.835,22.41h-24.369L213.988,489.85L213.988,489.85z M197.367,519.566l11.964,22.653h-24.634
		L197.367,519.566L197.367,519.566z M180.191,550.271l11.563,20.57h-22.325l-0.372-0.666L180.191,550.271L180.191,550.271z
		 M165.017,577.4h0.635l14.241,25.459l-1.765,3.158h-25.585l-1.767-3.158L165.017,577.4L165.017,577.4z M145.342,612.576h3.439
		l12.586,22.5h-28.474l-0.069-0.123L145.342,612.576L145.342,612.576z M165.334,628.916l-9.13-16.34h18.259L165.334,628.916
		L165.334,628.916z M183.605,596.212L173.094,577.4h21.021L183.605,596.212L183.605,596.212z M198.486,569.576l-11.678-20.799
		h23.297L198.486,569.576L198.486,569.576z M215.299,539.48l-10.909-20.66h22.453L215.299,539.48L215.299,539.48z M231.911,509.745
		l-11.577-21.921h22.519l0.633,1.201L231.911,509.745L231.911,509.745z M247.13,495.939l8.6,16.32h-17.729L247.13,495.939
		L247.13,495.939z M231.737,523.46l9.907,18.76h-20.399L231.737,523.46L231.737,523.46z M215.117,553.174l9.327,17.668h-19.211
		L215.117,553.174L215.117,553.174z M198.509,582.861l13.015,23.155h-22.438l-1.765-3.155L198.509,582.861L198.509,582.861z
		 M181.888,612.576h3.439l12.518,22.379l-0.07,0.121h-28.473L181.888,612.576L181.888,612.576z M201.548,628.322l-8.798-15.746
		h17.591L201.548,628.322L201.548,628.322z M216.47,601.604L202.879,577.4h25.03l1.01,1.91L216.47,601.604L216.47,601.604z
		 M233.65,570.841h-1.789l-11.649-22.063h24.896l0.42,0.795L233.65,570.841L233.65,570.841z M249.633,542.22h-0.573l-12.356-23.399
		h22.481l1.707,3.239L249.633,542.22L249.633,542.22z M264.535,528.973l6.982,13.247h-14.391L264.535,528.973L264.535,528.973z
		 M253.458,548.777h21.359l-11.455,20.525l-10.386-19.667L253.458,548.777L253.458,548.777z M249.162,556.457l7.596,14.385h-15.641
		L249.162,556.457L249.162,556.457z M237.449,577.4h21.394l-12.086,21.647l-10.401-19.696L237.449,577.4L237.449,577.4z
		 M232.542,586.171l10.407,19.704l-0.08,0.143h-21.429L232.542,586.171L232.542,586.171z M216.496,614.859l10.755,19.138
		l-0.605,1.079h-21.321l-0.068-0.12L216.496,614.859L216.496,614.859z M230.945,627.38l-8.312-14.804h16.575L230.945,627.38
		L230.945,627.38z M278.542,555.55l8.056,15.292h-16.609L278.542,555.55L278.542,555.55z M263.183,583.008l12.15,23.01h-24.896
		l-0.062-0.115L263.183,583.008L263.183,583.008z M246.563,612.722l11.807,22.354h-23.103L234.66,634L246.563,612.722
		L246.563,612.722z M262.983,629.771l-9.081-17.193h18.668L262.983,629.771L262.983,629.771z M279.578,600.008L267.639,577.4h22.416
		l1.035,1.963L279.578,600.008L279.578,600.008z M294.734,586.277l10.4,19.74h-21.442L294.734,586.277L294.734,586.277z
		 M279.393,613.704l10.227,19.364l-1.116,2.008h-21.066L279.393,613.704L279.393,613.704z M293.424,626.229l-7.21-13.65h14.801
		L293.424,626.229L293.424,626.229z M308.509,612.576h0.084l11.857,22.5h-22.354l-1.055-1.997L308.509,612.576L308.509,612.576z
		 M151,370.574l7.246,13.724h-14.479L151,370.574L151,370.574z M134.861,401.199l5.399,10.227h-10.787L134.861,401.199
		L134.861,401.199z M116.374,436.727l9.405,16.731h-18.454l8.814-16.731H116.374L116.374,436.727z M101.99,463.582l9.889,17.684
		H92.672L101.99,463.582L101.99,463.582z M84.26,497.229l8.406,15.031H76.338L84.26,497.229L84.26,497.229z M66.854,530.261
		l6.688,11.959h-12.99L66.854,530.261L66.854,530.261z M52.848,556.838l7.832,14.004H45.471L52.848,556.838L52.848,556.838z
		 M36.655,587.566l10.321,18.451H26.934L36.655,587.566L36.655,587.566z M156.648,359.854l9.387-17.811l9.385,17.811H156.648z"/>
</g>
</svg>
