<svg xmlns="http://www.w3.org/2000/svg" version="1.1" xmlns:xlink="http://www.w3.org/1999/xlink" xmlns:svgjs="http://svgjs.com/svgjs" width="1000" height="1000"><rect width="1000" height="1000" rx="150" ry="150" fill="#000000"></rect><g transform="matrix(0.7828664094391321,0,0,0.7828664094391321,199.6063348051124,150.00000182225762)"><svg xmlns="http://www.w3.org/2000/svg" version="1.1" xmlns:xlink="http://www.w3.org/1999/xlink" xmlns:svgjs="http://svgjs.com/svgjs" width="767.42" height="894.15"><svg xmlns="http://www.w3.org/2000/svg" viewBox="0 0 767.42 894.15"><path d="M419.74,544.57,333.83,377.71V500L417,667.52c9.36,18.77,36.24,18.64,45.4-.25l9-18.58Z" transform="translate(-118.1 -58.85)" style="fill:#1ee3cf"></path><path d="M701.81,588.86V857.55a25.27,25.27,0,1,0,50.54,0V484.37Z" transform="translate(-118.1 -58.85)" style="fill:#1ee3cf"></path><path d="M743.18,68a31.28,31.28,0,0,0-50,8L504,452.16l32.2,62.5,155.1-320.6a5.54,5.54,0,0,1,10.53,2.42v128.4l50.54-100.47V90.07A30.86,30.86,0,0,0,743.18,68Z" transform="translate(-118.1 -58.85)" style="fill:#1ee3cf"></path><path d="M178.43,75.76a31.29,31.29,0,0,0-27.81-16.91h-1.24A31.26,31.26,0,0,0,118.1,90.07V857.55a25.3,25.3,0,0,0,25.27,25.27h1a25.3,25.3,0,0,0,25.27-25.27V192.82a5.55,5.55,0,0,1,10.53-2.41l40.08,80.77V160.24c0-1,0-2,.06-3Z" transform="translate(-118.1 -58.85)" style="fill:#1ee3cf"></path><path d="M885.52,160.27V927.73A25.27,25.27,0,0,1,860.25,953h0A25.26,25.26,0,0,1,835,927.73V266.67a5.55,5.55,0,0,0-10.55-2.41L595.5,737.45c-9.15,18.91-36,19-45.38.23L313.37,260.57A5.55,5.55,0,0,0,302.85,263v664.7A25.27,25.27,0,0,1,277.58,953h-1a25.27,25.27,0,0,1-25.27-25.27V160.27A31.26,31.26,0,0,1,282.54,129h1.24a31.27,31.27,0,0,1,27.8,17L566.35,640.87a6.3,6.3,0,0,0,11.22,0l248.76-494.6A31.26,31.26,0,0,1,854.26,129h0A31.26,31.26,0,0,1,885.52,160.27Z" transform="translate(-118.1 -58.85)" style="fill:#d1d3d4"></path></svg></svg></g></svg>