<svg id="master-artboard" xmlns="http://www.w3.org/2000/svg" width="830" height="842" viewBox="282.5 74.5 830 842">
  <style>

	.st0{fill:#AD2D63;}
	.st1{fill:#EF9D0C;}

  </style>
  <path class="st0" d="M654.5 536c0 12.537-10.163 22.7-22.7 22.7-12.536 0-22.7-10.163-22.7-22.7 0-12.537 10.164-22.7 22.7-22.7 12.537 0 22.7 10.163 22.7 22.7z"/>
  <path class="st0" d="M789.3 537.6c0 12.537-10.163 22.7-22.7 22.7-12.536 0-22.7-10.163-22.7-22.7 0-12.536 10.164-22.7 22.7-22.7 12.537 0 22.7 10.163 22.7 22.7z"/>
  <path class="st1" d="M751.7 563.4c-4.5-2.6-8.2-6.3-10.9-10.9-4-6.9-5-14.9-2.9-22.6 4.3-15.8 20.7-25.3 36.5-21 2.5.7 5 1.7 7.2 3l48-82.6L705 500.9 703.7 646l48-82.6z"/>
  <path class="st1" d="M699.6 491.6L824.2 420l-95.4-.2c0 2.7-.3 5.3-1 8-2.1 7.7-7 14.1-13.9 18-6.9 4-14.9 5-22.6 2.9-7.7-2.1-14.1-7-18-13.9-2.7-4.7-4-9.9-4-15.2l-94.5-.2 124.8 72.2z"/>
  <path class="st1" d="M694.3 500.7l-123.9-71.5 46.5 81c6.6-3.8 14.7-5.1 22.6-2.9 7.7 2.1 14.1 7 18 13.9 4 6.9 5 14.9 2.9 22.6-2.1 7.7-7 14.1-13.9 18l46.5 81 1.3-142.1z"/>
  <path class="st0" d="M721.7 420c0 12.537-10.163 22.7-22.7 22.7-12.537 0-22.7-10.163-22.7-22.7 0-12.537 10.163-22.7 22.7-22.7 12.537 0 22.7 10.163 22.7 22.7z"/>
</svg>
