<svg xmlns="http://www.w3.org/2000/svg" width="831" height="600" viewBox="0 0 831 599.9"><style>.a{fill:none;}</style><path d="M145.3 453.1c-0.9 2.7-2.4 5.4-2.5 8.1 -1.4 30-2.6 60-3.9 90 -0.6 13.8-1.4 27.6-1.7 41.5 -0.1 5.6-2.8 7-7.7 7 -13-0.1-25.9 0-38.9 0 -25.9 0-51.9 0-77.8 0 -11.1 0-11.3-0.1-10.9-11.4 1.5-38.8 3.3-77.6 4.8-116.5 1.5-37.7 2.8-75.3 4.4-113 1.6-39.4 3.5-78.8 5-118.2 0.2-6.3 3.4-7.2 8.4-7.2 17.4 0.1 34.8 0 52.2 0 41 0 81.9 0 122.9 0 9.5 0 9.8 0 11.1 9.6 4.5 32 8.8 64.1 13.2 96.2 1 7.6 2.3 15.1 3.3 22.7 0.4 3.5 2 6.1 5.5 5 1.9-0.6 4.1-3.3 4.4-5.3 3.2-25.4 6.1-50.8 9-76.3 1.8-15.2 3.7-30.4 5.2-45.6 0.5-4.4 2.5-6.3 6.7-6.3 2.1 0 4.1 0 6.2 0 57.7 0 115.5 0 173.2 0 12.5 0 12.3 0 12.7 12 1.6 40.9 3.5 81.8 5.1 122.6 2.1 50.6 4 101.2 6 151.8 0.9 23.5 2.1 47.1 3 70.6 0.3 8.5-0.4 9.2-8.8 9.2 -41 0.1-81.9 0.1-122.9 0 -8.5 0-9-0.5-9.4-9 -1.3-32.1-2.4-64.1-3.6-96.2 -0.4-11.5-0.8-22.9-1.5-34.4 -0.1-2.3-1.6-6.2-2.8-6.3 -4.4-0.6-3.8 3.7-4.1 6.2 -1.6 13.1-2.9 26.3-4.3 39.5 -3.1 30.4-6.1 60.9-9.3 91.3 -0.8 7.9-1.9 8.8-10.1 8.8 -38.6 0.1-77.2 0.1-115.8 0 -9.4 0-9.8-0.8-10.7-10.8 -3.9-43.1-8-86.1-12.1-129.2 -0.2-2-0.8-3.9-1.1-5.9C147 453.6 146.2 453.4 145.3 453.1z"/><path d="M673.8 472.6c-3.5 21.8-3.2 22.1 16.4 22.1 27.1 0 54.2 0 81.3 0 8.8 0 8.8 0.1 8 9 -2.4 28.7-4.8 57.5-7.3 86.2 -0.8 9.6-0.9 9.7-10.5 9.7 -54.8 0-109.6 0-164.4 0 -25 0-50.1 0-75.1 0 -16.2 0-15.1 0.7-15.1-14.7 0-70.4 0-140.8 0-211.2 0-43 0-86 0-129 0-11.2 0.1-11.3 11.4-11.3 84.3 0 168.5 0 252.8 0 0.6 0 1.2 0 1.8 0 9.2 0.1 9.9 0.9 9.2 10.4 -0.5 7.3-1.1 14.7-1.6 22 -1.8 24.9-3.6 49.9-5.5 74.8 -0.2 2.1-0.7 4.1-0.8 6.1 -0.2 4.5-2.6 6.2-6.9 6.1 -5.3-0.1-10.6 0-15.9 0 -23 0-46 0-68.9 0.1 -9.7 0-9.8 0.4-9.9 9.9 -0.1 12.8-0.1 12.9 12.3 12.9 24.7 0 49.5 0 74.2 0 2.4 0 4.7 0.1 7.1 0.1 3.7 0.1 5.2 2 4.9 5.7 -1.2 19.7-2.3 39.4-3.5 59.1 -0.4 7.6-0.9 15.3-1.3 22.9 -0.5 8.5-0.9 8.9-9.3 9 -24.2 0.1-48.3 0-72.5 0C681.2 472.6 677.7 472.6 673.8 472.6z"/><path d="M307 99.4c5.6 4.6 10.7 8 14.9 12.4 14.6 15.5 14.6 63.4-3.4 80 -10.8 9.9-23.5 15-37.6 15.3 -28.3 0.7-56.6 0.3-84.8 0.4 -4.9 0-7.1-1.8-6.8-6.8 0.1-1.5 0-2.9 0-4.4 0-60.7 0-121.4 0-182.1 0-10.7 0.1-10.7 10.9-10.7 23.3 0 46.6-0.2 69.8 0.1 12.1 0.2 24.1 1.6 35.2 6.9 10.7 5.1 17.9 13.3 21.1 24.7 5.2 19 5 37.4-8.4 53.5C314.9 92.6 310.9 95.7 307 99.4zM245.2 147.4c0 0-0.1 0-0.1 0 0 3.8 0 7.6 0 11.5 0 13.2 0 13.2 13.2 12.7 0.6 0 1.2 0 1.8-0.1 7.6-0.7 11.4-3.6 12.3-11.3 0.8-6.9 1.1-14.1 0.3-21 -1.6-13.5-8.3-18.1-21.8-16.5 -4.1 0.5-5.7 2.3-5.7 6.2C245.3 135.1 245.2 141.2 245.2 147.4zM270.9 68.7c-0.3-2-0.5-5.6-1.3-8.9 -2.3-9.4-12.5-14.7-21.2-10.7 -1.5 0.7-3 3-3 4.6 -0.3 10.8-0.2 21.7-0.1 32.5 0 3.6 2 5 5.5 5.4 12.6 1.6 18.7-3.3 19.8-16.1C270.8 73.7 270.8 72 270.9 68.7z"/><path d="M530.2 83.3c0-23.3 0-46.5 0-69.8 0-9.4 0.5-9.8 10.2-9.9 12.1-0.1 24.1-0.1 36.2 0 9.9 0 10.3 0.4 10.3 10.6 0 40 0 80.1 0.1 120.1 0 5 0.2 10.1 1.3 14.9 2.1 9.1 8.5 12.5 20.7 11.6 8.4-0.6 13-5.2 13.8-14.2 0.3-2.9 0.2-5.9 0.2-8.8 0-41.2 0-82.4 0-123.7 0-10.3 0.3-10.6 10.3-10.6 12.4 0 24.7-0.1 37.1 0 8.6 0.1 9.4 0.7 9.4 8.8 0.1 43.9 0.1 87.7-0.1 131.6 0 6.4-0.8 12.9-2 19.3 -4.3 23.2-18.4 37.7-40.9 43.7 -20.8 5.6-41.9 5.8-62.9 0.7 -27-6.6-42.1-24.4-43-52.1 -0.8-24.1-0.2-48.3-0.2-72.4C530.5 83.3 530.3 83.3 530.2 83.3z"/><path d="M506.7 105.8c0.4 17.3-1.4 36-7 54.2 -10.1 33.1-32.5 50.4-66.9 50.8 -11.6 0.1-23.6-0.9-34.9-3.4 -19.4-4.3-33.4-16.6-40.3-35 -4.8-12.8-8.6-26.4-10-40 -2.5-24.6-2.7-49.4 2.9-73.8 1.5-6.6 3.5-13.1 6.1-19.3 9.5-22.4 27.4-33.8 50.8-37.5 15.5-2.4 31.1-2.1 46.4 1.6 20.2 4.8 34.9 16.4 42.9 35.9C505.1 60.1 506.9 82 506.7 105.8zM401.7 110.6c1.2 10.6 2 24.5 4.4 38 1.7 9.9 8 14.4 17.9 15.4 15.3 1.6 24.2-5.3 25.3-21.2 1.2-16.7 1.7-33.5 1.5-50.3 -0.1-8.5-1.5-17-3.4-25.3 -2.2-9.8-9.1-14.8-19.1-15.4 -14.1-0.9-22.1 5.9-23.9 21.2C403.1 84.4 402.7 95.9 401.7 110.6z"/><path d="M13.3 207.5c2.6-14.4 4.8-27.4 7.2-40.4C29.7 117.1 38.9 67 48 17 50.5 3.6 50.3 3.6 64.2 3.6c20.3 0 40.7 0 61 0 8.1 0 8.7 0.7 10.2 8.8 11.4 62.2 22.8 124.4 34.1 186.7 1.5 8.2 1.5 8.3-7.1 8.4 -12.4 0.1-24.8 0.1-37.1 0 -8.4-0.1-8.4-0.2-10.1-8.8 -1.2-6.1-2.5-12.1-3.6-18.2 -0.6-3.5-2.5-5-6-5 -9.7 0-19.4 0.1-29.2 0 -4.1 0-5.7 2-6.4 5.7 -1.2 6.7-2.6 13.3-3.8 19.9 -0.7 3.9-2.3 6.4-6.9 6.3C44.6 207.4 29.9 207.5 13.3 207.5zM103.3 137.3c-0.3-17.3-9.1-67.3-13.5-73.1 -3.9 24.8-7.6 48.6-11.5 73.1C87.6 137.3 95.1 137.3 103.3 137.3z"/><path d="M733.9 130.3c0-22.4 0-44.8 0-67.1 0-10.5-0.2-10.7-11-10.8 -7.4-0.1-14.7-0.2-22.1 0 -5 0.1-7.8-1.5-7.4-7.1 0.9-11.4 1.5-22.9 2.2-34.3 0.3-5.5 3.3-7.4 8.7-7.4 39.5 0.1 78.9 0.1 118.4 0 5.6 0 8.1 2 7.6 7.8 -0.9 11.1-1.5 22.3-2 33.5 -0.2 5.7-3.1 7.7-8.5 7.5 -7.1-0.2-14.1-0.1-21.2 0 -8.9 0.2-9.3 0.5-9.3 9.7 0 43 0 86 0 129 0 2.4 0 4.7 0 7.1 -0.2 9-0.5 9.3-9.7 9.4 -11.8 0.1-23.6 0-35.3 0 -10.4 0-10.4-0.1-10.4-10.1C733.9 175.1 733.9 152.7 733.9 130.3z"/><path d="M-744.2 218.8c0-3.5 0-7 0-10.5 0-2.2 0.9-3.2 3.2-3.5 7.6-0.9 11.4 1.7 12.3 9.3 0.5 3.9 0.3 8-0.1 11.9 -0.5 4.3-2.7 6-7 6.4 -0.3 0-0.7 0-1 0 -7.5 0.3-7.5 0.3-7.5-7.2 0-2.2 0-4.3 0-6.5C-744.2 218.8-744.2 218.8-744.2 218.8z" class="a"/><path d="M-729.6 174.3c-0.1 1.8-0.1 2.8-0.2 3.8 -0.6 7.2-4.1 10-11.2 9.1 -2-0.2-3.1-1-3.1-3 0-6.1-0.1-12.3 0.1-18.4 0-0.9 0.9-2.3 1.7-2.6 4.9-2.2 10.7 0.8 12 6.1C-729.9 171.1-729.8 173.1-729.6 174.3z" class="a"/><path d="M-655.7 197.9c0.6-8.3 0.8-14.8 1.5-21.2 1-8.6 5.6-12.5 13.5-12 5.6 0.4 9.5 3.2 10.8 8.7 1.1 4.7 1.9 9.5 1.9 14.3 0.1 9.5-0.2 19-0.9 28.4 -0.6 9-5.7 12.9-14.3 12 -5.6-0.6-9.2-3.1-10.1-8.7C-654.5 211.8-655 203.9-655.7 197.9z" class="a"/><path d="M-824.4 213.1c-4.6 0-8.9 0-14.1 0 2.2-13.8 4.3-27.3 6.5-41.3C-829.5 175-824.5 203.3-824.4 213.1z" class="a"/></svg>