<?xml version="1.0" standalone="no"?>
<!DOCTYPE svg PUBLIC "-//W3C//DTD SVG 1.1//EN" "http://www.w3.org/Graphics/SVG/1.1/DTD/svg11.dtd" >
<svg>
<metadata>
Created by FontForge 20090914 at Thu May  5 07:00:19 2016
 By www-data
Copyright (c) Mark Simonson 2009-2010. All rights reserved.
</metadata>
<defs>
<font id="AnonymousPro" horiz-adv-x="1118" >
  <font-face 
    font-family="Anonymous Pro"
    font-weight="400"
    font-stretch="normal"
    units-per-em="2048"
    panose-1="2 6 6 9 3 2 2 0 5 4"
    ascent="1675"
    descent="-373"
    x-height="932"
    cap-height="1305"
    bbox="-165 -395.003 1147 1854"
    underline-thickness="123"
    underline-position="-126"
    unicode-range="U+000D-U+FB02"
  />
<missing-glyph 
d="M883 0h-834v1305h834v-1305zM186 117h559v1071h-559v-1071z" />
    <glyph glyph-name=".notdef" 
d="M883 0h-834v1305h834v-1305zM186 117h559v1071h-559v-1071z" />
    <glyph glyph-name=".null" 
 />
    <glyph glyph-name=".null" 
 />
    <glyph glyph-name="nonmarkingreturn" unicode="&#xd;" 
 />
    <glyph glyph-name="space" unicode=" " 
 />
    <glyph glyph-name="exclam" unicode="!" 
d="M557 1305l-51 -938h-82l-51 938h184zM559 0h-186v186h186v-186z" />
    <glyph glyph-name="quotedbl" unicode="&#x22;" 
d="M745 1305l-40 -465h-103l-43 465h186zM373 1305l-43 -465h-101l-43 465h187z" />
    <glyph glyph-name="numbersign" unicode="#" 
d="M932 222h-221v-221h-117v221h-256v-221h-117v221h-221v110h221v264h-221v109h221v228h117v-228h256v228h117v-228h221v-109h-221v-264h221v-110zM594 332v264h-256v-264h256z" />
    <glyph glyph-name="dollar" unicode="$" 
d="M397 -16c-56 6.66699 -106.833 20.5029 -152.5 41.5029s-85.167 47.333 -118.5 79s-60.666 67.834 -81.999 108.501s-36 83.667 -44 129l129 33c15.333 -67.333 44.5 -125.833 87.5 -175.5s103.167 -81.5 180.5 -95.5v527c-56 20.667 -105.833 41.834 -149.5 63.501
s-80.834 46.5 -111.501 74.5s-53.834 60.167 -69.501 96.5s-23.5 78.833 -23.5 127.5c0 42.667 8.16699 82.667 24.5 120s39.5 71.166 69.5 101.499s66.833 55 110.5 74s93.5 31.833 149.5 38.5v164h138v-164c50 -6.66699 96.167 -21.334 138.5 -44.001
s78.833 -50.334 109.5 -83.001s55.334 -68.834 74.001 -108.501s30 -79.834 34 -120.501l-143 -25c-8.66699 58.667 -30.334 112.334 -65.001 161.001s-84 79.667 -148 93v-471c121.333 -44.667 212.333 -96.167 273 -154.5s91 -136.5 91 -234.5
c0 -45.333 -8.16699 -88 -24.5 -128s-40.166 -75.833 -71.499 -107.5s-69.5 -58.334 -114.5 -80.001s-96.167 -35.167 -153.5 -40.5v-170h-138v170zM750 328.003c0 57.333 -18.165 106.167 -54.498 146.5s-89.833 76.166 -160.5 107.499v-478
c77.333 11.333 132.166 37.833 164.499 79.5s49.166 89.834 50.499 144.501zM184.002 995.004c0 -51.333 19.168 -94.168 57.501 -128.501s90.166 -64.5 155.499 -90.5v426c-36.667 -5.33301 -68.667 -15.166 -96 -29.499s-49.5 -31 -66.5 -50s-29.667 -39.5 -38 -61.5
s-12.5 -44 -12.5 -66z" />
    <glyph glyph-name="percent" unicode="%" 
d="M481 1073c0 -34 -6.5 -66.333 -19.5 -97s-31 -57.334 -54 -80.001s-49.833 -40.834 -80.5 -54.501s-63.334 -20.5 -98.001 -20.5c-34 0 -66.333 6.83301 -97 20.5s-57.334 31.834 -80.001 54.501s-40.334 49.334 -53.001 80.001s-19 63 -19 97s6.33301 66.833 19 98.5
s30.334 58.667 53.001 81s49.334 40.333 80.001 54s63 20.5 97 20.5c34.667 0 67.334 -6.83301 98.001 -20.5s57.5 -31.667 80.5 -54s41 -49.333 54 -81s19.5 -64.5 19.5 -98.5zM932 1272l-836 -1299l-94 60l838 1302zM961 229c0 -35.333 -6.83203 -68.001 -20.499 -98.001
s-31.834 -56.667 -54.501 -80s-49.667 -41.5 -81 -54.5s-64 -19.5 -98 -19.5c-34.667 0 -67.334 6.5 -98.001 19.5s-57.167 30.833 -79.5 53.5s-40.333 49.334 -54 80.001s-20.5 63.667 -20.5 99c0 34.667 6.83301 67.334 20.5 98.001s31.667 57.167 54 79.5
s48.833 40 79.5 53s63.334 19.5 98.001 19.5c34 0 66.333 -6.5 97 -19.5s57.667 -30.667 81 -53s41.833 -48.833 55.5 -79.5s20.5 -63.334 20.5 -98.001zM379.001 1073c0 42.667 -14.333 78.667 -43 108s-64.334 44 -107.001 44c-42 0 -77.333 -14.667 -106 -44
s-43 -65.333 -43 -108c0 -42 14.333 -77.667 43 -107s64 -44 106 -44c42.667 0 78.334 14.667 107.001 44s43 65 43 107zM858.001 228.999c0 42.667 -14.667 78.334 -44 107.001s-65 43 -107 43c-42.667 0 -78.334 -14.333 -107.001 -43s-43 -64.334 -43 -107.001
c0 -42 14.333 -77.667 43 -107s64.334 -44 107.001 -44c42 0 77.667 14.667 107 44s44 65 44 107z" />
    <glyph glyph-name="ampersand" unicode="&#x26;" 
d="M956 565c-12 -57.333 -31.332 -114.999 -57.999 -172.999s-59.667 -113 -99 -165l157 -147l-94 -107l-157 154c-49.333 -44 -104 -80 -164 -108s-125 -42 -195 -42c-50.667 0 -98.5 9.33301 -143.5 28s-84.167 44 -117.5 76s-60 69.5 -80 112.5s-30 89.833 -30 140.5
c0 42 4.5 80.5 13.5 115.5s21.333 66.5 37 94.5s34.167 53.167 55.5 75.5s44.333 43.166 69 62.499c-41.333 52 -73.333 103.5 -96 154.5s-34 102.5 -34 154.5c0 102.667 29.833 184.334 89.5 245.001s139.167 91 238.5 91c45.333 0 87.833 -6.83301 127.5 -20.5
s74.167 -33.167 103.5 -58.5s52.166 -56 68.499 -92s24.5 -77.333 24.5 -124c0 -52 -10.333 -96.333 -31 -133s-46.667 -69 -78 -97s-66.833 -53.333 -106.5 -76s-78.5 -46.334 -116.5 -71.001l360 -338c32 44 58.167 90.167 78.5 138.5s35.833 95.833 46.5 142.5z
M346.001 109.001c52 0 100.5 9.83203 145.5 29.499s85.167 45.834 120.5 78.501l-344 336l-30 29c-34.667 -30 -62.5 -64.5 -83.5 -103.5s-31.5 -87.167 -31.5 -144.5c0 -64 20.833 -117.5 62.5 -160.5s95.167 -64.5 160.5 -64.5zM162.001 991
c0 -31.333 5.83105 -66.833 17.498 -106.5s36.5 -84.5 74.5 -134.5l101.5 59c33.667 19.333 63.334 39.833 89.001 61.5s46.334 45.834 62.001 72.501s23.5 57.667 23.5 93c0 52 -17.333 93 -52 123s-78 45 -130 45c-28.667 0 -54.5 -5.83301 -77.5 -17.5
s-42.833 -27.334 -59.5 -47.001s-29 -42.5 -37 -68.5s-12 -52.667 -12 -80z" />
    <glyph glyph-name="quotesingle" unicode="'" 
d="M559 1305l-43 -469h-102l-41 469h186z" />
    <glyph glyph-name="parenleft" unicode="(" 
d="M633 -371c-71.333 56 -134.666 119.5 -189.999 190.5s-101.666 146.833 -138.999 227.5s-66 165 -86 253s-30 177 -30 267s10 178.833 30 266.5s48.667 171.667 86 252s83.666 156 138.999 227s118.666 134.5 189.999 190.5l72 -90
c-63.333 -50.667 -119.833 -108 -169.5 -172s-91.667 -132.5 -126 -205.5s-60.333 -149.167 -78 -228.5s-26.5 -159.333 -26.5 -240c0 -82 8.83301 -162.5 26.5 -241.5s43.667 -154.667 78 -227s76 -141 125 -206s105.833 -122.833 170.5 -173.5z" />
    <glyph glyph-name="parenright" unicode=")" 
d="M748 565c0 -90 -10 -178.668 -30 -266.001s-49.167 -171.333 -87.5 -252s-85 -156.5 -140 -227.5s-118.167 -134.5 -189.5 -190.5l-72 90c63.333 50.667 119.833 108.167 169.5 172.5s92 133 127 206s61.333 149 79 228s26.5 158.833 26.5 239.5s-8.83301 161 -26.5 241
s-44 156.5 -79 229.5s-77.333 141.5 -127 205.5s-106.167 121.333 -169.5 172l72 90c71.333 -56 134.5 -119.5 189.5 -190.5s101.667 -146.667 140 -227s67.5 -164.666 87.5 -252.999s30 -177.5 30 -267.5z" />
    <glyph glyph-name="asterisk" unicode="*" 
d="M897 652l-342 -184l342 -189l-55 -94l-332 203l14 -387h-116l14 387l-332 -203l-55 94l342 189l-342 184l55 96l332 -205l-14 390h116l-14 -390l332 205z" />
    <glyph glyph-name="plus" unicode="+" 
d="M932 420h-408v-407h-116v407h-408v117h408v407h116v-407h408v-117z" />
    <glyph glyph-name="comma" unicode="," 
d="M610 186l-274 -559h-96l186 559h184z" />
    <glyph glyph-name="hyphen" unicode="-" 
d="M932 420h-932v117h932v-117z" />
    <glyph glyph-name="period" unicode="." 
d="M559 0h-186v186h186v-186z" />
    <glyph glyph-name="slash" unicode="/" 
d="M905 1303l-766 -1543l-98 52l766 1542z" />
    <glyph glyph-name="zero" unicode="0" 
d="M104 651c0 -96.667 11.666 -187.333 34.999 -272l611 645c-32 60 -71.5 106 -118.5 138s-101.833 48 -164.5 48c-117.333 0 -207.166 -49.833 -269.499 -149.5s-93.5 -236.167 -93.5 -409.5zM185.999 268.001c66 -117.333 159.667 -176 281 -176
c114.667 0 203.667 49.833 267 149.5s95 236.167 95 409.5c0 48 -3 93.5 -9 136.5s-14.333 84.167 -25 123.5zM-33.001 651.001c0 87.333 9.33496 171.666 28.002 252.999s47.667 153.333 87 216s90.833 112.834 154.5 150.501s140.5 56.5 230.5 56.5
s166.833 -18.833 230.5 -56.5s115.5 -87.834 155.5 -150.501s69 -134.667 87 -216s27 -165.666 27 -252.999s-9 -171.666 -27 -252.999s-46.667 -153 -86 -215s-90.833 -111.833 -154.5 -149.5s-141.167 -56.5 -232.5 -56.5s-168.833 18.833 -232.5 56.5
s-115.334 87.5 -155.001 149.5s-68.334 133.667 -86.001 215s-26.5 165.666 -26.5 252.999z" />
    <glyph glyph-name="one" unicode="1" 
d="M745 0l-559.003 0.000976562v117h211v891c-12 -27.333 -31 -56.5 -57 -87.5s-56.667 -59.333 -92 -85s-74.166 -47.167 -116.499 -64.5s-86.166 -26 -131.499 -26v142c40.667 0 84.334 12.667 131.001 38s89.667 57.666 129 96.999s72 84 98 134s39 99.667 39 149h138
v-1188h210v-117z" />
    <glyph glyph-name="two" unicode="2" 
d="M883 967c0 -36 -3.16992 -68.333 -9.50293 -97s-17.666 -57.667 -33.999 -87s-37.833 -60.333 -64.5 -93s-60.334 -70 -101.001 -112l-455 -461h551v256h117v-373h-848v121l508 516l74.5 78c23.667 26 44.834 52.333 63.501 79s33.334 54.334 44.001 83.001
s16 58.667 16 90c0 80 -26.5 140.5 -79.5 181.5s-118.5 61.5 -196.5 61.5c-109.333 0 -192 -30.333 -248 -91s-84 -148.334 -84 -263.001h-127c0 147.333 39.333 262.666 118 345.999s192.334 125 341.001 125c56 0 108.833 -8.16699 158.5 -24.5s93.667 -39.833 132 -70.5
s68.5 -68.167 90.5 -112.5s33 -95.166 33 -152.499z" />
    <glyph glyph-name="three" unicode="3" 
d="M920 360c0 -57.333 -11.6621 -109.497 -34.9951 -156.497s-54.5 -87.167 -93.5 -120.5s-84 -59.333 -135 -78s-104.5 -28 -160.5 -28c-63.333 0 -122.166 8.66699 -176.499 26s-102.333 42.666 -144 75.999s-75.5 75.333 -101.5 126s-41.667 108.667 -47 174l133 18
c8 -100.667 43 -176.334 105 -227.001s139 -76 231 -76c39.333 0 76.333 6.5 111 19.5s65 31.5 91 55.5s46.5 52 61.5 84s22.5 67.667 22.5 107c0 53.333 -8.5 96.833 -25.5 130.5s-41.5 60 -73.5 79s-71.5 31.833 -118.5 38.5s-101.5 10 -163.5 10v117
c45.333 0 89.166 3.83301 131.499 11.5s80.166 20.334 113.499 38.001s60.333 41.167 81 70.5s31 66.666 31 111.999c0 73.333 -24.333 132.166 -73 176.499s-111.667 66.5 -189 66.5c-97.333 0 -175.333 -25.5 -234 -76.5s-88 -131.167 -88 -240.5h-129c0 68 11 129 33 183
s52.667 99.5 92 136.5s86.666 65.333 141.999 85s116.666 29.5 183.999 29.5c56 0 108.167 -8.16699 156.5 -24.5s90.666 -39.833 126.999 -70.5s64.666 -68.167 84.999 -112.5s30.5 -95.166 30.5 -152.499c0 -74 -22.167 -135.5 -66.5 -184.5s-107.5 -79.833 -189.5 -92.5
c46.667 -6.66699 87.334 -19.834 122.001 -39.501s63.667 -44.667 87 -75s41.166 -63.833 53.499 -100.5s18.5 -75 18.5 -115z" />
    <glyph glyph-name="four" unicode="4" 
d="M932 0h-559v117h211v256h-584v119l547 813h174v-813h211v-119h-211v-256h211v-117zM584 492v651l-439 -651h439z" />
    <glyph glyph-name="five" unicode="5" 
d="M938 438c0 -64 -11.998 -124.004 -35.998 -180.004s-56.833 -104.833 -98.5 -146.5s-91.834 -74.5 -150.501 -98.5s-122.667 -36 -192 -36c-62.667 0 -120.667 9.33301 -174 28s-100.166 45.334 -140.499 80.001s-72.833 77.334 -97.5 128.001s-39.667 108.667 -45 174
l133 21c4 -45.333 14.667 -87.5 32 -126.5s40 -72.167 68 -99.5s61 -48.833 99 -64.5s79.667 -23.5 125 -23.5c53.333 0 100.833 8.83301 142.5 26.5s77.167 42.334 106.5 74.001s51.833 68.334 67.5 110.001s23.5 86.167 23.5 133.5
c0 49.333 -7.83301 95.166 -23.5 137.499s-37.834 78.833 -66.501 109.5s-63.834 54.834 -105.501 72.501s-87.834 26.5 -138.501 26.5c-53.333 0 -104.5 -11.167 -153.5 -33.5s-91.5 -54.833 -127.5 -97.5h-137v652h817v-117h-680v-408c40 38.667 85.5 68.5 136.5 89.5
s103.167 31.5 156.5 31.5c67.333 0 129 -10.833 185 -32.5s104.333 -52.334 145 -92.001s72.334 -88.167 95.001 -145.5s34 -121.666 34 -192.999z" />
    <glyph glyph-name="six" unicode="6" 
d="M958 444c0 -72 -11.8301 -136.666 -35.4971 -193.999s-56.667 -106.166 -99 -146.499s-92.5 -71.5 -150.5 -93.5s-120.667 -33 -188 -33c-92.667 0 -170.334 18.833 -233.001 56.5s-113.167 87.5 -151.5 149.5s-66 133.667 -83 215s-25.5 165.666 -25.5 252.999
c0 88.667 11.5 173.667 34.5 255s57.5 153.5 103.5 216.5s103.5 112.833 172.5 149.5s149.833 55 242.5 55c129.333 0 237 -45 323 -135l-90 -80c-60 65.333 -137.667 98 -233 98c-70 0 -131.833 -13.333 -185.5 -40s-98.334 -63.834 -134.001 -111.501
s-62.334 -105 -80.001 -172s-26.5 -140.5 -26.5 -220.5c9.33301 34 27 66 53 96s56 55.833 90 77.5s70.833 39 110.5 52s79.5 19.5 119.5 19.5c68 0 130.667 -11.5 188 -34.5s106.5 -55 147.5 -96s73 -90.167 96 -147.5s34.5 -120.333 34.5 -189zM821.003 444.001
c0 49.333 -7.5 95.499 -22.5 138.499s-36.5 80.167 -64.5 111.5s-62.5 56 -103.5 74s-87.167 27 -138.5 27c-50.667 0 -97.167 -8.33301 -139.5 -25s-78.5 -40 -108.5 -70s-53.167 -65.5 -69.5 -106.5s-24.5 -86.5 -24.5 -136.5c0 -49.333 6.66699 -95.833 20 -139.5
s34 -82.167 62 -115.5s62.833 -59.666 104.5 -78.999s91.167 -29 148.5 -29c49.333 0 94.5 8.16699 135.5 24.5s76.5 39.5 106.5 69.5s53.167 67 69.5 111s24.5 92.333 24.5 145z" />
    <glyph glyph-name="seven" unicode="7" 
d="M920 1184c-82 -88.667 -147.668 -176 -197.001 -262s-87.333 -175.833 -114 -269.5s-44.667 -193.667 -54 -300s-14.666 -223.833 -15.999 -352.5h-144c1.33301 121.333 7.83301 235.666 19.5 342.999s32.167 209.833 61.5 307.5s69.333 190.834 120 279.501
s114.667 174.667 192 258h-622v-256h-117v373h871v-121z" />
    <glyph glyph-name="eight" unicode="8" 
d="M942 367c0 -68.667 -12.333 -127.167 -37 -175.5s-58.5 -88.5 -101.5 -120.5s-93.5 -55.667 -151.5 -71s-119.667 -23 -185 -23c-66.667 0 -128.667 7.66699 -186 23s-107.5 39 -150.5 71s-76.833 72.167 -101.5 120.5s-37 106.833 -37 175.5c0 35.333 6.5 71 19.5 107
s31.667 69.5 56 100.5s54 56.667 89 77s73.5 33.166 115.5 38.499c-36.667 4 -69.334 16 -98.001 36s-52.834 43.333 -72.501 70s-35 55.667 -46 87s-16.5 61.333 -16.5 90c0 58.667 11.667 110.167 35 154.5s54.666 81.166 93.999 110.499s85 51.5 137 66.5
s106 22.5 162 22.5s110 -7.5 162 -22.5s97.667 -37.167 137 -66.5s70.666 -66.166 93.999 -110.499s35 -95.833 35 -154.5c0 -28.667 -5.5 -58.667 -16.5 -90s-26.333 -60.333 -46 -87s-44.167 -50 -73.5 -70s-62.666 -32 -99.999 -36
c42.667 -5.33301 81.334 -18.166 116.001 -38.499s64.334 -46 89.001 -77s43.834 -64.5 57.501 -100.5s20.5 -71.667 20.5 -107zM758 973c0 73.333 -25.998 131.166 -77.998 173.499s-123 63.5 -213 63.5s-161 -21.167 -213 -63.5s-78 -100.166 -78 -173.499
c0 -68.667 24.667 -123.334 74 -164.001s121.666 -61 216.999 -61s167.666 20.333 216.999 61s74 95.334 74 164.001zM805.002 367c0 47.333 -9.16699 87.833 -27.5 121.5s-43.333 61 -75 82s-67.5 36.333 -107.5 46s-82.667 14.5 -128 14.5s-88 -4.83301 -128 -14.5
s-75.833 -25 -107.5 -46s-56.667 -48.333 -75 -82s-27.5 -74.167 -27.5 -121.5c0 -46.667 9.16699 -87 27.5 -121s43.333 -62.333 75 -85s67.5 -39.5 107.5 -50.5s82.667 -16.5 128 -16.5s88 5.5 128 16.5s75.833 27.833 107.5 50.5s56.667 51 75 85s27.5 74.333 27.5 121z
" />
    <glyph glyph-name="nine" unicode="9" 
d="M-23 860c0 72.667 12.0029 137.668 36.0029 195.001s57.167 106.166 99.5 146.499s92.5 71.333 150.5 93s120.667 32.5 188 32.5c91.333 0 168.666 -18.833 231.999 -56.5s114.166 -87.834 152.499 -150.501s66 -134.334 83 -215.001s25.5 -164.667 25.5 -252
c0 -88.667 -11.667 -173.667 -35 -255s-57.833 -153.333 -103.5 -216s-103.334 -112.5 -173.001 -149.5s-150.167 -55.5 -241.5 -55.5c-129.333 0 -237 45.333 -323 136l90 80c30 -33.333 64.833 -58.166 104.5 -74.499s82.5 -24.5 128.5 -24.5c70 0 131.5 13.333 184.5 40
s97.667 63.834 134 111.501s63.333 105 81 172s26.5 140.833 26.5 221.5c-10.667 -34 -28.667 -66 -54 -96s-55 -56 -89 -78s-71.167 -39.5 -111.5 -52.5s-79.833 -19.5 -118.5 -19.5c-68 0 -130.667 11.667 -188 35s-106.5 55.5 -147.5 96.5s-73.167 90.167 -96.5 147.5
s-35 120 -35 188zM115.003 860.001c0 -49.333 7.50195 -95.5 22.502 -138.5s36.5 -80.167 64.5 -111.5s62.5 -55.833 103.5 -73.5s87.167 -26.5 138.5 -26.5c50.667 0 97.167 8.16699 139.5 24.5s78.5 39.166 108.5 68.499s53.167 64.833 69.5 106.5
s24.5 87.834 24.5 138.501c0 49.333 -6.83301 95.833 -20.5 139.5s-34.334 82.167 -62.001 115.5s-62.334 59.5 -104.001 78.5s-91.167 28.5 -148.5 28.5c-49.333 0 -94.5 -8.16699 -135.5 -24.5s-76.5 -39.5 -106.5 -69.5s-53.167 -66.833 -69.5 -110.5
s-24.5 -92.167 -24.5 -145.5z" />
    <glyph glyph-name="colon" unicode=":" 
d="M559 745h-186v187h186v-187zM559 0h-186v186h186v-186z" />
    <glyph glyph-name="semicolon" unicode=";" 
d="M559 745h-186v187h186v-187zM610 186l-274 -559h-96l186 559h184z" />
    <glyph glyph-name="less" unicode="&#x3c;" 
d="M788 45l-77 -79l-512 512l512 512l77 -80l-432 -432z" />
    <glyph glyph-name="equal" unicode="=" 
d="M932 639h-932v119h932v-119zM932 199h-932v117h932v-117z" />
    <glyph glyph-name="greater" unicode="&#x3e;" 
d="M733 478l-512 -512l-78 79l432 433l-432 432l78 80z" />
    <glyph glyph-name="question" unicode="?" 
d="M559 0h-186v186h186v-186zM909 1022c0 -52 -9.50098 -97.499 -28.501 -136.499s-42.833 -74.833 -71.5 -107.5s-60 -63.334 -94 -92.001s-65.333 -58.334 -94 -89.001s-52.667 -64.167 -72 -100.5s-29 -77.5 -29 -123.5h-145c0 52 9.83301 98.333 29.5 139
s43.834 78.834 72.501 114.501s60.5 69.167 95.5 100.5s66.833 62.333 95.5 93s52.834 62.5 72.501 95.5s29.5 68.5 29.5 106.5c0 58.667 -18 104.667 -54 138s-88.333 50 -157 50c-42 0 -78.833 -6.83301 -110.5 -20.5s-58.334 -32 -80.001 -55s-39 -50.5 -52 -82.5
s-21.5 -67.333 -25.5 -106l-123 19c12 112 50.5 200.333 115.5 265s156.167 97 273.5 97c110.667 0 197 -28.333 259 -85s93 -130 93 -220z" />
    <glyph glyph-name="at" unicode="@" 
d="M967 684c0 -45.333 -3.66699 -91.3301 -11 -137.997s-20 -88.834 -38 -126.501s-42 -68.5 -72 -92.5s-67.333 -36 -112 -36c-19.333 0 -38 3.33301 -56 10s-34 16.334 -48 29.001s-25.167 27.5 -33.5 44.5s-12.5 36.167 -12.5 57.5v28
c-14.667 -50 -37.667 -90.667 -69 -122s-67.666 -47 -108.999 -47c-44 0 -80.667 9.66699 -110 29s-52.833 45 -70.5 77s-30.167 68.333 -37.5 109s-11 82.334 -11 125.001c0 49.333 5.66699 96.5 17 141.5s28.333 84.667 51 119s50.834 61.666 84.501 81.999
s72.834 30.5 117.501 30.5c23.333 0 48 -5.83301 74 -17.5s47 -29.834 63 -54.501v53h131v-525c0 -21.333 4 -36.666 12 -45.999s19.667 -14 35 -14c18.667 0 34.667 9 48 27s24 40.833 32 68.5s13.833 58.167 17.5 91.5s5.5 65.666 5.5 96.999
c0 46 -2.83301 91.833 -8.5 137.5s-15 89 -28 130s-29.833 79 -50.5 114s-45.834 65.333 -75.501 91s-64 45.667 -103 60s-83.167 21.5 -132.5 21.5c-75.333 0 -138.333 -16 -189 -48s-91.5 -75 -122.5 -129s-53.167 -116.333 -66.5 -187s-20 -145 -20 -223
c0 -76.667 6.66699 -150.167 20 -220.5s35.5 -132.5 66.5 -186.5s72 -97 123 -129s113.833 -48 188.5 -48c54.667 0 103.667 9.66699 147 29s82.666 45.333 117.999 78l59 -68c-85.333 -86 -193.333 -129 -324 -129c-61.333 0 -116.166 8.5 -164.499 25.5
s-91 40.833 -128 71.5s-68.667 67 -95 109s-47.833 88 -64.5 138s-28.834 103 -36.501 159s-11.5 113 -11.5 171c0 59.333 4 117.166 12 173.499s20.333 109.5 37 159.5s38.167 96 64.5 138s58.166 78.167 95.499 108.5s80 54 128 71s102.333 25.5 163 25.5
c90 0 166.833 -18.5 230.5 -55.5s115.5 -85.833 155.5 -146.5s69 -129.334 87 -206.001s27 -155 27 -235zM584 808.003c-15.333 32.667 -33.501 55.5029 -54.501 68.5029s-44.167 19.5 -69.5 19.5s-47.166 -7.5 -65.499 -22.5s-33.5 -35 -45.5 -60
s-20.833 -53.333 -26.5 -85s-8.5 -63.834 -8.5 -96.501c0 -72.667 9.5 -127.334 28.5 -164.001s45.833 -55 80.5 -55c24.667 0 47 7.5 67 22.5s37 34.667 51 59s24.667 51.666 32 81.999s11 60.5 11 90.5v141z" />
    <glyph glyph-name="A" unicode="A" 
d="M995 0h-147l-123 373h-516l-121 -373h-147l434 1305h186zM686 494l-219 673l-219 -673h438z" />
    <glyph glyph-name="B" unicode="B" 
d="M930 373c0 -124.667 -40.334 -217.998 -121.001 -279.998s-195.334 -93 -344.001 -93h-416v1305h393c54.667 0 108.334 -4.5 161.001 -13.5s99.834 -25.833 141.501 -50.5s75.5 -58.834 101.5 -102.501s39 -100.834 39 -171.501
c0 -135.333 -67.667 -227.666 -203 -276.999c165.333 -50.667 248 -156.334 248 -317.001zM747.999 967.002c0 46 -9.66797 83.665 -29.001 112.998s-44 51.833 -74 67.5s-63 26.334 -99 32.001s-70.667 8.5 -104 8.5h-256v-443h256c37.333 0 74 2.83301 110 8.5
s68.333 16.667 97 33s52.334 38.833 71.001 67.5s28 66.334 28 113.001zM792.998 373c0 90 -29.167 155.5 -87.5 196.5s-138.5 61.5 -240.5 61.5h-279v-514h279c102 0 182.167 21.5 240.5 64.5s87.5 106.833 87.5 191.5z" />
    <glyph glyph-name="C" unicode="C" 
d="M940 342c-34 -112 -89.667 -200.832 -167 -266.499s-174.666 -98.5 -291.999 -98.5c-91.333 0 -168.666 18.833 -231.999 56.5s-115.166 87.5 -155.499 149.5s-69.333 133.667 -87 215s-26.5 165.666 -26.5 252.999s8.83301 171.666 26.5 252.999s46.667 153.333 87 216
s92.166 112.834 155.499 150.501s140.666 56.5 231.999 56.5c80.667 0 149.667 -14.333 207 -43s99.666 -72.334 126.999 -131.001v152h117v-428h-117c0 46 -8.83301 89.5 -26.5 130.5s-41.5 76.5 -71.5 106.5s-65.5 53.5 -106.5 70.5s-84.167 25.5 -129.5 25.5
c-70.667 0 -129.167 -16.667 -175.5 -50s-83.5 -77 -111.5 -131s-47.833 -114 -59.5 -180s-17.5 -132 -17.5 -198c0 -65.333 5.83301 -131.166 17.5 -197.499s31.5 -126 59.5 -179s65.167 -96.333 111.5 -130s104.833 -50.5 175.5 -50.5c162.667 0 276 98.333 340 295z" />
    <glyph glyph-name="D" unicode="D" 
d="M975 651c0 -87.333 -9.16895 -170.499 -27.502 -249.499s-47.666 -148.333 -87.999 -208s-92.333 -106.834 -156 -141.501s-140.5 -52 -230.5 -52h-424v1305h424c88.667 0 164.834 -17.833 228.501 -53.5s115.667 -83.5 156 -143.5s70 -129.333 89 -208
s28.5 -161.667 28.5 -249zM837.998 651.001c0 170.667 -32.167 302.832 -96.5 396.499s-153.833 140.5 -268.5 140.5h-287v-1071h287c114.667 0 204.167 46.333 268.5 139s96.5 224.334 96.5 395.001z" />
    <glyph glyph-name="E" unicode="E" 
d="M883 0h-834v1305h834v-117h-697v-467h514v-117h-514v-487h697v-117z" />
    <glyph glyph-name="F" unicode="F" 
d="M883 1188h-697v-467h514v-117h-514v-604h-137v1305h834v-117z" />
    <glyph glyph-name="G" unicode="G" 
d="M983 649c0 -88.667 -9.16699 -173.331 -27.5 -253.998s-47.666 -152 -87.999 -214s-92.333 -111.5 -156 -148.5s-140.5 -55.5 -230.5 -55.5c-91.333 0 -168.666 18.833 -231.999 56.5s-115.166 87.5 -155.499 149.5s-69.333 133.667 -87 215s-26.5 165.666 -26.5 252.999
s8.83301 171.666 26.5 252.999s46.667 153.333 87 216s92.166 112.834 155.499 150.501s140.666 56.5 231.999 56.5c80.667 0 149.667 -14.333 207 -43s99.666 -72.334 126.999 -131.001v152h117v-428h-117c0 47.333 -8.83301 91.5 -26.5 132.5s-41.5 76.167 -71.5 105.5
s-65.5 52.5 -106.5 69.5s-84.167 25.5 -129.5 25.5c-70.667 0 -129.167 -16.667 -175.5 -50s-83.5 -77 -111.5 -131s-47.833 -114 -59.5 -180s-17.5 -132 -17.5 -198c0 -65.333 5.83301 -131.166 17.5 -197.499s31.5 -126 59.5 -179s65.167 -96.333 111.5 -130
s104.833 -50.5 175.5 -50.5c105.333 0 188.333 40.667 249 122s96.667 195.666 108 342.999h-289v117h434v-27z" />
    <glyph glyph-name="H" unicode="H" 
d="M883 0h-138v604h-559v-604h-137v1305h137v-584h559v584h138v-1305z" />
    <glyph glyph-name="I" unicode="I" 
d="M745 0h-559v117h211v1071h-211v117h559v-117h-210v-1071h210v-117z" />
    <glyph glyph-name="J" unicode="J" 
d="M883 498c0 -165.333 -35.165 -293.5 -105.498 -384.5s-177.833 -136.5 -322.5 -136.5c-116 0 -213.333 30.5 -292 91.5s-133.667 152.167 -165 273.5l119 45c28.667 -108 71.334 -183.833 128.001 -227.5s126.667 -65.5 210 -65.5c61.333 0 111.166 12.333 149.499 37
s67.666 56.167 87.999 94.5s34.166 81.333 41.499 129s11 95.5 11 143.5v807h138v-807z" />
    <glyph glyph-name="K" unicode="K" 
d="M926 0h-168l-434 639l-138 -154v-485h-137v1305h137v-635l559 635h181l-512 -570z" />
    <glyph glyph-name="L" unicode="L" 
d="M883 0h-834v1305h137v-1188h697v-117z" />
    <glyph glyph-name="M" unicode="M" 
d="M883 0h-138v1087l-231 -673h-98l-230 673v-1087h-137v1305h178l238 -682l240 682h178v-1305z" />
    <glyph glyph-name="N" unicode="N" 
d="M883 0h-170l-527 1104v-1104h-137v1305h193l503 -1053v1053h138v-1305z" />
    <glyph glyph-name="O" unicode="O" 
d="M967 651c0 -87.333 -8.99805 -171.666 -26.998 -252.999s-46.667 -153 -86 -215s-90.833 -111.833 -154.5 -149.5s-141.167 -56.5 -232.5 -56.5s-168.833 18.833 -232.5 56.5s-115.334 87.5 -155.001 149.5s-68.334 133.667 -86.001 215s-26.5 165.666 -26.5 252.999
s8.83301 171.666 26.5 252.999s46.667 153.333 87 216s92.333 112.834 156 150.501s140.5 56.5 230.5 56.5s166.833 -18.833 230.5 -56.5s115.167 -87.834 154.5 -150.501s68.333 -134.667 87 -216s28 -165.666 28 -252.999zM829.002 651
c0 86 -8.16797 163.499 -24.501 232.499s-39.833 127.833 -70.5 176.5s-68.5 85.834 -113.5 111.501s-96.167 38.5 -153.5 38.5c-71.333 0 -130.166 -16.667 -176.499 -50s-83.5 -77 -111.5 -131s-47.5 -114 -58.5 -180s-16.5 -132 -16.5 -198
c0 -65.333 5.5 -131.166 16.5 -197.499s30.5 -126 58.5 -179s65.167 -96.333 111.5 -130s105.166 -50.5 176.499 -50.5c70.667 0 129.334 16.833 176.001 50.5s84 77 112 130s47.333 112.667 58 179s16 132.166 16 197.499z" />
    <glyph glyph-name="P" unicode="P" 
d="M930 932c0 -126 -39.333 -219.667 -118 -281s-189 -92 -331 -92h-295v-559h-137v1305h430c143.333 0 254.333 -31.167 333 -93.5s118 -155.5 118 -279.5zM793 932c0 90 -28.333 155.167 -85 195.5s-132.334 60.5 -227.001 60.5h-295v-512h295
c94.667 0 170.334 20.167 227.001 60.5s85 105.5 85 195.5z" />
    <glyph glyph-name="Q" unicode="Q" 
d="M967 651c0 -83.333 -7.83008 -163.497 -23.4971 -240.497s-41 -145.833 -76 -206.5s-80.5 -110.834 -136.5 -150.501s-123.667 -63.5 -203 -71.5c15.333 -89.333 46.166 -151 92.499 -185s114.5 -51 204.5 -51c23.333 0 43.166 0.333008 59.499 1
s32.166 1.66699 47.499 3v-117c-19.333 -1.33301 -37.833 -2.33301 -55.5 -3s-34.834 -1 -51.501 -1c-136 0 -238.5 29 -307.5 87s-111.167 147.333 -126.5 268c-73.333 9.33301 -137 33.166 -191 71.499s-98.167 87.166 -132.5 146.499s-59.666 127.5 -75.999 204.5
s-24.5 158.5 -24.5 244.5c0 87.333 8.83301 171.666 26.5 252.999s46.667 153.333 87 216s92.333 112.834 156 150.501s140.5 56.5 230.5 56.5s166.833 -18.833 230.5 -56.5s115.167 -87.834 154.5 -150.501s68.333 -134.667 87 -216s28 -165.666 28 -252.999z
M829.003 651.003c0 66 -5.6709 132 -17.0039 198s-30.666 126 -57.999 180s-64.666 97.667 -111.999 131s-105.666 50 -174.999 50c-71.333 0 -130.166 -16.667 -176.499 -50s-83.5 -77 -111.5 -131s-47.5 -114 -58.5 -180s-16.5 -132 -16.5 -198
c0 -173.333 31.5 -309.5 94.5 -408.5s152.5 -148.5 268.5 -148.5c114.667 0 203.667 49.5 267 148.5s95 235.167 95 408.5z" />
    <glyph glyph-name="R" unicode="R" 
d="M944 0l-174.002 0.00292969l-381 559h-203v-559h-137v1305h430c143.333 0 254.333 -31.167 333 -93.5s118 -155.5 118 -279.5c0 -54.667 -9.66699 -103.834 -29 -147.501s-45.666 -80.834 -78.999 -111.501s-73.166 -55.334 -119.499 -74.001s-96.833 -30 -151.5 -34z
M787.998 932.003c0 88.667 -27.5 153.5 -82.5 194.5s-130.5 61.5 -226.5 61.5h-293v-512h293c96 0 171.5 20.167 226.5 60.5s82.5 105.5 82.5 195.5z" />
    <glyph glyph-name="S" unicode="S" 
d="M899 340c0 -54.667 -11.3438 -104.162 -34.0107 -148.495s-53 -82.5 -91 -114.5s-81.667 -56.667 -131 -74s-100.666 -26 -153.999 -26c-73.333 0 -140.666 13.667 -201.999 41s-110 67.666 -146 120.999v-139h-116v397h116c0 -44.667 10.333 -85.5 31 -122.5
s47 -68.833 79 -95.5s68.833 -47.5 110.5 -62.5s84.167 -22.5 127.5 -22.5c38.667 0 74.334 5.5 107.001 16.5s61.334 26.667 86.001 47s44.167 45.166 58.5 74.499s21.5 62.666 21.5 99.999c0 42 -9.16699 78 -27.5 108s-43 55.667 -74 77s-65.833 39.5 -104.5 54.5
l-118 44.5l-142 52.5c-47.333 18.333 -89.666 41.5 -126.999 69.5s-67.666 62.167 -90.999 102.5s-35 90.5 -35 150.5c0 53.333 11.333 100.833 34 142.5s52.334 76.834 89.001 105.501s79.334 50.5 128.001 65.5s98.667 22.5 150 22.5c63.333 0 121.833 -13 175.5 -39
s95.5 -65.667 125.5 -119v136h121v-373h-121c0 39.333 -8.16699 76.166 -24.5 110.499s-38.5 63.666 -66.5 87.999s-60 43.666 -96 57.999s-74 21.5 -114 21.5c-35.333 0 -69 -4 -101 -12s-60 -20.833 -84 -38.5s-43.167 -40.5 -57.5 -68.5s-21.5 -61.333 -21.5 -100
c0 -34 8.5 -63 25.5 -87s39.833 -45.167 68.5 -63.5s61.834 -35 99.501 -50l115.5 -45.5c49.333 -17.333 98.333 -36.666 147 -57.999s92.334 -47 131.001 -77s70.334 -66.833 95.001 -110.5s37 -96.834 37 -159.501z" />
    <glyph glyph-name="T" unicode="T" 
d="M932 864h-117v324h-280v-1071h210v-117h-559v117h211v1071h-280v-324h-117v441h932v-441z" />
    <glyph glyph-name="U" unicode="U" 
d="M883 465c0 -74 -8.16699 -141 -24.5 -201s-41.666 -111.167 -75.999 -153.5s-77.833 -75.166 -130.5 -98.499s-115 -35 -187 -35c-72.667 0 -135.167 11.667 -187.5 35s-95.333 56.166 -129 98.499s-58.667 93.833 -75 154.5s-24.5 128 -24.5 202v838h137v-840
c0 -39.333 3.5 -81 10.5 -125s20.667 -84 41 -120s48.666 -66 84.999 -90s83.833 -36 142.5 -36s106.5 12 143.5 36s65.667 54 86 90s33.833 76 40.5 120s10 85.667 10 125v840h138v-840z" />
    <glyph glyph-name="V" unicode="V" 
d="M995 1305l-436 -1305h-186l-432 1305h145l381 -1166l379 1166h149z" />
    <glyph glyph-name="W" unicode="W" 
d="M995 1305l-235 -1305h-162l-133 637l-135 -637h-160l-233 1305h145l184 -1074l131 701h135l132 -701l184 1074h147z" />
    <glyph glyph-name="X" unicode="X" 
d="M954 0h-370v117h88l-205 428l-207 -428h88v-117h-371v117h127l283 540l-278 531h-109v117h373v-117h-109l203 -418l197 418h-105v117h373v-117h-113l-272 -531l280 -540h127v-117z" />
    <glyph glyph-name="Y" unicode="Y" 
d="M952 1188h-106l-311 -625v-446h210v-117h-559v117h211v446l-311 625h-106v117h368v-117h-108l227 -492l225 492h-108v117h368v-117z" />
    <glyph glyph-name="Z" unicode="Z" 
d="M887 0h-838v117l656 1071h-539v-320h-117v437h817v-117l-649 -1071h553v325h117v-442z" />
    <glyph glyph-name="bracketleft" unicode="[" 
d="M745 -373h-372v1864h372v-111h-262v-1640h262v-113z" />
    <glyph glyph-name="backslash" unicode="\" 
d="M997 -188l-98 -52l-766 1543l98 51z" />
    <glyph glyph-name="bracketright" unicode="]" 
d="M559 -373h-373v113h263v1640h-263v111h373v-1864z" />
    <glyph glyph-name="asciicircum" unicode="^" 
d="M934 559h-152l-315 613l-313 -613h-152l373 746h184z" />
    <glyph glyph-name="underscore" unicode="_" 
d="M932 -186h-932v117h932v-117z" />
    <glyph glyph-name="grave" unicode="`" 
d="M700 1077l-41 -65l-430 243l66 109z" />
    <glyph glyph-name="a" unicode="a" 
d="M-2 252c0 58.667 14.6631 107.834 43.9961 147.501s67.833 71 115.5 94s102.334 39.667 164.001 50s124.5 15.5 188.5 15.5c24.667 0 46.834 -0.333008 66.501 -1s38.334 -1.66699 56.001 -3s35.5 -3 53.5 -5s37.667 -4.33301 59 -7v67
c0 45.333 -9.83301 82.666 -29.5 111.999s-43.834 52.5 -72.501 69.5s-58.667 29 -90 36s-58 10.5 -80 10.5c-69.333 0 -133.333 -9.33301 -192 -28s-113.334 -43.667 -164.001 -75l-62 103c56 34 118.833 61.833 188.5 83.5s146.167 32.5 229.5 32.5
c50.667 0 100.5 -6.5 149.5 -19.5s93 -33 132 -60s70.167 -62.5 93.5 -106.5s35 -96.667 35 -158v-610h-138v156c-24 -30 -51.167 -56.333 -81.5 -79s-62.166 -41.167 -95.499 -55.5s-66.666 -25.333 -99.999 -33s-65 -11.5 -95 -11.5
c-123.333 0 -216.666 23.667 -279.999 71s-95 115.333 -95 204zM372.996 94c57.333 0 108.833 8.49902 154.5 25.499s84.5 38.167 116.5 63.5s56.833 52.333 74.5 81s26.5 54.667 26.5 78v88c-44.667 6.66699 -87.5 10.334 -128.5 11.001s-76.5 1 -106.5 1
c-49.333 0 -96.833 -3.33301 -142.5 -10s-85.5 -17.5 -119.5 -32.5s-61.333 -34.5 -82 -58.5s-31 -53.667 -31 -89c0 -39.333 19.167 -75.5 57.5 -108.5s98.5 -49.5 180.5 -49.5z" />
    <glyph glyph-name="b" unicode="b" 
d="M932 465c0 -71.333 -11 -137 -33 -197s-53.5 -111.5 -94.5 -154.5s-90.5 -76.5 -148.5 -100.5s-123 -36 -195 -36c-50.667 0 -99.167 9 -145.5 27s-89.5 44.667 -129.5 80v-84h-137v1305h137v-459c40 34 83.167 60.5 129.5 79.5s94.833 28.5 145.5 28.5
c72 0 137 -12.167 195 -36.5s107.5 -58 148.5 -101s72.5 -94.667 94.5 -155s33 -125.833 33 -196.5zM793 465c0 53.333 -6.83203 102.502 -20.499 147.502s-34.5 84.167 -62.5 117.5s-62.833 59.666 -104.5 78.999s-89.834 29 -144.501 29
c-105.333 0 -197 -41.667 -275 -125v-498c40 -43.333 82.833 -74.333 128.5 -93s94.5 -28 146.5 -28c54.667 0 102.5 9.66699 143.5 29s75.5 45.666 103.5 78.999s49.167 72.5 63.5 117.5s21.5 93.5 21.5 145.5z" />
    <glyph glyph-name="c" unicode="c" 
d="M897 178c-39.333 -61.333 -93.167 -110.167 -161.5 -146.5s-149.5 -54.5 -243.5 -54.5c-72.667 0 -139.334 12 -200.001 36s-112.5 57.5 -155.5 100.5s-76.5 94.167 -100.5 153.5s-36 125.333 -36 198c0 70.667 11 136.167 33 196.5s53.333 112 94 155
s90.5 76.667 149.5 101s124.5 36.5 196.5 36.5c28.667 0 58 -3.33301 88 -10s58.333 -16.834 85 -30.501s50.667 -30 72 -49s37.333 -41.5 48 -67.5v135h123v-373h-123c0 41.333 -7.5 79 -22.5 113s-35.5 63.333 -61.5 88s-57 43.834 -93 57.501s-74.667 20.5 -116 20.5
c-56 0 -104.833 -9.66699 -146.5 -29s-76.5 -45.666 -104.5 -78.999s-49.167 -72.5 -63.5 -117.5s-21.5 -94.167 -21.5 -147.5s8.16699 -102.5 24.5 -147.5s40 -83.833 71 -116.5s68.333 -58.667 112 -78s92.834 -29 147.501 -29c69.333 0 131 13.667 185 41
s95.333 63.666 124 108.999z" />
    <glyph glyph-name="d" unicode="d" 
d="M883 0h-138v86c-39.333 -35.333 -82.5 -62.333 -129.5 -81s-95.167 -28 -144.5 -28c-74 0 -140.333 12 -199 36s-108.167 57.5 -148.5 100.5s-71.333 94.5 -93 154.5s-32.5 125.667 -32.5 197c0 70.667 10.833 136.167 32.5 196.5s52.667 112 93 155
s89.833 76.667 148.5 101s125 36.5 199 36.5c49.333 0 97.5 -8.83301 144.5 -26.5s90.167 -44.167 129.5 -79.5v340h-186v117h324v-1305zM745 715c-39.333 43.333 -82.167 74.665 -128.5 93.998s-95.5 29 -147.5 29c-54.667 0 -102.834 -9.66699 -144.501 -29
s-76.5 -45.666 -104.5 -78.999s-49.167 -72.5 -63.5 -117.5s-21.5 -94.167 -21.5 -147.5s7.16699 -102.5 21.5 -147.5s35.5 -84.167 63.5 -117.5s62.833 -59.666 104.5 -78.999s89.834 -29 144.501 -29c105.333 0 197.333 41.667 276 125v498z" />
    <glyph glyph-name="e" unicode="e" 
d="M137 418c10 -98.667 46.002 -177.338 108.002 -236.005s142.667 -88 242 -88c70 0 132.333 14.333 187 43s95.667 64.334 123 107.001l96 -66c-46.667 -65.333 -102.334 -115.166 -167.001 -149.499s-144.334 -51.5 -239.001 -51.5c-72 0 -138 12 -198 36
s-111.833 57.5 -155.5 100.5s-77.5 94.167 -101.5 153.5s-36 125.333 -36 198c0 70.667 10.833 135.834 32.5 195.501s53 111.334 94 155.001s90.833 77.667 149.5 102s124.334 36.5 197.001 36.5c79.333 0 148.666 -13.333 207.999 -40s108.833 -63.5 148.5 -110.5
s69 -103.167 88 -168.5s28.5 -137.666 28.5 -216.999h-805zM797.002 534.996c-15.333 102 -52.334 178.002 -111.001 228.002s-131 75 -217 75c-44 0 -84.667 -7.16699 -122 -21.5s-70.333 -34.833 -99 -61.5s-52.667 -58.834 -72 -96.501s-31.666 -78.834 -36.999 -123.501
h658z" />
    <glyph glyph-name="f" unicode="f" 
d="M932 815h-397v-698h210v-117h-559v117h211v698h-211v117h211c0 128 33.167 225.833 99.5 293.5s166.5 101.5 300.5 101.5c31.333 0 57.833 -1 79.5 -3s40.167 -4.33301 55.5 -7v-117c-19.333 2.66699 -39.5 5 -60.5 7s-45.833 3 -74.5 3
c-87.333 0 -152.833 -22.167 -196.5 -66.5s-65.5 -114.833 -65.5 -211.5h397v-117z" />
    <glyph glyph-name="g" unicode="g" 
d="M883 10c0 -64 -11 -121.003 -33 -171.003s-52.833 -92.333 -92.5 -127s-86.334 -61.167 -140.001 -79.5s-113.5 -27.5 -179.5 -27.5c-92.667 0 -171.5 17.333 -236.5 52s-121.167 84.667 -168.5 150l96 74c28.667 -43.333 70 -79.666 124 -108.999s115.667 -44 185 -44
c94.667 0 169.5 23.833 224.5 71.5s82.5 116.5 82.5 206.5v100c-81.333 -72 -174 -108 -278 -108c-146 0 -260.667 41.667 -344 125s-125 197.333 -125 342c0 70.667 10.833 135.834 32.5 195.501s52.667 111.334 93 155.001s89.5 77.667 147.5 102s123.333 36.5 196 36.5
c50.667 0 99.834 -8.83301 147.501 -26.5s91.167 -44.167 130.5 -79.5v84h138v-922zM745 714.997c-39.333 43.333 -82.5 74.666 -129.5 93.999s-96.5 29 -148.5 29c-54.667 0 -102.834 -9.66699 -144.501 -29s-76.167 -45.666 -103.5 -78.999
s-48.166 -72.833 -62.499 -118.5s-21.5 -94.5 -21.5 -146.5c0 -106.667 27.667 -191.667 83 -255s138.333 -95 249 -95c52 0 101.5 9.83301 148.5 29.5s90.167 51.5 129.5 95.5v475z" />
    <glyph glyph-name="h" unicode="h" 
d="M883 0h-138v575c0 83.333 -18 148 -54 194s-94.333 69 -175 69c-50.667 0 -96.5 -11.667 -137.5 -35s-75.833 -54.5 -104.5 -93.5s-50.5 -83.667 -65.5 -134s-22.5 -102.833 -22.5 -157.5v-418h-137v1305h137v-607c66 170.667 183.667 256 353 256
c229.333 0 344 -126.333 344 -379v-575z" />
    <glyph glyph-name="i" unicode="i" 
d="M559 1118h-186v187h186v-187zM745 0h-559v117h211v698h-211v117h349v-815h210v-117z" />
    <glyph glyph-name="j" unicode="j" 
d="M745 1118h-186v187h186v-187zM348 -395c-164 0 -278.669 67.333 -344.002 202l105 72c24 -50.667 55.5 -89.667 94.5 -117s87.167 -41 144.5 -41c45.333 0 83.333 6.5 114 19.5s54.834 31.5 72.501 55.5s30.334 53 38.001 87s11.5 73 11.5 117v815h-211v117h348v-932
c0 -120 -31.5 -215.833 -94.5 -287.5s-155.833 -107.5 -278.5 -107.5z" />
    <glyph glyph-name="k" unicode="k" 
d="M930 0h-195l-381 418l-168 -154v-264h-137v1305h137v-875l531 502h196l-467 -428z" />
    <glyph glyph-name="l" unicode="l" 
d="M745 0h-559v117h211v1071h-211v117h349v-1188h210v-117z" />
    <glyph glyph-name="m" unicode="m" 
d="M932 0l-137 0.00292969v670c0 53.333 -9.33301 94.666 -28 123.999s-45.667 44 -81 44c-52 0 -90.167 -27.333 -114.5 -82s-36.5 -131.334 -36.5 -230.001v-526h-138v670c0 53.333 -9.5 94.666 -28.5 123.999s-46.167 44 -81.5 44c-32.667 0 -58.667 -9.66699 -78 -29
s-34.5 -44 -45.5 -74s-18.167 -63.333 -21.5 -100s-5 -73 -5 -109v-526h-137v932h137v-135c28.667 104.667 91 157 187 157c91.333 0 153.333 -45.667 186 -137c45.333 91.333 109.333 137 192 137c79.333 0 137.5 -23.5 174.5 -70.5s55.5 -118.167 55.5 -213.5v-670z" />
    <glyph glyph-name="n" unicode="n" 
d="M883 0h-138v575c0 83.333 -18 148 -54 194s-94.333 69 -175 69c-50.667 0 -96.5 -11.667 -137.5 -35s-75.833 -54.5 -104.5 -93.5s-50.5 -83.667 -65.5 -134s-22.5 -102.833 -22.5 -157.5v-418h-137v932h137v-234c66 170.667 183.667 256 353 256
c229.333 0 344 -126.333 344 -379v-575z" />
    <glyph glyph-name="o" unicode="o" 
d="M956 463c0 -72.667 -11.5 -138.667 -34.5 -198s-56 -110.166 -99 -152.499s-94.5 -75.5 -154.5 -99.5s-127 -36 -201 -36c-72.667 0 -139 12 -199 36s-111.5 57.167 -154.5 99.5s-76 93.166 -99 152.499s-34.5 125.333 -34.5 198c0 70.667 11.5 136.5 34.5 197.5
s56 113 99 156s94.5 76.667 154.5 101s126.333 36.5 199 36.5c74 0 141 -12.167 201 -36.5s111.5 -58 154.5 -101s76 -95 99 -156s34.5 -126.833 34.5 -197.5zM819 463c0 53.333 -7.83301 102.5 -23.5 147.5s-38.834 84.5 -69.501 118.5s-67.834 60.667 -111.501 80
s-92.834 29 -147.501 29s-103.834 -9.66699 -147.501 -29s-80.5 -46 -110.5 -80s-52.833 -73.5 -68.5 -118.5s-23.5 -94.167 -23.5 -147.5s7.83301 -102.5 23.5 -147.5s38.5 -83.833 68.5 -116.5s66.833 -58.334 110.5 -77.001s92.834 -28 147.501 -28
s103.834 9.33301 147.501 28s80.834 44.334 111.501 77.001s53.834 71.5 69.501 116.5s23.5 94.167 23.5 147.5z" />
    <glyph glyph-name="p" unicode="p" 
d="M932 465c0 -72.667 -11.334 -138.666 -34.001 -197.999s-54.5 -110.5 -95.5 -153.5s-90.5 -76.5 -148.5 -100.5s-123 -36 -195 -36c-49.333 0 -97.166 9 -143.499 27s-89.5 44.667 -129.5 80v-457h-137v1305h137v-86c84.667 72 175.667 108 273 108
c72 0 137 -11.833 195 -35.5s107.5 -57.334 148.5 -101.001s72.833 -95.667 95.5 -156s34 -125.833 34 -196.5zM794.999 465.001c0 52 -7.16699 100.834 -21.5 146.501s-35.833 85.167 -64.5 118.5s-63.834 59.666 -105.501 78.999s-89.834 29 -144.501 29
c-52 0 -100.5 -9.66699 -145.5 -29s-87.5 -50.666 -127.5 -93.999v-500c40 -43.333 82.5 -74.333 127.5 -93s93.5 -28 145.5 -28c54.667 0 102.834 9.66699 144.501 29s76.834 45.666 105.501 78.999s50.167 72.5 64.5 117.5s21.5 93.5 21.5 145.5z" />
    <glyph glyph-name="q" unicode="q" 
d="M0 465c0 70.667 11.3301 136.166 33.9971 196.499s54.334 112.333 95.001 156s90.167 77.334 148.5 101.001s123.5 35.5 195.5 35.5c96.667 0 187.334 -36 272.001 -108v86h138v-1305h-138v457c-39.333 -35.333 -82.166 -62 -128.499 -80s-94.166 -27 -143.499 -27
c-72 0 -137.167 12 -195.5 36s-107.833 57.5 -148.5 100.5s-72.334 94.167 -95.001 153.5s-34 125.333 -34 198zM136.997 464.999c0 -52 7.16699 -100.501 21.5 -145.501s35.833 -84.167 64.5 -117.5s63.834 -59.666 105.501 -78.999s89.834 -29 144.501 -29
c52 0 100.5 9.33301 145.5 28s87.167 49.667 126.5 93v500c-39.333 43.333 -81.5 74.666 -126.5 93.999s-93.5 29 -145.5 29c-54.667 0 -102.834 -9.66699 -144.501 -29s-76.834 -45.666 -105.501 -78.999s-50.167 -72.833 -64.5 -118.5s-21.5 -94.5 -21.5 -146.5z" />
    <glyph glyph-name="r" unicode="r" 
d="M881 801c-49.333 24.667 -108 36.999 -176 36.999c-56 0 -106 -12 -150 -36s-81.333 -55.5 -112 -94.5s-54.167 -83.667 -70.5 -134s-24.5 -102.166 -24.5 -155.499v-301h211v-117h-559v117h211v698h-211v117h348v-234c62.667 170.667 181.667 256 357 256
c47.333 0 88.5 -3 123.5 -9s67.5 -16.667 97.5 -32z" />
    <glyph glyph-name="s" unicode="s" 
d="M907 258c0 -54.667 -13.6699 -100.002 -41.0029 -136.002s-62.5 -64.667 -105.5 -86s-91 -36.5 -144 -45.5s-104.833 -13.5 -155.5 -13.5c-84.667 0 -169 12.333 -253 37s-156.667 57 -218 97l61 118c68.667 -43.333 136.334 -76.666 203.001 -99.999
s135.667 -35 207 -35c206 0 309 53.333 309 160c0 26 -8.5 47.167 -25.5 63.5s-39.833 29.666 -68.5 39.999s-61.5 18.5 -98.5 24.5s-75.833 11.667 -116.5 17c-52 7.33301 -103.667 16 -155 26s-98.166 25 -140.499 45s-76.333 46.667 -102 80s-38.5 77.333 -38.5 132
c0 46.667 11.833 87 35.5 121s55.334 62.333 95.001 85s86.167 39.334 139.5 50.001s108.666 16 165.999 16c82 0 155.333 -9.5 220 -28.5s123 -46.167 175 -81.5l-55 -107c-53.333 37.333 -107.333 63.5 -162 78.5s-114 22.5 -178 22.5c-28.667 0 -60.5 -2.5 -95.5 -7.5
s-67.5 -13.667 -97.5 -26s-55.167 -28.333 -75.5 -48s-30.5 -44.5 -30.5 -74.5c0 -26 8.5 -46.833 25.5 -62.5s39.833 -28.667 68.5 -39s61.5 -18.5 98.5 -24.5s75.833 -11.667 116.5 -17c50.667 -7.33301 101.834 -16 153.501 -26s98.667 -24.667 141 -44
s76.5 -45.666 102.5 -78.999s39 -77.333 39 -132z" />
    <glyph glyph-name="t" unicode="t" 
d="M942 297c-10.667 -98 -49.1689 -175.832 -115.502 -233.499s-149.166 -86.5 -248.499 -86.5c-54.667 0 -104.667 9 -150 27s-84 43 -116 75s-56.833 70.5 -74.5 115.5s-26.5 94.167 -26.5 147.5v473h-211v117h211v373h137v-373h397v-117h-397v-473
c0 -34 5.5 -66 16.5 -96s26.333 -56.333 46 -79s43.5 -40.5 71.5 -53.5s60 -19.5 96 -19.5c68 0 124.833 21.167 170.5 63.5s71.834 97.166 78.501 164.499z" />
    <glyph glyph-name="u" unicode="u" 
d="M49 932h136.997v-576c0 -83.333 18.167 -147.833 54.5 -193.5s94.833 -68.5 175.5 -68.5c50.667 0 96.334 11.667 137.001 35s75.334 54.5 104.001 93.5s50.5 83.667 65.5 134s22.5 102.833 22.5 157.5v418h138v-932h-138v233
c-65.333 -170.667 -182.666 -256 -351.999 -256c-229.333 0 -344 126.333 -344 379v576z" />
    <glyph glyph-name="v" unicode="v" 
d="M963 932l-404 -932h-184l-406 932h164l334 -817l332 817h164z" />
    <glyph glyph-name="w" unicode="w" 
d="M963 932l-189 -932h-160l-149 684l-141 -684h-160l-191 932h146l135 -746l145 746h136l149 -746l135 746h144z" />
    <glyph glyph-name="x" unicode="x" 
d="M954 0h-385v121h82l-184 270l-182 -270h75v-121h-380v121h145l256 352l-246 336h-135v123h383v-123h-86l170 -254l172 254h-94v123h387v-123h-131l-246 -336l256 -352h143v-121z" />
    <glyph glyph-name="y" unicode="y" 
d="M961 932l-504.001 -1168c-26 -65.333 -62.667 -108.166 -110 -128.499s-99.666 -30.5 -156.999 -30.5c-64 0 -128 11.667 -192 35l27 118c31.333 -13.333 62 -22.833 92 -28.5s54.333 -8.5 73 -8.5c45.333 0 76.5 11 93.5 33s31.833 48 44.5 78l57 141l-416 959h162
l336 -815l330 815h164z" />
    <glyph glyph-name="z" unicode="z" 
d="M887 0h-840v117l635 698h-516v-256h-117v373h815v-117l-635 -698h541v256h117v-373z" />
    <glyph glyph-name="braceleft" unicode="{" 
d="M743 -373l-92.0029 -0.00292969c-40.667 0 -78.167 7.16699 -112.5 21.5s-63.666 33.833 -87.999 58.5s-43.333 54.334 -57 89.001s-20.5 72.667 -20.5 114v424c0 112 -62.333 168 -187 168v112c124.667 0 187 56 187 168v430c0 41.333 6.83301 79 20.5 113
s32.667 63.333 57 88s53.666 43.834 87.999 57.501s71.833 20.5 112.5 20.5h92v-111h-92c-113.333 0 -170 -56 -170 -168v-430c0 -22.667 -4.33301 -46.334 -13 -71.001s-20.5 -47.667 -35.5 -69s-33.167 -39.833 -54.5 -55.5s-44.333 -25.5 -69 -29.5
c24.667 -4 47.334 -13.5 68.001 -28.5s38.834 -33.167 54.501 -54.5s27.834 -44.166 36.501 -68.499s13 -48.166 13 -71.499v-424c0 -113.333 56.667 -170 170 -170h92v-113z" />
    <glyph glyph-name="bar" unicode="|" 
d="M535 -186h-138v1677h138v-1677z" />
    <glyph glyph-name="braceright" unicode="}" 
d="M743 502c-122.667 0 -184 -56 -184 -168v-426c0 -41.333 -6.83301 -79 -20.5 -113s-33.167 -63.667 -58.5 -89s-55 -44.833 -89 -58.5s-71.333 -20.5 -112 -20.5h-93v113h93c111.333 0 167 56 167 168v426c0 23.333 4.5 47.5 13.5 72.5s21.333 48.167 37 69.5
s34.167 39.166 55.5 53.499s44.333 23.5 69 27.5c-24.667 5.33301 -48 15.5 -70 30.5s-40.5 33.167 -55.5 54.5s-27 44.333 -36 69s-13.5 48.334 -13.5 71.001v430c0 112 -55.667 168 -167 168h-93v111h93c40.667 0 78 -7.16699 112 -21.5s63.667 -33.833 89 -58.5
s44.833 -54 58.5 -88s20.5 -71 20.5 -111v-430c0 -112 61.333 -168 184 -168v-112z" />
    <glyph glyph-name="asciitilde" unicode="~" 
d="M651 373c24.667 0 45.502 7.8291 62.502 23.4961s31 37.167 42 64.5s20 60.166 27 98.499s13.167 79.166 18.5 122.499l135 -14c-4 -60 -13.167 -115.667 -27.5 -167s-33.166 -95.666 -56.499 -132.999s-52 -67 -86 -89s-72.333 -33 -115 -33
c-40.667 0 -75 7.83301 -103 23.5s-51.5 35.167 -70.5 58.5s-35.667 48.333 -50 75s-28.333 51.5 -42 74.5s-28.834 42.333 -45.501 58s-36.334 23.5 -59.001 23.5c-24.667 0 -45.5 -7.83301 -62.5 -23.5s-31 -37.167 -42 -64.5s-20 -59.666 -27 -96.999
s-13.167 -78 -18.5 -122l-135 15c4 58.667 13.167 113.834 27.5 165.501s33.166 96.334 56.499 134.001s51.666 67.334 84.999 89.001s72 32.5 116 32.5c40.667 0 75 -7.83301 103 -23.5s51.833 -35 71.5 -58s36.667 -48.167 51 -75.5s28.333 -52.666 42 -75.999
s28.334 -42.833 44.001 -58.5s35.167 -23.5 58.5 -23.5z" />
    <glyph glyph-name="uni00A0" unicode="&#xa0;" 
 />
    <glyph glyph-name="exclamdown" unicode="&#xa1;" 
d="M561 0l51 938h82l51 -938h-184zM559 1305h186v-187h-186v187z" />
    <glyph glyph-name="cent" unicode="&#xa2;" 
d="M397 170c-118.667 22 -213.167 75.665 -283.5 160.998s-105.5 192 -105.5 320c0 62.667 9.16699 121 27.5 175s44.666 101.833 78.999 143.5s75.333 76.167 123 103.5s100.834 46.333 159.501 57v175h138v-166c84.667 -4 158 -23.833 220 -59.5s112 -82.167 150 -139.5
l-96 -66c-27.333 41.333 -64.5 75.333 -111.5 102s-101.167 42 -162.5 46v-743c61.333 5.33301 115.5 21 162.5 47s84.167 60 111.5 102l96 -66c-38 -57.333 -88 -103.666 -150 -138.999s-135.333 -55.666 -220 -60.999v-162h-138v170zM145 650.998
c0 -88.667 21.833 -165.333 65.5 -230s105.834 -108 186.501 -130v719c-80.667 -20.667 -142.834 -63.5 -186.501 -128.5s-65.5 -141.833 -65.5 -230.5z" />
    <glyph glyph-name="sterling" unicode="&#xa3;" 
d="M49 711l187 -0.00292969v264c0 50.667 7.5 97.834 22.5 141.501s36.5 80.834 64.5 111.501s62 54.834 102 72.501s86 26.5 138 26.5c34 0 66.833 -5.83301 98.5 -17.5s60 -28 85 -49s46.833 -47.167 65.5 -78.5s32 -67 40 -107l-125 -28
c-14.667 60 -35.667 102.167 -63 126.5s-61 36.5 -101 36.5c-65.333 0 -113.333 -20.5 -144 -61.5s-46 -98.833 -46 -173.5v-264h186v-117h-186v-270c0 -53.333 -8.5 -97.5 -25.5 -132.5s-39.167 -59.833 -66.5 -74.5h206c180.667 0 308.334 74.333 383.001 223l109 -59
c-44 -94.667 -109.333 -165.167 -196 -211.5s-185.334 -69.5 -296.001 -69.5h-438v117h62c22.667 0 42 5.5 58 16.5s29 24.667 39 41s17.167 34 21.5 53s6.5 36.167 6.5 51.5v315h-187v117z" />
    <glyph glyph-name="currency" unicode="&#xa4;" 
d="M973 1079l-117 -116.002c32.667 -41.333 57.834 -88.666 75.501 -141.999s26.5 -110.666 26.5 -171.999s-8.83301 -118.333 -26.5 -171s-42.167 -99.334 -73.5 -140.001l115 -115l-80 -78l-115 113c-40.667 -31.333 -87.334 -55.166 -140.001 -71.499
s-109.667 -24.5 -171 -24.5c-62.667 0 -120.334 8.83301 -173.001 26.5s-99.334 42.167 -140.001 73.5l-115 -117l-78 78l115 117c-31.333 40.667 -55.166 87 -71.499 139s-24.5 108.667 -24.5 170c0 123.333 32.667 227.333 98 312l-117 118l78 78l117 -119
c84.667 68.667 188.334 103 311.001 103c61.333 0 118.333 -9 171 -27s98.667 -42.667 138 -74l117 117zM819 648.998c0 53.333 -7.83301 102.5 -23.5 147.5s-38.834 84.667 -69.501 119s-67.834 61 -111.501 80s-92.834 28.5 -147.501 28.5s-103.834 -9.5 -147.501 -28.5
s-80.5 -45.667 -110.5 -80s-52.833 -74 -68.5 -119s-23.5 -94.167 -23.5 -147.5s7.83301 -102.5 23.5 -147.5s38.5 -83.833 68.5 -116.5s66.833 -58.167 110.5 -76.5s92.834 -27.5 147.501 -27.5s103.834 9.16699 147.501 27.5s80.834 43.833 111.501 76.5
s53.834 71.5 69.501 116.5s23.5 94.167 23.5 147.5z" />
    <glyph glyph-name="yen" unicode="&#xa5;" 
d="M932 408h-397v-408h-136v408h-399v120h399v35l-108 215h-291v121h229l-204 406h153l289 -596h2l289 596h153l-204 -406h225v-121h-287l-110 -215v-35h397v-120z" />
    <glyph glyph-name="brokenbar" unicode="&#xa6;" 
d="M535 -186h-138v745h138v-745zM535 745h-138v746h138v-746z" />
    <glyph glyph-name="section" unicode="&#xa7;" 
d="M68 829c0 50.667 10.502 97.8281 31.502 141.495s55.5 83.5 103.5 119.5c-40 26.667 -72.5 60.167 -97.5 100.5s-37.5 91.166 -37.5 152.499c0 53.333 10.5 100.5 31.5 141.5s49.667 75.5 86 103.5s78.666 49.5 126.999 64.5s99.833 22.5 154.5 22.5
c53.333 0 104.833 -7.16699 154.5 -21.5s95 -36.166 136 -65.499s75.167 -66.166 102.5 -110.499s45 -97.166 53 -158.499l-129 -21c-14.667 88 -48.667 153.5 -102 196.5s-125 64.5 -215 64.5c-30 0 -60.667 -3.83301 -92 -11.5s-59.666 -20 -84.999 -37
s-45.833 -39.167 -61.5 -66.5s-23.5 -61 -23.5 -101c0 -48.667 17.667 -88 53 -118s79.666 -56.667 132.999 -80s110.666 -46 171.999 -68s118.666 -49 171.999 -81s97.833 -72.167 133.5 -120.5s53.5 -110.833 53.5 -187.5c0 -48 -9.33301 -94.167 -28 -138.5
s-47.667 -84.166 -87 -119.499c34 -28.667 61.667 -63.5 83 -104.5s32 -90.833 32 -149.5c0 -53.333 -11 -102.5 -33 -147.5s-51.833 -83.167 -89.5 -114.5s-81.334 -55.833 -131.001 -73.5s-101.834 -26.5 -156.501 -26.5c-57.333 0 -112.333 7.16699 -165 21.5
s-100.834 36.166 -144.501 65.499s-81.5 66.833 -113.5 112.5s-55 100.5 -69 164.5l127 33c19.333 -92.667 60 -162.667 122 -210s143 -71 243 -71c36.667 0 71.834 5.16699 105.501 15.5s62.667 25.333 87 45s43.666 43.834 57.999 72.501s21.5 62.334 21.5 101.001
c0 58.667 -17.667 106 -53 142s-79.666 66.333 -132.999 91s-110.666 47.334 -171.999 68.001s-118.666 45.667 -171.999 75s-97.666 66.5 -132.999 111.5s-53 104.167 -53 177.5zM205.002 830.994c0 -48.667 15.6689 -88.334 47.002 -119.001s70.833 -57 118.5 -79
s100.167 -42.5 157.5 -61.5s112.666 -41.5 165.999 -67.5c27.333 22 49.166 47.667 65.499 77s24.5 61 24.5 95c0 52 -14 95 -42 129s-63.5 63 -106.5 87s-91 45.5 -144 64.5s-104.833 39.5 -155.5 61.5c-46.667 -23.333 -80.167 -50.666 -100.5 -81.999
s-30.5 -66.333 -30.5 -105z" />
    <glyph glyph-name="dieresis" unicode="&#xa8;" 
d="M745 1118h-186v187h186v-187zM373 1118h-187v187h187v-187z" />
    <glyph glyph-name="copyright" unicode="&#xa9;" 
d="M866 530c-64 -98 -164.334 -147.001 -301.001 -147.001c-53.333 0 -102.166 8.83301 -146.499 26.5s-82.5 42.5 -114.5 74.5s-56.833 70.333 -74.5 115s-26.5 93.334 -26.5 146.001c0 50.667 8.5 97.834 25.5 141.501s41.167 82 72.5 115s69.166 59 113.499 78
s94.5 28.5 150.5 28.5c136.667 0 237 -49 301 -147l-106 -72c-36.667 66.667 -101.667 100 -195 100c-68 0 -121.5 -23.167 -160.5 -69.5s-58.5 -104.5 -58.5 -174.5c0 -66.667 18.833 -123.834 56.5 -171.501s91.834 -71.5 162.501 -71.5c93.333 0 158.333 33.333 195 100z
M1122 742.999c0 -73.333 -14 -143.831 -42 -211.498s-66.833 -127.167 -116.5 -178.5s-108.667 -92.333 -177 -123s-142.833 -46 -223.5 -46c-72 0 -141.833 13.333 -209.5 40s-127.5 64.667 -179.5 114s-93.667 108 -125 176s-47 144.333 -47 229
c0 76.667 14.667 149.167 44 217.5s69.333 128.166 120 179.499s110 91.666 178 120.999s141 44 219 44c75.333 0 146.833 -14.333 214.5 -43s127 -68 178 -118s91.5 -109.5 121.5 -178.5s45 -143.167 45 -222.5zM1057 743.001c0 67.333 -13.001 131 -39.001 191
s-61.167 112.5 -105.5 157.5s-96.5 80.833 -156.5 107.5s-124.333 40 -193 40c-68 0 -132 -13 -192 -39s-112.667 -61.167 -158 -105.5s-80.833 -96.5 -106.5 -156.5s-38.5 -125 -38.5 -195c0 -69.333 12.833 -134 38.5 -194s60.834 -112.167 105.501 -156.5
s97 -79.166 157 -104.499s124.667 -38 194 -38c67.333 0 131 12.667 191 38s112.5 60.166 157.5 104.499s80.5 96.5 106.5 156.5s39 124.667 39 194z" />
    <glyph glyph-name="ordfeminine" unicode="&#xaa;" 
d="M-8 760c0 46 11.499 85.502 34.499 118.502s54 59.667 93 80s82.833 35 131.5 44s98.667 13.5 150 13.5h49.5c12.333 0 23.666 -0.666992 33.999 -2l31.5 -4c10.667 -1.33301 25 -3.33301 43 -6v75c0 24.667 -6.5 45.167 -19.5 61.5s-28.667 29.333 -47 39
s-38.5 16.5 -60.5 20.5s-41.667 6 -59 6c-57.333 0 -108.166 -5.83301 -152.499 -17.5s-87.833 -32.5 -130.5 -62.5l-55 109c40.667 27.333 88 48.833 142 64.5s119.333 23.5 196 23.5c40.667 0 80.5 -4.5 119.5 -13.5s73.833 -23.333 104.5 -43s55.5 -44.834 74.5 -75.501
s28.5 -68 28.5 -112v-520h-141v111c-78 -86 -173 -129 -285 -129c-40.667 0 -78 4.66699 -112 14s-63.667 23.666 -89 42.999s-45.166 42.333 -59.499 69s-21.5 57.667 -21.5 93zM273.999 657.002c45.333 0 85.833 5.5 121.5 16.5s65.334 24.333 89.001 40s42 32.5 55 50.5
s19.5 34.333 19.5 49v80c-35.333 5.33301 -64.333 8.33301 -87 9s-46.334 1 -71.001 1c-78.667 0 -143 -11.167 -193 -33.5s-75 -58.833 -75 -109.5c0 -30 12 -54.667 36 -74s59 -29 105 -29zM699.999 256.002h-700v117h700v-117z" />
    <glyph glyph-name="guillemotleft" unicode="&#xab;" 
d="M788 229l-77 -79l-326 327l326 330l77 -80l-245 -250zM418 229l-80 -79l-324 327l324 330l80 -80l-248 -250z" />
    <glyph glyph-name="logicalnot" unicode="&#xac;" 
d="M932 0h-113v447h-819v112h932v-559z" />
    <glyph glyph-name="uni00AD" unicode="&#xad;" 
d="M932 420h-932v117h932v-117z" />
    <glyph glyph-name="registered" unicode="&#xae;" 
d="M1118 932c0 -74 -14 -144.833 -42 -212.5s-66.5 -127 -115.5 -178s-107.667 -91.833 -176 -122.5s-142.833 -46 -223.5 -46c-72 0 -141.833 13.333 -209.5 40s-127.5 64.5 -179.5 113.5s-93.667 107.667 -125 176s-47 144.833 -47 229.5c0 76.667 14.667 149 44 217
s69.333 127.333 120 178s110 90.667 178 120s141 44 219 44c75.333 0 146.333 -14 213 -42s125.667 -67.333 177 -118s92 -110 122 -178s45 -141.667 45 -221zM1053 932c0 66.667 -12.666 129.667 -37.999 189s-60.166 111.666 -104.499 156.999
s-96.5 81.166 -156.5 107.499s-124.333 39.5 -193 39.5c-68 0 -132 -12.5 -192 -37.5s-112.667 -59.667 -158 -104s-80.833 -96.666 -106.5 -156.999s-38.5 -125.166 -38.5 -194.499c0 -70 12.833 -135 38.5 -195s60.667 -112.167 105 -156.5
s96.666 -79.166 156.999 -104.499s125.166 -38 194.499 -38c67.333 0 131 12.667 191 38s112.167 60.166 156.5 104.499s79.5 96.5 105.5 156.5s39 125 39 195zM866.001 596h-185.999l-174 242h-35v-242h-143v676h268c34 0 66.667 -4.5 98 -13.5s59 -22.667 83 -41
s42.833 -40.833 56.5 -67.5s20.5 -58.334 20.5 -95.001c0 -53.333 -16.333 -100.166 -49 -140.499s-80.334 -63.833 -143.001 -70.5zM713.002 1055c0 30 -9.66895 55.5 -29.002 76.5s-48.666 31.5 -87.999 31.5h-125v-215h125c36.667 0 65.334 10 86.001 30s31 45.667 31 77
z" />
    <glyph glyph-name="macron" unicode="&#xaf;" 
d="M745 1106h-559v113h559v-113z" />
    <glyph glyph-name="degree" unicode="&#xb0;" 
d="M0 1118c0 50.667 9.83301 98.834 29.5 144.501s46.334 85.334 80.001 119.001s73 60.334 118 80.001s93.5 29.5 145.5 29.5c50.667 0 98.834 -9.83301 144.501 -29.5s85.167 -46.334 118.5 -80.001s59.833 -73.334 79.5 -119.001s29.5 -93.834 29.5 -144.501
c0 -52 -9.83301 -100.5 -29.5 -145.5s-46.167 -84.167 -79.5 -117.5s-72.833 -60 -118.5 -80s-93.834 -30 -144.501 -30c-52 0 -100.5 10 -145.5 30s-84.333 46.667 -118 80s-60.334 72.5 -80.001 117.5s-29.5 93.5 -29.5 145.5zM92 1118
c0 -39.333 7.16699 -75.833 21.5 -109.5s34.5 -63.334 60.5 -89.001s55.667 -45.667 89 -60s70 -21.5 110 -21.5c38 0 74 7.16699 108 21.5s64 34.333 90 60s46.167 55.334 60.5 89.001s21.5 70.167 21.5 109.5c0 38.667 -7.16699 75 -21.5 109s-34.5 64 -60.5 90
s-56 46.167 -90 60.5s-70 21.5 -108 21.5c-40 0 -76.667 -7.16699 -110 -21.5s-63 -34.5 -89 -60.5s-46.167 -56 -60.5 -90s-21.5 -70.333 -21.5 -109z" />
    <glyph glyph-name="plusminus" unicode="&#xb1;" 
d="M932 422h-410v-422h-112v422h-410v113h410v409h112v-409h410v-113zM932 -186h-932v113h932v-113z" />
    <glyph glyph-name="twosuperior" unicode="&#xb2;" 
d="M449 1151c0 -36.667 -11.002 -69.998 -33.002 -99.998c-11.333 -19.333 -36.666 -46.666 -75.999 -81.999l-59.5 -54.5c-23 -21 -49.5 -47.167 -79.5 -78.5h147v73h98v-164h-405v78l252 240c31.333 31.333 47 60.666 47 87.999c0 23.333 -9.16699 41.166 -27.5 53.499
s-41.166 18.5 -68.499 18.5c-76.667 0 -115 -46 -115 -138h-102c0 154.667 72.333 232 217 232c56 0 102.333 -13.667 139 -41c44 -32.667 66 -74.334 66 -125.001z" />
    <glyph glyph-name="threesuperior" unicode="&#xb3;" 
d="M434 909c0 -46 -19.167 -86.833 -57.5 -122.5s-88.166 -53.5 -149.499 -53.5c-136 0 -212.333 67.667 -229 203l106 14c10 -82 51 -123 123 -123c27.333 0 50.666 8.33301 69.999 25s29 35.667 29 57c0 37.333 -11 59.333 -33 66c-11.333 6.66699 -39.333 10 -84 10v100
c70.667 0 106 22 106 66c0 49.333 -29.333 74 -88 74c-74.667 0 -112 -41 -112 -123h-105c0 70.667 21.333 124.667 64 162c42 34 93 51 153 51c61.333 0 109.5 -15.333 144.5 -46s52.5 -70 52.5 -118c0 -50.667 -22 -87.667 -66 -111c50.667 -35.333 76 -79 76 -131z" />
    <glyph glyph-name="acute" unicode="&#xb4;" 
d="M711 1255l-432 -243l-37 65l403 287z" />
    <glyph glyph-name="mu" unicode="&#xb5;" 
d="M883 0l-138.002 -0.000976562v236c-64 -172.667 -181.333 -259 -352 -259c-82 0 -151 18.667 -207 56v-406h-137v1305h137v-574c0 -83.333 18.167 -148.166 54.5 -194.499s94.833 -69.5 175.5 -69.5c50.667 0 96.334 11.667 137.001 35s75.334 54.5 104.001 93.5
s50.5 83.667 65.5 134s22.5 102.833 22.5 157.5v418h138v-932z" />
    <glyph glyph-name="paragraph" unicode="&#xb6;" 
d="M907 0h-137v559h-235v-559h-138v567c-244 26 -366 147.667 -366 365c0 248.667 166.333 373 499 373h377v-1305zM770 682v506h-235v-506h235zM397 1178c-76 -12.667 -132.833 -39.833 -170.5 -81.5s-56.5 -96.5 -56.5 -164.5c0 -134 75.667 -214 227 -240v486z" />
    <glyph glyph-name="periodcentered" unicode="&#xb7;" 
d="M559 385h-186v186h186v-186z" />
    <glyph glyph-name="cedilla" unicode="&#xb8;" 
d="M559 -41c0 -98 -27.333 -176.333 -82 -235c-58.667 -63.333 -137 -95 -235 -95v117c134.667 0 202 71 202 213v41h115v-41z" />
    <glyph glyph-name="onesuperior" unicode="&#xb9;" 
d="M389 745h-289v91h90v290c-13.333 -34 -36 -63.333 -68 -88s-72.667 -37 -122 -37v99c20.667 0 42.167 4.66699 64.5 14s42.833 23 61.5 41s34 39.5 46 64.5s18 53.5 18 85.5h109v-469h90v-91z" />
    <glyph glyph-name="ordmasculine" unicode="&#xba;" 
d="M766 932c0 -57.333 -10.167 -110.333 -30.5 -159s-48 -90 -83 -124s-76.667 -60.5 -125 -79.5s-99.833 -28.5 -154.5 -28.5c-56 0 -107.667 9.16699 -155 27.5s-88.666 44.5 -123.999 78.5s-62.833 75 -82.5 123s-29.5 102 -29.5 162
c0 58.667 9.83301 112.167 29.5 160.5s47.167 90 82.5 125s76.666 61.667 123.999 80s99 27.5 155 27.5c54.667 0 106.167 -9.16699 154.5 -27.5s90 -45 125 -80s62.667 -76.667 83 -125s30.5 -101.833 30.5 -160.5zM629 932c0 40.667 -6.83398 78.167 -20.501 112.5
s-32.167 63.666 -55.5 87.999s-50.333 43 -81 56s-63.667 19.5 -99 19.5c-36 0 -69.333 -6.5 -100 -19.5s-57.5 -31.667 -80.5 -56s-41 -53.666 -54 -87.999s-19.5 -71.833 -19.5 -112.5c0 -83.333 23.833 -150 71.5 -200s108.5 -75 182.5 -75
c36.667 0 70.334 6.5 101.001 19.5s57.667 31.5 81 55.5s41.5 53 54.5 87s19.5 71.667 19.5 113zM744.999 256h-745v117h745v-117z" />
    <glyph glyph-name="guillemotright" unicode="&#xbb;" 
d="M920 477l-328 -327l-78 77l248 250l-248 250l78 78zM545 477l-324 -327l-80 77l248 250l-248 250l80 78z" />
    <glyph glyph-name="onequarter" unicode="&#xbc;" 
d="M932 1272l-836 -1299l-94 60l838 1302zM389 745h-289v91h90v290c-13.333 -34 -36 -63.333 -68 -88s-72.667 -37 -122 -37v99c20.667 0 42.167 4.66699 64.5 14s42.833 23 61.5 41s34 39.5 46 64.5s18 53.5 18 85.5h109v-469h90v-91zM932 0h-287v90h92v60h-250v75l244 334
h111v-317h90v-92h-90v-60h90v-90zM737 242v159l-119 -159h119z" />
    <glyph glyph-name="onehalf" unicode="&#xbd;" 
d="M932 1272l-836 -1299l-94 60l838 1302zM934 406c0 -37.333 -11.001 -71.002 -33.001 -101.002c-10.667 -19.333 -36 -46.666 -76 -81.999l-59 -54c-23.333 -21.333 -50 -47.666 -80 -78.999h148v74h98v-164h-406v78l252 239c31.333 32 47 61.667 47 89
c0 22.667 -9.16699 40.167 -27.5 52.5s-41.166 18.5 -68.499 18.5c-76.667 0 -115 -45.667 -115 -137h-102c0 154 72.333 231 217 231c56 0 102.333 -13.667 139 -41c44 -32.667 66 -74 66 -124zM388.999 744.998h-289v91h90v290c-13.333 -34 -36 -63.333 -68 -88
s-72.667 -37 -122 -37v99c20.667 0 42.167 4.66699 64.5 14s42.833 23 61.5 41s34 39.5 46 64.5s18 53.5 18 85.5h109v-469h90v-91z" />
    <glyph glyph-name="threequarters" unicode="&#xbe;" 
d="M434 909c0 -46 -19.167 -86.833 -57.5 -122.5s-88.166 -53.5 -149.499 -53.5c-136 0 -212.333 67.667 -229 203l106 14c10 -82 51 -123 123 -123c27.333 0 50.666 8.33301 69.999 25s29 35.667 29 57c0 37.333 -11 59.333 -33 66c-11.333 6.66699 -39.333 10 -84 10v100
c70.667 0 106 22 106 66c0 49.333 -29.333 74 -88 74c-74.667 0 -112 -41 -112 -123h-105c0 70.667 21.333 124.667 64 162c42 34 93 51 153 51c61.333 0 109.5 -15.333 144.5 -46s52.5 -70 52.5 -118c0 -50.667 -22 -87.667 -66 -111c50.667 -35.333 76 -79 76 -131z
M932 1272l-836 -1299l-94 60l838 1302zM932 0h-287v90h92v60h-250v75l244 334h111v-317h90v-92h-90v-60h90v-90zM737 242v159l-119 -159h119z" />
    <glyph glyph-name="questiondown" unicode="&#xbf;" 
d="M559 1305h186v-187h-186v187zM209 283c0 51.333 9.50391 96.502 28.5039 135.502s42.833 74.833 71.5 107.5s60.167 63.5 94.5 92.5s65.833 58.833 94.5 89.5s52.5 64 71.5 100s28.5 77.333 28.5 124h145c0 -52 -9.83301 -98.5 -29.5 -139.5
s-43.834 -79.167 -72.501 -114.5s-60.334 -68.833 -95.001 -100.5s-66.334 -62.834 -95.001 -93.501s-53 -62.334 -73 -95.001s-30 -68 -30 -106c0 -58.667 18.167 -104.834 54.5 -138.501s88.5 -50.5 156.5 -50.5c84.667 0 148.167 25 190.5 75s68.166 113 77.499 189
l123 -18c-12 -112 -50.5 -200.5 -115.5 -265.5s-156.167 -97.5 -273.5 -97.5c-110.667 0 -197 28.333 -259 85s-93 130.334 -93 221.001z" />
    <glyph glyph-name="Agrave" unicode="&#xc0;" 
d="M995 0h-147l-123 373h-516l-121 -373h-147l434 1305h186zM686 494l-219 673l-219 -673h438zM700 1450l-41 -65l-430 243l66 109z" />
    <glyph glyph-name="Aacute" unicode="&#xc1;" 
d="M995 0h-147l-123 373h-516l-121 -373h-147l434 1305h186zM686 494l-219 673l-219 -673h438zM711 1626l-432 -243l-37 65l403 287z" />
    <glyph glyph-name="Acircumflex" unicode="&#xc2;" 
d="M995 0h-147l-123 373h-516l-121 -373h-147l434 1305h186zM686 494l-219 673l-219 -673h438zM764 1452l-53 -67l-242 205l-246 -207l-53 65l297 291z" />
    <glyph glyph-name="Atilde" unicode="&#xc3;" 
d="M995 0h-147l-123 373h-516l-121 -373h-147l434 1305h186zM686 494l-219 673l-219 -673h438zM846 1600c-60 -105.333 -142 -158 -246 -158c-38 0 -69 6.16699 -93 18.5s-45.167 25.666 -63.5 39.999s-36.5 27.666 -54.5 39.999s-39.667 18.5 -65 18.5
c-68.667 0 -124 -37 -166 -111l-80 47c61.333 104 143.333 156 246 156c38 0 69 -6.16699 93 -18.5s45.167 -25.666 63.5 -39.999s36.333 -27.666 54 -39.999s39.5 -18.5 65.5 -18.5c68 0 123.333 37.667 166 113z" />
    <glyph glyph-name="Adieresis" unicode="&#xc4;" 
d="M995 0h-147l-123 373h-516l-121 -373h-147l434 1305h186zM686 494l-219 673l-219 -673h438zM745 1489h-186v187h186v-187zM373 1489h-187v187h187v-187z" />
    <glyph glyph-name="Aring" unicode="&#xc5;" 
d="M242 1450c0 31.333 5.66992 60.666 17.0029 87.999s27.333 51.166 48 71.499s44.667 36.333 72 48s56.666 17.5 87.999 17.5s60.666 -5.83301 87.999 -17.5s51.166 -27.667 71.499 -48s36.333 -44.166 48 -71.499s17.5 -56.666 17.5 -87.999c0 -44 -10.5 -83 -31.5 -117
s-48.5 -60.667 -82.5 -80l417 -1253h-147l-123 373h-516l-121 -373h-147l415 1251c-34 19.333 -61.5 46.333 -82.5 81s-31.5 74 -31.5 118zM686.003 494l-219 673l-219 -673h438zM332.003 1450c0 -36.667 13.333 -68.334 40 -95.001s58.334 -40 95.001 -40
s68.334 13.333 95.001 40s40 58.334 40 95.001s-13.333 68.334 -40 95.001s-58.334 40 -95.001 40s-68.334 -13.333 -95.001 -40s-40 -58.334 -40 -95.001z" />
    <glyph glyph-name="AE" unicode="&#xc6;" 
d="M932 0h-506v373h-233l-111 -373h-145l395 1305h600v-121h-367v-457h277v-121h-277v-483h367v-123zM426 494v659l-197 -659h197z" />
    <glyph glyph-name="Ccedilla" unicode="&#xc7;" 
d="M940 342c-30 -99.333 -77.165 -180.501 -141.498 -243.501s-144.166 -101.167 -239.499 -114.5v-25c0 -98 -27.333 -176.333 -82 -235c-58.667 -63.333 -137 -95 -235 -95v117c134.667 0 202 71 202 213v21c-84.667 5.33301 -156.667 27.333 -216 66
s-107.333 88.834 -144 150.501s-63.167 131.667 -79.5 210s-24.5 159.833 -24.5 244.5c0 87.333 8.83301 171.666 26.5 252.999s46.667 153.333 87 216s92.166 112.834 155.499 150.501s140.666 56.5 231.999 56.5c80.667 0 149.667 -14.333 207 -43
s99.666 -72.334 126.999 -131.001v152h117v-428h-117c0 46 -8.83301 89.5 -26.5 130.5s-41.5 76.5 -71.5 106.5s-65.5 53.5 -106.5 70.5s-84.167 25.5 -129.5 25.5c-70.667 0 -129.167 -16.667 -175.5 -50s-83.5 -77 -111.5 -131s-47.833 -114 -59.5 -180
s-17.5 -132 -17.5 -198c0 -65.333 5.83301 -131.166 17.5 -197.499s31.5 -126 59.5 -179s65.167 -96.333 111.5 -130s104.833 -50.5 175.5 -50.5c162.667 0 276 98.333 340 295z" />
    <glyph glyph-name="Egrave" unicode="&#xc8;" 
d="M883 0h-834v1305h834v-117h-697v-467h514v-117h-514v-487h697v-117zM700 1450l-41 -65l-430 243l66 109z" />
    <glyph glyph-name="Eacute" unicode="&#xc9;" 
d="M883 0h-834v1305h834v-117h-697v-467h514v-117h-514v-487h697v-117zM711 1626l-432 -243l-37 65l403 287z" />
    <glyph glyph-name="Ecircumflex" unicode="&#xca;" 
d="M883 0h-834v1305h834v-117h-697v-467h514v-117h-514v-487h697v-117zM764 1452l-53 -67l-242 205l-246 -207l-53 65l297 291z" />
    <glyph glyph-name="Edieresis" unicode="&#xcb;" 
d="M883 0h-834v1305h834v-117h-697v-467h514v-117h-514v-487h697v-117zM745 1489h-186v187h186v-187zM373 1489h-187v187h187v-187z" />
    <glyph glyph-name="Igrave" unicode="&#xcc;" 
d="M745 0h-559v117h211v1071h-211v117h559v-117h-210v-1071h210v-117zM700 1450l-41 -65l-430 243l66 109z" />
    <glyph glyph-name="Iacute" unicode="&#xcd;" 
d="M745 0h-559v117h211v1071h-211v117h559v-117h-210v-1071h210v-117zM711 1626l-432 -243l-37 65l403 287z" />
    <glyph glyph-name="Icircumflex" unicode="&#xce;" 
d="M745 0h-559v117h211v1071h-211v117h559v-117h-210v-1071h210v-117zM764 1452l-53 -67l-242 205l-246 -207l-53 65l297 291z" />
    <glyph glyph-name="Idieresis" unicode="&#xcf;" 
d="M745 0h-559v117h211v1071h-211v117h559v-117h-210v-1071h210v-117zM745 1489h-186v187h186v-187zM373 1489h-187v187h187v-187z" />
    <glyph glyph-name="Eth" unicode="&#xd0;" 
d="M975 653c0 -90 -9.99902 -174.5 -29.999 -253.5s-50.333 -148.333 -91 -208s-92.834 -106.5 -156.501 -140.5s-138.5 -51 -224.5 -51h-424v606h-166v117h166v582h424c91.333 0 168.833 -17.833 232.5 -53.5s115.667 -83.5 156 -143.5s69.333 -129.333 87 -208
s26.5 -161 26.5 -247zM838.001 653c0 170.667 -32.167 302.5 -96.5 395.5s-153.833 139.5 -268.5 139.5h-287v-465h254v-117h-254v-489h287c114.667 0 204.167 46.667 268.5 140s96.5 225.333 96.5 396z" />
    <glyph glyph-name="Ntilde" unicode="&#xd1;" 
d="M883 0h-170l-527 1104v-1104h-137v1305h193l503 -1053v1053h138v-1305zM846 1600c-60 -105.333 -142 -158 -246 -158c-38 0 -69 6.16699 -93 18.5s-45.167 25.666 -63.5 39.999s-36.5 27.666 -54.5 39.999s-39.667 18.5 -65 18.5c-68.667 0 -124 -37 -166 -111l-80 47
c61.333 104 143.333 156 246 156c38 0 69 -6.16699 93 -18.5s45.167 -25.666 63.5 -39.999s36.333 -27.666 54 -39.999s39.5 -18.5 65.5 -18.5c68 0 123.333 37.667 166 113z" />
    <glyph glyph-name="Ograve" unicode="&#xd2;" 
d="M967 651c0 -87.333 -8.99805 -171.666 -26.998 -252.999s-46.667 -153 -86 -215s-90.833 -111.833 -154.5 -149.5s-141.167 -56.5 -232.5 -56.5s-168.833 18.833 -232.5 56.5s-115.334 87.5 -155.001 149.5s-68.334 133.667 -86.001 215s-26.5 165.666 -26.5 252.999
s8.83301 171.666 26.5 252.999s46.667 153.333 87 216s92.333 112.834 156 150.501s140.5 56.5 230.5 56.5s166.833 -18.833 230.5 -56.5s115.167 -87.834 154.5 -150.501s68.333 -134.667 87 -216s28 -165.666 28 -252.999zM829.002 651
c0 86 -8.16797 163.499 -24.501 232.499s-39.833 127.833 -70.5 176.5s-68.5 85.834 -113.5 111.501s-96.167 38.5 -153.5 38.5c-71.333 0 -130.166 -16.667 -176.499 -50s-83.5 -77 -111.5 -131s-47.5 -114 -58.5 -180s-16.5 -132 -16.5 -198
c0 -65.333 5.5 -131.166 16.5 -197.499s30.5 -126 58.5 -179s65.167 -96.333 111.5 -130s105.166 -50.5 176.499 -50.5c70.667 0 129.334 16.833 176.001 50.5s84 77 112 130s47.333 112.667 58 179s16 132.166 16 197.499zM700.001 1450l-41 -65l-430 243l66 109z" />
    <glyph glyph-name="Oacute" unicode="&#xd3;" 
d="M967 651c0 -87.333 -8.99805 -171.666 -26.998 -252.999s-46.667 -153 -86 -215s-90.833 -111.833 -154.5 -149.5s-141.167 -56.5 -232.5 -56.5s-168.833 18.833 -232.5 56.5s-115.334 87.5 -155.001 149.5s-68.334 133.667 -86.001 215s-26.5 165.666 -26.5 252.999
s8.83301 171.666 26.5 252.999s46.667 153.333 87 216s92.333 112.834 156 150.501s140.5 56.5 230.5 56.5s166.833 -18.833 230.5 -56.5s115.167 -87.834 154.5 -150.501s68.333 -134.667 87 -216s28 -165.666 28 -252.999zM829.002 651
c0 86 -8.16797 163.499 -24.501 232.499s-39.833 127.833 -70.5 176.5s-68.5 85.834 -113.5 111.501s-96.167 38.5 -153.5 38.5c-71.333 0 -130.166 -16.667 -176.499 -50s-83.5 -77 -111.5 -131s-47.5 -114 -58.5 -180s-16.5 -132 -16.5 -198
c0 -65.333 5.5 -131.166 16.5 -197.499s30.5 -126 58.5 -179s65.167 -96.333 111.5 -130s105.166 -50.5 176.499 -50.5c70.667 0 129.334 16.833 176.001 50.5s84 77 112 130s47.333 112.667 58 179s16 132.166 16 197.499zM711.001 1626l-432 -243l-37 65l403 287z" />
    <glyph glyph-name="Ocircumflex" unicode="&#xd4;" 
d="M967 651c0 -87.333 -8.99805 -171.666 -26.998 -252.999s-46.667 -153 -86 -215s-90.833 -111.833 -154.5 -149.5s-141.167 -56.5 -232.5 -56.5s-168.833 18.833 -232.5 56.5s-115.334 87.5 -155.001 149.5s-68.334 133.667 -86.001 215s-26.5 165.666 -26.5 252.999
s8.83301 171.666 26.5 252.999s46.667 153.333 87 216s92.333 112.834 156 150.501s140.5 56.5 230.5 56.5s166.833 -18.833 230.5 -56.5s115.167 -87.834 154.5 -150.501s68.333 -134.667 87 -216s28 -165.666 28 -252.999zM829.002 651
c0 86 -8.16797 163.499 -24.501 232.499s-39.833 127.833 -70.5 176.5s-68.5 85.834 -113.5 111.501s-96.167 38.5 -153.5 38.5c-71.333 0 -130.166 -16.667 -176.499 -50s-83.5 -77 -111.5 -131s-47.5 -114 -58.5 -180s-16.5 -132 -16.5 -198
c0 -65.333 5.5 -131.166 16.5 -197.499s30.5 -126 58.5 -179s65.167 -96.333 111.5 -130s105.166 -50.5 176.499 -50.5c70.667 0 129.334 16.833 176.001 50.5s84 77 112 130s47.333 112.667 58 179s16 132.166 16 197.499zM764.001 1452l-53 -67l-242 205l-246 -207l-53 65
l297 291z" />
    <glyph glyph-name="Otilde" unicode="&#xd5;" 
d="M967 651c0 -87.333 -8.99805 -171.666 -26.998 -252.999s-46.667 -153 -86 -215s-90.833 -111.833 -154.5 -149.5s-141.167 -56.5 -232.5 -56.5s-168.833 18.833 -232.5 56.5s-115.334 87.5 -155.001 149.5s-68.334 133.667 -86.001 215s-26.5 165.666 -26.5 252.999
s8.83301 171.666 26.5 252.999s46.667 153.333 87 216s92.333 112.834 156 150.501s140.5 56.5 230.5 56.5s166.833 -18.833 230.5 -56.5s115.167 -87.834 154.5 -150.501s68.333 -134.667 87 -216s28 -165.666 28 -252.999zM829.002 651
c0 86 -8.16797 163.499 -24.501 232.499s-39.833 127.833 -70.5 176.5s-68.5 85.834 -113.5 111.501s-96.167 38.5 -153.5 38.5c-71.333 0 -130.166 -16.667 -176.499 -50s-83.5 -77 -111.5 -131s-47.5 -114 -58.5 -180s-16.5 -132 -16.5 -198
c0 -65.333 5.5 -131.166 16.5 -197.499s30.5 -126 58.5 -179s65.167 -96.333 111.5 -130s105.166 -50.5 176.499 -50.5c70.667 0 129.334 16.833 176.001 50.5s84 77 112 130s47.333 112.667 58 179s16 132.166 16 197.499zM846.001 1600c-60 -105.333 -142 -158 -246 -158
c-38 0 -69 6.16699 -93 18.5s-45.167 25.666 -63.5 39.999s-36.5 27.666 -54.5 39.999s-39.667 18.5 -65 18.5c-68.667 0 -124 -37 -166 -111l-80 47c61.333 104 143.333 156 246 156c38 0 69 -6.16699 93 -18.5s45.167 -25.666 63.5 -39.999s36.333 -27.666 54 -39.999
s39.5 -18.5 65.5 -18.5c68 0 123.333 37.667 166 113z" />
    <glyph glyph-name="Odieresis" unicode="&#xd6;" 
d="M967 651c0 -87.333 -8.99805 -171.666 -26.998 -252.999s-46.667 -153 -86 -215s-90.833 -111.833 -154.5 -149.5s-141.167 -56.5 -232.5 -56.5s-168.833 18.833 -232.5 56.5s-115.334 87.5 -155.001 149.5s-68.334 133.667 -86.001 215s-26.5 165.666 -26.5 252.999
s8.83301 171.666 26.5 252.999s46.667 153.333 87 216s92.333 112.834 156 150.501s140.5 56.5 230.5 56.5s166.833 -18.833 230.5 -56.5s115.167 -87.834 154.5 -150.501s68.333 -134.667 87 -216s28 -165.666 28 -252.999zM829.002 651
c0 86 -8.16797 163.499 -24.501 232.499s-39.833 127.833 -70.5 176.5s-68.5 85.834 -113.5 111.501s-96.167 38.5 -153.5 38.5c-71.333 0 -130.166 -16.667 -176.499 -50s-83.5 -77 -111.5 -131s-47.5 -114 -58.5 -180s-16.5 -132 -16.5 -198
c0 -65.333 5.5 -131.166 16.5 -197.499s30.5 -126 58.5 -179s65.167 -96.333 111.5 -130s105.166 -50.5 176.499 -50.5c70.667 0 129.334 16.833 176.001 50.5s84 77 112 130s47.333 112.667 58 179s16 132.166 16 197.499zM745.001 1489h-186v187h186v-187zM373.001 1489
h-187v187h187v-187z" />
    <glyph glyph-name="multiply" unicode="&#xd7;" 
d="M836 768l-291 -290l291 -291l-80 -78l-289 291l-291 -291l-78 78l289 291l-289 290l78 78l291 -291l289 291z" />
    <glyph glyph-name="Oslash" unicode="&#xd8;" 
d="M-45 188l77.999 83.999c-23.333 56 -40.166 115.833 -50.499 179.5s-15.5 130.167 -15.5 199.5c0 87.333 8.83301 171.666 26.5 252.999s46.667 153.333 87 216s92.333 112.834 156 150.501s140.5 56.5 230.5 56.5c87.333 0 162 -17.667 224 -53s113 -83.333 153 -144
l135 146v-160l-82 -86c23.333 -56 40.833 -115.667 52.5 -179s17.5 -130 17.5 -200c0 -87.333 -9 -171.666 -27 -252.999s-46.667 -153 -86 -215s-90.833 -111.833 -154.5 -149.5s-141.167 -56.5 -232.5 -56.5c-90 0 -165.833 17.167 -227.5 51.5
s-112.167 81.5 -151.5 141.5l-133 -141v159zM828.999 650.999c0 100 -11.332 190.334 -33.999 271.001l-615 -654c27.333 -52 64.166 -94 110.499 -126s105.166 -48 176.499 -48c70.667 0 129.334 16.833 176.001 50.5s84 77 112 130s47.333 112.667 58 179
s16 132.166 16 197.499zM104 651c0 -46 2.49902 -92 7.49902 -138s13.5 -90 25.5 -132l613 651c-32 57.333 -71.5 101.333 -118.5 132s-101.833 46 -164.5 46c-71.333 0 -130.166 -16.667 -176.499 -50s-83.5 -77 -111.5 -131s-47.5 -114 -58.5 -180s-16.5 -132 -16.5 -198z
" />
    <glyph glyph-name="Ugrave" unicode="&#xd9;" 
d="M883 465c0 -74 -8.16699 -141 -24.5 -201s-41.666 -111.167 -75.999 -153.5s-77.833 -75.166 -130.5 -98.499s-115 -35 -187 -35c-72.667 0 -135.167 11.667 -187.5 35s-95.333 56.166 -129 98.499s-58.667 93.833 -75 154.5s-24.5 128 -24.5 202v838h137v-840
c0 -39.333 3.5 -81 10.5 -125s20.667 -84 41 -120s48.666 -66 84.999 -90s83.833 -36 142.5 -36s106.5 12 143.5 36s65.667 54 86 90s33.833 76 40.5 120s10 85.667 10 125v840h138v-840zM700 1450l-41 -65l-430 243l66 109z" />
    <glyph glyph-name="Uacute" unicode="&#xda;" 
d="M883 465c0 -74 -8.16699 -141 -24.5 -201s-41.666 -111.167 -75.999 -153.5s-77.833 -75.166 -130.5 -98.499s-115 -35 -187 -35c-72.667 0 -135.167 11.667 -187.5 35s-95.333 56.166 -129 98.499s-58.667 93.833 -75 154.5s-24.5 128 -24.5 202v838h137v-840
c0 -39.333 3.5 -81 10.5 -125s20.667 -84 41 -120s48.666 -66 84.999 -90s83.833 -36 142.5 -36s106.5 12 143.5 36s65.667 54 86 90s33.833 76 40.5 120s10 85.667 10 125v840h138v-840zM711 1626l-432 -243l-37 65l403 287z" />
    <glyph glyph-name="Ucircumflex" unicode="&#xdb;" 
d="M883 465c0 -74 -8.16699 -141 -24.5 -201s-41.666 -111.167 -75.999 -153.5s-77.833 -75.166 -130.5 -98.499s-115 -35 -187 -35c-72.667 0 -135.167 11.667 -187.5 35s-95.333 56.166 -129 98.499s-58.667 93.833 -75 154.5s-24.5 128 -24.5 202v838h137v-840
c0 -39.333 3.5 -81 10.5 -125s20.667 -84 41 -120s48.666 -66 84.999 -90s83.833 -36 142.5 -36s106.5 12 143.5 36s65.667 54 86 90s33.833 76 40.5 120s10 85.667 10 125v840h138v-840zM764 1452l-53 -67l-242 205l-246 -207l-53 65l297 291z" />
    <glyph glyph-name="Udieresis" unicode="&#xdc;" 
d="M883 465c0 -74 -8.16699 -141 -24.5 -201s-41.666 -111.167 -75.999 -153.5s-77.833 -75.166 -130.5 -98.499s-115 -35 -187 -35c-72.667 0 -135.167 11.667 -187.5 35s-95.333 56.166 -129 98.499s-58.667 93.833 -75 154.5s-24.5 128 -24.5 202v838h137v-840
c0 -39.333 3.5 -81 10.5 -125s20.667 -84 41 -120s48.666 -66 84.999 -90s83.833 -36 142.5 -36s106.5 12 143.5 36s65.667 54 86 90s33.833 76 40.5 120s10 85.667 10 125v840h138v-840zM745 1489h-186v187h186v-187zM373 1489h-187v187h187v-187z" />
    <glyph glyph-name="Yacute" unicode="&#xdd;" 
d="M952 1188h-106l-311 -625v-446h210v-117h-559v117h211v446l-311 625h-106v117h368v-117h-108l227 -492l225 492h-108v117h368v-117zM711 1626l-432 -243l-37 65l403 287z" />
    <glyph glyph-name="Thorn" unicode="&#xde;" 
d="M930 664c0 -248.667 -166.667 -373 -500 -373h-244v-291h-137v1305h137v-269h244c333.333 0 500 -124 500 -372zM791 664c0 169.333 -120.333 253.999 -361 253.999h-244v-512h244c120 0 210.167 21.833 270.5 65.5s90.5 107.834 90.5 192.501z" />
    <glyph glyph-name="germandbls" unicode="&#xdf;" 
d="M932 268c0 -40.667 -8.83008 -78.8311 -26.4971 -114.498s-42.334 -66.334 -74.001 -92.001s-69 -46.167 -112 -61.5s-89.5 -23 -139.5 -23c-66 0 -122.833 9.33301 -170.5 28s-93.5 45.667 -137.5 81l78 104c35.333 -32.667 71.166 -56.834 107.499 -72.501
s77.166 -23.5 122.499 -23.5c61.333 0 112.166 14.333 152.499 43s60.5 73 60.5 133c0 37.333 -10 68.5 -30 93.5s-44.333 46.833 -73 65.5s-60.334 36.167 -95.001 52.5s-66.334 34 -95.001 53s-53 41.5 -73 67.5s-30 58 -30 96c0 45.333 11 80.666 33 105.999
s46.333 48.5 73 69.5s50.834 43.833 72.501 68.5s32.5 57.334 32.5 98.001c0 46.667 -13.667 86.667 -41 120s-74.333 50 -141 50c-49.333 0 -89.666 -9.83301 -120.999 -29.5s-55.833 -46.5 -73.5 -80.5s-29.667 -72.833 -36 -116.5s-9.5 -89.5 -9.5 -137.5v-846h-137v844
c0 50.667 4.16699 104.334 12.5 161.001s25.833 108.834 52.5 156.501s64.834 87.167 114.501 118.5s115.5 47 197.5 47c50.667 0 95.834 -7.5 135.501 -22.5s73 -35.167 100 -60.5s47.667 -55.333 62 -90s21.5 -72.667 21.5 -114c0 -54.667 -10.833 -98.334 -32.5 -131.001
s-45.834 -59.834 -72.501 -81.501l-72.5 -58.5c-21.667 -17.333 -32.5 -37.333 -32.5 -60c0 -18 9.83301 -34.167 29.5 -48.5s44.167 -29.333 73.5 -45l95 -52c34 -19 65.667 -41.833 95 -68.5s54 -58.5 74 -95.5s30 -80.833 30 -131.5z" />
    <glyph glyph-name="agrave" unicode="&#xe0;" 
d="M0 252c0 58.667 14.6631 107.834 43.9961 147.501s67.833 71 115.5 94s102.334 39.667 164.001 50s124.5 15.5 188.5 15.5c24.667 0 46.834 -0.333008 66.501 -1s38.334 -1.66699 56.001 -3s35.5 -3 53.5 -5s37.667 -4.33301 59 -7v67
c0 45.333 -9.83301 82.666 -29.5 111.999s-43.834 52.5 -72.501 69.5s-58.667 29 -90 36s-58 10.5 -80 10.5c-69.333 0 -133.333 -9.33301 -192 -28s-113.334 -43.667 -164.001 -75l-62 103c56 34 118.833 61.833 188.5 83.5s146.167 32.5 229.5 32.5
c50.667 0 100.5 -6.5 149.5 -19.5s93 -33 132 -60s70.167 -62.5 93.5 -106.5s35 -96.667 35 -158v-610h-138v156c-24 -30 -51.167 -56.333 -81.5 -79s-62.166 -41.167 -95.499 -55.5s-66.666 -25.333 -99.999 -33s-65 -11.5 -95 -11.5
c-123.333 0 -216.666 23.667 -279.999 71s-95 115.333 -95 204zM374.996 94c57.333 0 108.833 8.49902 154.5 25.499s84.5 38.167 116.5 63.5s56.833 52.333 74.5 81s26.5 54.667 26.5 78v88c-44.667 6.66699 -87.5 10.334 -128.5 11.001s-76.5 1 -106.5 1
c-49.333 0 -96.833 -3.33301 -142.5 -10s-85.5 -17.5 -119.5 -32.5s-61.333 -34.5 -82 -58.5s-31 -53.667 -31 -89c0 -39.333 19.167 -75.5 57.5 -108.5s98.5 -49.5 180.5 -49.5zM699.996 1077l-41 -65l-430 243l66 109z" />
    <glyph glyph-name="aacute" unicode="&#xe1;" 
d="M0 252c0 58.667 14.6631 107.834 43.9961 147.501s67.833 71 115.5 94s102.334 39.667 164.001 50s124.5 15.5 188.5 15.5c24.667 0 46.834 -0.333008 66.501 -1s38.334 -1.66699 56.001 -3s35.5 -3 53.5 -5s37.667 -4.33301 59 -7v67
c0 45.333 -9.83301 82.666 -29.5 111.999s-43.834 52.5 -72.501 69.5s-58.667 29 -90 36s-58 10.5 -80 10.5c-69.333 0 -133.333 -9.33301 -192 -28s-113.334 -43.667 -164.001 -75l-62 103c56 34 118.833 61.833 188.5 83.5s146.167 32.5 229.5 32.5
c50.667 0 100.5 -6.5 149.5 -19.5s93 -33 132 -60s70.167 -62.5 93.5 -106.5s35 -96.667 35 -158v-610h-138v156c-24 -30 -51.167 -56.333 -81.5 -79s-62.166 -41.167 -95.499 -55.5s-66.666 -25.333 -99.999 -33s-65 -11.5 -95 -11.5
c-123.333 0 -216.666 23.667 -279.999 71s-95 115.333 -95 204zM374.996 94c57.333 0 108.833 8.49902 154.5 25.499s84.5 38.167 116.5 63.5s56.833 52.333 74.5 81s26.5 54.667 26.5 78v88c-44.667 6.66699 -87.5 10.334 -128.5 11.001s-76.5 1 -106.5 1
c-49.333 0 -96.833 -3.33301 -142.5 -10s-85.5 -17.5 -119.5 -32.5s-61.333 -34.5 -82 -58.5s-31 -53.667 -31 -89c0 -39.333 19.167 -75.5 57.5 -108.5s98.5 -49.5 180.5 -49.5zM710.996 1254l-432 -243l-37 65l403 287z" />
    <glyph glyph-name="acircumflex" unicode="&#xe2;" 
d="M0 252c0 58.667 14.6631 107.834 43.9961 147.501s67.833 71 115.5 94s102.334 39.667 164.001 50s124.5 15.5 188.5 15.5c24.667 0 46.834 -0.333008 66.501 -1s38.334 -1.66699 56.001 -3s35.5 -3 53.5 -5s37.667 -4.33301 59 -7v67
c0 45.333 -9.83301 82.666 -29.5 111.999s-43.834 52.5 -72.501 69.5s-58.667 29 -90 36s-58 10.5 -80 10.5c-69.333 0 -133.333 -9.33301 -192 -28s-113.334 -43.667 -164.001 -75l-62 103c56 34 118.833 61.833 188.5 83.5s146.167 32.5 229.5 32.5
c50.667 0 100.5 -6.5 149.5 -19.5s93 -33 132 -60s70.167 -62.5 93.5 -106.5s35 -96.667 35 -158v-610h-138v156c-24 -30 -51.167 -56.333 -81.5 -79s-62.166 -41.167 -95.499 -55.5s-66.666 -25.333 -99.999 -33s-65 -11.5 -95 -11.5
c-123.333 0 -216.666 23.667 -279.999 71s-95 115.333 -95 204zM374.996 94c57.333 0 108.833 8.49902 154.5 25.499s84.5 38.167 116.5 63.5s56.833 52.333 74.5 81s26.5 54.667 26.5 78v88c-44.667 6.66699 -87.5 10.334 -128.5 11.001s-76.5 1 -106.5 1
c-49.333 0 -96.833 -3.33301 -142.5 -10s-85.5 -17.5 -119.5 -32.5s-61.333 -34.5 -82 -58.5s-31 -53.667 -31 -89c0 -39.333 19.167 -75.5 57.5 -108.5s98.5 -49.5 180.5 -49.5zM763.996 1080l-53 -67l-242 205l-246 -207l-53 65l297 291z" />
    <glyph glyph-name="atilde" unicode="&#xe3;" 
d="M0 252c0 58.667 14.6631 107.834 43.9961 147.501s67.833 71 115.5 94s102.334 39.667 164.001 50s124.5 15.5 188.5 15.5c24.667 0 46.834 -0.333008 66.501 -1s38.334 -1.66699 56.001 -3s35.5 -3 53.5 -5s37.667 -4.33301 59 -7v67
c0 45.333 -9.83301 82.666 -29.5 111.999s-43.834 52.5 -72.501 69.5s-58.667 29 -90 36s-58 10.5 -80 10.5c-69.333 0 -133.333 -9.33301 -192 -28s-113.334 -43.667 -164.001 -75l-62 103c56 34 118.833 61.833 188.5 83.5s146.167 32.5 229.5 32.5
c50.667 0 100.5 -6.5 149.5 -19.5s93 -33 132 -60s70.167 -62.5 93.5 -106.5s35 -96.667 35 -158v-610h-138v156c-24 -30 -51.167 -56.333 -81.5 -79s-62.166 -41.167 -95.499 -55.5s-66.666 -25.333 -99.999 -33s-65 -11.5 -95 -11.5
c-123.333 0 -216.666 23.667 -279.999 71s-95 115.333 -95 204zM374.996 94c57.333 0 108.833 8.49902 154.5 25.499s84.5 38.167 116.5 63.5s56.833 52.333 74.5 81s26.5 54.667 26.5 78v88c-44.667 6.66699 -87.5 10.334 -128.5 11.001s-76.5 1 -106.5 1
c-49.333 0 -96.833 -3.33301 -142.5 -10s-85.5 -17.5 -119.5 -32.5s-61.333 -34.5 -82 -58.5s-31 -53.667 -31 -89c0 -39.333 19.167 -75.5 57.5 -108.5s98.5 -49.5 180.5 -49.5zM845.996 1228c-60 -105.333 -142 -158 -246 -158c-38 0 -69 6.16699 -93 18.5
s-45.167 25.666 -63.5 39.999s-36.5 27.666 -54.5 39.999s-39.667 18.5 -65 18.5c-68.667 0 -124 -37 -166 -111l-80 47c61.333 104 143.333 156 246 156c38 0 69 -6.16699 93 -18.5s45.167 -25.666 63.5 -39.999s36.333 -27.666 54 -39.999s39.5 -18.5 65.5 -18.5
c68 0 123.333 37.667 166 113z" />
    <glyph glyph-name="adieresis" unicode="&#xe4;" 
d="M0 252c0 58.667 14.6631 107.834 43.9961 147.501s67.833 71 115.5 94s102.334 39.667 164.001 50s124.5 15.5 188.5 15.5c24.667 0 46.834 -0.333008 66.501 -1s38.334 -1.66699 56.001 -3s35.5 -3 53.5 -5s37.667 -4.33301 59 -7v67
c0 45.333 -9.83301 82.666 -29.5 111.999s-43.834 52.5 -72.501 69.5s-58.667 29 -90 36s-58 10.5 -80 10.5c-69.333 0 -133.333 -9.33301 -192 -28s-113.334 -43.667 -164.001 -75l-62 103c56 34 118.833 61.833 188.5 83.5s146.167 32.5 229.5 32.5
c50.667 0 100.5 -6.5 149.5 -19.5s93 -33 132 -60s70.167 -62.5 93.5 -106.5s35 -96.667 35 -158v-610h-138v156c-24 -30 -51.167 -56.333 -81.5 -79s-62.166 -41.167 -95.499 -55.5s-66.666 -25.333 -99.999 -33s-65 -11.5 -95 -11.5
c-123.333 0 -216.666 23.667 -279.999 71s-95 115.333 -95 204zM374.996 94c57.333 0 108.833 8.49902 154.5 25.499s84.5 38.167 116.5 63.5s56.833 52.333 74.5 81s26.5 54.667 26.5 78v88c-44.667 6.66699 -87.5 10.334 -128.5 11.001s-76.5 1 -106.5 1
c-49.333 0 -96.833 -3.33301 -142.5 -10s-85.5 -17.5 -119.5 -32.5s-61.333 -34.5 -82 -58.5s-31 -53.667 -31 -89c0 -39.333 19.167 -75.5 57.5 -108.5s98.5 -49.5 180.5 -49.5zM744.996 1118h-186v187h186v-187zM372.996 1118h-187v187h187v-187z" />
    <glyph glyph-name="aring" unicode="&#xe5;" 
d="M0 252c0 58.667 14.6631 107.834 43.9961 147.501s67.833 71 115.5 94s102.334 39.667 164.001 50s124.5 15.5 188.5 15.5c24.667 0 46.834 -0.333008 66.501 -1s38.334 -1.66699 56.001 -3s35.5 -3 53.5 -5s37.667 -4.33301 59 -7v67
c0 45.333 -9.83301 82.666 -29.5 111.999s-43.834 52.5 -72.501 69.5s-58.667 29 -90 36s-58 10.5 -80 10.5c-69.333 0 -133.333 -9.33301 -192 -28s-113.334 -43.667 -164.001 -75l-62 103c56 34 118.833 61.833 188.5 83.5s146.167 32.5 229.5 32.5
c50.667 0 100.5 -6.5 149.5 -19.5s93 -33 132 -60s70.167 -62.5 93.5 -106.5s35 -96.667 35 -158v-610h-138v156c-24 -30 -51.167 -56.333 -81.5 -79s-62.166 -41.167 -95.499 -55.5s-66.666 -25.333 -99.999 -33s-65 -11.5 -95 -11.5
c-123.333 0 -216.666 23.667 -279.999 71s-95 115.333 -95 204zM374.996 94c57.333 0 108.833 8.49902 154.5 25.499s84.5 38.167 116.5 63.5s56.833 52.333 74.5 81s26.5 54.667 26.5 78v88c-44.667 6.66699 -87.5 10.334 -128.5 11.001s-76.5 1 -106.5 1
c-49.333 0 -96.833 -3.33301 -142.5 -10s-85.5 -17.5 -119.5 -32.5s-61.333 -34.5 -82 -58.5s-31 -53.667 -31 -89c0 -39.333 19.167 -75.5 57.5 -108.5s98.5 -49.5 180.5 -49.5zM241.996 1256c0 32 5.66699 61.5 17 88.5s27.333 50.833 48 71.5s44.667 36.834 72 48.501
s56.666 17.5 87.999 17.5s60.666 -5.83301 87.999 -17.5s51.166 -27.834 71.499 -48.501s36.333 -44.5 48 -71.5s17.5 -56.5 17.5 -88.5c0 -31.333 -5.83301 -60.666 -17.5 -87.999s-27.667 -51.166 -48 -71.499s-44.166 -36.333 -71.499 -48s-56.666 -17.5 -87.999 -17.5
s-60.666 5.83301 -87.999 17.5s-51.333 27.667 -72 48s-36.667 44.166 -48 71.499s-17 56.666 -17 87.999zM331.996 1256c0 -36.667 13.333 -68.334 40 -95.001s58.334 -40 95.001 -40s68.334 13.333 95.001 40s40 58.334 40 95.001c0 37.333 -13.333 69.333 -40 96
s-58.334 40 -95.001 40s-68.334 -13.333 -95.001 -40s-40 -58.667 -40 -96z" />
    <glyph glyph-name="ae" unicode="&#xe6;" 
d="M449 170c-8.66699 -23.333 -20.1689 -46.1641 -34.502 -68.4971s-31.666 -42.833 -51.999 -61.5s-43.5 -33.834 -69.5 -45.501s-55.333 -17.5 -88 -17.5c-78 0 -137.833 26.333 -179.5 79s-62.5 118.667 -62.5 198c0 53.333 9.5 99.5 28.5 138.5s44 70.667 75 95
s66.5 42.333 106.5 54s81.333 17.5 124 17.5c14.667 0 30 -0.333008 46 -1s31.333 -2.33398 46 -5.00098v96c0 50.667 -11.667 95.167 -35 133.5s-58.666 57.5 -105.999 57.5c-27.333 0 -56.666 -12 -87.999 -36s-58.666 -55.667 -81.999 -95l-86 84
c17.333 28.667 37.666 53.167 60.999 73.5s46.666 37 69.999 50s45.833 22.5 67.5 28.5s40.834 9 57.501 9c52 0 96.667 -11.5 134 -34.5s63.666 -60.5 78.999 -112.5c18.667 52 50 89.5 94 112.5s89 34.5 135 34.5c61.333 0 109.833 -18.667 145.5 -56s62 -83.333 79 -138
s27.833 -113 32.5 -175s7 -117.667 7 -167h-428c0 -110.667 13 -190.667 39 -240s65 -74 117 -74c31.333 0 59 9.66699 83 29s42 50.666 54 93.999l117 -37c-23.333 -72 -55.833 -125.5 -97.5 -160.5s-96.5 -52.5 -164.5 -52.5c-50.667 0 -97.167 16.833 -139.5 50.5
s-70.833 81.167 -85.5 142.5zM806.998 539.002c0 108.667 -10.668 186 -32.001 232s-55.666 69 -102.999 69c-44 0 -79.333 -22.167 -106 -66.5s-40 -122.5 -40 -234.5h281zM388.997 438.002c-8 1.33301 -19.501 2.33301 -34.501 3s-30.167 1 -45.5 1
c-57.333 0 -106.5 -16 -147.5 -48s-61.5 -82 -61.5 -150c0 -36 10 -68.333 30 -97s49.667 -43 89 -43c22 0 43.167 5.16699 63.5 15.5s38.333 24.333 54 42s28.334 38.5 38.001 62.5s14.5 49.667 14.5 77v137z" />
    <glyph glyph-name="ccedilla" unicode="&#xe7;" 
d="M897 178c-35.333 -54.667 -81.332 -98.999 -137.999 -132.999s-123.334 -55 -200.001 -63v-23c0 -98 -27.333 -176.333 -82 -235c-58.667 -63.333 -137 -95 -235 -95v117c134.667 0 202 71 202 213v21c-66.667 5.33301 -127.334 20.5 -182.001 45.5
s-101.5 58.667 -140.5 101s-69 92.166 -90 149.499s-31.5 120.333 -31.5 189c0 70.667 11 136.167 33 196.5s53.333 112 94 155s90.5 76.667 149.5 101s124.5 36.5 196.5 36.5c28.667 0 58 -3.33301 88 -10s58.333 -16.834 85 -30.501s50.667 -30 72 -49
s37.333 -41.5 48 -67.5v135h123v-373h-123c0 41.333 -7.5 79 -22.5 113s-35.5 63.333 -61.5 88s-57 43.834 -93 57.501s-74.667 20.5 -116 20.5c-56 0 -104.833 -9.66699 -146.5 -29s-76.5 -45.666 -104.5 -78.999s-49.167 -72.5 -63.5 -117.5s-21.5 -94.167 -21.5 -147.5
s8.16699 -102.5 24.5 -147.5s40 -83.833 71 -116.5s68.333 -58.667 112 -78s92.834 -29 147.501 -29c69.333 0 131 13.667 185 41s95.333 63.666 124 108.999z" />
    <glyph glyph-name="egrave" unicode="&#xe8;" 
d="M137 418c10 -98.667 46.002 -177.338 108.002 -236.005s142.667 -88 242 -88c70 0 132.333 14.333 187 43s95.667 64.334 123 107.001l96 -66c-46.667 -65.333 -102.334 -115.166 -167.001 -149.499s-144.334 -51.5 -239.001 -51.5c-72 0 -138 12 -198 36
s-111.833 57.5 -155.5 100.5s-77.5 94.167 -101.5 153.5s-36 125.333 -36 198c0 70.667 10.833 135.834 32.5 195.501s53 111.334 94 155.001s90.833 77.667 149.5 102s124.334 36.5 197.001 36.5c79.333 0 148.666 -13.333 207.999 -40s108.833 -63.5 148.5 -110.5
s69 -103.167 88 -168.5s28.5 -137.666 28.5 -216.999h-805zM797.002 534.996c-15.333 102 -52.334 178.002 -111.001 228.002s-131 75 -217 75c-44 0 -84.667 -7.16699 -122 -21.5s-70.333 -34.833 -99 -61.5s-52.667 -58.834 -72 -96.501s-31.666 -78.834 -36.999 -123.501
h658zM700.001 1077l-41 -65l-430 243l66 109z" />
    <glyph glyph-name="eacute" unicode="&#xe9;" 
d="M137 418c10 -98.667 46.002 -177.338 108.002 -236.005s142.667 -88 242 -88c70 0 132.333 14.333 187 43s95.667 64.334 123 107.001l96 -66c-46.667 -65.333 -102.334 -115.166 -167.001 -149.499s-144.334 -51.5 -239.001 -51.5c-72 0 -138 12 -198 36
s-111.833 57.5 -155.5 100.5s-77.5 94.167 -101.5 153.5s-36 125.333 -36 198c0 70.667 10.833 135.834 32.5 195.501s53 111.334 94 155.001s90.833 77.667 149.5 102s124.334 36.5 197.001 36.5c79.333 0 148.666 -13.333 207.999 -40s108.833 -63.5 148.5 -110.5
s69 -103.167 88 -168.5s28.5 -137.666 28.5 -216.999h-805zM797.002 534.996c-15.333 102 -52.334 178.002 -111.001 228.002s-131 75 -217 75c-44 0 -84.667 -7.16699 -122 -21.5s-70.333 -34.833 -99 -61.5s-52.667 -58.834 -72 -96.501s-31.666 -78.834 -36.999 -123.501
h658zM711.001 1254l-432 -243l-37 65l403 287z" />
    <glyph glyph-name="ecircumflex" unicode="&#xea;" 
d="M137 418c10 -98.667 46.002 -177.338 108.002 -236.005s142.667 -88 242 -88c70 0 132.333 14.333 187 43s95.667 64.334 123 107.001l96 -66c-46.667 -65.333 -102.334 -115.166 -167.001 -149.499s-144.334 -51.5 -239.001 -51.5c-72 0 -138 12 -198 36
s-111.833 57.5 -155.5 100.5s-77.5 94.167 -101.5 153.5s-36 125.333 -36 198c0 70.667 10.833 135.834 32.5 195.501s53 111.334 94 155.001s90.833 77.667 149.5 102s124.334 36.5 197.001 36.5c79.333 0 148.666 -13.333 207.999 -40s108.833 -63.5 148.5 -110.5
s69 -103.167 88 -168.5s28.5 -137.666 28.5 -216.999h-805zM797.002 534.996c-15.333 102 -52.334 178.002 -111.001 228.002s-131 75 -217 75c-44 0 -84.667 -7.16699 -122 -21.5s-70.333 -34.833 -99 -61.5s-52.667 -58.834 -72 -96.501s-31.666 -78.834 -36.999 -123.501
h658zM764.001 1080l-53 -67l-242 205l-246 -207l-53 65l297 291z" />
    <glyph glyph-name="edieresis" unicode="&#xeb;" 
d="M137 418c10 -98.667 46.002 -177.338 108.002 -236.005s142.667 -88 242 -88c70 0 132.333 14.333 187 43s95.667 64.334 123 107.001l96 -66c-46.667 -65.333 -102.334 -115.166 -167.001 -149.499s-144.334 -51.5 -239.001 -51.5c-72 0 -138 12 -198 36
s-111.833 57.5 -155.5 100.5s-77.5 94.167 -101.5 153.5s-36 125.333 -36 198c0 70.667 10.833 135.834 32.5 195.501s53 111.334 94 155.001s90.833 77.667 149.5 102s124.334 36.5 197.001 36.5c79.333 0 148.666 -13.333 207.999 -40s108.833 -63.5 148.5 -110.5
s69 -103.167 88 -168.5s28.5 -137.666 28.5 -216.999h-805zM797.002 534.996c-15.333 102 -52.334 178.002 -111.001 228.002s-131 75 -217 75c-44 0 -84.667 -7.16699 -122 -21.5s-70.333 -34.833 -99 -61.5s-52.667 -58.834 -72 -96.501s-31.666 -78.834 -36.999 -123.501
h658zM745.001 1118h-186v187h186v-187zM373.001 1118h-187v187h187v-187z" />
    <glyph glyph-name="igrave" unicode="&#xec;" 
d="M745 0h-559v117h211v694h-211v121h349v-815h210v-117zM700 1077l-41 -65l-430 243l66 109z" />
    <glyph glyph-name="iacute" unicode="&#xed;" 
d="M745 0h-559v117h211v694h-211v121h349v-815h210v-117zM711 1254l-432 -243l-37 65l403 287z" />
    <glyph glyph-name="icircumflex" unicode="&#xee;" 
d="M745 0h-559v117h211v694h-211v121h349v-815h210v-117zM764 1080l-53 -67l-242 205l-246 -207l-53 65l297 291z" />
    <glyph glyph-name="idieresis" unicode="&#xef;" 
d="M745 0h-559v117h211v694h-211v121h349v-815h210v-117zM745 1118h-186v187h186v-187zM373 1118h-187v187h187v-187z" />
    <glyph glyph-name="eth" unicode="&#xf0;" 
d="M233 977l159.997 159.997c-27.333 14.667 -55.333 27.834 -84 39.501s-58.667 22.834 -90 33.501l45 117c78 -30 151 -62.667 219 -98l144 143l78 -80l-121 -123c53.333 -34 102.5 -72.167 147.5 -114.5s83.5 -89.333 115.5 -141s57.167 -108.667 75.5 -171
s27.5 -130.833 27.5 -205.5c0 -86 -11.833 -163.5 -35.5 -232.5s-58.167 -127.833 -103.5 -176.5s-100 -86 -164 -112s-136.333 -39 -217 -39c-136.667 0 -245.834 32.167 -327.501 96.5s-122.5 157.833 -122.5 280.5c0 70 19.333 132 58 186s91.834 101.333 159.501 142
s146.834 75 237.501 103s188 50.333 292 67c-27.333 46.667 -61.166 88.334 -101.499 125.001s-84.166 70.667 -131.499 102l-183 -182zM812.997 536.997c0 36.667 -2.66602 71.6689 -7.99902 105.002s-13.666 65.666 -24.999 96.999
c-96.667 -10.667 -185.667 -27.667 -267 -51s-151.333 -51.333 -210 -84s-104.334 -69.834 -137.001 -111.501s-49 -87.834 -49 -138.501c0 -77.333 28 -140 84 -188s132.333 -72 229 -72c61.333 0 115.666 10.667 162.999 32s87.333 51.333 120 90
s57.5 85.334 74.5 140.001s25.5 115 25.5 181z" />
    <glyph glyph-name="ntilde" unicode="&#xf1;" 
d="M883 0h-138v575c0 83.333 -18 148 -54 194s-94.333 69 -175 69c-50.667 0 -96.5 -11.667 -137.5 -35s-75.833 -54.5 -104.5 -93.5s-50.5 -83.667 -65.5 -134s-22.5 -102.833 -22.5 -157.5v-418h-137v932h137v-234c66 170.667 183.667 256 353 256
c229.333 0 344 -126.333 344 -379v-575zM846 1228c-60 -105.333 -142 -158 -246 -158c-38 0 -69 6.16699 -93 18.5s-45.167 25.666 -63.5 39.999s-36.5 27.666 -54.5 39.999s-39.667 18.5 -65 18.5c-68.667 0 -124 -37 -166 -111l-80 47c61.333 104 143.333 156 246 156
c38 0 69 -6.16699 93 -18.5s45.167 -25.666 63.5 -39.999s36.333 -27.666 54 -39.999s39.5 -18.5 65.5 -18.5c68 0 123.333 37.667 166 113z" />
    <glyph glyph-name="ograve" unicode="&#xf2;" 
d="M956 463c0 -72.667 -11.5 -138.667 -34.5 -198s-56 -110.166 -99 -152.499s-94.5 -75.5 -154.5 -99.5s-127 -36 -201 -36c-72.667 0 -139 12 -199 36s-111.5 57.167 -154.5 99.5s-76 93.166 -99 152.499s-34.5 125.333 -34.5 198c0 70.667 11.5 136.5 34.5 197.5
s56 113 99 156s94.5 76.667 154.5 101s126.333 36.5 199 36.5c74 0 141 -12.167 201 -36.5s111.5 -58 154.5 -101s76 -95 99 -156s34.5 -126.833 34.5 -197.5zM819 463c0 53.333 -7.83301 102.5 -23.5 147.5s-38.834 84.5 -69.501 118.5s-67.834 60.667 -111.501 80
s-92.834 29 -147.501 29s-103.834 -9.66699 -147.501 -29s-80.5 -46 -110.5 -80s-52.833 -73.5 -68.5 -118.5s-23.5 -94.167 -23.5 -147.5s7.83301 -102.5 23.5 -147.5s38.5 -83.833 68.5 -116.5s66.833 -58.334 110.5 -77.001s92.834 -28 147.501 -28
s103.834 9.33301 147.501 28s80.834 44.334 111.501 77.001s53.834 71.5 69.501 116.5s23.5 94.167 23.5 147.5zM700 1077l-41 -65l-430 243l66 109z" />
    <glyph glyph-name="oacute" unicode="&#xf3;" 
d="M956 463c0 -72.667 -11.5 -138.667 -34.5 -198s-56 -110.166 -99 -152.499s-94.5 -75.5 -154.5 -99.5s-127 -36 -201 -36c-72.667 0 -139 12 -199 36s-111.5 57.167 -154.5 99.5s-76 93.166 -99 152.499s-34.5 125.333 -34.5 198c0 70.667 11.5 136.5 34.5 197.5
s56 113 99 156s94.5 76.667 154.5 101s126.333 36.5 199 36.5c74 0 141 -12.167 201 -36.5s111.5 -58 154.5 -101s76 -95 99 -156s34.5 -126.833 34.5 -197.5zM819 463c0 53.333 -7.83301 102.5 -23.5 147.5s-38.834 84.5 -69.501 118.5s-67.834 60.667 -111.501 80
s-92.834 29 -147.501 29s-103.834 -9.66699 -147.501 -29s-80.5 -46 -110.5 -80s-52.833 -73.5 -68.5 -118.5s-23.5 -94.167 -23.5 -147.5s7.83301 -102.5 23.5 -147.5s38.5 -83.833 68.5 -116.5s66.833 -58.334 110.5 -77.001s92.834 -28 147.501 -28
s103.834 9.33301 147.501 28s80.834 44.334 111.501 77.001s53.834 71.5 69.501 116.5s23.5 94.167 23.5 147.5zM711 1254l-432 -243l-37 65l403 287z" />
    <glyph glyph-name="ocircumflex" unicode="&#xf4;" 
d="M956 463c0 -72.667 -11.5 -138.667 -34.5 -198s-56 -110.166 -99 -152.499s-94.5 -75.5 -154.5 -99.5s-127 -36 -201 -36c-72.667 0 -139 12 -199 36s-111.5 57.167 -154.5 99.5s-76 93.166 -99 152.499s-34.5 125.333 -34.5 198c0 70.667 11.5 136.5 34.5 197.5
s56 113 99 156s94.5 76.667 154.5 101s126.333 36.5 199 36.5c74 0 141 -12.167 201 -36.5s111.5 -58 154.5 -101s76 -95 99 -156s34.5 -126.833 34.5 -197.5zM819 463c0 53.333 -7.83301 102.5 -23.5 147.5s-38.834 84.5 -69.501 118.5s-67.834 60.667 -111.501 80
s-92.834 29 -147.501 29s-103.834 -9.66699 -147.501 -29s-80.5 -46 -110.5 -80s-52.833 -73.5 -68.5 -118.5s-23.5 -94.167 -23.5 -147.5s7.83301 -102.5 23.5 -147.5s38.5 -83.833 68.5 -116.5s66.833 -58.334 110.5 -77.001s92.834 -28 147.501 -28
s103.834 9.33301 147.501 28s80.834 44.334 111.501 77.001s53.834 71.5 69.501 116.5s23.5 94.167 23.5 147.5zM764 1080l-53 -67l-242 205l-246 -207l-53 65l297 291z" />
    <glyph glyph-name="otilde" unicode="&#xf5;" 
d="M956 463c0 -72.667 -11.5 -138.667 -34.5 -198s-56 -110.166 -99 -152.499s-94.5 -75.5 -154.5 -99.5s-127 -36 -201 -36c-72.667 0 -139 12 -199 36s-111.5 57.167 -154.5 99.5s-76 93.166 -99 152.499s-34.5 125.333 -34.5 198c0 70.667 11.5 136.5 34.5 197.5
s56 113 99 156s94.5 76.667 154.5 101s126.333 36.5 199 36.5c74 0 141 -12.167 201 -36.5s111.5 -58 154.5 -101s76 -95 99 -156s34.5 -126.833 34.5 -197.5zM819 463c0 53.333 -7.83301 102.5 -23.5 147.5s-38.834 84.5 -69.501 118.5s-67.834 60.667 -111.501 80
s-92.834 29 -147.501 29s-103.834 -9.66699 -147.501 -29s-80.5 -46 -110.5 -80s-52.833 -73.5 -68.5 -118.5s-23.5 -94.167 -23.5 -147.5s7.83301 -102.5 23.5 -147.5s38.5 -83.833 68.5 -116.5s66.833 -58.334 110.5 -77.001s92.834 -28 147.501 -28
s103.834 9.33301 147.501 28s80.834 44.334 111.501 77.001s53.834 71.5 69.501 116.5s23.5 94.167 23.5 147.5zM846 1228c-60 -105.333 -142 -158 -246 -158c-38 0 -69 6.16699 -93 18.5s-45.167 25.666 -63.5 39.999s-36.5 27.666 -54.5 39.999s-39.667 18.5 -65 18.5
c-68.667 0 -124 -37 -166 -111l-80 47c61.333 104 143.333 156 246 156c38 0 69 -6.16699 93 -18.5s45.167 -25.666 63.5 -39.999s36.333 -27.666 54 -39.999s39.5 -18.5 65.5 -18.5c68 0 123.333 37.667 166 113z" />
    <glyph glyph-name="odieresis" unicode="&#xf6;" 
d="M956 463c0 -72.667 -11.5 -138.667 -34.5 -198s-56 -110.166 -99 -152.499s-94.5 -75.5 -154.5 -99.5s-127 -36 -201 -36c-72.667 0 -139 12 -199 36s-111.5 57.167 -154.5 99.5s-76 93.166 -99 152.499s-34.5 125.333 -34.5 198c0 70.667 11.5 136.5 34.5 197.5
s56 113 99 156s94.5 76.667 154.5 101s126.333 36.5 199 36.5c74 0 141 -12.167 201 -36.5s111.5 -58 154.5 -101s76 -95 99 -156s34.5 -126.833 34.5 -197.5zM819 463c0 53.333 -7.83301 102.5 -23.5 147.5s-38.834 84.5 -69.501 118.5s-67.834 60.667 -111.501 80
s-92.834 29 -147.501 29s-103.834 -9.66699 -147.501 -29s-80.5 -46 -110.5 -80s-52.833 -73.5 -68.5 -118.5s-23.5 -94.167 -23.5 -147.5s7.83301 -102.5 23.5 -147.5s38.5 -83.833 68.5 -116.5s66.833 -58.334 110.5 -77.001s92.834 -28 147.501 -28
s103.834 9.33301 147.501 28s80.834 44.334 111.501 77.001s53.834 71.5 69.501 116.5s23.5 94.167 23.5 147.5zM745 1118h-186v187h186v-187zM373 1118h-187v187h187v-187z" />
    <glyph glyph-name="divide" unicode="&#xf7;" 
d="M559 758h-186v186h186v-186zM559 13h-186v186h186v-186zM932 420h-932v117h932v-117z" />
    <glyph glyph-name="oslash" unicode="&#xf8;" 
d="M-43 119l92 73.999c-46 77.333 -69 167.333 -69 270c0 70.667 11.5 136.5 34.5 197.5s56 113 99 156s94.5 76.667 154.5 101s126.333 36.5 199 36.5c75.333 0 143 -12.5 203 -37.5s111.667 -60.167 155 -105.5l152 121v-119l-94 -76c48.667 -80.667 73 -172 73 -274
c0 -72.667 -11.5 -138.667 -34.5 -198s-56 -110.166 -99 -152.499s-94.5 -75.5 -154.5 -99.5s-127 -36 -201 -36c-75.333 0 -143.333 12.333 -204 37s-113 59.667 -157 105l-149 -119v119zM819 462.999c0 70.667 -14.335 133.999 -43.002 189.999l-567 -452
c31.333 -32.667 68.166 -58.667 110.499 -78s91.5 -29 147.5 -29c54.667 0 103.834 9.33301 147.501 28s80.834 44.334 111.501 77.001s53.834 71.5 69.501 116.5s23.5 94.167 23.5 147.5zM116.998 462.998c0 -71.333 13.001 -132.667 39.001 -184l569 452
c-31.333 32.667 -68.5 58.667 -111.5 78s-91.833 29 -146.5 29s-103.834 -9.66699 -147.501 -29s-80.5 -46 -110.5 -80s-52.833 -73.5 -68.5 -118.5s-23.5 -94.167 -23.5 -147.5z" />
    <glyph glyph-name="ugrave" unicode="&#xf9;" 
d="M49 932h136.997v-576c0 -83.333 18.167 -147.833 54.5 -193.5s94.833 -68.5 175.5 -68.5c50.667 0 96.334 11.667 137.001 35s75.334 54.5 104.001 93.5s50.5 83.667 65.5 134s22.5 102.833 22.5 157.5v418h138v-932h-138v233
c-65.333 -170.667 -182.666 -256 -351.999 -256c-229.333 0 -344 126.333 -344 379v576zM699.997 1079l-41 -65l-430 243l66 109z" />
    <glyph glyph-name="uacute" unicode="&#xfa;" 
d="M49 932h136.997v-576c0 -83.333 18.167 -147.833 54.5 -193.5s94.833 -68.5 175.5 -68.5c50.667 0 96.334 11.667 137.001 35s75.334 54.5 104.001 93.5s50.5 83.667 65.5 134s22.5 102.833 22.5 157.5v418h138v-932h-138v233
c-65.333 -170.667 -182.666 -256 -351.999 -256c-229.333 0 -344 126.333 -344 379v576zM710.997 1255l-432 -243l-37 65l403 287z" />
    <glyph glyph-name="ucircumflex" unicode="&#xfb;" 
d="M49 932h136.997v-576c0 -83.333 18.167 -147.833 54.5 -193.5s94.833 -68.5 175.5 -68.5c50.667 0 96.334 11.667 137.001 35s75.334 54.5 104.001 93.5s50.5 83.667 65.5 134s22.5 102.833 22.5 157.5v418h138v-932h-138v233
c-65.333 -170.667 -182.666 -256 -351.999 -256c-229.333 0 -344 126.333 -344 379v576zM763.997 1081l-53 -67l-242 205l-246 -207l-53 65l297 291z" />
    <glyph glyph-name="udieresis" unicode="&#xfc;" 
d="M49 932h136.997v-576c0 -83.333 18.167 -147.833 54.5 -193.5s94.833 -68.5 175.5 -68.5c50.667 0 96.334 11.667 137.001 35s75.334 54.5 104.001 93.5s50.5 83.667 65.5 134s22.5 102.833 22.5 157.5v418h138v-932h-138v233
c-65.333 -170.667 -182.666 -256 -351.999 -256c-229.333 0 -344 126.333 -344 379v576zM744.997 1118h-186v187h186v-187zM372.997 1118h-187v187h187v-187z" />
    <glyph glyph-name="yacute" unicode="&#xfd;" 
d="M961 932l-504.001 -1168c-26 -65.333 -62.667 -108.166 -110 -128.499s-99.666 -30.5 -156.999 -30.5c-64 0 -128 11.667 -192 35l27 118c31.333 -13.333 62 -22.833 92 -28.5s54.333 -8.5 73 -8.5c45.333 0 76.5 11 93.5 33s31.833 48 44.5 78l57 141l-416 959h162
l336 -815l330 815h164zM710.999 1255l-432 -243l-37 65l403 287z" />
    <glyph glyph-name="thorn" unicode="&#xfe;" 
d="M934 465c0 -72.667 -11.001 -138.667 -33.001 -198s-53 -110.833 -93 -154.5s-89.5 -77.5 -148.5 -101.5s-125.167 -36 -198.5 -36c-100 0 -191.667 33 -275 99v-447h-137v1678h137v-449c83.333 65.333 175 98 275 98c70.667 0 135.334 -11.5 194.001 -34.5
s108.5 -55.667 149.5 -98s72.833 -93.5 95.5 -153.5s34 -127.667 34 -203zM794.999 465c0 54.667 -7.16699 104.836 -21.5 150.503s-35.166 85.167 -62.499 118.5s-62.166 59.666 -104.499 78.999s-90.833 29 -145.5 29c-104 0 -195.667 -42.333 -275 -127v-500
c79.333 -86 171 -129 275 -129c54.667 0 103.167 9.5 145.5 28.5s77.166 45.667 104.499 80s48.166 74.666 62.499 120.999s21.5 96.166 21.5 149.499z" />
    <glyph glyph-name="ydieresis" unicode="&#xff;" 
d="M961 932l-504.001 -1168c-26 -65.333 -62.667 -108.166 -110 -128.499s-99.666 -30.5 -156.999 -30.5c-64 0 -128 11.667 -192 35l27 118c31.333 -13.333 62 -22.833 92 -28.5s54.333 -8.5 73 -8.5c45.333 0 76.5 11 93.5 33s31.833 48 44.5 78l57 141l-416 959h162
l336 -815l330 815h164zM744.999 1118h-186v187h186v-187zM372.999 1118h-187v187h187v-187z" />
    <glyph glyph-name="Amacron" unicode="&#x100;" 
d="M995 0h-147l-123 373h-516l-121 -373h-147l434 1305h186zM686 494l-219 673l-219 -673h438zM745 1477h-559v113h559v-113z" />
    <glyph glyph-name="amacron" unicode="&#x101;" 
d="M0 252c0 58.667 14.6631 107.834 43.9961 147.501s67.833 71 115.5 94s102.334 39.667 164.001 50s124.5 15.5 188.5 15.5c24.667 0 46.834 -0.333008 66.501 -1s38.334 -1.66699 56.001 -3s35.5 -3 53.5 -5s37.667 -4.33301 59 -7v67
c0 45.333 -9.83301 82.666 -29.5 111.999s-43.834 52.5 -72.501 69.5s-58.667 29 -90 36s-58 10.5 -80 10.5c-69.333 0 -133.333 -9.33301 -192 -28s-113.334 -43.667 -164.001 -75l-62 103c56 34 118.833 61.833 188.5 83.5s146.167 32.5 229.5 32.5
c50.667 0 100.5 -6.5 149.5 -19.5s93 -33 132 -60s70.167 -62.5 93.5 -106.5s35 -96.667 35 -158v-610h-138v156c-24 -30 -51.167 -56.333 -81.5 -79s-62.166 -41.167 -95.499 -55.5s-66.666 -25.333 -99.999 -33s-65 -11.5 -95 -11.5
c-123.333 0 -216.666 23.667 -279.999 71s-95 115.333 -95 204zM374.996 94c57.333 0 108.833 8.49902 154.5 25.499s84.5 38.167 116.5 63.5s56.833 52.333 74.5 81s26.5 54.667 26.5 78v88c-44.667 6.66699 -87.5 10.334 -128.5 11.001s-76.5 1 -106.5 1
c-49.333 0 -96.833 -3.33301 -142.5 -10s-85.5 -17.5 -119.5 -32.5s-61.333 -34.5 -82 -58.5s-31 -53.667 -31 -89c0 -39.333 19.167 -75.5 57.5 -108.5s98.5 -49.5 180.5 -49.5zM744.996 1105h-559v113h559v-113z" />
    <glyph glyph-name="Abreve" unicode="&#x102;" 
d="M995 0h-147l-123 373h-516l-121 -373h-147l434 1305h186zM686 494l-219 673l-219 -673h438zM752 1581c-78 -77.333 -173 -116 -285 -116s-207 38.667 -285 116l78 76c62.667 -62.667 131.667 -94 207 -94s144.333 31.333 207 94z" />
    <glyph glyph-name="abreve" unicode="&#x103;" 
d="M0 252c0 58.667 14.6631 107.834 43.9961 147.501s67.833 71 115.5 94s102.334 39.667 164.001 50s124.5 15.5 188.5 15.5c24.667 0 46.834 -0.333008 66.501 -1s38.334 -1.66699 56.001 -3s35.5 -3 53.5 -5s37.667 -4.33301 59 -7v67
c0 45.333 -9.83301 82.666 -29.5 111.999s-43.834 52.5 -72.501 69.5s-58.667 29 -90 36s-58 10.5 -80 10.5c-69.333 0 -133.333 -9.33301 -192 -28s-113.334 -43.667 -164.001 -75l-62 103c56 34 118.833 61.833 188.5 83.5s146.167 32.5 229.5 32.5
c50.667 0 100.5 -6.5 149.5 -19.5s93 -33 132 -60s70.167 -62.5 93.5 -106.5s35 -96.667 35 -158v-610h-138v156c-24 -30 -51.167 -56.333 -81.5 -79s-62.166 -41.167 -95.499 -55.5s-66.666 -25.333 -99.999 -33s-65 -11.5 -95 -11.5
c-123.333 0 -216.666 23.667 -279.999 71s-95 115.333 -95 204zM374.996 94c57.333 0 108.833 8.49902 154.5 25.499s84.5 38.167 116.5 63.5s56.833 52.333 74.5 81s26.5 54.667 26.5 78v88c-44.667 6.66699 -87.5 10.334 -128.5 11.001s-76.5 1 -106.5 1
c-49.333 0 -96.833 -3.33301 -142.5 -10s-85.5 -17.5 -119.5 -32.5s-61.333 -34.5 -82 -58.5s-31 -53.667 -31 -89c0 -39.333 19.167 -75.5 57.5 -108.5s98.5 -49.5 180.5 -49.5zM751.996 1209c-78 -77.333 -173 -116 -285 -116s-207 38.667 -285 116l78 76
c62.667 -62.667 131.667 -94 207 -94s144.333 31.333 207 94z" />
    <glyph glyph-name="Aogonek" unicode="&#x104;" 
d="M1135 -379c-83.333 0 -148.998 20.833 -196.998 62.5s-72 96.5 -72 164.5c0 32 5.16699 60.5 15.5 85.5s23.166 47.167 38.499 66.5h-72l-123 373h-516l-121 -373h-147l434 1305h186l434 -1305c-32.667 -30 -49 -70.333 -49 -121c0 -48 18.167 -88 54.5 -120
s81.166 -48 134.499 -48v-90zM686.002 494l-219 673l-219 -673h438z" />
    <glyph glyph-name="aogonek" unicode="&#x105;" 
d="M883 0c-15.333 -15.333 -27.8359 -33.5 -37.5029 -54.5s-14.5 -43.167 -14.5 -66.5c0 -48 18.167 -88 54.5 -120s81.166 -48 134.499 -48v-90c-83.333 0 -148.833 20.833 -196.5 62.5s-71.5 96.5 -71.5 164.5c0 32 5 60.5 15 85.5s22.667 47.167 38 66.5h-60v156
c-24 -30 -51.167 -56.333 -81.5 -79s-62.166 -41.167 -95.499 -55.5s-66.666 -25.333 -99.999 -33s-65 -11.5 -95 -11.5c-123.333 0 -216.666 23.667 -279.999 71s-95 115.333 -95 204c0 58.667 14.667 107.834 44 147.501s67.833 71 115.5 94s102.334 39.667 164.001 50
s124.5 15.5 188.5 15.5c24.667 0 46.834 -0.333008 66.501 -1s38.334 -1.66699 56.001 -3s35.5 -3 53.5 -5s37.667 -4.33301 59 -7v67c0 45.333 -9.83301 82.666 -29.5 111.999s-43.834 52.5 -72.501 69.5s-58.667 29 -90 36s-58 10.5 -80 10.5
c-69.333 0 -133.333 -9.33301 -192 -28s-113.334 -43.667 -164.001 -75l-62 103c56 34 118.833 61.833 188.5 83.5s146.167 32.5 229.5 32.5c50.667 0 100.5 -6.5 149.5 -19.5s93 -33 132 -60s70.167 -62.5 93.5 -106.5s35 -96.667 35 -158v-610zM372.997 94
c57.333 0 108.833 8.49902 154.5 25.499s84.5 38.167 116.5 63.5s56.833 52.333 74.5 81s26.5 54.667 26.5 78v88c-44.667 6.66699 -87.5 10.334 -128.5 11.001s-76.5 1 -106.5 1c-49.333 0 -96.833 -3.33301 -142.5 -10s-85.5 -17.5 -119.5 -32.5s-61.333 -34.5 -82 -58.5
s-31 -53.667 -31 -89c0 -39.333 19.167 -75.5 57.5 -108.5s98.5 -49.5 180.5 -49.5z" />
    <glyph glyph-name="Cacute" unicode="&#x106;" 
d="M940 342c-34 -112 -89.667 -200.832 -167 -266.499s-174.666 -98.5 -291.999 -98.5c-91.333 0 -168.666 18.833 -231.999 56.5s-115.166 87.5 -155.499 149.5s-69.333 133.667 -87 215s-26.5 165.666 -26.5 252.999s8.83301 171.666 26.5 252.999s46.667 153.333 87 216
s92.166 112.834 155.499 150.501s140.666 56.5 231.999 56.5c80.667 0 149.667 -14.333 207 -43s99.666 -72.334 126.999 -131.001v152h117v-428h-117c0 46 -8.83301 89.5 -26.5 130.5s-41.5 76.5 -71.5 106.5s-65.5 53.5 -106.5 70.5s-84.167 25.5 -129.5 25.5
c-70.667 0 -129.167 -16.667 -175.5 -50s-83.5 -77 -111.5 -131s-47.833 -114 -59.5 -180s-17.5 -132 -17.5 -198c0 -65.333 5.83301 -131.166 17.5 -197.499s31.5 -126 59.5 -179s65.167 -96.333 111.5 -130s104.833 -50.5 175.5 -50.5c162.667 0 276 98.333 340 295z
M711 1626l-432 -243l-37 65l403 287z" />
    <glyph glyph-name="cacute" unicode="&#x107;" 
d="M897 178c-39.333 -61.333 -93.167 -110.167 -161.5 -146.5s-149.5 -54.5 -243.5 -54.5c-72.667 0 -139.334 12 -200.001 36s-112.5 57.5 -155.5 100.5s-76.5 94.167 -100.5 153.5s-36 125.333 -36 198c0 70.667 11 136.167 33 196.5s53.333 112 94 155
s90.5 76.667 149.5 101s124.5 36.5 196.5 36.5c28.667 0 58 -3.33301 88 -10s58.333 -16.834 85 -30.501s50.667 -30 72 -49s37.333 -41.5 48 -67.5v135h123v-373h-123c0 41.333 -7.5 79 -22.5 113s-35.5 63.333 -61.5 88s-57 43.834 -93 57.501s-74.667 20.5 -116 20.5
c-56 0 -104.833 -9.66699 -146.5 -29s-76.5 -45.666 -104.5 -78.999s-49.167 -72.5 -63.5 -117.5s-21.5 -94.167 -21.5 -147.5s8.16699 -102.5 24.5 -147.5s40 -83.833 71 -116.5s68.333 -58.667 112 -78s92.834 -29 147.501 -29c69.333 0 131 13.667 185 41
s95.333 63.666 124 108.999zM710.999 1254l-432 -243l-37 65l403 287z" />
    <glyph glyph-name="Ccircumflex" unicode="&#x108;" 
d="M940 342c-34 -112 -89.667 -200.832 -167 -266.499s-174.666 -98.5 -291.999 -98.5c-91.333 0 -168.666 18.833 -231.999 56.5s-115.166 87.5 -155.499 149.5s-69.333 133.667 -87 215s-26.5 165.666 -26.5 252.999s8.83301 171.666 26.5 252.999s46.667 153.333 87 216
s92.166 112.834 155.499 150.501s140.666 56.5 231.999 56.5c80.667 0 149.667 -14.333 207 -43s99.666 -72.334 126.999 -131.001v152h117v-428h-117c0 46 -8.83301 89.5 -26.5 130.5s-41.5 76.5 -71.5 106.5s-65.5 53.5 -106.5 70.5s-84.167 25.5 -129.5 25.5
c-70.667 0 -129.167 -16.667 -175.5 -50s-83.5 -77 -111.5 -131s-47.833 -114 -59.5 -180s-17.5 -132 -17.5 -198c0 -65.333 5.83301 -131.166 17.5 -197.499s31.5 -126 59.5 -179s65.167 -96.333 111.5 -130s104.833 -50.5 175.5 -50.5c162.667 0 276 98.333 340 295z
M764 1452l-53 -67l-242 205l-246 -207l-53 65l297 291z" />
    <glyph glyph-name="ccircumflex" unicode="&#x109;" 
d="M897 178c-39.333 -61.333 -93.167 -110.167 -161.5 -146.5s-149.5 -54.5 -243.5 -54.5c-72.667 0 -139.334 12 -200.001 36s-112.5 57.5 -155.5 100.5s-76.5 94.167 -100.5 153.5s-36 125.333 -36 198c0 70.667 11 136.167 33 196.5s53.333 112 94 155
s90.5 76.667 149.5 101s124.5 36.5 196.5 36.5c28.667 0 58 -3.33301 88 -10s58.333 -16.834 85 -30.501s50.667 -30 72 -49s37.333 -41.5 48 -67.5v135h123v-373h-123c0 41.333 -7.5 79 -22.5 113s-35.5 63.333 -61.5 88s-57 43.834 -93 57.501s-74.667 20.5 -116 20.5
c-56 0 -104.833 -9.66699 -146.5 -29s-76.5 -45.666 -104.5 -78.999s-49.167 -72.5 -63.5 -117.5s-21.5 -94.167 -21.5 -147.5s8.16699 -102.5 24.5 -147.5s40 -83.833 71 -116.5s68.333 -58.667 112 -78s92.834 -29 147.501 -29c69.333 0 131 13.667 185 41
s95.333 63.666 124 108.999zM763.999 1080l-53 -67l-242 205l-246 -207l-53 65l297 291z" />
    <glyph glyph-name="Cdotaccent" unicode="&#x10a;" 
d="M940 342c-34 -112 -89.667 -200.832 -167 -266.499s-174.666 -98.5 -291.999 -98.5c-91.333 0 -168.666 18.833 -231.999 56.5s-115.166 87.5 -155.499 149.5s-69.333 133.667 -87 215s-26.5 165.666 -26.5 252.999s8.83301 171.666 26.5 252.999s46.667 153.333 87 216
s92.166 112.834 155.499 150.501s140.666 56.5 231.999 56.5c80.667 0 149.667 -14.333 207 -43s99.666 -72.334 126.999 -131.001v152h117v-428h-117c0 46 -8.83301 89.5 -26.5 130.5s-41.5 76.5 -71.5 106.5s-65.5 53.5 -106.5 70.5s-84.167 25.5 -129.5 25.5
c-70.667 0 -129.167 -16.667 -175.5 -50s-83.5 -77 -111.5 -131s-47.833 -114 -59.5 -180s-17.5 -132 -17.5 -198c0 -65.333 5.83301 -131.166 17.5 -197.499s31.5 -126 59.5 -179s65.167 -96.333 111.5 -130s104.833 -50.5 175.5 -50.5c162.667 0 276 98.333 340 295z
M559 1489h-186v187h186v-187z" />
    <glyph glyph-name="cdotaccent" unicode="&#x10b;" 
d="M897 178c-39.333 -61.333 -93.167 -110.167 -161.5 -146.5s-149.5 -54.5 -243.5 -54.5c-72.667 0 -139.334 12 -200.001 36s-112.5 57.5 -155.5 100.5s-76.5 94.167 -100.5 153.5s-36 125.333 -36 198c0 70.667 11 136.167 33 196.5s53.333 112 94 155
s90.5 76.667 149.5 101s124.5 36.5 196.5 36.5c28.667 0 58 -3.33301 88 -10s58.333 -16.834 85 -30.501s50.667 -30 72 -49s37.333 -41.5 48 -67.5v135h123v-373h-123c0 41.333 -7.5 79 -22.5 113s-35.5 63.333 -61.5 88s-57 43.834 -93 57.501s-74.667 20.5 -116 20.5
c-56 0 -104.833 -9.66699 -146.5 -29s-76.5 -45.666 -104.5 -78.999s-49.167 -72.5 -63.5 -117.5s-21.5 -94.167 -21.5 -147.5s8.16699 -102.5 24.5 -147.5s40 -83.833 71 -116.5s68.333 -58.667 112 -78s92.834 -29 147.501 -29c69.333 0 131 13.667 185 41
s95.333 63.666 124 108.999zM558.999 1118h-186v187h186v-187z" />
    <glyph glyph-name="Ccaron" unicode="&#x10c;" 
d="M940 342c-34 -112 -89.667 -200.832 -167 -266.499s-174.666 -98.5 -291.999 -98.5c-91.333 0 -168.666 18.833 -231.999 56.5s-115.166 87.5 -155.499 149.5s-69.333 133.667 -87 215s-26.5 165.666 -26.5 252.999s8.83301 171.666 26.5 252.999s46.667 153.333 87 216
s92.166 112.834 155.499 150.501s140.666 56.5 231.999 56.5c80.667 0 149.667 -14.333 207 -43s99.666 -72.334 126.999 -131.001v152h117v-428h-117c0 46 -8.83301 89.5 -26.5 130.5s-41.5 76.5 -71.5 106.5s-65.5 53.5 -106.5 70.5s-84.167 25.5 -129.5 25.5
c-70.667 0 -129.167 -16.667 -175.5 -50s-83.5 -77 -111.5 -131s-47.833 -114 -59.5 -180s-17.5 -132 -17.5 -198c0 -65.333 5.83301 -131.166 17.5 -197.499s31.5 -126 59.5 -179s65.167 -96.333 111.5 -130s104.833 -50.5 175.5 -50.5c162.667 0 276 98.333 340 295z
M764 1667l-297 -284l-297 288l53 68l246 -207l242 203z" />
    <glyph glyph-name="ccaron" unicode="&#x10d;" 
d="M897 178c-39.333 -61.333 -93.167 -110.167 -161.5 -146.5s-149.5 -54.5 -243.5 -54.5c-72.667 0 -139.334 12 -200.001 36s-112.5 57.5 -155.5 100.5s-76.5 94.167 -100.5 153.5s-36 125.333 -36 198c0 70.667 11 136.167 33 196.5s53.333 112 94 155
s90.5 76.667 149.5 101s124.5 36.5 196.5 36.5c28.667 0 58 -3.33301 88 -10s58.333 -16.834 85 -30.501s50.667 -30 72 -49s37.333 -41.5 48 -67.5v135h123v-373h-123c0 41.333 -7.5 79 -22.5 113s-35.5 63.333 -61.5 88s-57 43.834 -93 57.501s-74.667 20.5 -116 20.5
c-56 0 -104.833 -9.66699 -146.5 -29s-76.5 -45.666 -104.5 -78.999s-49.167 -72.5 -63.5 -117.5s-21.5 -94.167 -21.5 -147.5s8.16699 -102.5 24.5 -147.5s40 -83.833 71 -116.5s68.333 -58.667 112 -78s92.834 -29 147.501 -29c69.333 0 131 13.667 185 41
s95.333 63.666 124 108.999zM763.999 1295l-297 -284l-297 288l53 68l246 -207l242 203z" />
    <glyph glyph-name="Dcaron" unicode="&#x10e;" 
d="M975 651c0 -87.333 -9.16895 -170.499 -27.502 -249.499s-47.666 -148.333 -87.999 -208s-92.333 -106.834 -156 -141.501s-140.5 -52 -230.5 -52h-424v1305h424c88.667 0 164.834 -17.833 228.501 -53.5s115.667 -83.5 156 -143.5s70 -129.333 89 -208
s28.5 -161.667 28.5 -249zM837.998 651.001c0 170.667 -32.167 302.832 -96.5 396.499s-153.833 140.5 -268.5 140.5h-287v-1071h287c114.667 0 204.167 46.333 268.5 139s96.5 224.334 96.5 395.001zM763.998 1671l-297 -284l-297 288l53 68l246 -207l242 203z" />
    <glyph glyph-name="dcaron" unicode="&#x10f;" 
d="M745 0h-137v86c-31.333 -35.333 -66.5 -62.333 -105.5 -81s-78.167 -28 -117.5 -28c-60 0 -113.833 12 -161.5 36s-88 57.5 -121 100.5s-58.333 94.5 -76 154.5s-26.5 125.667 -26.5 197c-0 70.667 8.83301 136.167 26.5 196.5s43 112 76 155s73.333 76.667 121 101
s101.5 36.5 161.5 36.5c39.333 0 78.5 -8.83301 117.5 -26.5s74.167 -44.167 105.5 -79.5v340h-186v117h323v-1305zM608 715c-31.333 43.333 -65 74.665 -101 93.998s-74 29 -114 29c-40.667 0 -77 -9.66699 -109 -29s-59 -45.666 -81 -78.999s-38.833 -72.5 -50.5 -117.5
s-17.5 -94.167 -17.5 -147.5s5.83301 -102.5 17.5 -147.5s28.5 -84.167 50.5 -117.5s49 -59.666 81 -78.999s68.333 -29 109 -29c82 0 153.667 41.667 215 125v498zM1065 1304l-84 -465h-101v465h185z" />
    <glyph glyph-name="Dcroat" unicode="&#x110;" 
d="M975 653c0 -90 -9.99902 -174.5 -29.999 -253.5s-50.333 -148.333 -91 -208s-92.834 -106.5 -156.501 -140.5s-138.5 -51 -224.5 -51h-424v606h-166v117h166v582h424c91.333 0 168.833 -17.833 232.5 -53.5s115.667 -83.5 156 -143.5s69.333 -129.333 87 -208
s26.5 -161 26.5 -247zM838.001 653c0 170.667 -32.167 302.5 -96.5 395.5s-153.833 139.5 -268.5 139.5h-287v-465h254v-117h-254v-489h287c114.667 0 204.167 46.667 268.5 140s96.5 225.333 96.5 396z" />
    <glyph glyph-name="dcroat" unicode="&#x111;" 
d="M1069 1001h-186v-1001h-138v86c-39.333 -35.333 -82.5 -62.333 -129.5 -81s-95.167 -28 -144.5 -28c-74 0 -140.333 12 -199 36s-108.167 57.5 -148.5 100.5s-71.333 94.5 -93 154.5s-32.5 125.667 -32.5 197c0 70.667 10.833 136.167 32.5 196.5s52.667 112 93 155
s89.833 76.667 148.5 101s125 36.5 199 36.5c49.333 0 97.5 -8.83301 144.5 -26.5s90.167 -44.167 129.5 -79.5v153h-186v117h186v187h138v-187h186v-117zM745 715c-39.333 43.333 -82.167 74.665 -128.5 93.998s-95.5 29 -147.5 29
c-54.667 0 -102.834 -9.66699 -144.501 -29s-76.5 -45.666 -104.5 -78.999s-49.167 -72.5 -63.5 -117.5s-21.5 -94.167 -21.5 -147.5s7.16699 -102.5 21.5 -147.5s35.5 -84.167 63.5 -117.5s62.833 -59.666 104.5 -78.999s89.834 -29 144.501 -29
c105.333 0 197.333 41.667 276 125v498z" />
    <glyph glyph-name="Emacron" unicode="&#x112;" 
d="M883 0h-834v1305h834v-117h-697v-467h514v-117h-514v-487h697v-117zM745 1477h-559v113h559v-113z" />
    <glyph glyph-name="emacron" unicode="&#x113;" 
d="M137 418c10 -98.667 46.002 -177.338 108.002 -236.005s142.667 -88 242 -88c70 0 132.333 14.333 187 43s95.667 64.334 123 107.001l96 -66c-46.667 -65.333 -102.334 -115.166 -167.001 -149.499s-144.334 -51.5 -239.001 -51.5c-72 0 -138 12 -198 36
s-111.833 57.5 -155.5 100.5s-77.5 94.167 -101.5 153.5s-36 125.333 -36 198c0 70.667 10.833 135.834 32.5 195.501s53 111.334 94 155.001s90.833 77.667 149.5 102s124.334 36.5 197.001 36.5c79.333 0 148.666 -13.333 207.999 -40s108.833 -63.5 148.5 -110.5
s69 -103.167 88 -168.5s28.5 -137.666 28.5 -216.999h-805zM797.002 534.996c-15.333 102 -52.334 178.002 -111.001 228.002s-131 75 -217 75c-44 0 -84.667 -7.16699 -122 -21.5s-70.333 -34.833 -99 -61.5s-52.667 -58.834 -72 -96.501s-31.666 -78.834 -36.999 -123.501
h658zM745.001 1105h-559v113h559v-113z" />
    <glyph glyph-name="Ebreve" unicode="&#x114;" 
d="M883 0h-834v1305h834v-117h-697v-467h514v-117h-514v-487h697v-117zM752 1581c-78 -77.333 -173 -116 -285 -116s-207 38.667 -285 116l78 76c62.667 -62.667 131.667 -94 207 -94s144.333 31.333 207 94z" />
    <glyph glyph-name="ebreve" unicode="&#x115;" 
d="M137 418c10 -98.667 46.002 -177.338 108.002 -236.005s142.667 -88 242 -88c70 0 132.333 14.333 187 43s95.667 64.334 123 107.001l96 -66c-46.667 -65.333 -102.334 -115.166 -167.001 -149.499s-144.334 -51.5 -239.001 -51.5c-72 0 -138 12 -198 36
s-111.833 57.5 -155.5 100.5s-77.5 94.167 -101.5 153.5s-36 125.333 -36 198c0 70.667 10.833 135.834 32.5 195.501s53 111.334 94 155.001s90.833 77.667 149.5 102s124.334 36.5 197.001 36.5c79.333 0 148.666 -13.333 207.999 -40s108.833 -63.5 148.5 -110.5
s69 -103.167 88 -168.5s28.5 -137.666 28.5 -216.999h-805zM797.002 534.996c-15.333 102 -52.334 178.002 -111.001 228.002s-131 75 -217 75c-44 0 -84.667 -7.16699 -122 -21.5s-70.333 -34.833 -99 -61.5s-52.667 -58.834 -72 -96.501s-31.666 -78.834 -36.999 -123.501
h658zM752.001 1209c-78 -77.333 -173 -116 -285 -116s-207 38.667 -285 116l78 76c62.667 -62.667 131.667 -94 207 -94s144.333 31.333 207 94z" />
    <glyph glyph-name="Edotaccent" unicode="&#x116;" 
d="M883 0h-834v1305h834v-117h-697v-467h514v-117h-514v-487h697v-117zM559 1489h-186v187h186v-187z" />
    <glyph glyph-name="edotaccent" unicode="&#x117;" 
d="M137 418c10 -98.667 46.002 -177.338 108.002 -236.005s142.667 -88 242 -88c70 0 132.333 14.333 187 43s95.667 64.334 123 107.001l96 -66c-46.667 -65.333 -102.334 -115.166 -167.001 -149.499s-144.334 -51.5 -239.001 -51.5c-72 0 -138 12 -198 36
s-111.833 57.5 -155.5 100.5s-77.5 94.167 -101.5 153.5s-36 125.333 -36 198c0 70.667 10.833 135.834 32.5 195.501s53 111.334 94 155.001s90.833 77.667 149.5 102s124.334 36.5 197.001 36.5c79.333 0 148.666 -13.333 207.999 -40s108.833 -63.5 148.5 -110.5
s69 -103.167 88 -168.5s28.5 -137.666 28.5 -216.999h-805zM797.002 534.996c-15.333 102 -52.334 178.002 -111.001 228.002s-131 75 -217 75c-44 0 -84.667 -7.16699 -122 -21.5s-70.333 -34.833 -99 -61.5s-52.667 -58.834 -72 -96.501s-31.666 -78.834 -36.999 -123.501
h658zM559.001 1118h-186v187h186v-187z" />
    <glyph glyph-name="Eogonek" unicode="&#x118;" 
d="M1024 -379c-83.333 0 -148.833 20.833 -196.5 62.5s-71.5 96.5 -71.5 164.5c0 32 5 60.5 15 85.5s22.667 47.167 38 66.5h-760v1305h834v-117h-697v-467h514v-117h-514v-487h697v-115l2 -2c-32.667 -30 -49 -70.333 -49 -121c0 -48 18 -88 54 -120s80.667 -48 134 -48
v-90z" />
    <glyph glyph-name="eogonek" unicode="&#x119;" 
d="M659 2c-14.667 -14.667 -26.165 -33.0029 -34.498 -55.0029s-12.5 -44.667 -12.5 -68c0 -48 18.167 -88 54.5 -120s81.166 -48 134.499 -48v-90c-83.333 0 -149 20.833 -197 62.5s-72 96.5 -72 164.5c0 27.333 3.83301 52 11.5 74s17.5 42.667 29.5 62
c-28.667 -4.66699 -57.334 -7 -86.001 -7c-72 0 -138 12 -198 36s-111.833 57.5 -155.5 100.5s-77.5 94.167 -101.5 153.5s-36 125.333 -36 198c0 70.667 10.833 135.834 32.5 195.501s53 111.334 94 155.001s90.833 77.667 149.5 102s124.334 36.5 197.001 36.5
c79.333 0 148.666 -13.333 207.999 -40s108.833 -63.5 148.5 -110.5s69 -103.167 88 -168.5s28.5 -137.666 28.5 -216.999h-805c10 -98.667 46 -177.334 108 -236.001s142.667 -88 242 -88c70 0 132.333 14.333 187 43s95.667 64.334 123 107.001l96 -66
c-62.667 -87.333 -140.667 -146 -234 -176zM797.002 534.997c-15.333 102 -52.334 178.002 -111.001 228.002s-131 75 -217 75c-44 0 -84.667 -7.16699 -122 -21.5s-70.333 -34.833 -99 -61.5s-52.667 -58.834 -72 -96.501s-31.666 -78.834 -36.999 -123.501h658z" />
    <glyph glyph-name="Ecaron" unicode="&#x11a;" 
d="M883 0h-834v1305h834v-117h-697v-467h514v-117h-514v-487h697v-117zM764 1667l-297 -284l-297 288l53 68l246 -207l242 203z" />
    <glyph glyph-name="ecaron" unicode="&#x11b;" 
d="M137 418c10 -98.667 46.002 -177.338 108.002 -236.005s142.667 -88 242 -88c70 0 132.333 14.333 187 43s95.667 64.334 123 107.001l96 -66c-46.667 -65.333 -102.334 -115.166 -167.001 -149.499s-144.334 -51.5 -239.001 -51.5c-72 0 -138 12 -198 36
s-111.833 57.5 -155.5 100.5s-77.5 94.167 -101.5 153.5s-36 125.333 -36 198c0 70.667 10.833 135.834 32.5 195.501s53 111.334 94 155.001s90.833 77.667 149.5 102s124.334 36.5 197.001 36.5c79.333 0 148.666 -13.333 207.999 -40s108.833 -63.5 148.5 -110.5
s69 -103.167 88 -168.5s28.5 -137.666 28.5 -216.999h-805zM797.002 534.996c-15.333 102 -52.334 178.002 -111.001 228.002s-131 75 -217 75c-44 0 -84.667 -7.16699 -122 -21.5s-70.333 -34.833 -99 -61.5s-52.667 -58.834 -72 -96.501s-31.666 -78.834 -36.999 -123.501
h658zM764.001 1295l-297 -284l-297 288l53 68l246 -207l242 203z" />
    <glyph glyph-name="Gcircumflex" unicode="&#x11c;" 
d="M983 649c0 -88.667 -9.16699 -173.331 -27.5 -253.998s-47.666 -152 -87.999 -214s-92.333 -111.5 -156 -148.5s-140.5 -55.5 -230.5 -55.5c-91.333 0 -168.666 18.833 -231.999 56.5s-115.166 87.5 -155.499 149.5s-69.333 133.667 -87 215s-26.5 165.666 -26.5 252.999
s8.83301 171.666 26.5 252.999s46.667 153.333 87 216s92.166 112.834 155.499 150.501s140.666 56.5 231.999 56.5c80.667 0 149.667 -14.333 207 -43s99.666 -72.334 126.999 -131.001v152h117v-428h-117c0 47.333 -8.83301 91.5 -26.5 132.5s-41.5 76.167 -71.5 105.5
s-65.5 52.5 -106.5 69.5s-84.167 25.5 -129.5 25.5c-70.667 0 -129.167 -16.667 -175.5 -50s-83.5 -77 -111.5 -131s-47.833 -114 -59.5 -180s-17.5 -132 -17.5 -198c0 -65.333 5.83301 -131.166 17.5 -197.499s31.5 -126 59.5 -179s65.167 -96.333 111.5 -130
s104.833 -50.5 175.5 -50.5c105.333 0 188.333 40.667 249 122s96.667 195.666 108 342.999h-289v117h434v-27zM764 1452l-53 -67l-242 205l-246 -207l-53 65l297 291z" />
    <glyph glyph-name="gcircumflex" unicode="&#x11d;" 
d="M883 10c0 -64 -11 -121.003 -33 -171.003s-52.833 -92.333 -92.5 -127s-86.334 -61.167 -140.001 -79.5s-113.5 -27.5 -179.5 -27.5c-92.667 0 -171.5 17.333 -236.5 52s-121.167 84.667 -168.5 150l96 74c28.667 -43.333 70 -79.666 124 -108.999s115.667 -44 185 -44
c94.667 0 169.5 23.833 224.5 71.5s82.5 116.5 82.5 206.5v100c-81.333 -72 -174 -108 -278 -108c-146 0 -260.667 41.667 -344 125s-125 197.333 -125 342c0 70.667 10.833 135.834 32.5 195.501s52.667 111.334 93 155.001s89.5 77.667 147.5 102s123.333 36.5 196 36.5
c50.667 0 99.834 -8.83301 147.501 -26.5s91.167 -44.167 130.5 -79.5v84h138v-922zM745 714.997c-39.333 43.333 -82.5 74.666 -129.5 93.999s-96.5 29 -148.5 29c-54.667 0 -102.834 -9.66699 -144.501 -29s-76.167 -45.666 -103.5 -78.999
s-48.166 -72.833 -62.499 -118.5s-21.5 -94.5 -21.5 -146.5c0 -106.667 27.667 -191.667 83 -255s138.333 -95 249 -95c52 0 101.5 9.83301 148.5 29.5s90.167 51.5 129.5 95.5v475zM764 1080l-53 -67l-242 205l-246 -207l-53 65l297 291z" />
    <glyph glyph-name="Gbreve" unicode="&#x11e;" 
d="M983 649c0 -88.667 -9.16699 -173.331 -27.5 -253.998s-47.666 -152 -87.999 -214s-92.333 -111.5 -156 -148.5s-140.5 -55.5 -230.5 -55.5c-91.333 0 -168.666 18.833 -231.999 56.5s-115.166 87.5 -155.499 149.5s-69.333 133.667 -87 215s-26.5 165.666 -26.5 252.999
s8.83301 171.666 26.5 252.999s46.667 153.333 87 216s92.166 112.834 155.499 150.501s140.666 56.5 231.999 56.5c80.667 0 149.667 -14.333 207 -43s99.666 -72.334 126.999 -131.001v152h117v-428h-117c0 47.333 -8.83301 91.5 -26.5 132.5s-41.5 76.167 -71.5 105.5
s-65.5 52.5 -106.5 69.5s-84.167 25.5 -129.5 25.5c-70.667 0 -129.167 -16.667 -175.5 -50s-83.5 -77 -111.5 -131s-47.833 -114 -59.5 -180s-17.5 -132 -17.5 -198c0 -65.333 5.83301 -131.166 17.5 -197.499s31.5 -126 59.5 -179s65.167 -96.333 111.5 -130
s104.833 -50.5 175.5 -50.5c105.333 0 188.333 40.667 249 122s96.667 195.666 108 342.999h-289v117h434v-27zM752 1581c-78 -77.333 -173 -116 -285 -116s-207 38.667 -285 116l78 76c62.667 -62.667 131.667 -94 207 -94s144.333 31.333 207 94z" />
    <glyph glyph-name="gbreve" unicode="&#x11f;" 
d="M883 10c0 -64 -11 -121.003 -33 -171.003s-52.833 -92.333 -92.5 -127s-86.334 -61.167 -140.001 -79.5s-113.5 -27.5 -179.5 -27.5c-92.667 0 -171.5 17.333 -236.5 52s-121.167 84.667 -168.5 150l96 74c28.667 -43.333 70 -79.666 124 -108.999s115.667 -44 185 -44
c94.667 0 169.5 23.833 224.5 71.5s82.5 116.5 82.5 206.5v100c-81.333 -72 -174 -108 -278 -108c-146 0 -260.667 41.667 -344 125s-125 197.333 -125 342c0 70.667 10.833 135.834 32.5 195.501s52.667 111.334 93 155.001s89.5 77.667 147.5 102s123.333 36.5 196 36.5
c50.667 0 99.834 -8.83301 147.501 -26.5s91.167 -44.167 130.5 -79.5v84h138v-922zM745 714.997c-39.333 43.333 -82.5 74.666 -129.5 93.999s-96.5 29 -148.5 29c-54.667 0 -102.834 -9.66699 -144.501 -29s-76.167 -45.666 -103.5 -78.999
s-48.166 -72.833 -62.499 -118.5s-21.5 -94.5 -21.5 -146.5c0 -106.667 27.667 -191.667 83 -255s138.333 -95 249 -95c52 0 101.5 9.83301 148.5 29.5s90.167 51.5 129.5 95.5v475zM752 1209c-78 -77.333 -173 -116 -285 -116s-207 38.667 -285 116l78 76
c62.667 -62.667 131.667 -94 207 -94s144.333 31.333 207 94z" />
    <glyph glyph-name="Gdotaccent" unicode="&#x120;" 
d="M983 649c0 -88.667 -9.16699 -173.331 -27.5 -253.998s-47.666 -152 -87.999 -214s-92.333 -111.5 -156 -148.5s-140.5 -55.5 -230.5 -55.5c-91.333 0 -168.666 18.833 -231.999 56.5s-115.166 87.5 -155.499 149.5s-69.333 133.667 -87 215s-26.5 165.666 -26.5 252.999
s8.83301 171.666 26.5 252.999s46.667 153.333 87 216s92.166 112.834 155.499 150.501s140.666 56.5 231.999 56.5c80.667 0 149.667 -14.333 207 -43s99.666 -72.334 126.999 -131.001v152h117v-428h-117c0 47.333 -8.83301 91.5 -26.5 132.5s-41.5 76.167 -71.5 105.5
s-65.5 52.5 -106.5 69.5s-84.167 25.5 -129.5 25.5c-70.667 0 -129.167 -16.667 -175.5 -50s-83.5 -77 -111.5 -131s-47.833 -114 -59.5 -180s-17.5 -132 -17.5 -198c0 -65.333 5.83301 -131.166 17.5 -197.499s31.5 -126 59.5 -179s65.167 -96.333 111.5 -130
s104.833 -50.5 175.5 -50.5c105.333 0 188.333 40.667 249 122s96.667 195.666 108 342.999h-289v117h434v-27zM559 1489h-186v187h186v-187z" />
    <glyph glyph-name="gdotaccent" unicode="&#x121;" 
d="M883 10c0 -64 -11 -121.003 -33 -171.003s-52.833 -92.333 -92.5 -127s-86.334 -61.167 -140.001 -79.5s-113.5 -27.5 -179.5 -27.5c-92.667 0 -171.5 17.333 -236.5 52s-121.167 84.667 -168.5 150l96 74c28.667 -43.333 70 -79.666 124 -108.999s115.667 -44 185 -44
c94.667 0 169.5 23.833 224.5 71.5s82.5 116.5 82.5 206.5v100c-81.333 -72 -174 -108 -278 -108c-146 0 -260.667 41.667 -344 125s-125 197.333 -125 342c0 70.667 10.833 135.834 32.5 195.501s52.667 111.334 93 155.001s89.5 77.667 147.5 102s123.333 36.5 196 36.5
c50.667 0 99.834 -8.83301 147.501 -26.5s91.167 -44.167 130.5 -79.5v84h138v-922zM745 714.997c-39.333 43.333 -82.5 74.666 -129.5 93.999s-96.5 29 -148.5 29c-54.667 0 -102.834 -9.66699 -144.501 -29s-76.167 -45.666 -103.5 -78.999
s-48.166 -72.833 -62.499 -118.5s-21.5 -94.5 -21.5 -146.5c0 -106.667 27.667 -191.667 83 -255s138.333 -95 249 -95c52 0 101.5 9.83301 148.5 29.5s90.167 51.5 129.5 95.5v475zM559 1118h-186v187h186v-187z" />
    <glyph glyph-name="Gcommaaccent" unicode="&#x122;" 
d="M983 649c0 -88.667 -9.16699 -173.331 -27.5 -253.998s-47.666 -152 -87.999 -214s-92.333 -111.5 -156 -148.5s-140.5 -55.5 -230.5 -55.5c-91.333 0 -168.666 18.833 -231.999 56.5s-115.166 87.5 -155.499 149.5s-69.333 133.667 -87 215s-26.5 165.666 -26.5 252.999
s8.83301 171.666 26.5 252.999s46.667 153.333 87 216s92.166 112.834 155.499 150.501s140.666 56.5 231.999 56.5c80.667 0 149.667 -14.333 207 -43s99.666 -72.334 126.999 -131.001v152h117v-428h-117c0 47.333 -8.83301 91.5 -26.5 132.5s-41.5 76.167 -71.5 105.5
s-65.5 52.5 -106.5 69.5s-84.167 25.5 -129.5 25.5c-70.667 0 -129.167 -16.667 -175.5 -50s-83.5 -77 -111.5 -131s-47.833 -114 -59.5 -180s-17.5 -132 -17.5 -198c0 -65.333 5.83301 -131.166 17.5 -197.499s31.5 -126 59.5 -179s65.167 -96.333 111.5 -130
s104.833 -50.5 175.5 -50.5c105.333 0 188.333 40.667 249 122s96.667 195.666 108 342.999h-289v117h434v-27zM610 -103.997l-172 -269h-127l84 269h215z" />
    <glyph glyph-name="gcommaaccent" unicode="&#x123;" 
d="M283 1118l274 373h96l-186 -373h-184zM883 10c0 -64 -11 -121.003 -33 -171.003s-52.833 -92.333 -92.5 -127s-86.334 -61.167 -140.001 -79.5s-113.5 -27.5 -179.5 -27.5c-92.667 0 -171.5 17.333 -236.5 52s-121.167 84.667 -168.5 150l96 74
c28.667 -43.333 70 -79.666 124 -108.999s115.667 -44 185 -44c94.667 0 169.5 23.833 224.5 71.5s82.5 116.5 82.5 206.5v100c-81.333 -72 -174 -108 -278 -108c-146 0 -260.667 41.667 -344 125s-125 197.333 -125 342c0 70.667 10.833 135.834 32.5 195.501
s52.667 111.334 93 155.001s89.5 77.667 147.5 102s123.333 36.5 196 36.5c50.667 0 99.834 -8.83301 147.501 -26.5s91.167 -44.167 130.5 -79.5v84h138v-922zM745 714.997c-39.333 43.333 -82.5 74.666 -129.5 93.999s-96.5 29 -148.5 29
c-54.667 0 -102.834 -9.66699 -144.501 -29s-76.167 -45.666 -103.5 -78.999s-48.166 -72.833 -62.499 -118.5s-21.5 -94.5 -21.5 -146.5c0 -106.667 27.667 -191.667 83 -255s138.333 -95 249 -95c52 0 101.5 9.83301 148.5 29.5s90.167 51.5 129.5 95.5v475z" />
    <glyph glyph-name="Hcircumflex" unicode="&#x124;" 
d="M883 0h-138v604h-559v-604h-137v1305h137v-584h559v584h138v-1305zM764 1452l-53 -67l-242 205l-246 -207l-53 65l297 291z" />
    <glyph glyph-name="hcircumflex" unicode="&#x125;" 
d="M883 0h-138v575c0 83.333 -18 148 -54 194s-94.333 69 -175 69c-50.667 0 -96.5 -11.667 -137.5 -35s-75.833 -54.5 -104.5 -93.5s-50.5 -83.667 -65.5 -134s-22.5 -102.833 -22.5 -157.5v-418h-137v1305h137v-607c66 170.667 183.667 256 353 256
c229.333 0 344 -126.333 344 -379v-575zM764 1454l-53 -67l-242 205l-246 -207l-53 65l297 291z" />
    <glyph glyph-name="Hbar" unicode="&#x126;" 
d="M883 1096h188v-113h-188v-983h-138v604h-559v-604h-137v983h-186v113h186v209h137v-209h559v209h138v-209zM745 721v262h-559v-262h559z" />
    <glyph glyph-name="hbar" unicode="&#x127;" 
d="M883 0h-138v575c0 83.333 -18 148 -54 194s-94.333 69 -175 69c-50.667 0 -96.5 -11.667 -137.5 -35s-75.833 -54.5 -104.5 -93.5s-50.5 -83.667 -65.5 -134s-22.5 -102.833 -22.5 -157.5v-418h-137v1006h-186v112h186v187h137v-187h187v-112h-187v-308
c66 170.667 183.667 256 353 256c229.333 0 344 -126.333 344 -379v-575z" />
    <glyph glyph-name="Itilde" unicode="&#x128;" 
d="M745 0h-559v117h211v1071h-211v117h559v-117h-210v-1071h210v-117zM846 1600c-60 -105.333 -142 -158 -246 -158c-38 0 -69 6.16699 -93 18.5s-45.167 25.666 -63.5 39.999s-36.5 27.666 -54.5 39.999s-39.667 18.5 -65 18.5c-68.667 0 -124 -37 -166 -111l-80 47
c61.333 104 143.333 156 246 156c38 0 69 -6.16699 93 -18.5s45.167 -25.666 63.5 -39.999s36.333 -27.666 54 -39.999s39.5 -18.5 65.5 -18.5c68 0 123.333 37.667 166 113z" />
    <glyph glyph-name="itilde" unicode="&#x129;" 
d="M745 0h-559v117h211v694h-211v121h349v-815h210v-117zM846 1228c-60 -105.333 -142 -158 -246 -158c-38 0 -69 6.16699 -93 18.5s-45.167 25.666 -63.5 39.999s-36.5 27.666 -54.5 39.999s-39.667 18.5 -65 18.5c-68.667 0 -124 -37 -166 -111l-80 47
c61.333 104 143.333 156 246 156c38 0 69 -6.16699 93 -18.5s45.167 -25.666 63.5 -39.999s36.333 -27.666 54 -39.999s39.5 -18.5 65.5 -18.5c68 0 123.333 37.667 166 113z" />
    <glyph glyph-name="Imacron" unicode="&#x12a;" 
d="M745 0h-559v117h211v1071h-211v117h559v-117h-210v-1071h210v-117zM745 1477h-559v113h559v-113z" />
    <glyph glyph-name="imacron" unicode="&#x12b;" 
d="M745 0h-559v117h211v694h-211v121h349v-815h210v-117zM745 1105h-559v113h559v-113z" />
    <glyph glyph-name="Ibreve" unicode="&#x12c;" 
d="M745 0h-559v117h211v1071h-211v117h559v-117h-210v-1071h210v-117zM752 1581c-78 -77.333 -173 -116 -285 -116s-207 38.667 -285 116l78 76c62.667 -62.667 131.667 -94 207 -94s144.333 31.333 207 94z" />
    <glyph glyph-name="ibreve" unicode="&#x12d;" 
d="M745 0h-559v117h211v694h-211v121h349v-815h210v-117zM752 1209c-78 -77.333 -173 -116 -285 -116s-207 38.667 -285 116l78 76c62.667 -62.667 131.667 -94 207 -94s144.333 31.333 207 94z" />
    <glyph glyph-name="Iogonek" unicode="&#x12e;" 
d="M885 -379c-83.333 0 -148.998 20.833 -196.998 62.5s-72 96.5 -72 164.5c0 32 5.16699 60.5 15.5 85.5s23.166 47.167 38.499 66.5h-484v117h211v1071h-211v117h559v-117h-210v-1071h210v-117c-32.667 -30 -49 -70.333 -49 -121c0 -48 18.167 -88 54.5 -120
s81.166 -48 134.499 -48v-90z" />
    <glyph glyph-name="iogonek" unicode="&#x12f;" 
d="M885 -379c-83.333 0 -148.998 20.833 -196.998 62.5s-72 96.5 -72 164.5c0 32 5.16699 60.5 15.5 85.5s23.166 47.167 38.499 66.5h-484v117h211v698h-211v117h349v-815h210v-117c-32.667 -30 -49 -70.333 -49 -121c0 -48 18.167 -88 54.5 -120s81.166 -48 134.499 -48
v-90zM559.002 1118h-186v187h186v-187z" />
    <glyph glyph-name="Idotaccent" unicode="&#x130;" 
d="M745 0h-559v117h211v1071h-211v117h559v-117h-210v-1071h210v-117zM559 1489h-186v187h186v-187z" />
    <glyph glyph-name="dotlessi" unicode="&#x131;" 
d="M745 0h-559v117h211v694h-211v121h349v-815h210v-117z" />
    <glyph glyph-name="IJ" unicode="&#x132;" 
d="M256 -170c32.667 -38 70.1689 -65.667 112.502 -83s87.5 -26 135.5 -26c61.333 0 111.166 12.333 149.499 37s67.666 56.167 87.999 94.5s34.333 81.333 42 129s11.5 95.5 11.5 143.5v1180h137v-1180c0 -165.333 -35.167 -293.333 -105.5 -384s-177.833 -136 -322.5 -136
c-140.667 0 -252 43 -334 129zM559.002 0h-559v117h211v1071h-211v117h559v-117h-210v-1071h210v-117z" />
    <glyph glyph-name="ij" unicode="&#x133;" 
d="M373 1118h-187v187h187v-187zM559 0h-559v117h211v698h-211v117h348v-815h211v-117zM932 1118h-187v187h187v-187zM535 -395c-164 0 -279 67.333 -345 202l105 72c24.667 -50.667 56.5 -89.667 95.5 -117s87.167 -41 144.5 -41c44.667 0 82.334 6.5 113.001 19.5
s55 31.5 73 55.5s30.667 53 38 87s11 73 11 117v815h-211v117h348v-932c0 -120 -31.333 -215.833 -94 -287.5s-155.334 -107.5 -278.001 -107.5z" />
    <glyph glyph-name="Jcircumflex" unicode="&#x134;" 
d="M883 498c0 -165.333 -35.165 -293.5 -105.498 -384.5s-177.833 -136.5 -322.5 -136.5c-116 0 -213.333 30.5 -292 91.5s-133.667 152.167 -165 273.5l119 45c28.667 -108 71.334 -183.833 128.001 -227.5s126.667 -65.5 210 -65.5c61.333 0 111.166 12.333 149.499 37
s67.666 56.167 87.999 94.5s34.166 81.333 41.499 129s11 95.5 11 143.5v807h138v-807zM764.002 1452l-53 -67l-242 205l-246 -207l-53 65l297 291z" />
    <glyph glyph-name="jcircumflex" unicode="&#x135;" 
d="M348 -395c-164 0 -278.669 67.333 -344.002 202l105 72c24 -50.667 55.5 -89.667 94.5 -117s87.167 -41 144.5 -41c45.333 0 83.333 6.5 114 19.5s54.834 31.5 72.501 55.5s30.334 53 38.001 87s11.5 73 11.5 117v815h-211v117h348v-932
c0 -120 -31.5 -215.833 -94.5 -287.5s-155.833 -107.5 -278.5 -107.5zM855.998 1081l-53 -67l-242 205l-246 -207l-53 65l297 291z" />
    <glyph glyph-name="Kcommaaccent" unicode="&#x136;" 
d="M926 0h-168l-434 639l-138 -154v-485h-137v1305h137v-635l559 635h181l-512 -570zM610 -104l-172 -269h-127l84 269h215z" />
    <glyph glyph-name="kcommaaccent" unicode="&#x137;" 
d="M930 0h-195l-381 418l-168 -154v-264h-137v1305h137v-875l531 502h196l-467 -428zM610 -104l-172 -269h-127l84 269h215z" />
    <glyph glyph-name="kgreenlandic" unicode="&#x138;" 
d="M930 0h-195l-381 418l-168 -154v-264h-137v932h137v-502l531 502h196l-467 -428z" />
    <glyph glyph-name="Lacute" unicode="&#x139;" 
d="M883 0h-834v1305h137v-1188h697v-117zM711 1626l-432 -243l-37 65l403 287z" />
    <glyph glyph-name="lacute" unicode="&#x13a;" 
d="M745 0h-559v117h211v1071h-211v117h349v-1188h210v-117zM711 1628l-432 -243l-37 65l403 287z" />
    <glyph glyph-name="Lcommaaccent" unicode="&#x13b;" 
d="M883 0h-834v1305h137v-1188h697v-117zM610 -104l-172 -269h-127l84 269h215z" />
    <glyph glyph-name="lcommaaccent" unicode="&#x13c;" 
d="M745 0h-559v117h211v1071h-211v117h349v-1188h210v-117zM610 -104l-172 -269h-127l84 269h215z" />
    <glyph glyph-name="Lcaron" unicode="&#x13d;" 
d="M883 0h-834v1305h137v-1188h697v-117zM795 1305l-84 -465h-101v465h185z" />
    <glyph glyph-name="lcaron" unicode="&#x13e;" 
d="M745 0h-559v117h211v1071h-211v117h349v-1188h210v-117zM930 1305l-84 -465h-101v465h185z" />
    <glyph glyph-name="Ldot" unicode="&#x13f;" 
d="M883 0h-834v1305h137v-1188h697v-117zM745 571h-186v186h186v-186z" />
    <glyph glyph-name="ldot" unicode="&#x140;" 
d="M745 0h-559v117h211v1071h-211v117h349v-1188h210v-117zM1118 385h-186v186h186v-186z" />
    <glyph glyph-name="Lslash" unicode="&#x141;" 
d="M883 0h-834v563l-211 -69v127l211 69v615h137v-568l211 70v-127l-211 -70v-491h697v-119z" />
    <glyph glyph-name="lslash" unicode="&#x142;" 
d="M397 690v496h-211v119h349v-568l210 70v-127l-210 -70v-491h210v-119h-559v119h211v444l-211 -69v127z" />
    <glyph glyph-name="Nacute" unicode="&#x143;" 
d="M883 0h-170l-527 1104v-1104h-137v1305h193l503 -1053v1053h138v-1305zM711 1626l-432 -243l-37 65l403 287z" />
    <glyph glyph-name="nacute" unicode="&#x144;" 
d="M883 0h-138v575c0 83.333 -18 148 -54 194s-94.333 69 -175 69c-50.667 0 -96.5 -11.667 -137.5 -35s-75.833 -54.5 -104.5 -93.5s-50.5 -83.667 -65.5 -134s-22.5 -102.833 -22.5 -157.5v-418h-137v932h137v-234c66 170.667 183.667 256 353 256
c229.333 0 344 -126.333 344 -379v-575zM711 1254l-432 -243l-37 65l403 287z" />
    <glyph glyph-name="Ncommaaccent" unicode="&#x145;" 
d="M883 0h-170l-527 1104v-1104h-137v1305h193l503 -1053v1053h138v-1305zM610 -104l-172 -269h-127l84 269h215z" />
    <glyph glyph-name="ncommaaccent" unicode="&#x146;" 
d="M883 0h-138v575c0 83.333 -18 148 -54 194s-94.333 69 -175 69c-50.667 0 -96.5 -11.667 -137.5 -35s-75.833 -54.5 -104.5 -93.5s-50.5 -83.667 -65.5 -134s-22.5 -102.833 -22.5 -157.5v-418h-137v932h137v-234c66 170.667 183.667 256 353 256
c229.333 0 344 -126.333 344 -379v-575zM610 -104l-172 -269h-127l84 269h215z" />
    <glyph glyph-name="Ncaron" unicode="&#x147;" 
d="M883 0h-170l-527 1104v-1104h-137v1305h193l503 -1053v1053h138v-1305zM764 1667l-297 -284l-297 288l53 68l246 -207l242 203z" />
    <glyph glyph-name="ncaron" unicode="&#x148;" 
d="M883 0h-138v575c0 83.333 -18 148 -54 194s-94.333 69 -175 69c-50.667 0 -96.5 -11.667 -137.5 -35s-75.833 -54.5 -104.5 -93.5s-50.5 -83.667 -65.5 -134s-22.5 -102.833 -22.5 -157.5v-418h-137v932h137v-234c66 170.667 183.667 256 353 256
c229.333 0 344 -126.333 344 -379v-575zM764 1295l-297 -284l-297 288l53 68l246 -207l242 203z" />
    <glyph glyph-name="napostrophe" unicode="&#x149;" 
d="M883 0h-138v575c0 83.333 -18 148 -54 194s-94.333 69 -175 69c-50.667 0 -96.5 -11.667 -137.5 -35s-75.833 -54.5 -104.5 -93.5s-50.5 -83.667 -65.5 -134s-22.5 -102.833 -22.5 -157.5v-418h-137v932h137v-234c66 170.667 183.667 256 353 256
c229.333 0 344 -126.333 344 -379v-575zM186 1583l-84 -465h-101v465h185z" />
    <glyph glyph-name="Eng" unicode="&#x14a;" 
d="M883 125c0 -165.333 -35.167 -293.333 -105.5 -384s-177.833 -136 -322.5 -136c-140.667 0 -252 43 -334 129l86 96c32.667 -38 70.167 -65.667 112.5 -83s87.5 -26 135.5 -26c43.333 0 80.666 6.5 111.999 19.5s58 30.5 80 52.5s39.833 47.667 53.5 77
s23.834 60.333 30.501 93l-545 1141v-1104h-137v1305h193l503 -1053v1053h138v-1180z" />
    <glyph glyph-name="eng" unicode="&#x14b;" 
d="M387 -250c16.667 -9.33301 36.166 -16.5 58.499 -21.5s43.833 -7.5 64.5 -7.5c45.333 0 83.333 6.5 114 19.5s54.834 31.5 72.501 55.5s30.167 53 37.5 87s11 73 11 117v575c0 83.333 -18 148 -54 194s-94.333 69 -175 69c-50.667 0 -96.5 -11.667 -137.5 -35
s-75.833 -54.5 -104.5 -93.5s-50.5 -83.667 -65.5 -134s-22.5 -102.833 -22.5 -157.5v-418h-137v932h137v-234c66 170.667 183.667 256 353 256c229.333 0 344 -126.333 344 -379v-575c0 -120 -31.5 -215.833 -94.5 -287.5s-155.833 -107.5 -278.5 -107.5
c-60 0 -112.667 8.66699 -158 26z" />
    <glyph glyph-name="Omacron" unicode="&#x14c;" 
d="M967 651c0 -87.333 -8.99805 -171.666 -26.998 -252.999s-46.667 -153 -86 -215s-90.833 -111.833 -154.5 -149.5s-141.167 -56.5 -232.5 -56.5s-168.833 18.833 -232.5 56.5s-115.334 87.5 -155.001 149.5s-68.334 133.667 -86.001 215s-26.5 165.666 -26.5 252.999
s8.83301 171.666 26.5 252.999s46.667 153.333 87 216s92.333 112.834 156 150.501s140.5 56.5 230.5 56.5s166.833 -18.833 230.5 -56.5s115.167 -87.834 154.5 -150.501s68.333 -134.667 87 -216s28 -165.666 28 -252.999zM829.002 651
c0 86 -8.16797 163.499 -24.501 232.499s-39.833 127.833 -70.5 176.5s-68.5 85.834 -113.5 111.501s-96.167 38.5 -153.5 38.5c-71.333 0 -130.166 -16.667 -176.499 -50s-83.5 -77 -111.5 -131s-47.5 -114 -58.5 -180s-16.5 -132 -16.5 -198
c0 -65.333 5.5 -131.166 16.5 -197.499s30.5 -126 58.5 -179s65.167 -96.333 111.5 -130s105.166 -50.5 176.499 -50.5c70.667 0 129.334 16.833 176.001 50.5s84 77 112 130s47.333 112.667 58 179s16 132.166 16 197.499zM745.001 1477h-559v113h559v-113z" />
    <glyph glyph-name="omacron" unicode="&#x14d;" 
d="M956 463c0 -72.667 -11.5 -138.667 -34.5 -198s-56 -110.166 -99 -152.499s-94.5 -75.5 -154.5 -99.5s-127 -36 -201 -36c-72.667 0 -139 12 -199 36s-111.5 57.167 -154.5 99.5s-76 93.166 -99 152.499s-34.5 125.333 -34.5 198c0 70.667 11.5 136.5 34.5 197.5
s56 113 99 156s94.5 76.667 154.5 101s126.333 36.5 199 36.5c74 0 141 -12.167 201 -36.5s111.5 -58 154.5 -101s76 -95 99 -156s34.5 -126.833 34.5 -197.5zM819 463c0 53.333 -7.83301 102.5 -23.5 147.5s-38.834 84.5 -69.501 118.5s-67.834 60.667 -111.501 80
s-92.834 29 -147.501 29s-103.834 -9.66699 -147.501 -29s-80.5 -46 -110.5 -80s-52.833 -73.5 -68.5 -118.5s-23.5 -94.167 -23.5 -147.5s7.83301 -102.5 23.5 -147.5s38.5 -83.833 68.5 -116.5s66.833 -58.334 110.5 -77.001s92.834 -28 147.501 -28
s103.834 9.33301 147.501 28s80.834 44.334 111.501 77.001s53.834 71.5 69.501 116.5s23.5 94.167 23.5 147.5zM745 1105h-559v113h559v-113z" />
    <glyph glyph-name="Obreve" unicode="&#x14e;" 
d="M967 651c0 -87.333 -8.99805 -171.666 -26.998 -252.999s-46.667 -153 -86 -215s-90.833 -111.833 -154.5 -149.5s-141.167 -56.5 -232.5 -56.5s-168.833 18.833 -232.5 56.5s-115.334 87.5 -155.001 149.5s-68.334 133.667 -86.001 215s-26.5 165.666 -26.5 252.999
s8.83301 171.666 26.5 252.999s46.667 153.333 87 216s92.333 112.834 156 150.501s140.5 56.5 230.5 56.5s166.833 -18.833 230.5 -56.5s115.167 -87.834 154.5 -150.501s68.333 -134.667 87 -216s28 -165.666 28 -252.999zM829.002 651
c0 86 -8.16797 163.499 -24.501 232.499s-39.833 127.833 -70.5 176.5s-68.5 85.834 -113.5 111.501s-96.167 38.5 -153.5 38.5c-71.333 0 -130.166 -16.667 -176.499 -50s-83.5 -77 -111.5 -131s-47.5 -114 -58.5 -180s-16.5 -132 -16.5 -198
c0 -65.333 5.5 -131.166 16.5 -197.499s30.5 -126 58.5 -179s65.167 -96.333 111.5 -130s105.166 -50.5 176.499 -50.5c70.667 0 129.334 16.833 176.001 50.5s84 77 112 130s47.333 112.667 58 179s16 132.166 16 197.499zM752.001 1581c-78 -77.333 -173 -116 -285 -116
s-207 38.667 -285 116l78 76c62.667 -62.667 131.667 -94 207 -94s144.333 31.333 207 94z" />
    <glyph glyph-name="obreve" unicode="&#x14f;" 
d="M956 463c0 -72.667 -11.5 -138.667 -34.5 -198s-56 -110.166 -99 -152.499s-94.5 -75.5 -154.5 -99.5s-127 -36 -201 -36c-72.667 0 -139 12 -199 36s-111.5 57.167 -154.5 99.5s-76 93.166 -99 152.499s-34.5 125.333 -34.5 198c0 70.667 11.5 136.5 34.5 197.5
s56 113 99 156s94.5 76.667 154.5 101s126.333 36.5 199 36.5c74 0 141 -12.167 201 -36.5s111.5 -58 154.5 -101s76 -95 99 -156s34.5 -126.833 34.5 -197.5zM819 463c0 53.333 -7.83301 102.5 -23.5 147.5s-38.834 84.5 -69.501 118.5s-67.834 60.667 -111.501 80
s-92.834 29 -147.501 29s-103.834 -9.66699 -147.501 -29s-80.5 -46 -110.5 -80s-52.833 -73.5 -68.5 -118.5s-23.5 -94.167 -23.5 -147.5s7.83301 -102.5 23.5 -147.5s38.5 -83.833 68.5 -116.5s66.833 -58.334 110.5 -77.001s92.834 -28 147.501 -28
s103.834 9.33301 147.501 28s80.834 44.334 111.501 77.001s53.834 71.5 69.501 116.5s23.5 94.167 23.5 147.5zM752 1209c-78 -77.333 -173 -116 -285 -116s-207 38.667 -285 116l78 76c62.667 -62.667 131.667 -94 207 -94s144.333 31.333 207 94z" />
    <glyph glyph-name="Ohungarumlaut" unicode="&#x150;" 
d="M967 651c0 -87.333 -8.99805 -171.666 -26.998 -252.999s-46.667 -153 -86 -215s-90.833 -111.833 -154.5 -149.5s-141.167 -56.5 -232.5 -56.5s-168.833 18.833 -232.5 56.5s-115.334 87.5 -155.001 149.5s-68.334 133.667 -86.001 215s-26.5 165.666 -26.5 252.999
s8.83301 171.666 26.5 252.999s46.667 153.333 87 216s92.333 112.834 156 150.501s140.5 56.5 230.5 56.5s166.833 -18.833 230.5 -56.5s115.167 -87.834 154.5 -150.501s68.333 -134.667 87 -216s28 -165.666 28 -252.999zM829.002 651
c0 86 -8.16797 163.499 -24.501 232.499s-39.833 127.833 -70.5 176.5s-68.5 85.834 -113.5 111.501s-96.167 38.5 -153.5 38.5c-71.333 0 -130.166 -16.667 -176.499 -50s-83.5 -77 -111.5 -131s-47.5 -114 -58.5 -180s-16.5 -132 -16.5 -198
c0 -65.333 5.5 -131.166 16.5 -197.499s30.5 -126 58.5 -179s65.167 -96.333 111.5 -130s105.166 -50.5 176.499 -50.5c70.667 0 129.334 16.833 176.001 50.5s84 77 112 130s47.333 112.667 58 179s16 132.166 16 197.499zM682.001 1395h-141l141 375h186zM309.001 1395
h-139l139 375h187z" />
    <glyph glyph-name="ohungarumlaut" unicode="&#x151;" 
d="M956 463c0 -72.667 -11.5 -138.667 -34.5 -198s-56 -110.166 -99 -152.499s-94.5 -75.5 -154.5 -99.5s-127 -36 -201 -36c-72.667 0 -139 12 -199 36s-111.5 57.167 -154.5 99.5s-76 93.166 -99 152.499s-34.5 125.333 -34.5 198c0 70.667 11.5 136.5 34.5 197.5
s56 113 99 156s94.5 76.667 154.5 101s126.333 36.5 199 36.5c74 0 141 -12.167 201 -36.5s111.5 -58 154.5 -101s76 -95 99 -156s34.5 -126.833 34.5 -197.5zM819 463c0 53.333 -7.83301 102.5 -23.5 147.5s-38.834 84.5 -69.501 118.5s-67.834 60.667 -111.501 80
s-92.834 29 -147.501 29s-103.834 -9.66699 -147.501 -29s-80.5 -46 -110.5 -80s-52.833 -73.5 -68.5 -118.5s-23.5 -94.167 -23.5 -147.5s7.83301 -102.5 23.5 -147.5s38.5 -83.833 68.5 -116.5s66.833 -58.334 110.5 -77.001s92.834 -28 147.501 -28
s103.834 9.33301 147.501 28s80.834 44.334 111.501 77.001s53.834 71.5 69.501 116.5s23.5 94.167 23.5 147.5zM682 1023h-141l141 375h186zM309 1023h-139l139 375h187z" />
    <glyph glyph-name="OE" unicode="&#x152;" 
d="M422 651c0 82 -1.66699 157.5 -5 226.5s-10.5 128 -21.5 177s-26 87.167 -45 114.5s-44.5 41 -76.5 41c-31.333 0 -56.833 -13.667 -76.5 -41s-35 -65.5 -46 -114.5s-18.5 -108 -22.5 -177s-6 -144.5 -6 -226.5s2 -157 6 -225s11.5 -126.667 22.5 -176
s26.333 -87.666 46 -114.999s45.167 -41 76.5 -41c32 0 57.5 13.667 76.5 41s34 65.666 45 114.999s18.167 108 21.5 176s5 143 5 225zM274 -23c-192 0 -288 224.665 -288 673.998c0 450.667 96 676 288 676c49.333 0 86 -12.667 110 -38s45.667 -64.666 65 -117.999v134
h483v-117h-373v-467h283v-117h-283v-487h373v-117h-483v133c-19.333 -53.333 -41 -92.666 -65 -117.999s-60.667 -38 -110 -38z" />
    <glyph glyph-name="oe" unicode="&#x153;" 
d="M526 418c0 -110.667 13.001 -190.667 39.001 -240s65 -74 117 -74c31.333 0 58 9.33301 80 28s37.667 51.667 47 99l127 -41c-45.333 -142 -130 -213 -254 -213c-118.667 0 -194.334 67 -227.001 201c-28.667 -134 -99.667 -201 -213 -201c-186 0 -279 162.667 -279 488
c0 326 93 489 279 489c109.333 0 179.666 -64.667 210.999 -194c14.667 65.333 40.5 114 77.5 146s83.5 48 139.5 48c66.667 0 118.834 -17.333 156.501 -52s66 -78.667 85 -132s30.833 -111.333 35.5 -174s7 -122 7 -178h-428zM807.001 539
c0 100.667 -9.16699 176 -27.5 226s-54.833 75 -109.5 75s-91.667 -26.333 -111 -79s-30.333 -126.667 -33 -222h281zM383.001 465c0 250 -47 375 -141 375c-94.667 0 -142 -125 -142 -375c0 -251.333 47.333 -377 142 -377c94 0 141 125.667 141 377z" />
    <glyph glyph-name="Racute" unicode="&#x154;" 
d="M944 0l-174.002 0.00292969l-381 559h-203v-559h-137v1305h430c143.333 0 254.333 -31.167 333 -93.5s118 -155.5 118 -279.5c0 -54.667 -9.66699 -103.834 -29 -147.501s-45.666 -80.834 -78.999 -111.501s-73.166 -55.334 -119.499 -74.001s-96.833 -30 -151.5 -34z
M787.998 932.003c0 88.667 -27.5 153.5 -82.5 194.5s-130.5 61.5 -226.5 61.5h-293v-512h293c96 0 171.5 20.167 226.5 60.5s82.5 105.5 82.5 195.5zM710.998 1626l-432 -243l-37 65l403 287z" />
    <glyph glyph-name="racute" unicode="&#x155;" 
d="M881 801c-49.333 24.667 -108 36.999 -176 36.999c-56 0 -106 -12 -150 -36s-81.333 -55.5 -112 -94.5s-54.167 -83.667 -70.5 -134s-24.5 -102.166 -24.5 -155.499v-301h211v-117h-559v117h211v698h-211v117h348v-234c62.667 170.667 181.667 256 357 256
c47.333 0 88.5 -3 123.5 -9s67.5 -16.667 97.5 -32zM711 1255l-432 -243l-37 65l403 287z" />
    <glyph glyph-name="Rcommaaccent" unicode="&#x156;" 
d="M944 0l-174.002 0.00292969l-381 559h-203v-559h-137v1305h430c143.333 0 254.333 -31.167 333 -93.5s118 -155.5 118 -279.5c0 -54.667 -9.66699 -103.834 -29 -147.501s-45.666 -80.834 -78.999 -111.501s-73.166 -55.334 -119.499 -74.001s-96.833 -30 -151.5 -34z
M787.998 932.003c0 88.667 -27.5 153.5 -82.5 194.5s-130.5 61.5 -226.5 61.5h-293v-512h293c96 0 171.5 20.167 226.5 60.5s82.5 105.5 82.5 195.5zM609.998 -103.997l-172 -269h-127l84 269h215z" />
    <glyph glyph-name="rcommaaccent" unicode="&#x157;" 
d="M881 801c-49.333 24.667 -108 36.999 -176 36.999c-56 0 -106 -12 -150 -36s-81.333 -55.5 -112 -94.5s-54.167 -83.667 -70.5 -134s-24.5 -102.166 -24.5 -155.499v-301h211v-117h-559v117h211v698h-211v117h348v-234c62.667 170.667 181.667 256 357 256
c47.333 0 88.5 -3 123.5 -9s67.5 -16.667 97.5 -32zM610 -104.001l-172 -269h-127l84 269h215z" />
    <glyph glyph-name="Rcaron" unicode="&#x158;" 
d="M944 0l-174.002 0.00292969l-381 559h-203v-559h-137v1305h430c143.333 0 254.333 -31.167 333 -93.5s118 -155.5 118 -279.5c0 -54.667 -9.66699 -103.834 -29 -147.501s-45.666 -80.834 -78.999 -111.501s-73.166 -55.334 -119.499 -74.001s-96.833 -30 -151.5 -34z
M787.998 932.003c0 88.667 -27.5 153.5 -82.5 194.5s-130.5 61.5 -226.5 61.5h-293v-512h293c96 0 171.5 20.167 226.5 60.5s82.5 105.5 82.5 195.5zM763.998 1667l-297 -284l-297 288l53 68l246 -207l242 203z" />
    <glyph glyph-name="rcaron" unicode="&#x159;" 
d="M881 801c-49.333 24.667 -108 36.999 -176 36.999c-56 0 -106 -12 -150 -36s-81.333 -55.5 -112 -94.5s-54.167 -83.667 -70.5 -134s-24.5 -102.166 -24.5 -155.499v-301h211v-117h-559v117h211v698h-211v117h348v-234c62.667 170.667 181.667 256 357 256
c47.333 0 88.5 -3 123.5 -9s67.5 -16.667 97.5 -32zM764 1296l-297 -284l-297 288l53 68l246 -207l242 203z" />
    <glyph glyph-name="Sacute" unicode="&#x15a;" 
d="M899 340c0 -54.667 -11.3438 -104.162 -34.0107 -148.495s-53 -82.5 -91 -114.5s-81.667 -56.667 -131 -74s-100.666 -26 -153.999 -26c-73.333 0 -140.666 13.667 -201.999 41s-110 67.666 -146 120.999v-139h-116v397h116c0 -44.667 10.333 -85.5 31 -122.5
s47 -68.833 79 -95.5s68.833 -47.5 110.5 -62.5s84.167 -22.5 127.5 -22.5c38.667 0 74.334 5.5 107.001 16.5s61.334 26.667 86.001 47s44.167 45.166 58.5 74.499s21.5 62.666 21.5 99.999c0 42 -9.16699 78 -27.5 108s-43 55.667 -74 77s-65.833 39.5 -104.5 54.5
l-118 44.5l-142 52.5c-47.333 18.333 -89.666 41.5 -126.999 69.5s-67.666 62.167 -90.999 102.5s-35 90.5 -35 150.5c0 53.333 11.333 100.833 34 142.5s52.334 76.834 89.001 105.501s79.334 50.5 128.001 65.5s98.667 22.5 150 22.5c63.333 0 121.833 -13 175.5 -39
s95.5 -65.667 125.5 -119v136h121v-373h-121c0 39.333 -8.16699 76.166 -24.5 110.499s-38.5 63.666 -66.5 87.999s-60 43.666 -96 57.999s-74 21.5 -114 21.5c-35.333 0 -69 -4 -101 -12s-60 -20.833 -84 -38.5s-43.167 -40.5 -57.5 -68.5s-21.5 -61.333 -21.5 -100
c0 -34 8.5 -63 25.5 -87s39.833 -45.167 68.5 -63.5s61.834 -35 99.501 -50l115.5 -45.5c49.333 -17.333 98.333 -36.666 147 -57.999s92.334 -47 131.001 -77s70.334 -66.833 95.001 -110.5s37 -96.834 37 -159.501zM710.989 1626l-432 -243l-37 65l403 287z" />
    <glyph glyph-name="sacute" unicode="&#x15b;" 
d="M907 258c0 -54.667 -13.6699 -100.002 -41.0029 -136.002s-62.5 -64.667 -105.5 -86s-91 -36.5 -144 -45.5s-104.833 -13.5 -155.5 -13.5c-84.667 0 -169 12.333 -253 37s-156.667 57 -218 97l61 118c68.667 -43.333 136.334 -76.666 203.001 -99.999
s135.667 -35 207 -35c206 0 309 53.333 309 160c0 26 -8.5 47.167 -25.5 63.5s-39.833 29.666 -68.5 39.999s-61.5 18.5 -98.5 24.5s-75.833 11.667 -116.5 17c-52 7.33301 -103.667 16 -155 26s-98.166 25 -140.499 45s-76.333 46.667 -102 80s-38.5 77.333 -38.5 132
c0 46.667 11.833 87 35.5 121s55.334 62.333 95.001 85s86.167 39.334 139.5 50.001s108.666 16 165.999 16c82 0 155.333 -9.5 220 -28.5s123 -46.167 175 -81.5l-55 -107c-53.333 37.333 -107.333 63.5 -162 78.5s-114 22.5 -178 22.5c-28.667 0 -60.5 -2.5 -95.5 -7.5
s-67.5 -13.667 -97.5 -26s-55.167 -28.333 -75.5 -48s-30.5 -44.5 -30.5 -74.5c0 -26 8.5 -46.833 25.5 -62.5s39.833 -28.667 68.5 -39s61.5 -18.5 98.5 -24.5s75.833 -11.667 116.5 -17c50.667 -7.33301 101.834 -16 153.501 -26s98.667 -24.667 141 -44
s76.5 -45.666 102.5 -78.999s39 -77.333 39 -132zM710.997 1255l-432 -243l-37 65l403 287z" />
    <glyph glyph-name="Scircumflex" unicode="&#x15c;" 
d="M899 340c0 -54.667 -11.3438 -104.162 -34.0107 -148.495s-53 -82.5 -91 -114.5s-81.667 -56.667 -131 -74s-100.666 -26 -153.999 -26c-73.333 0 -140.666 13.667 -201.999 41s-110 67.666 -146 120.999v-139h-116v397h116c0 -44.667 10.333 -85.5 31 -122.5
s47 -68.833 79 -95.5s68.833 -47.5 110.5 -62.5s84.167 -22.5 127.5 -22.5c38.667 0 74.334 5.5 107.001 16.5s61.334 26.667 86.001 47s44.167 45.166 58.5 74.499s21.5 62.666 21.5 99.999c0 42 -9.16699 78 -27.5 108s-43 55.667 -74 77s-65.833 39.5 -104.5 54.5
l-118 44.5l-142 52.5c-47.333 18.333 -89.666 41.5 -126.999 69.5s-67.666 62.167 -90.999 102.5s-35 90.5 -35 150.5c0 53.333 11.333 100.833 34 142.5s52.334 76.834 89.001 105.501s79.334 50.5 128.001 65.5s98.667 22.5 150 22.5c63.333 0 121.833 -13 175.5 -39
s95.5 -65.667 125.5 -119v136h121v-373h-121c0 39.333 -8.16699 76.166 -24.5 110.499s-38.5 63.666 -66.5 87.999s-60 43.666 -96 57.999s-74 21.5 -114 21.5c-35.333 0 -69 -4 -101 -12s-60 -20.833 -84 -38.5s-43.167 -40.5 -57.5 -68.5s-21.5 -61.333 -21.5 -100
c0 -34 8.5 -63 25.5 -87s39.833 -45.167 68.5 -63.5s61.834 -35 99.501 -50l115.5 -45.5c49.333 -17.333 98.333 -36.666 147 -57.999s92.334 -47 131.001 -77s70.334 -66.833 95.001 -110.5s37 -96.834 37 -159.501zM763.989 1452l-53 -67l-242 205l-246 -207l-53 65
l297 291z" />
    <glyph glyph-name="scircumflex" unicode="&#x15d;" 
d="M907 258c0 -54.667 -13.6699 -100.002 -41.0029 -136.002s-62.5 -64.667 -105.5 -86s-91 -36.5 -144 -45.5s-104.833 -13.5 -155.5 -13.5c-84.667 0 -169 12.333 -253 37s-156.667 57 -218 97l61 118c68.667 -43.333 136.334 -76.666 203.001 -99.999
s135.667 -35 207 -35c206 0 309 53.333 309 160c0 26 -8.5 47.167 -25.5 63.5s-39.833 29.666 -68.5 39.999s-61.5 18.5 -98.5 24.5s-75.833 11.667 -116.5 17c-52 7.33301 -103.667 16 -155 26s-98.166 25 -140.499 45s-76.333 46.667 -102 80s-38.5 77.333 -38.5 132
c0 46.667 11.833 87 35.5 121s55.334 62.333 95.001 85s86.167 39.334 139.5 50.001s108.666 16 165.999 16c82 0 155.333 -9.5 220 -28.5s123 -46.167 175 -81.5l-55 -107c-53.333 37.333 -107.333 63.5 -162 78.5s-114 22.5 -178 22.5c-28.667 0 -60.5 -2.5 -95.5 -7.5
s-67.5 -13.667 -97.5 -26s-55.167 -28.333 -75.5 -48s-30.5 -44.5 -30.5 -74.5c0 -26 8.5 -46.833 25.5 -62.5s39.833 -28.667 68.5 -39s61.5 -18.5 98.5 -24.5s75.833 -11.667 116.5 -17c50.667 -7.33301 101.834 -16 153.501 -26s98.667 -24.667 141 -44
s76.5 -45.666 102.5 -78.999s39 -77.333 39 -132zM763.997 1081l-53 -67l-242 205l-246 -207l-53 65l297 291z" />
    <glyph glyph-name="Scedilla" unicode="&#x15e;" 
d="M899 340c0 -49.333 -9.17676 -94.1611 -27.5098 -134.494s-42.833 -75.833 -73.5 -106.5s-66.5 -55.834 -107.5 -75.501s-84.833 -32.834 -131.5 -39.501v-25c0 -98 -27.333 -176.333 -82 -235c-58.667 -63.333 -137 -95 -235 -95v117c134.667 0 202 71 202 213v21
c-64 5.33301 -122.667 21.333 -176 48s-95.666 63.667 -126.999 111v-139h-116v397h116c0 -44.667 10.333 -85.5 31 -122.5s47 -68.833 79 -95.5s68.833 -47.5 110.5 -62.5s84.167 -22.5 127.5 -22.5c38.667 0 74.334 5.5 107.001 16.5s61.334 26.667 86.001 47
s44.167 45.166 58.5 74.499s21.5 62.666 21.5 99.999c0 42 -9.16699 78 -27.5 108s-43 55.667 -74 77s-65.833 39.5 -104.5 54.5l-118 44.5l-142 52.5c-47.333 18.333 -89.666 41.5 -126.999 69.5s-67.666 62.167 -90.999 102.5s-35 90.5 -35 150.5
c0 53.333 11.333 100.833 34 142.5s52.334 76.834 89.001 105.501s79.334 50.5 128.001 65.5s98.667 22.5 150 22.5c63.333 0 121.833 -13 175.5 -39s95.5 -65.667 125.5 -119v136h121v-373h-121c0 39.333 -8.16699 76.166 -24.5 110.499s-38.5 63.666 -66.5 87.999
s-60 43.666 -96 57.999s-74 21.5 -114 21.5c-35.333 0 -69 -4 -101 -12s-60 -20.833 -84 -38.5s-43.167 -40.5 -57.5 -68.5s-21.5 -61.333 -21.5 -100c0 -34 8.5 -63 25.5 -87s39.833 -45.167 68.5 -63.5s61.834 -35 99.501 -50l115.5 -45.5
c49.333 -17.333 98.333 -36.666 147 -57.999s92.334 -47 131.001 -77s70.334 -66.833 95.001 -110.5s37 -96.834 37 -159.501z" />
    <glyph glyph-name="scedilla" unicode="&#x15f;" 
d="M907 258c0 -45.333 -9.83398 -84.334 -29.501 -117.001s-45.834 -59.834 -78.501 -81.501s-69.834 -38.667 -111.501 -51s-84.5 -20.5 -128.5 -24.5v-25c0 -98 -27.333 -176.333 -82 -235c-58.667 -63.333 -137 -95 -235 -95v117c134.667 0 202 71 202 213v18
c-81.333 3.33301 -162.333 16.5 -243 39.5s-151 54.5 -211 94.5l61 118c68.667 -43.333 136.334 -76.666 203.001 -99.999s135.667 -35 207 -35c206 0 309 53.333 309 160c0 26 -8.5 47.167 -25.5 63.5s-39.833 29.666 -68.5 39.999s-61.5 18.5 -98.5 24.5
s-75.833 11.667 -116.5 17c-52 7.33301 -103.667 16 -155 26s-98.166 25 -140.499 45s-76.333 46.667 -102 80s-38.5 77.333 -38.5 132c0 46.667 11.833 87 35.5 121s55.334 62.333 95.001 85s86.167 39.334 139.5 50.001s108.666 16 165.999 16
c82 0 155.333 -9.5 220 -28.5s123 -46.167 175 -81.5l-55 -107c-53.333 37.333 -107.333 63.5 -162 78.5s-114 22.5 -178 22.5c-28.667 0 -60.5 -2.5 -95.5 -7.5s-67.5 -13.667 -97.5 -26s-55.167 -28.333 -75.5 -48s-30.5 -44.5 -30.5 -74.5c0 -26 8.5 -46.833 25.5 -62.5
s39.833 -28.667 68.5 -39s61.5 -18.5 98.5 -24.5s75.833 -11.667 116.5 -17c50.667 -7.33301 101.834 -16 153.501 -26s98.667 -24.667 141 -44s76.5 -45.666 102.5 -78.999s39 -77.333 39 -132z" />
    <glyph glyph-name="Scaron" unicode="&#x160;" 
d="M899 340c0 -54.667 -11.3438 -104.162 -34.0107 -148.495s-53 -82.5 -91 -114.5s-81.667 -56.667 -131 -74s-100.666 -26 -153.999 -26c-73.333 0 -140.666 13.667 -201.999 41s-110 67.666 -146 120.999v-139h-116v397h116c0 -44.667 10.333 -85.5 31 -122.5
s47 -68.833 79 -95.5s68.833 -47.5 110.5 -62.5s84.167 -22.5 127.5 -22.5c38.667 0 74.334 5.5 107.001 16.5s61.334 26.667 86.001 47s44.167 45.166 58.5 74.499s21.5 62.666 21.5 99.999c0 42 -9.16699 78 -27.5 108s-43 55.667 -74 77s-65.833 39.5 -104.5 54.5
l-118 44.5l-142 52.5c-47.333 18.333 -89.666 41.5 -126.999 69.5s-67.666 62.167 -90.999 102.5s-35 90.5 -35 150.5c0 53.333 11.333 100.833 34 142.5s52.334 76.834 89.001 105.501s79.334 50.5 128.001 65.5s98.667 22.5 150 22.5c63.333 0 121.833 -13 175.5 -39
s95.5 -65.667 125.5 -119v136h121v-373h-121c0 39.333 -8.16699 76.166 -24.5 110.499s-38.5 63.666 -66.5 87.999s-60 43.666 -96 57.999s-74 21.5 -114 21.5c-35.333 0 -69 -4 -101 -12s-60 -20.833 -84 -38.5s-43.167 -40.5 -57.5 -68.5s-21.5 -61.333 -21.5 -100
c0 -34 8.5 -63 25.5 -87s39.833 -45.167 68.5 -63.5s61.834 -35 99.501 -50l115.5 -45.5c49.333 -17.333 98.333 -36.666 147 -57.999s92.334 -47 131.001 -77s70.334 -66.833 95.001 -110.5s37 -96.834 37 -159.501zM763.989 1667l-297 -284l-297 288l53 68l246 -207
l242 203z" />
    <glyph glyph-name="scaron" unicode="&#x161;" 
d="M907 258c0 -54.667 -13.6699 -100.002 -41.0029 -136.002s-62.5 -64.667 -105.5 -86s-91 -36.5 -144 -45.5s-104.833 -13.5 -155.5 -13.5c-84.667 0 -169 12.333 -253 37s-156.667 57 -218 97l61 118c68.667 -43.333 136.334 -76.666 203.001 -99.999
s135.667 -35 207 -35c206 0 309 53.333 309 160c0 26 -8.5 47.167 -25.5 63.5s-39.833 29.666 -68.5 39.999s-61.5 18.5 -98.5 24.5s-75.833 11.667 -116.5 17c-52 7.33301 -103.667 16 -155 26s-98.166 25 -140.499 45s-76.333 46.667 -102 80s-38.5 77.333 -38.5 132
c0 46.667 11.833 87 35.5 121s55.334 62.333 95.001 85s86.167 39.334 139.5 50.001s108.666 16 165.999 16c82 0 155.333 -9.5 220 -28.5s123 -46.167 175 -81.5l-55 -107c-53.333 37.333 -107.333 63.5 -162 78.5s-114 22.5 -178 22.5c-28.667 0 -60.5 -2.5 -95.5 -7.5
s-67.5 -13.667 -97.5 -26s-55.167 -28.333 -75.5 -48s-30.5 -44.5 -30.5 -74.5c0 -26 8.5 -46.833 25.5 -62.5s39.833 -28.667 68.5 -39s61.5 -18.5 98.5 -24.5s75.833 -11.667 116.5 -17c50.667 -7.33301 101.834 -16 153.501 -26s98.667 -24.667 141 -44
s76.5 -45.666 102.5 -78.999s39 -77.333 39 -132zM763.997 1296l-297 -284l-297 288l53 68l246 -207l242 203z" />
    <glyph glyph-name="Tcommaaccent" unicode="&#x162;" 
d="M932 864h-117v324h-280v-1071h210v-117h-559v117h211v1071h-280v-324h-117v441h932v-441zM610 -104l-172 -269h-127l84 269h215z" />
    <glyph glyph-name="tcommaaccent" unicode="&#x163;" 
d="M942 297c-10.667 -98 -49.1689 -175.832 -115.502 -233.499s-149.166 -86.5 -248.499 -86.5c-54.667 0 -104.667 9 -150 27s-84 43 -116 75s-56.833 70.5 -74.5 115.5s-26.5 94.167 -26.5 147.5v473h-211v117h211v373h137v-373h397v-117h-397v-473
c0 -34 5.5 -66 16.5 -96s26.333 -56.333 46 -79s43.5 -40.5 71.5 -53.5s60 -19.5 96 -19.5c68 0 124.833 21.167 170.5 63.5s71.834 97.166 78.501 164.499zM609.998 -103.999l-172 -269h-127l84 269h215z" />
    <glyph glyph-name="Tcaron" unicode="&#x164;" 
d="M932 864h-117v324h-280v-1071h210v-117h-559v117h211v1071h-280v-324h-117v441h932v-441zM764 1667l-297 -284l-297 288l53 68l246 -207l242 203z" />
    <glyph glyph-name="tcaron" unicode="&#x165;" 
d="M942 297c-10.667 -98 -49.1689 -175.832 -115.502 -233.499s-149.166 -86.5 -248.499 -86.5c-54.667 0 -104.667 9 -150 27s-84 43 -116 75s-56.833 70.5 -74.5 115.5s-26.5 94.167 -26.5 147.5v473h-211v117h211v373h137v-373h397v-117h-397v-473
c0 -34 5.5 -66 16.5 -96s26.333 -56.333 46 -79s43.5 -40.5 71.5 -53.5s60 -19.5 96 -19.5c68 0 124.833 21.167 170.5 63.5s71.834 97.166 78.501 164.499zM929.998 1492l-84 -465h-101v465h185z" />
    <glyph glyph-name="Tbar" unicode="&#x166;" 
d="M745 608h-210v-491h210v-117h-559v117h211v491h-211v113h211v467h-280v-324h-117v441h932v-441h-117v324h-280v-467h210v-113z" />
    <glyph glyph-name="tbar" unicode="&#x167;" 
d="M559 446l-211.002 0.000976562v-104c0 -34 5.5 -66 16.5 -96s26.333 -56.333 46 -79s43.5 -40.5 71.5 -53.5s60 -19.5 96 -19.5c68 0 124.833 21.167 170.5 63.5s71.834 97.166 78.501 164.499l115 -25c-10.667 -98 -49.167 -175.833 -115.5 -233.5
s-149.166 -86.5 -248.499 -86.5c-54.667 0 -104.667 9 -150 27s-84 43 -116 75s-56.833 70.5 -74.5 115.5s-26.5 94.167 -26.5 147.5v104h-211v113h211v256h-211v117h211v373h137v-373h397v-117h-397v-256h211v-113z" />
    <glyph glyph-name="Utilde" unicode="&#x168;" 
d="M883 465c0 -74 -8.16699 -141 -24.5 -201s-41.666 -111.167 -75.999 -153.5s-77.833 -75.166 -130.5 -98.499s-115 -35 -187 -35c-72.667 0 -135.167 11.667 -187.5 35s-95.333 56.166 -129 98.499s-58.667 93.833 -75 154.5s-24.5 128 -24.5 202v838h137v-840
c0 -39.333 3.5 -81 10.5 -125s20.667 -84 41 -120s48.666 -66 84.999 -90s83.833 -36 142.5 -36s106.5 12 143.5 36s65.667 54 86 90s33.833 76 40.5 120s10 85.667 10 125v840h138v-840zM846 1600c-60 -105.333 -142 -158 -246 -158c-38 0 -69 6.16699 -93 18.5
s-45.167 25.666 -63.5 39.999s-36.5 27.666 -54.5 39.999s-39.667 18.5 -65 18.5c-68.667 0 -124 -37 -166 -111l-80 47c61.333 104 143.333 156 246 156c38 0 69 -6.16699 93 -18.5s45.167 -25.666 63.5 -39.999s36.333 -27.666 54 -39.999s39.5 -18.5 65.5 -18.5
c68 0 123.333 37.667 166 113z" />
    <glyph glyph-name="utilde" unicode="&#x169;" 
d="M49 932h136.997v-576c0 -83.333 18.167 -147.833 54.5 -193.5s94.833 -68.5 175.5 -68.5c50.667 0 96.334 11.667 137.001 35s75.334 54.5 104.001 93.5s50.5 83.667 65.5 134s22.5 102.833 22.5 157.5v418h138v-932h-138v233
c-65.333 -170.667 -182.666 -256 -351.999 -256c-229.333 0 -344 126.333 -344 379v576zM845.997 1229c-60 -105.333 -142 -158 -246 -158c-38 0 -69 6.16699 -93 18.5s-45.167 25.666 -63.5 39.999s-36.5 27.666 -54.5 39.999s-39.667 18.5 -65 18.5
c-68.667 0 -124 -37 -166 -111l-80 47c61.333 104 143.333 156 246 156c38 0 69 -6.16699 93 -18.5s45.167 -25.666 63.5 -39.999s36.333 -27.666 54 -39.999s39.5 -18.5 65.5 -18.5c68 0 123.333 37.667 166 113z" />
    <glyph glyph-name="Umacron" unicode="&#x16a;" 
d="M883 465c0 -74 -8.16699 -141 -24.5 -201s-41.666 -111.167 -75.999 -153.5s-77.833 -75.166 -130.5 -98.499s-115 -35 -187 -35c-72.667 0 -135.167 11.667 -187.5 35s-95.333 56.166 -129 98.499s-58.667 93.833 -75 154.5s-24.5 128 -24.5 202v838h137v-840
c0 -39.333 3.5 -81 10.5 -125s20.667 -84 41 -120s48.666 -66 84.999 -90s83.833 -36 142.5 -36s106.5 12 143.5 36s65.667 54 86 90s33.833 76 40.5 120s10 85.667 10 125v840h138v-840zM745 1477h-559v113h559v-113z" />
    <glyph glyph-name="umacron" unicode="&#x16b;" 
d="M49 932h136.997v-576c0 -83.333 18.167 -147.833 54.5 -193.5s94.833 -68.5 175.5 -68.5c50.667 0 96.334 11.667 137.001 35s75.334 54.5 104.001 93.5s50.5 83.667 65.5 134s22.5 102.833 22.5 157.5v418h138v-932h-138v233
c-65.333 -170.667 -182.666 -256 -351.999 -256c-229.333 0 -344 126.333 -344 379v576zM744.997 1106h-559v113h559v-113z" />
    <glyph glyph-name="Ubreve" unicode="&#x16c;" 
d="M883 465c0 -74 -8.16699 -141 -24.5 -201s-41.666 -111.167 -75.999 -153.5s-77.833 -75.166 -130.5 -98.499s-115 -35 -187 -35c-72.667 0 -135.167 11.667 -187.5 35s-95.333 56.166 -129 98.499s-58.667 93.833 -75 154.5s-24.5 128 -24.5 202v838h137v-840
c0 -39.333 3.5 -81 10.5 -125s20.667 -84 41 -120s48.666 -66 84.999 -90s83.833 -36 142.5 -36s106.5 12 143.5 36s65.667 54 86 90s33.833 76 40.5 120s10 85.667 10 125v840h138v-840zM752 1581c-78 -77.333 -173 -116 -285 -116s-207 38.667 -285 116l78 76
c62.667 -62.667 131.667 -94 207 -94s144.333 31.333 207 94z" />
    <glyph glyph-name="ubreve" unicode="&#x16d;" 
d="M49 932h136.997v-576c0 -83.333 18.167 -147.833 54.5 -193.5s94.833 -68.5 175.5 -68.5c50.667 0 96.334 11.667 137.001 35s75.334 54.5 104.001 93.5s50.5 83.667 65.5 134s22.5 102.833 22.5 157.5v418h138v-932h-138v233
c-65.333 -170.667 -182.666 -256 -351.999 -256c-229.333 0 -344 126.333 -344 379v576zM751.997 1210c-78 -77.333 -173 -116 -285 -116s-207 38.667 -285 116l78 76c62.667 -62.667 131.667 -94 207 -94s144.333 31.333 207 94z" />
    <glyph glyph-name="Uring" unicode="&#x16e;" 
d="M883 465c0 -74 -8.16699 -141 -24.5 -201s-41.666 -111.167 -75.999 -153.5s-77.833 -75.166 -130.5 -98.499s-115 -35 -187 -35c-72.667 0 -135.167 11.667 -187.5 35s-95.333 56.166 -129 98.499s-58.667 93.833 -75 154.5s-24.5 128 -24.5 202v838h137v-840
c0 -39.333 3.5 -81 10.5 -125s20.667 -84 41 -120s48.666 -66 84.999 -90s83.833 -36 142.5 -36s106.5 12 143.5 36s65.667 54 86 90s33.833 76 40.5 120s10 85.667 10 125v840h138v-840zM242 1628c0 32 5.66699 61.5 17 88.5s27.333 50.833 48 71.5
s44.667 36.834 72 48.501s56.666 17.5 87.999 17.5s60.666 -5.83301 87.999 -17.5s51.166 -27.834 71.499 -48.501s36.333 -44.5 48 -71.5s17.5 -56.5 17.5 -88.5c0 -31.333 -5.83301 -60.666 -17.5 -87.999s-27.667 -51.166 -48 -71.499s-44.166 -36.333 -71.499 -48
s-56.666 -17.5 -87.999 -17.5s-60.666 5.83301 -87.999 17.5s-51.333 27.667 -72 48s-36.667 44.166 -48 71.499s-17 56.666 -17 87.999zM332 1628c0 -36.667 13.333 -68.334 40 -95.001s58.334 -40 95.001 -40s68.334 13.333 95.001 40s40 58.334 40 95.001
c0 37.333 -13.333 69.333 -40 96s-58.334 40 -95.001 40s-68.334 -13.333 -95.001 -40s-40 -58.667 -40 -96z" />
    <glyph glyph-name="uring" unicode="&#x16f;" 
d="M49 932h136.997v-576c0 -83.333 18.167 -147.833 54.5 -193.5s94.833 -68.5 175.5 -68.5c50.667 0 96.334 11.667 137.001 35s75.334 54.5 104.001 93.5s50.5 83.667 65.5 134s22.5 102.833 22.5 157.5v418h138v-932h-138v233
c-65.333 -170.667 -182.666 -256 -351.999 -256c-229.333 0 -344 126.333 -344 379v576zM241.997 1257c0 32 5.66699 61.5 17 88.5s27.333 50.833 48 71.5s44.667 36.834 72 48.501s56.666 17.5 87.999 17.5s60.666 -5.83301 87.999 -17.5s51.166 -27.834 71.499 -48.501
s36.333 -44.5 48 -71.5s17.5 -56.5 17.5 -88.5c0 -31.333 -5.83301 -60.666 -17.5 -87.999s-27.667 -51.166 -48 -71.499s-44.166 -36.333 -71.499 -48s-56.666 -17.5 -87.999 -17.5s-60.666 5.83301 -87.999 17.5s-51.333 27.667 -72 48s-36.667 44.166 -48 71.499
s-17 56.666 -17 87.999zM331.997 1257c0 -36.667 13.333 -68.334 40 -95.001s58.334 -40 95.001 -40s68.334 13.333 95.001 40s40 58.334 40 95.001c0 37.333 -13.333 69.333 -40 96s-58.334 40 -95.001 40s-68.334 -13.333 -95.001 -40s-40 -58.667 -40 -96z" />
    <glyph glyph-name="Uhungarumlaut" unicode="&#x170;" 
d="M883 465c0 -74 -8.16699 -141 -24.5 -201s-41.666 -111.167 -75.999 -153.5s-77.833 -75.166 -130.5 -98.499s-115 -35 -187 -35c-72.667 0 -135.167 11.667 -187.5 35s-95.333 56.166 -129 98.499s-58.667 93.833 -75 154.5s-24.5 128 -24.5 202v838h137v-840
c0 -39.333 3.5 -81 10.5 -125s20.667 -84 41 -120s48.666 -66 84.999 -90s83.833 -36 142.5 -36s106.5 12 143.5 36s65.667 54 86 90s33.833 76 40.5 120s10 85.667 10 125v840h138v-840zM682 1395h-141l141 375h186zM309 1395h-139l139 375h187z" />
    <glyph glyph-name="uhungarumlaut" unicode="&#x171;" 
d="M49 932h136.997v-576c0 -83.333 18.167 -147.833 54.5 -193.5s94.833 -68.5 175.5 -68.5c50.667 0 96.334 11.667 137.001 35s75.334 54.5 104.001 93.5s50.5 83.667 65.5 134s22.5 102.833 22.5 157.5v418h138v-932h-138v233
c-65.333 -170.667 -182.666 -256 -351.999 -256c-229.333 0 -344 126.333 -344 379v576zM681.997 1024h-141l141 375h186zM308.997 1024h-139l139 375h187z" />
    <glyph glyph-name="Uogonek" unicode="&#x172;" 
d="M760 -379c-83.333 0 -148.831 20.8369 -196.498 62.5039s-71.5 96.5 -71.5 164.5c0 27.333 3.33301 51.666 10 72.999s16 41.666 28 60.999c-10.667 -1.33301 -21.5 -2.5 -32.5 -3.5s-21.833 -1.5 -32.5 -1.5c-72.667 0 -135.167 11.667 -187.5 35
s-95.333 56.166 -129 98.499s-58.667 93.833 -75 154.5s-24.5 128 -24.5 202v838h137v-840c0 -39.333 3.5 -81 10.5 -125s20.667 -84 41 -120s48.666 -66 84.999 -90s83.833 -36 142.5 -36s106.5 12 143.5 36s65.667 54 86 90s33.833 76 40.5 120s10 85.667 10 125v840h138
v-840c0 -120 -21.167 -220.333 -63.5 -301s-108.5 -135.334 -198.5 -164.001c-33.333 -30 -50 -70.333 -50 -121c0 -48 18.167 -88 54.5 -120s81.166 -48 134.499 -48v-90z" />
    <glyph glyph-name="uogonek" unicode="&#x173;" 
d="M1022 -379c-83.333 0 -148.836 20.833 -196.503 62.5s-71.5 96.5 -71.5 164.5c0 32 5 60.5 15 85.5s22.667 47.167 38 66.5h-62v233c-65.333 -170.667 -182.666 -256 -351.999 -256c-229.333 0 -344 126.333 -344 379v576h137v-576
c0 -83.333 18.167 -147.833 54.5 -193.5s94.833 -68.5 175.5 -68.5c50.667 0 96.334 11.667 137.001 35s75.334 54.5 104.001 93.5s50.5 83.667 65.5 134s22.5 102.833 22.5 157.5v418h138v-932c-32.667 -30 -49 -70.333 -49 -121c0 -48 18 -88 54 -120s80.667 -48 134 -48
v-90z" />
    <glyph glyph-name="Wcircumflex" unicode="&#x174;" 
d="M995 1305l-235 -1305h-162l-133 637l-135 -637h-160l-233 1305h145l184 -1074l131 701h135l132 -701l184 1074h147zM764 1452l-53 -67l-242 205l-246 -207l-53 65l297 291z" />
    <glyph glyph-name="wcircumflex" unicode="&#x175;" 
d="M963 932l-189 -932h-160l-149 684l-141 -684h-160l-191 932h146l135 -746l145 746h136l149 -746l135 746h144zM764 1081l-53 -67l-242 205l-246 -207l-53 65l297 291z" />
    <glyph glyph-name="Ycircumflex" unicode="&#x176;" 
d="M952 1188h-106l-311 -625v-446h210v-117h-559v117h211v446l-311 625h-106v117h368v-117h-108l227 -492l225 492h-108v117h368v-117zM764 1452l-53 -67l-242 205l-246 -207l-53 65l297 291z" />
    <glyph glyph-name="ycircumflex" unicode="&#x177;" 
d="M961 932l-504.001 -1168c-26 -65.333 -62.667 -108.166 -110 -128.499s-99.666 -30.5 -156.999 -30.5c-64 0 -128 11.667 -192 35l27 118c31.333 -13.333 62 -22.833 92 -28.5s54.333 -8.5 73 -8.5c45.333 0 76.5 11 93.5 33s31.833 48 44.5 78l57 141l-416 959h162
l336 -815l330 815h164zM763.999 1081l-53 -67l-242 205l-246 -207l-53 65l297 291z" />
    <glyph glyph-name="Ydieresis" unicode="&#x178;" 
d="M952 1188h-106l-311 -625v-446h210v-117h-559v117h211v446l-311 625h-106v117h368v-117h-108l227 -492l225 492h-108v117h368v-117zM745 1489h-186v187h186v-187zM373 1489h-187v187h187v-187z" />
    <glyph glyph-name="Zacute" unicode="&#x179;" 
d="M887 0h-838v117l656 1071h-539v-320h-117v437h817v-117l-649 -1071h553v325h117v-442zM711 1628l-432 -243l-37 65l403 287z" />
    <glyph glyph-name="zacute" unicode="&#x17a;" 
d="M887 0h-840v117l635 698h-516v-256h-117v373h815v-117l-635 -698h541v256h117v-373zM711 1254l-432 -243l-37 65l403 287z" />
    <glyph glyph-name="Zdotaccent" unicode="&#x17b;" 
d="M887 0h-838v117l656 1071h-539v-320h-117v437h817v-117l-649 -1071h553v325h117v-442zM559 1491h-186v187h186v-187z" />
    <glyph glyph-name="zdotaccent" unicode="&#x17c;" 
d="M887 0h-840v117l635 698h-516v-256h-117v373h815v-117l-635 -698h541v256h117v-373zM559 1118h-186v187h186v-187z" />
    <glyph glyph-name="Zcaron" unicode="&#x17d;" 
d="M887 0h-838v117l656 1071h-539v-320h-117v437h817v-117l-649 -1071h553v325h117v-442zM764 1669l-297 -284l-297 288l53 68l246 -207l242 203z" />
    <glyph glyph-name="zcaron" unicode="&#x17e;" 
d="M887 0h-840v117l635 698h-516v-256h-117v373h815v-117l-635 -698h541v256h117v-373zM764 1295l-297 -284l-297 288l53 68l246 -207l242 203z" />
    <glyph glyph-name="longs" unicode="&#x17f;" 
d="M535 117h210v-117h-559v117h211v698h-211v117h211c0 128 33.167 225.833 99.5 293.5s166.5 101.5 300.5 101.5c31.333 0 57.833 -1 79.5 -3s40.167 -4.33301 55.5 -7v-117c-19.333 2.66699 -39.5 5 -60.5 7s-45.833 3 -74.5 3c-87.333 0 -152.833 -22.167 -196.5 -66.5
s-65.5 -114.833 -65.5 -211.5v-815z" />
    <glyph glyph-name="florin" unicode="&#x192;" 
d="M932 932l-0.000976562 -117h-397v-831c0 -252.667 -132.667 -379 -398 -379c-20.667 0 -42.167 0.666992 -64.5 2s-45.166 3.33301 -68.499 6v115c19.333 -2.66699 38.833 -4.5 58.5 -5.5s44.5 -1.5 74.5 -1.5c84.667 0 149.167 20.167 193.5 60.5
s66.5 107.833 66.5 202.5v831h-211v117h211c0 128 33.167 225.167 99.5 291.5s166.5 99.5 300.5 99.5c31.333 0 57.833 -1 79.5 -3s40.167 -4.33301 55.5 -7v-117c-19.333 2.66699 -39.5 5 -60.5 7s-45.833 3 -74.5 3c-87.333 0 -152.833 -21.5 -196.5 -64.5
s-65.5 -112.833 -65.5 -209.5h397z" />
    <glyph glyph-name="AEacute" unicode="&#x1fc;" 
d="M932 0h-506v373h-233l-111 -373h-145l395 1305h600v-121h-367v-457h277v-121h-277v-483h367v-123zM426 494v659l-197 -659h197zM711 1630l-432 -243l-37 65l403 287z" />
    <glyph glyph-name="aeacute" unicode="&#x1fd;" 
d="M449 170c-8.66699 -23.333 -20.1689 -46.1641 -34.502 -68.4971s-31.666 -42.833 -51.999 -61.5s-43.5 -33.834 -69.5 -45.501s-55.333 -17.5 -88 -17.5c-78 0 -137.833 26.333 -179.5 79s-62.5 118.667 -62.5 198c0 53.333 9.5 99.5 28.5 138.5s44 70.667 75 95
s66.5 42.333 106.5 54s81.333 17.5 124 17.5c14.667 0 30 -0.333008 46 -1s31.333 -2.33398 46 -5.00098v96c0 50.667 -11.667 95.167 -35 133.5s-58.666 57.5 -105.999 57.5c-27.333 0 -56.666 -12 -87.999 -36s-58.666 -55.667 -81.999 -95l-86 84
c17.333 28.667 37.666 53.167 60.999 73.5s46.666 37 69.999 50s45.833 22.5 67.5 28.5s40.834 9 57.501 9c52 0 96.667 -11.5 134 -34.5s63.666 -60.5 78.999 -112.5c18.667 52 50 89.5 94 112.5s89 34.5 135 34.5c61.333 0 109.833 -18.667 145.5 -56s62 -83.333 79 -138
s27.833 -113 32.5 -175s7 -117.667 7 -167h-428c0 -110.667 13 -190.667 39 -240s65 -74 117 -74c31.333 0 59 9.66699 83 29s42 50.666 54 93.999l117 -37c-23.333 -72 -55.833 -125.5 -97.5 -160.5s-96.5 -52.5 -164.5 -52.5c-50.667 0 -97.167 16.833 -139.5 50.5
s-70.833 81.167 -85.5 142.5zM806.998 539.002c0 108.667 -10.668 186 -32.001 232s-55.666 69 -102.999 69c-44 0 -79.333 -22.167 -106 -66.5s-40 -122.5 -40 -234.5h281zM388.997 438.002c-8 1.33301 -19.501 2.33301 -34.501 3s-30.167 1 -45.5 1
c-57.333 0 -106.5 -16 -147.5 -48s-61.5 -82 -61.5 -150c0 -36 10 -68.333 30 -97s49.667 -43 89 -43c22 0 43.167 5.16699 63.5 15.5s38.333 24.333 54 42s28.334 38.5 38.001 62.5s14.5 49.667 14.5 77v137zM710.996 1257l-432 -243l-37 65l403 287z" />
    <glyph glyph-name="Oslashacute" unicode="&#x1fe;" 
d="M-45 188l77.999 83.999c-23.333 56 -40.166 115.833 -50.499 179.5s-15.5 130.167 -15.5 199.5c0 87.333 8.83301 171.666 26.5 252.999s46.667 153.333 87 216s92.333 112.834 156 150.501s140.5 56.5 230.5 56.5c87.333 0 162 -17.667 224 -53s113 -83.333 153 -144
l135 146v-160l-82 -86c23.333 -56 40.833 -115.667 52.5 -179s17.5 -130 17.5 -200c0 -87.333 -9 -171.666 -27 -252.999s-46.667 -153 -86 -215s-90.833 -111.833 -154.5 -149.5s-141.167 -56.5 -232.5 -56.5c-90 0 -165.833 17.167 -227.5 51.5
s-112.167 81.5 -151.5 141.5l-133 -141v159zM828.999 650.999c0 100 -11.332 190.334 -33.999 271.001l-615 -654c27.333 -52 64.166 -94 110.499 -126s105.166 -48 176.499 -48c70.667 0 129.334 16.833 176.001 50.5s84 77 112 130s47.333 112.667 58 179
s16 132.166 16 197.499zM104 651c0 -46 2.49902 -92 7.49902 -138s13.5 -90 25.5 -132l613 651c-32 57.333 -71.5 101.333 -118.5 132s-101.833 46 -164.5 46c-71.333 0 -130.166 -16.667 -176.499 -50s-83.5 -77 -111.5 -131s-47.5 -114 -58.5 -180s-16.5 -132 -16.5 -198z
M710.999 1630l-432 -243l-37 65l403 287z" />
    <glyph glyph-name="oslashacute" unicode="&#x1ff;" 
d="M-43 119l92 73.999c-46 77.333 -69 167.333 -69 270c0 70.667 11.5 136.5 34.5 197.5s56 113 99 156s94.5 76.667 154.5 101s126.333 36.5 199 36.5c75.333 0 143 -12.5 203 -37.5s111.667 -60.167 155 -105.5l152 121v-119l-94 -76c48.667 -80.667 73 -172 73 -274
c0 -72.667 -11.5 -138.667 -34.5 -198s-56 -110.166 -99 -152.499s-94.5 -75.5 -154.5 -99.5s-127 -36 -201 -36c-75.333 0 -143.333 12.333 -204 37s-113 59.667 -157 105l-149 -119v119zM819 462.999c0 70.667 -14.335 133.999 -43.002 189.999l-567 -452
c31.333 -32.667 68.166 -58.667 110.499 -78s91.5 -29 147.5 -29c54.667 0 103.834 9.33301 147.501 28s80.834 44.334 111.501 77.001s53.834 71.5 69.501 116.5s23.5 94.167 23.5 147.5zM116.998 462.998c0 -71.333 13.001 -132.667 39.001 -184l569 452
c-31.333 32.667 -68.5 58.667 -111.5 78s-91.833 29 -146.5 29s-103.834 -9.66699 -147.501 -29s-80.5 -46 -110.5 -80s-52.833 -73.5 -68.5 -118.5s-23.5 -94.167 -23.5 -147.5zM710.999 1257l-432 -243l-37 65l403 287z" />
    <glyph glyph-name="Scommaaccent" unicode="&#x218;" 
d="M899 340c0 -54.667 -11.3438 -104.162 -34.0107 -148.495s-53 -82.5 -91 -114.5s-81.667 -56.667 -131 -74s-100.666 -26 -153.999 -26c-73.333 0 -140.666 13.667 -201.999 41s-110 67.666 -146 120.999v-139h-116v397h116c0 -44.667 10.333 -85.5 31 -122.5
s47 -68.833 79 -95.5s68.833 -47.5 110.5 -62.5s84.167 -22.5 127.5 -22.5c38.667 0 74.334 5.5 107.001 16.5s61.334 26.667 86.001 47s44.167 45.166 58.5 74.499s21.5 62.666 21.5 99.999c0 42 -9.16699 78 -27.5 108s-43 55.667 -74 77s-65.833 39.5 -104.5 54.5
l-118 44.5l-142 52.5c-47.333 18.333 -89.666 41.5 -126.999 69.5s-67.666 62.167 -90.999 102.5s-35 90.5 -35 150.5c0 53.333 11.333 100.833 34 142.5s52.334 76.834 89.001 105.501s79.334 50.5 128.001 65.5s98.667 22.5 150 22.5c63.333 0 121.833 -13 175.5 -39
s95.5 -65.667 125.5 -119v136h121v-373h-121c0 39.333 -8.16699 76.166 -24.5 110.499s-38.5 63.666 -66.5 87.999s-60 43.666 -96 57.999s-74 21.5 -114 21.5c-35.333 0 -69 -4 -101 -12s-60 -20.833 -84 -38.5s-43.167 -40.5 -57.5 -68.5s-21.5 -61.333 -21.5 -100
c0 -34 8.5 -63 25.5 -87s39.833 -45.167 68.5 -63.5s61.834 -35 99.501 -50l115.5 -45.5c49.333 -17.333 98.333 -36.666 147 -57.999s92.334 -47 131.001 -77s70.334 -66.833 95.001 -110.5s37 -96.834 37 -159.501zM609.989 -103.995l-172 -269h-127l84 269h215z" />
    <glyph glyph-name="scommaaccent" unicode="&#x219;" 
d="M907 258c0 -54.667 -13.6699 -100.002 -41.0029 -136.002s-62.5 -64.667 -105.5 -86s-91 -36.5 -144 -45.5s-104.833 -13.5 -155.5 -13.5c-84.667 0 -169 12.333 -253 37s-156.667 57 -218 97l61 118c68.667 -43.333 136.334 -76.666 203.001 -99.999
s135.667 -35 207 -35c206 0 309 53.333 309 160c0 26 -8.5 47.167 -25.5 63.5s-39.833 29.666 -68.5 39.999s-61.5 18.5 -98.5 24.5s-75.833 11.667 -116.5 17c-52 7.33301 -103.667 16 -155 26s-98.166 25 -140.499 45s-76.333 46.667 -102 80s-38.5 77.333 -38.5 132
c0 46.667 11.833 87 35.5 121s55.334 62.333 95.001 85s86.167 39.334 139.5 50.001s108.666 16 165.999 16c82 0 155.333 -9.5 220 -28.5s123 -46.167 175 -81.5l-55 -107c-53.333 37.333 -107.333 63.5 -162 78.5s-114 22.5 -178 22.5c-28.667 0 -60.5 -2.5 -95.5 -7.5
s-67.5 -13.667 -97.5 -26s-55.167 -28.333 -75.5 -48s-30.5 -44.5 -30.5 -74.5c0 -26 8.5 -46.833 25.5 -62.5s39.833 -28.667 68.5 -39s61.5 -18.5 98.5 -24.5s75.833 -11.667 116.5 -17c50.667 -7.33301 101.834 -16 153.501 -26s98.667 -24.667 141 -44
s76.5 -45.666 102.5 -78.999s39 -77.333 39 -132zM609.997 -104.002l-172 -269h-127l84 269h215z" />
    <glyph glyph-name="uni021A" unicode="&#x21a;" 
d="M932 864h-117v324h-280v-1071h210v-117h-559v117h211v1071h-280v-324h-117v441h932v-441zM610 -104l-172 -269h-127l84 269h215z" />
    <glyph glyph-name="uni021B" unicode="&#x21b;" 
d="M942 297c-10.667 -98 -49.1689 -175.832 -115.502 -233.499s-149.166 -86.5 -248.499 -86.5c-54.667 0 -104.667 9 -150 27s-84 43 -116 75s-56.833 70.5 -74.5 115.5s-26.5 94.167 -26.5 147.5v473h-211v117h211v373h137v-373h397v-117h-397v-473
c0 -34 5.5 -66 16.5 -96s26.333 -56.333 46 -79s43.5 -40.5 71.5 -53.5s60 -19.5 96 -19.5c68 0 124.833 21.167 170.5 63.5s71.834 97.166 78.501 164.499zM609.998 -103.999l-172 -269h-127l84 269h215z" />
    <glyph glyph-name="circumflex" unicode="&#x2c6;" 
d="M764 1081l-53 -67l-242 205l-246 -207l-53 65l297 291z" />
    <glyph glyph-name="caron" unicode="&#x2c7;" 
d="M764 1296l-297 -284l-297 288l53 68l246 -207l242 203z" />
    <glyph glyph-name="breve" unicode="&#x2d8;" 
d="M752 1210c-78 -77.333 -173 -116 -285 -116s-207 38.667 -285 116l78 76c62.667 -62.667 131.667 -94 207 -94s144.333 31.333 207 94z" />
    <glyph glyph-name="dotaccent" unicode="&#x2d9;" 
d="M559 1118h-186v187h186v-187z" />
    <glyph glyph-name="ring" unicode="&#x2da;" 
d="M242 1257c0 32 5.66699 61.5 17 88.5s27.333 50.833 48 71.5s44.667 36.834 72 48.501s56.666 17.5 87.999 17.5s60.666 -5.83301 87.999 -17.5s51.166 -27.834 71.499 -48.501s36.333 -44.5 48 -71.5s17.5 -56.5 17.5 -88.5c0 -31.333 -5.83301 -60.666 -17.5 -87.999
s-27.667 -51.166 -48 -71.499s-44.166 -36.333 -71.499 -48s-56.666 -17.5 -87.999 -17.5s-60.666 5.83301 -87.999 17.5s-51.333 27.667 -72 48s-36.667 44.166 -48 71.499s-17 56.666 -17 87.999zM332 1257c0 -36.667 13.333 -68.334 40 -95.001s58.334 -40 95.001 -40
s68.334 13.333 95.001 40s40 58.334 40 95.001c0 37.333 -13.333 69.333 -40 96s-58.334 40 -95.001 40s-68.334 -13.333 -95.001 -40s-40 -58.667 -40 -96z" />
    <glyph glyph-name="ogonek" unicode="&#x2db;" 
d="M1020 -379c-83.333 0 -148.832 20.832 -196.499 62.499s-71.5 96.5 -71.5 164.5c0 42.667 8.83301 79.334 26.5 110.001s39.5 57.667 65.5 81l37 -39c-33.333 -30 -50 -70.333 -50 -121c0 -48 18.167 -88 54.5 -120s81.166 -48 134.499 -48v-90z" />
    <glyph glyph-name="tilde" unicode="&#x2dc;" 
d="M846 1229c-60 -105.333 -142 -158 -246 -158c-38 0 -69 6.16699 -93 18.5s-45.167 25.666 -63.5 39.999s-36.5 27.666 -54.5 39.999s-39.667 18.5 -65 18.5c-68.667 0 -124 -37 -166 -111l-80 47c61.333 104 143.333 156 246 156c38 0 69 -6.16699 93 -18.5
s45.167 -25.666 63.5 -39.999s36.333 -27.666 54 -39.999s39.5 -18.5 65.5 -18.5c68 0 123.333 37.667 166 113z" />
    <glyph glyph-name="hungarumlaut" unicode="&#x2dd;" 
d="M682 1024h-141l141 375h186zM309 1024h-139l139 375h187z" />
    <glyph glyph-name="tonos" unicode="&#x384;" 
d="M582 1583l-84 -465h-101v465h185z" />
    <glyph glyph-name="dieresistonos" unicode="&#x385;" 
d="M582 1583l-84 -465h-101v465h185zM932 1118h-187v187h187v-187zM186 1118h-186v187h186v-187z" />
    <glyph glyph-name="Alphatonos" unicode="&#x386;" 
d="M995 0h-147l-123 373h-516l-121 -373h-147l434 1305h186zM686 494l-219 673l-219 -673h438zM210 1583l-84 -465h-101v465h185z" />
    <glyph glyph-name="Epsilontonos" unicode="&#x388;" 
d="M883 0h-834v1305h834v-117h-697v-467h514v-117h-514v-487h697v-117zM24 1583l-84 -465h-101v465h185z" />
    <glyph glyph-name="Etatonos" unicode="&#x389;" 
d="M24 1583l-84 -465h-101v465h185zM883 0h-138v604h-559v-604h-137v1305h137v-584h559v584h138v-1305z" />
    <glyph glyph-name="Iotatonos" unicode="&#x38a;" 
d="M208 1583l-84 -465h-101v465h185zM745 0h-559v117h211v1071h-211v117h559v-117h-210v-1071h210v-117z" />
    <glyph glyph-name="Omicrontonos" unicode="&#x38c;" 
d="M967 651c0 -87.333 -8.99805 -171.666 -26.998 -252.999s-46.667 -153 -86 -215s-90.833 -111.833 -154.5 -149.5s-141.167 -56.5 -232.5 -56.5s-168.833 18.833 -232.5 56.5s-115.334 87.5 -155.001 149.5s-68.334 133.667 -86.001 215s-26.5 165.666 -26.5 252.999
s8.83301 171.666 26.5 252.999s46.667 153.333 87 216s92.333 112.834 156 150.501s140.5 56.5 230.5 56.5s166.833 -18.833 230.5 -56.5s115.167 -87.834 154.5 -150.501s68.333 -134.667 87 -216s28 -165.666 28 -252.999zM829.002 651
c0 86 -8.16797 163.499 -24.501 232.499s-39.833 127.833 -70.5 176.5s-68.5 85.834 -113.5 111.501s-96.167 38.5 -153.5 38.5c-71.333 0 -130.166 -16.667 -176.499 -50s-83.5 -77 -111.5 -131s-47.5 -114 -58.5 -180s-16.5 -132 -16.5 -198
c0 -65.333 5.5 -131.166 16.5 -197.499s30.5 -126 58.5 -179s65.167 -96.333 111.5 -130s105.166 -50.5 176.499 -50.5c70.667 0 129.334 16.833 176.001 50.5s84 77 112 130s47.333 112.667 58 179s16 132.166 16 197.499zM20.001 1583l-84 -465h-101v465h185z" />
    <glyph glyph-name="Upsilontonos" unicode="&#x38e;" 
d="M952 1188h-106l-311 -625v-446h210v-117h-559v117h211v446l-311 625h-106v117h368v-117h-108l227 -492l225 492h-108v117h368v-117zM20 1583l-84 -465h-101v465h185z" />
    <glyph glyph-name="Omegatonos" unicode="&#x38f;" 
d="M956 741c0 -96.667 -18.332 -190.333 -54.999 -281s-96.667 -167 -180 -229v-114h211v-117h-348v291c44.667 17.333 82 43.166 112 77.499s54.333 72 73 113s31.667 84 39 129s11 88.5 11 130.5c0 54.667 -6.5 110 -19.5 166s-33.833 106.833 -62.5 152.5
s-65.167 82.834 -109.5 111.501s-97.833 43 -160.5 43c-60 0 -112.167 -14.333 -156.5 -43s-80.833 -65.834 -109.5 -111.501s-49.834 -96.5 -63.501 -152.5s-20.5 -111.333 -20.5 -166c0 -42 3.66699 -85.5 11 -130.5s20 -88 38 -129s41.667 -78.667 71 -113
s66.333 -60.166 111 -77.499v-291h-348v117h211v114c-80.667 57.333 -139.334 131.833 -176.001 223.5s-55 187.167 -55 286.5c0 75.333 10.5 148.5 31.5 219.5s52 133.5 93 187.5s91.833 97.333 152.5 130s130.667 49 210 49s149.333 -16.333 210 -49
s111.834 -76 153.501 -130s73 -116.5 94 -187.5s31.5 -144.167 31.5 -219.5zM20.001 1583l-84 -465h-101v465h185z" />
    <glyph glyph-name="iotadieresistonos" unicode="&#x390;" 
d="M745 2c-14.667 -8 -31.5 -14.167 -50.5 -18.5s-42.833 -6.5 -71.5 -6.5c-30 0 -58.667 5.16699 -86 15.5s-51.333 25.166 -72 44.499s-37.167 43.333 -49.5 72s-18.5 61.334 -18.5 98.001v604h-211v121h349v-725c0 -75.333 35.333 -113 106 -113
c32.667 0 58 5.66699 76 17zM582 1583l-84 -465h-101v465h185zM932 1118h-187v187h187v-187zM186 1118h-186v187h186v-187z" />
    <glyph glyph-name="Alpha" unicode="&#x391;" 
d="M995 0h-147l-123 373h-516l-121 -373h-147l434 1305h186zM686 494l-219 673l-219 -673h438z" />
    <glyph glyph-name="Beta" unicode="&#x392;" 
d="M930 373c0 -124.667 -40.334 -217.998 -121.001 -279.998s-195.334 -93 -344.001 -93h-416v1305h393c54.667 0 108.334 -4.5 161.001 -13.5s99.834 -25.833 141.501 -50.5s75.5 -58.834 101.5 -102.501s39 -100.834 39 -171.501
c0 -135.333 -67.667 -227.666 -203 -276.999c165.333 -50.667 248 -156.334 248 -317.001zM747.999 967.002c0 46 -9.66797 83.665 -29.001 112.998s-44 51.833 -74 67.5s-63 26.334 -99 32.001s-70.667 8.5 -104 8.5h-256v-443h256c37.333 0 74 2.83301 110 8.5
s68.333 16.667 97 33s52.334 38.833 71.001 67.5s28 66.334 28 113.001zM792.998 373c0 90 -29.167 155.5 -87.5 196.5s-138.5 61.5 -240.5 61.5h-279v-514h279c102 0 182.167 21.5 240.5 64.5s87.5 106.833 87.5 191.5z" />
    <glyph glyph-name="Gamma" unicode="&#x393;" 
d="M49 1305h883v-117h-746v-1188h-137v1305z" />
    <glyph glyph-name="uni0394" unicode="&#x394;" 
d="M995 0h-1054l434 1305h186zM809 117l-342 1048l-342 -1048h684z" />
    <glyph glyph-name="Epsilon" unicode="&#x395;" 
d="M883 0h-834v1305h834v-117h-697v-467h514v-117h-514v-487h697v-117z" />
    <glyph glyph-name="Zeta" unicode="&#x396;" 
d="M887 0h-838v117l656 1071h-539v-320h-117v437h817v-117l-649 -1071h553v325h117v-442z" />
    <glyph glyph-name="Eta" unicode="&#x397;" 
d="M883 0h-138v604h-559v-604h-137v1305h137v-584h559v584h138v-1305z" />
    <glyph glyph-name="Theta" unicode="&#x398;" 
d="M229 711h471v-117h-471v117zM967 651c0 -87.333 -8.99805 -171.666 -26.998 -252.999s-46.667 -153 -86 -215s-90.833 -111.833 -154.5 -149.5s-141.167 -56.5 -232.5 -56.5s-168.833 18.833 -232.5 56.5s-115.334 87.5 -155.001 149.5s-68.334 133.667 -86.001 215
s-26.5 165.666 -26.5 252.999s8.83301 171.666 26.5 252.999s46.667 153.333 87 216s92.333 112.834 156 150.501s140.5 56.5 230.5 56.5s166.833 -18.833 230.5 -56.5s115.167 -87.834 154.5 -150.501s68.333 -134.667 87 -216s28 -165.666 28 -252.999zM829.002 651
c0 86 -8.16797 163.499 -24.501 232.499s-39.833 127.833 -70.5 176.5s-68.5 85.834 -113.5 111.501s-96.167 38.5 -153.5 38.5c-71.333 0 -130.166 -16.667 -176.499 -50s-83.5 -77 -111.5 -131s-47.5 -114 -58.5 -180s-16.5 -132 -16.5 -198
c0 -65.333 5.5 -131.166 16.5 -197.499s30.5 -126 58.5 -179s65.167 -96.333 111.5 -130s105.166 -50.5 176.499 -50.5c70.667 0 129.334 16.833 176.001 50.5s84 77 112 130s47.333 112.667 58 179s16 132.166 16 197.499z" />
    <glyph glyph-name="Iota" unicode="&#x399;" 
d="M745 0h-559v117h211v1071h-211v117h559v-117h-210v-1071h210v-117z" />
    <glyph glyph-name="Kappa" unicode="&#x39a;" 
d="M926 0h-168l-434 639l-138 -154v-485h-137v1305h137v-635l559 635h181l-512 -570z" />
    <glyph glyph-name="Lambda" unicode="&#x39b;" 
d="M848 0l-381 1165l-379 -1165h-147l434 1305h186l434 -1305h-147z" />
    <glyph glyph-name="Mu" unicode="&#x39c;" 
d="M883 0h-138v1087l-231 -673h-98l-230 673v-1087h-137v1305h178l238 -682l240 682h178v-1305z" />
    <glyph glyph-name="Nu" unicode="&#x39d;" 
d="M883 0h-170l-527 1104v-1104h-137v1305h193l503 -1053v1053h138v-1305z" />
    <glyph glyph-name="Xi" unicode="&#x39e;" 
d="M0 301h121v-184h690v184h121v-301h-932v301zM811 1188h-690v-187h-121v304h932v-304h-121v187zM229 711h471v-117h-471v117z" />
    <glyph glyph-name="Omicron" unicode="&#x39f;" 
d="M967 651c0 -87.333 -8.99805 -171.666 -26.998 -252.999s-46.667 -153 -86 -215s-90.833 -111.833 -154.5 -149.5s-141.167 -56.5 -232.5 -56.5s-168.833 18.833 -232.5 56.5s-115.334 87.5 -155.001 149.5s-68.334 133.667 -86.001 215s-26.5 165.666 -26.5 252.999
s8.83301 171.666 26.5 252.999s46.667 153.333 87 216s92.333 112.834 156 150.501s140.5 56.5 230.5 56.5s166.833 -18.833 230.5 -56.5s115.167 -87.834 154.5 -150.501s68.333 -134.667 87 -216s28 -165.666 28 -252.999zM829.002 651
c0 86 -8.16797 163.499 -24.501 232.499s-39.833 127.833 -70.5 176.5s-68.5 85.834 -113.5 111.501s-96.167 38.5 -153.5 38.5c-71.333 0 -130.166 -16.667 -176.499 -50s-83.5 -77 -111.5 -131s-47.5 -114 -58.5 -180s-16.5 -132 -16.5 -198
c0 -65.333 5.5 -131.166 16.5 -197.499s30.5 -126 58.5 -179s65.167 -96.333 111.5 -130s105.166 -50.5 176.499 -50.5c70.667 0 129.334 16.833 176.001 50.5s84 77 112 130s47.333 112.667 58 179s16 132.166 16 197.499z" />
    <glyph glyph-name="Pi" unicode="&#x3a0;" 
d="M883 0h-138v1188h-559v-1188h-137v1305h834v-1305z" />
    <glyph glyph-name="Rho" unicode="&#x3a1;" 
d="M930 932c0 -126 -39.333 -219.667 -118 -281s-189 -92 -331 -92h-295v-559h-137v1305h430c143.333 0 254.333 -31.167 333 -93.5s118 -155.5 118 -279.5zM793 932c0 90 -28.333 155.167 -85 195.5s-132.334 60.5 -227.001 60.5h-295v-512h295
c94.667 0 170.334 20.167 227.001 60.5s85 105.5 85 195.5z" />
    <glyph glyph-name="Sigma" unicode="&#x3a3;" 
d="M883 0h-840v117l328 536l-328 535v117h840v-441h-121v324h-555l325 -535l-325 -536h555v325h121v-442z" />
    <glyph glyph-name="Tau" unicode="&#x3a4;" 
d="M932 864h-117v324h-280v-1071h210v-117h-559v117h211v1071h-280v-324h-117v441h932v-441z" />
    <glyph glyph-name="Upsilon" unicode="&#x3a5;" 
d="M952 1188h-106l-311 -625v-446h210v-117h-559v117h211v446l-311 625h-106v117h368v-117h-108l227 -492l225 492h-108v117h368v-117z" />
    <glyph glyph-name="Phi" unicode="&#x3a6;" 
d="M956 655c0 -65.333 -10.167 -126.002 -30.5 -182.002s-49 -105.167 -86 -147.5s-81.333 -76.833 -133 -103.5s-108.834 -43.334 -171.501 -50.001v-172h-138v174c-62.667 6.66699 -119.5 23.334 -170.5 50.001s-95 60.834 -132 102.501s-65.333 90.5 -85 146.5
s-29.5 116.667 -29.5 182c0 66 9.83301 127 29.5 183s48 105.5 85 148.5s81 77.667 132 104s107.833 43.833 170.5 52.5v162h138v-162c62.667 -6.66699 119.834 -23.667 171.501 -51s96 -62.166 133 -104.499s65.667 -91.833 86 -148.5s30.5 -118 30.5 -184zM819 654.998
c0 46.667 -6.49805 90.832 -19.498 132.499s-31.333 78.834 -55 111.501s-53.334 59.667 -89.001 81s-75.834 36 -120.501 44v-731c90 14.667 159.833 55.167 209.5 121.5s74.5 146.5 74.5 240.5zM117.002 654.996c0 -94 24.167 -174.166 72.5 -240.499
s117.5 -106.833 207.5 -121.5v731c-44.667 -8 -84.5 -23 -119.5 -45s-64.333 -49 -88 -81s-41.667 -68.833 -54 -110.5s-18.5 -85.834 -18.5 -132.501z" />
    <glyph glyph-name="Chi" unicode="&#x3a7;" 
d="M954 0h-370v117h88l-205 428l-207 -428h88v-117h-371v117h127l283 540l-278 531h-109v117h373v-117h-109l203 -418l197 418h-105v117h373v-117h-113l-272 -531l280 -540h127v-117z" />
    <glyph glyph-name="Psi" unicode="&#x3a8;" 
d="M883 807c0 -136.667 -28 -247.667 -84 -333s-144 -135.333 -264 -150v-324h-138v324c-121.333 14.667 -209.666 65 -264.999 151s-83 197.333 -83 334v496h137v-498c0 -35.333 2.83301 -72.5 8.5 -111.5s16 -75.5 31 -109.5s36.167 -64 63.5 -90s63.333 -44 108 -54v863
h138v-863c43.333 10 78.666 28 105.999 54s48.833 56 64.5 90s26.167 70.5 31.5 109.5s8 76.167 8 111.5v498h138v-498z" />
    <glyph glyph-name="uni03A9" unicode="&#x3a9;" 
d="M956 741c0 -96.667 -18.332 -190.333 -54.999 -281s-96.667 -167 -180 -229v-114h211v-117h-348v291c44.667 17.333 82 43.166 112 77.499s54.333 72 73 113s31.667 84 39 129s11 88.5 11 130.5c0 54.667 -6.5 110 -19.5 166s-33.833 106.833 -62.5 152.5
s-65.167 82.834 -109.5 111.501s-97.833 43 -160.5 43c-60 0 -112.167 -14.333 -156.5 -43s-80.833 -65.834 -109.5 -111.501s-49.834 -96.5 -63.501 -152.5s-20.5 -111.333 -20.5 -166c0 -42 3.66699 -85.5 11 -130.5s20 -88 38 -129s41.667 -78.667 71 -113
s66.333 -60.166 111 -77.499v-291h-348v117h211v114c-80.667 57.333 -139.334 131.833 -176.001 223.5s-55 187.167 -55 286.5c0 75.333 10.5 148.5 31.5 219.5s52 133.5 93 187.5s91.833 97.333 152.5 130s130.667 49 210 49s149.333 -16.333 210 -49
s111.834 -76 153.501 -130s73 -116.5 94 -187.5s31.5 -144.167 31.5 -219.5z" />
    <glyph glyph-name="Iotadieresis" unicode="&#x3aa;" 
d="M745 0h-559v117h211v1071h-211v117h559v-117h-210v-1071h210v-117zM745 1491h-186v187h186v-187zM373 1491h-187v187h187v-187z" />
    <glyph glyph-name="Upsilondieresis" unicode="&#x3ab;" 
d="M745 1491h-186v187h186v-187zM373 1491h-187v187h187v-187zM952 1188h-106l-311 -625v-446h210v-117h-559v117h211v446l-311 625h-106v117h368v-117h-108l227 -492l225 492h-108v117h368v-117z" />
    <glyph glyph-name="alphatonos" unicode="&#x3ac;" 
d="M139 467c0 -42.667 4.5 -85.8311 13.5 -129.498s23.333 -83.5 43 -119.5s45.667 -65.667 78 -89s70.833 -35 115.5 -35c40 0 75.333 11.667 106 35s57.834 52.666 81.501 87.999s44.167 75.166 61.5 119.499s32.666 87.833 45.999 130.5
c-13.333 42 -28.666 85 -45.999 129s-37.833 83.667 -61.5 119s-50.834 64.666 -81.501 87.999s-66 35 -106 35c-44.667 0 -83.167 -11.667 -115.5 -35s-58.333 -52.666 -78 -87.999s-34 -75 -43 -119s-13.5 -87 -13.5 -129zM2 467.003c0 62.667 7.5 123.332 22.5 181.999
s38.5 110.5 70.5 155.5s72.333 81.167 121 108.5s106.334 41 173.001 41c82 0 153.333 -25.833 214 -77.5s104.667 -123.167 132 -214.5l56 270h147l-131 -465l131 -467h-147l-56 270c-27.333 -91.333 -71.333 -163 -132 -215s-132 -78 -214 -78
c-66.667 0 -124.334 13.667 -173.001 41s-89 64 -121 110s-55.5 98.333 -70.5 157s-22.5 119.334 -22.5 182.001zM582 1583l-84 -465h-101v465h185z" />
    <glyph glyph-name="epsilontonos" unicode="&#x3ad;" 
d="M12 676c0 42 10.998 80.4951 32.998 115.495s52.833 64.333 92.5 88s86.334 42 140.001 55s112.834 19.5 177.501 19.5c102 0 186.5 -16.667 253.5 -50s120.833 -83.333 161.5 -150l-102 -70c-27.333 46.667 -66.666 84 -117.999 112s-116.333 42 -195 42
c-94.667 0 -169.167 -14.667 -223.5 -44s-81.5 -68.666 -81.5 -117.999c0 -16.667 5 -33.5 15 -50.5s25.667 -32.333 47 -46s48.333 -25 81 -34s71 -13.5 115 -13.5h206v-116h-206c-45.333 0 -84.666 -4.5 -117.999 -13.5s-61.333 -20.667 -84 -35
s-39.834 -30.666 -51.501 -48.999s-17.5 -36.5 -17.5 -54.5c0 -53.333 30.333 -95 91 -125s140.334 -45 239.001 -45c82 0 150.333 12.667 205 38s97.667 62 129 110l96 -66c-42 -66.667 -97.5 -116.5 -166.5 -149.5s-156.833 -49.5 -263.5 -49.5
c-66.667 0 -128.334 6.5 -185.001 19.5s-105.834 31.833 -147.501 56.5s-74.5 54.834 -98.5 90.501s-36 75.834 -36 120.501c-0 48 18.833 91.833 56.5 131.5s87.167 65.5 148.5 77.5c-66 10.667 -114.667 35.834 -146 75.501s-47 82.167 -47 127.5zM581.998 1583l-84 -465
h-101v465h185z" />
    <glyph glyph-name="etatonos" unicode="&#x3ae;" 
d="M303 774c20.667 52 52.834 94.9961 96.501 128.996s100.167 51 169.5 51c102.667 0 180.667 -30.667 234 -92s80 -156 80 -284v-951h-138v951c0 77.333 -14.333 140 -43 188s-73 72 -133 72c-69.333 0 -127.5 -26.667 -174.5 -80s-70.5 -128.666 -70.5 -225.999v-532
h-138v748c0 28.667 -7.5 50.834 -22.5 66.501s-34.167 23.5 -57.5 23.5c-22.667 0 -45 -5 -67 -15l-27 107c14 6.66699 30.5 12.334 49.5 17.001s38.167 7 57.5 7c47.333 0 89.166 -14.667 125.499 -44s55.833 -74.666 58.5 -135.999zM582 1583l-84 -465h-101v465h185z" />
    <glyph glyph-name="iotatonos" unicode="&#x3af;" 
d="M745 2c-14.667 -8 -31.5 -14.167 -50.5 -18.5s-42.833 -6.5 -71.5 -6.5c-30 0 -58.667 5.16699 -86 15.5s-51.333 25.166 -72 44.499s-37.167 43.333 -49.5 72s-18.5 61.334 -18.5 98.001v604h-211v121h349v-725c0 -75.333 35.333 -113 106 -113
c32.667 0 58 5.66699 76 17zM582 1583l-84 -465h-101v465h185z" />
    <glyph glyph-name="upsilondieresistonos" unicode="&#x3b0;" 
d="M467 -23c-62.667 0 -119.663 8.00391 -170.996 24.0039s-95.333 40 -132 72s-65 71.5 -85 118.5s-30 102.5 -30 166.5v574h137v-574c0 -40.667 7.5 -77.334 22.5 -110.001s35.167 -60.334 60.5 -83.001s55.166 -39.834 89.499 -51.501s70.5 -17.5 108.5 -17.5
c61.333 0 112.833 13 154.5 39s75.167 59.5 100.5 100.5s43.833 86 55.5 135s17.5 96.167 17.5 141.5c0 69.333 -6.16699 135.5 -18.5 198.5s-32.833 125.167 -61.5 186.5l133 53c27.333 -64 48.166 -132.5 62.499 -205.5s21.5 -150.5 21.5 -232.5
c0 -62.667 -8.83301 -125.834 -26.5 -189.501s-45.334 -121 -83.001 -172s-85.834 -92.667 -144.501 -125s-129 -48.5 -211 -48.5zM582.004 1583l-84 -465h-101v465h185zM932.004 1118h-187v187h187v-187zM186.004 1118h-186v187h186v-187z" />
    <glyph glyph-name="alpha" unicode="&#x3b1;" 
d="M139 467c0 -42.667 4.5 -85.8311 13.5 -129.498s23.333 -83.5 43 -119.5s45.667 -65.667 78 -89s70.833 -35 115.5 -35c40 0 75.333 11.667 106 35s57.834 52.666 81.501 87.999s44.167 75.166 61.5 119.499s32.666 87.833 45.999 130.5
c-13.333 42 -28.666 85 -45.999 129s-37.833 83.667 -61.5 119s-50.834 64.666 -81.501 87.999s-66 35 -106 35c-44.667 0 -83.167 -11.667 -115.5 -35s-58.333 -52.666 -78 -87.999s-34 -75 -43 -119s-13.5 -87 -13.5 -129zM2 467.003c0 62.667 7.5 123.332 22.5 181.999
s38.5 110.5 70.5 155.5s72.333 81.167 121 108.5s106.334 41 173.001 41c82 0 153.333 -25.833 214 -77.5s104.667 -123.167 132 -214.5l56 270h147l-131 -465l131 -467h-147l-56 270c-27.333 -91.333 -71.333 -163 -132 -215s-132 -78 -214 -78
c-66.667 0 -124.334 13.667 -173.001 41s-89 64 -121 110s-55.5 98.333 -70.5 157s-22.5 119.334 -22.5 182.001z" />
    <glyph glyph-name="beta" unicode="&#x3b2;" 
d="M494 -23c-66 0 -123.169 7.99902 -171.502 23.999s-93.833 40.333 -136.5 73v-447h-137v1311c0 56 11 107.833 33 155.5s51.667 89 89 124s82 62 134 81s108 28.5 168 28.5c64 0 121.333 -9.83301 172 -29.5s93.334 -45.167 128.001 -76.5s61.334 -67.833 80.001 -109.5
s28 -83.834 28 -126.501c0 -69.333 -19.5 -130.666 -58.5 -183.999s-94.833 -92.333 -167.5 -117c88.667 -27.333 157.667 -68.666 207 -123.999s74 -124 74 -206c0 -54.667 -11 -104.834 -33 -150.501s-52.333 -85.167 -91 -118.5s-85 -59.666 -139 -78.999
s-113.667 -29 -179 -29zM493.998 93.999c95.333 0 170 23.999 224 71.999s81 110.667 81 188c0 78 -28.333 141.5 -85 190.5s-140.334 73.5 -251.001 73.5h-90v117h90c96.667 0 167.5 23.667 212.5 71s67.5 107 67.5 179c0 24.667 -5 50.334 -15 77.001
s-25.667 50.834 -47 72.501s-49 39.667 -83 54s-75.667 21.5 -125 21.5c-35.333 0 -70.166 -5.33301 -104.499 -16s-65 -27.334 -92 -50.001s-48.833 -51 -65.5 -85s-25 -74.333 -25 -121v-723c40 -43.333 84.5 -74.333 133.5 -93s107.167 -28 174.5 -28z" />
    <glyph glyph-name="gamma" unicode="&#x3b3;" 
d="M891 932c-11.333 -79.333 -26.498 -161.336 -45.498 -246.003s-42.833 -169 -71.5 -253s-62.834 -166.167 -102.501 -246.5s-85.167 -156.166 -136.5 -227.499v-332h-138v330l-397 975h158l317 -844c79.333 132.667 142.166 270.334 188.499 413.001
s75.833 286.334 88.5 431.001h139z" />
    <glyph glyph-name="delta" unicode="&#x3b4;" 
d="M334 1092c0 -27.333 13.667 -53.668 41 -79.001s61.5 -51.666 102.5 -78.999l134 -90c48.333 -32.667 93 -70.167 134 -112.5s75.167 -90.166 102.5 -143.499s41 -114 41 -182c0 -64.667 -10 -122.834 -30 -174.501s-48.333 -96.667 -85 -135
s-81.334 -67.833 -134.001 -88.5s-111.667 -31 -177 -31c-64 0 -122.333 10.333 -175 31s-97.5 50.167 -134.5 88.5s-65.333 83.333 -85 135s-29.5 109.834 -29.5 174.501c0 78.667 27.667 157.667 83 237s139 149.666 251 210.999c-24.667 16.667 -47.667 33.5 -69 50.5
s-39.833 34.667 -55.5 53s-28.167 38.5 -37.5 60.5s-14 46.667 -14 74c0 28.667 6.5 57 19.5 85s32 53.167 57 75.5s55.667 40.333 92 54s77.5 20.5 123.5 20.5c56 0 106 -5.5 150 -16.5s86.333 -30.167 127 -57.5l-61 -98c-32 22 -65.667 36.667 -101 44
s-73.666 11 -114.999 11c-44.667 0 -81.667 -9.83301 -111 -29.5s-44 -49.167 -44 -88.5zM752 405.998c0 76 -24.665 145.501 -73.998 208.501s-118.333 118.167 -207 165.5c-88.667 -47.333 -160 -102.5 -214 -165.5s-81 -133.5 -81 -211.5
c0 -38 5.16699 -75.333 15.5 -112s26.666 -69.834 48.999 -99.501s52 -53.334 89 -71.001s81.5 -26.5 133.5 -26.5s96.333 9.33301 133 28s66.667 42.667 90 72s40.166 62.333 50.499 99s15.5 74.334 15.5 113.001z" />
    <glyph glyph-name="epsilon" unicode="&#x3b5;" 
d="M12 676c0 42 10.998 80.4951 32.998 115.495s52.833 64.333 92.5 88s86.334 42 140.001 55s112.834 19.5 177.501 19.5c102 0 186.5 -16.667 253.5 -50s120.833 -83.333 161.5 -150l-102 -70c-27.333 46.667 -66.666 84 -117.999 112s-116.333 42 -195 42
c-94.667 0 -169.167 -14.667 -223.5 -44s-81.5 -68.666 -81.5 -117.999c0 -16.667 5 -33.5 15 -50.5s25.667 -32.333 47 -46s48.333 -25 81 -34s71 -13.5 115 -13.5h206v-116h-206c-45.333 0 -84.666 -4.5 -117.999 -13.5s-61.333 -20.667 -84 -35
s-39.834 -30.666 -51.501 -48.999s-17.5 -36.5 -17.5 -54.5c0 -53.333 30.333 -95 91 -125s140.334 -45 239.001 -45c82 0 150.333 12.667 205 38s97.667 62 129 110l96 -66c-42 -66.667 -97.5 -116.5 -166.5 -149.5s-156.833 -49.5 -263.5 -49.5
c-66.667 0 -128.334 6.5 -185.001 19.5s-105.834 31.833 -147.501 56.5s-74.5 54.834 -98.5 90.501s-36 75.834 -36 120.501c-0 48 18.833 91.833 56.5 131.5s87.167 65.5 148.5 77.5c-66 10.667 -114.667 35.834 -146 75.501s-47 82.167 -47 127.5z" />
    </font>
</defs>
</svg>
